<svg data-name="Layer 1" id="Layer_1" viewBox="0 0 23 23" xmlns="http://www.w3.org/2000/svg">
  <defs>
    <style>.cls-1 {
      fill: #0a7bba;
    }

    .cls-2 {
      fill: #f2f2f2;
    }</style>
  </defs>
  <title>link</title>
  <path class="cls-1" d="M23,11.5A11.5,11.5,0,1,1,11.5,0,11.5,11.5,0,0,1,23,11.5Zm0,0"/>
  <path class="cls-2"
        d="M18.37,12.42v4.74H15.62V12.74c0-1.11-.4-1.87-1.39-1.87a1.5,1.5,0,0,0-1.41,1,1.86,1.86,0,0,0-.09.67v4.62H10s0-7.49,0-8.27h2.75v1.17l0,0h0v0A2.73,2.73,0,0,1,15.21,8.7c1.81,0,3.16,1.18,3.16,3.72ZM7.1,4.91a1.43,1.43,0,1,0,0,2.86h0a1.43,1.43,0,1,0,0-2.86ZM5.71,17.17H8.46V8.9H5.71Zm0,0"/>
</svg>
