<svg data-name="Layer 1" id="Layer_1" viewBox="0 0 23 23" xmlns="http://www.w3.org/2000/svg">
  <defs>
    <style>.cls-1 {
      fill: #dd4b38;
    }

    .cls-2 {
      fill: #fff;
    }</style>
  </defs>
  <title>link</title>
  <path class="cls-1" d="M11.5,0A11.5,11.5,0,1,1,0,11.5,11.53,11.53,0,0,1,11.5,0Zm0,0"/>
  <path class="cls-2" d="M17.32,9.56v1.29h1.29v1.29H17.32v1.29H16V12.15H14.73V10.85H16V9.56Zm0,0"/>
  <path class="cls-2"
        d="M5.68,14.73a4.62,4.62,0,0,1,.07-6.47,4.43,4.43,0,0,1,4.82-.93l.65.36.72.5L10.78,9.34l-.43-.29A2.74,2.74,0,0,0,7,9.49a3,3,0,0,0,0,4.17,2.78,2.78,0,0,0,4,0,2.29,2.29,0,0,0,.65-1.15v-.14H9.06V10.93h4.1l.07.36v1a4,4,0,0,1-1.08,2.52,4.76,4.76,0,0,1-6.47-.07Zm0,0"/>
</svg>
