<svg data-name="Layer 1" id="Layer_1" viewBox="0 0 23 23" xmlns="http://www.w3.org/2000/svg">
  <defs>
    <style>.cls-1 {
      fill: #2cade3;
    }

    .cls-2 {
      fill: #fff;
    }</style>
  </defs>
  <title>link</title>
  <path class="cls-1"
        d="M22.34,13.94a10.75,10.75,0,0,0,.25-2.32A10.89,10.89,0,0,0,11.62.8,11.22,11.22,0,0,0,9.75,1,6.39,6.39,0,0,0,6.36,0,6.32,6.32,0,0,0,0,6.27,6.19,6.19,0,0,0,.87,9.45,10.65,10.65,0,0,0,11.62,22.26a11.22,11.22,0,0,0,2-.18,6.57,6.57,0,0,0,3,.92A6.32,6.32,0,0,0,23,16.73a6.18,6.18,0,0,0-.66-2.79Zm0,0"/>
  <path class="cls-2"
        d="M16.63,16a4.15,4.15,0,0,1-1.86,1.41,7.45,7.45,0,0,1-2.9.51,7,7,0,0,1-3.32-.7A4.29,4.29,0,0,1,7,15.92a2.89,2.89,0,0,1-.58-1.63,1,1,0,0,1,.35-.79,1.23,1.23,0,0,1,.88-.33,1.09,1.09,0,0,1,.74.26,2,2,0,0,1,.51.76,4.85,4.85,0,0,0,.56,1,2.23,2.23,0,0,0,.85.66,3.4,3.4,0,0,0,1.44.26,3.45,3.45,0,0,0,2-.52,1.55,1.55,0,0,0,.76-1.31,1.32,1.32,0,0,0-.41-1,2.71,2.71,0,0,0-1.07-.59q-.65-.21-1.75-.44a13.6,13.6,0,0,1-2.45-.74A3.93,3.93,0,0,1,7.3,10.35a2.82,2.82,0,0,1-.58-1.81A2.94,2.94,0,0,1,7.34,6.7,3.83,3.83,0,0,1,9.11,5.47,7.8,7.8,0,0,1,11.83,5,7.34,7.34,0,0,1,14,5.32a4.71,4.71,0,0,1,1.51.76,3.22,3.22,0,0,1,.88,1,2.14,2.14,0,0,1,.28,1,1.21,1.21,0,0,1-1.21,1.18,1.06,1.06,0,0,1-.72-.22,2.91,2.91,0,0,1-.53-.71,3.26,3.26,0,0,0-.89-1.1,2.77,2.77,0,0,0-1.67-.4,3.07,3.07,0,0,0-1.72.43,1.23,1.23,0,0,0-.65,1A1,1,0,0,0,9.49,9a1.8,1.8,0,0,0,.61.47,4.44,4.44,0,0,0,.79.31l1.32.32q1.15.25,2.08.55a6.64,6.64,0,0,1,1.58.72,3.08,3.08,0,0,1,1,1.08,3.22,3.22,0,0,1,.37,1.6,3.46,3.46,0,0,1-.63,2Zm0,0"/>
</svg>
