<svg data-name="Layer 1" id="Layer_1" viewBox="0 0 23 23" xmlns="http://www.w3.org/2000/svg">
  <defs>
    <style>.cls-1 {
      fill: #80c56e;
    }</style>
  </defs>
  <title>link</title>
  <path class="cls-1"
        d="M10.94,0A11.41,11.41,0,0,0,1.34,16.59L.13,22.46A.44.44,0,0,0,.66,23l5.76-1.36A11.41,11.41,0,1,0,10.94,0Zm6.87,17.71A8.94,8.94,0,0,1,7.53,19.41l-.8-.4-3.53.84.74-3.61-.4-.77A8.94,8.94,0,0,1,5.19,5.09,8.93,8.93,0,1,1,17.81,17.72Z"/>
  <path class="cls-1"
        d="M17,13.88l-2.21-.63a.82.82,0,0,0-.81.21l-.54.55a.8.8,0,0,1-.87.18,11.79,11.79,0,0,1-3.8-3.36.8.8,0,0,1,.06-.89l.47-.61a.82.82,0,0,0,.1-.84L8.5,6.4a.82.82,0,0,0-1.29-.29A3.72,3.72,0,0,0,5.78,8.3c-.16,1.55.51,3.5,3,5.84,2.9,2.71,5.22,3.06,6.73,2.7a3.72,3.72,0,0,0,2-1.72A.82.82,0,0,0,17,13.88Z"/>
</svg>
