<svg data-name="Layer 1" id="Layer_1" viewBox="0 0 23 23" xmlns="http://www.w3.org/2000/svg">
  <defs>
    <style>.cls-1 {
      fill: #5fa9dd;
    }

    .cls-2 {
      fill: #f2f2f2;
    }</style>
  </defs>
  <title>link</title>
  <path class="cls-1" d="M23,11.5A11.5,11.5,0,1,1,11.5,0,11.5,11.5,0,0,1,23,11.5Zm0,0"/>
  <path class="cls-2"
        d="M18.54,8.26A5.49,5.49,0,0,1,17,8.7a2.76,2.76,0,0,0,1.21-1.52,5.52,5.52,0,0,1-1.75.67,2.75,2.75,0,0,0-4.68,2.51A7.8,7.8,0,0,1,6.08,7.48a2.75,2.75,0,0,0,.85,3.67,2.73,2.73,0,0,1-1.25-.34v0a2.75,2.75,0,0,0,2.2,2.69,2.75,2.75,0,0,1-1.24,0,2.75,2.75,0,0,0,2.57,1.91,5.56,5.56,0,0,1-4.07,1.14,7.82,7.82,0,0,0,12-6.59c0-.12,0-.24,0-.36a5.58,5.58,0,0,0,1.37-1.42Zm0,0"/>
</svg>
