<svg data-name="Layer 1" id="Layer_1" viewBox="0 0 23 23" xmlns="http://www.w3.org/2000/svg">
  <defs>
    <style>.cls-1 {
      fill: #3f81c3;
    }</style>
  </defs>
  <title>link</title>
  <path class="cls-1"
        d="M10.67,13,4.78,9a.51.51,0,0,0-.62,0L.2,12.4a.57.57,0,0,0,0,.9l5.89,4a.51.51,0,0,0,.62,0l4-3.34A.57.57,0,0,0,10.67,13Z"/>
  <path class="cls-1"
        d="M12.28,13.91l4,3.34a.51.51,0,0,0,.62,0l5.89-4a.57.57,0,0,0,0-.9l-4-3.34a.51.51,0,0,0-.62,0l-5.89,4A.57.57,0,0,0,12.28,13.91Z"/>
  <path class="cls-1"
        d="M10.72,3.46,6.75.12a.51.51,0,0,0-.62,0l-5.89,4A.57.57,0,0,0,.2,5l4,3.34a.51.51,0,0,0,.62,0l5.89-4A.57.57,0,0,0,10.72,3.46Z"/>
  <path class="cls-1"
        d="M22.76,4.07l-5.89-4a.51.51,0,0,0-.62,0l-4,3.34a.57.57,0,0,0,0,.9l5.89,4a.51.51,0,0,0,.62,0L22.8,5A.57.57,0,0,0,22.76,4.07Z"/>
  <path class="cls-1"
        d="M11.21,14.49,6.77,18.2a.46.46,0,0,1-.56,0l-1.09-.74a.48.48,0,0,0-.74.42v.4a.51.51,0,0,0,.23.43l6.61,4.19a.46.46,0,0,0,.5,0l6.61-4.19a.51.51,0,0,0,.23-.43V18a.48.48,0,0,0-.74-.42l-1,.69a.46.46,0,0,1-.56,0l-4.42-3.7A.46.46,0,0,0,11.21,14.49Z"/>
</svg>
