<svg data-name="Layer 1" id="Layer_1" viewBox="0 0 23 23" xmlns="http://www.w3.org/2000/svg">
  <defs>
    <style>.cls-1 {
      fill: #5386c5;
    }

    .cls-2 {
      fill: #fff;
    }</style>
  </defs>
  <title>link</title>
  <circle class="cls-1" cx="11.5" cy="11.5" r="11.5"/>
  <path class="cls-2"
        d="M14.1,14.69a.57.57,0,0,1-.26,0H8.07a2.56,2.56,0,0,1-1.46-.38,2,2,0,0,1-.92-1.44,5.7,5.7,0,0,1,0-.78V8.62a.7.7,0,0,1,0-.29c.06-.06.14,0,.21,0,2,0,4.06,0,6.08,0a2.1,2.1,0,0,1,2.14,2,6.36,6.36,0,0,1,0,.72c0,1.14,0,2.27,0,3.41A.42.42,0,0,1,14.1,14.69Z"/>
  <path class="cls-2"
        d="M14.7,12.86V10.13c.7-.57,1.44-1.12,2.17-1.68a.51.51,0,0,1,.27-.11.26.26,0,0,1,.22.29v5.62a1.52,1.52,0,0,1,0,.2.22.22,0,0,1-.34.19.68.68,0,0,1-.17-.11l-2-1.56Z"/>
</svg>
