<svg data-name="Layer 1" id="Layer_1" viewBox="0 0 23 23" xmlns="http://www.w3.org/2000/svg">
  <defs>
    <style>.cls-1 {
      fill: url(#linear-gradient);
    }</style>
    <linearGradient gradientUnits="userSpaceOnUse" id="linear-gradient" x2="23" y1="11.5" y2="11.5">
      <stop offset="0" stop-color="#3950a3"/>
      <stop offset="1" stop-color="#242e63"/>
    </linearGradient>
  </defs>
  <title>link</title>
  <path class="cls-1"
        d="M23,10.74A11.5,11.5,0,0,0,12.26,0V0H10.74V0A11.51,11.51,0,0,0,0,10.74H0v1.53H0A11.5,11.5,0,0,0,10.74,23v0h1.53v0A11.49,11.49,0,0,0,23,12.26h0V10.74ZM7.2,2.51A12,12,0,0,0,5.4,6.13H3.1A10,10,0,0,1,7.2,2.51ZM2.3,7.67H5a18.3,18.3,0,0,0-.38,3.07h-3A10,10,0,0,1,2.3,7.67Zm-.73,4.6h3A18.3,18.3,0,0,0,5,15.33H2.3a10,10,0,0,1-.73-3.07ZM3.1,16.87H5.39A12,12,0,0,0,7.2,20.49a10,10,0,0,1-4.1-3.62Zm7.64,4.5C9.16,20.95,7.8,19.26,7,16.87h3.76Zm0-6H6.54a17.07,17.07,0,0,1-.4-3.07h4.59Zm0-4.6H6.15a17.07,17.07,0,0,1,.4-3.07h4.19Zm0-4.61H7c.82-2.39,2.18-4.08,3.76-4.5Zm9.16,0H17.61A12,12,0,0,0,15.8,2.51a10,10,0,0,1,4.1,3.62Zm-7.64-4.5c1.58.42,2.94,2.11,3.76,4.5H12.26Zm0,6h4.19a17.77,17.77,0,0,1,.4,3.07H12.26Zm0,4.6h4.59a17.06,17.06,0,0,1-.4,3.07H12.26Zm0,9.1v-4.5H16c-.82,2.39-2.18,4.08-3.76,4.5Zm3.53-.88a12.26,12.26,0,0,0,1.81-3.62H19.9a10,10,0,0,1-4.1,3.62Zm4.9-5.16H18a18.3,18.3,0,0,0,.38-3.07h3a10,10,0,0,1-.73,3.07Zm-2.31-4.6A18.3,18.3,0,0,0,18,7.67H20.7a10,10,0,0,1,.73,3.07Zm0,0"/>
</svg>
