<svg id="Capa_1" data-name="Capa 1" xmlns="http://www.w3.org/2000/svg" viewBox="0 0 20 20">
  <defs>
    <style>.cls-1 {
      fill: #bfc5d1;
    }</style>
  </defs>
  <title>2</title>
  <path class="cls-1"
        d="M15.06,7.5v3.75c0,1.88-2.17,3.75-4.34,3.75H9.28c-2.17,0-4.34-1.87-4.34-3.75V7.5H3.5v3.75c0,2.5,2.89,5,5.78,5v2.5H4.94V20H15.06V18.75H10.72v-2.5c2.89,0,5.78-2.5,5.78-5V7.5Z"/>
  <path class="cls-1"
        d="M9.28,13.75h1.43a2.72,2.72,0,0,0,2.9-2.49V2.49A2.72,2.72,0,0,0,10.71,0H9.28A2.72,2.72,0,0,0,6.39,2.49v8.77A2.71,2.71,0,0,0,9.28,13.75ZM7.16,6.24H9.37V4h1.26v2.2h2.21V7.51H10.63v2.2H9.37V7.51H7.16Z"/>
</svg>
