<svg id="Capa_1" data-name="Capa 1" xmlns="http://www.w3.org/2000/svg" viewBox="0 0 20 20">
  <defs>
    <style>.cls-1 {
      fill: #19233c;
    }</style>
  </defs>
  <title>1</title>
  <path class="cls-1"
        d="M19.56,11.3H18.47a.45.45,0,0,0-.43.47v.35a.46.46,0,0,1-.44.47h-.32a.46.46,0,0,0-.44.47v1.17a.46.46,0,0,0,.44.47A2.83,2.83,0,0,0,20,11.77.45.45,0,0,0,19.56,11.3Z"/>
  <path class="cls-1" d="M5.38,14.7H6.93a1.06,1.06,0,0,0,0-2.11H5.38a1.06,1.06,0,0,0,0,2.11Z"/>
  <path class="cls-1" d="M14.62,14.7a1.06,1.06,0,0,0,0-2.11H13.05a1.06,1.06,0,0,0,0,2.11Z"/>
  <path class="cls-1"
        d="M2.72,14.7a.46.46,0,0,0,.44-.47V13.06a.46.46,0,0,0-.44-.47H2.4A.46.46,0,0,1,2,12.12v-.35a.45.45,0,0,0-.43-.47H.44a.46.46,0,0,0-.44.47A2.83,2.83,0,0,0,2.72,14.7Z"/>
  <path class="cls-1"
        d="M.44,8.7H1.53A.45.45,0,0,0,2,8.23V7.88a.46.46,0,0,1,.44-.47h.32a.46.46,0,0,0,.44-.47V5.77a.46.46,0,0,0-.44-.47A2.83,2.83,0,0,0,0,8.23.45.45,0,0,0,.44,8.7Z"/>
  <path class="cls-1" d="M4.4,6.36a1,1,0,0,0,1,1H6.93a1,1,0,0,0,1-1,1,1,0,0,0-1-1.06H5.38A1,1,0,0,0,4.4,6.36Z"/>
  <path class="cls-1" d="M14.62,5.3H13.05a1,1,0,0,0-1,1.06,1,1,0,0,0,1,1h1.57a1,1,0,0,0,1-1A1,1,0,0,0,14.62,5.3Z"/>
  <path class="cls-1"
        d="M17.28,5.3a.46.46,0,0,0-.44.47V6.94a.46.46,0,0,0,.44.47h.32a.46.46,0,0,1,.44.47v.35a.45.45,0,0,0,.43.47h1.09A.46.46,0,0,0,20,8.23,2.83,2.83,0,0,0,17.28,5.3Z"/>
  <path class="cls-1"
        d="M12.41,2.11a1,1,0,0,0,1-1,1,1,0,0,0-1-1.07,3.23,3.23,0,0,0-2.27.94L10,1.07,9.88.94A3.23,3.23,0,0,0,7.61,0a1,1,0,0,0-1,1.07,1,1,0,0,0,1,1A1.47,1.47,0,0,1,9,3.41V16.59a1.47,1.47,0,0,1-1.4,1.3,1,1,0,0,0-1,1,1,1,0,0,0,1,1.07,3.23,3.23,0,0,0,2.27-.94l.14-.13.14.13a3.23,3.23,0,0,0,2.27.94,1,1,0,0,0,1-1.07,1,1,0,0,0-1-1,1.47,1.47,0,0,1-1.4-1.3V3.41A1.47,1.47,0,0,1,12.41,2.11Z"/>
</svg>
