<svg id="Capa_1" data-name="Capa 1" xmlns="http://www.w3.org/2000/svg" viewBox="0 0 17 17">
  <defs>
    <style>.cls-1 {
      fill: #00aeef;
    }</style>
  </defs>
  <title>1</title>
  <path class="cls-1"
        d="M16.63,9.61H15.7a.39.39,0,0,0-.37.4v.29a.38.38,0,0,1-.37.4h-.28a.39.39,0,0,0-.37.4v1a.39.39,0,0,0,.37.4A2.4,2.4,0,0,0,17,10,.38.38,0,0,0,16.63,9.61Z"/>
  <path class="cls-1" d="M4.58,12.49H5.89a.9.9,0,0,0,0-1.79H4.58a.9.9,0,0,0,0,1.79Z"/>
  <path class="cls-1" d="M12.42,12.49a.9.9,0,0,0,0-1.79H11.09a.9.9,0,0,0,0,1.79Z"/>
  <path class="cls-1"
        d="M2.32,12.49a.39.39,0,0,0,.37-.4v-1a.39.39,0,0,0-.37-.4H2a.38.38,0,0,1-.37-.4V10a.39.39,0,0,0-.37-.4H.37A.39.39,0,0,0,0,10,2.4,2.4,0,0,0,2.32,12.49Z"/>
  <path class="cls-1"
        d="M.37,7.39H1.3A.39.39,0,0,0,1.67,7V6.7A.38.38,0,0,1,2,6.3h.28a.39.39,0,0,0,.37-.4v-1a.39.39,0,0,0-.37-.4A2.4,2.4,0,0,0,0,7,.38.38,0,0,0,.37,7.39Z"/>
  <path class="cls-1"
        d="M3.74,5.4a.87.87,0,0,0,.84.9H5.89a.86.86,0,0,0,.83-.9.86.86,0,0,0-.83-.89H4.58A.87.87,0,0,0,3.74,5.4Z"/>
  <path class="cls-1"
        d="M12.42,4.51H11.09a.86.86,0,0,0-.83.89.86.86,0,0,0,.83.9h1.33a.87.87,0,0,0,.84-.9A.87.87,0,0,0,12.42,4.51Z"/>
  <path class="cls-1"
        d="M14.68,4.51a.39.39,0,0,0-.37.4v1a.39.39,0,0,0,.37.4H15a.38.38,0,0,1,.37.4V7a.39.39,0,0,0,.37.4h.93A.39.39,0,0,0,17,7,2.4,2.4,0,0,0,14.68,4.51Z"/>
  <path class="cls-1"
        d="M10.55,1.79A.87.87,0,0,0,11.4.91.87.87,0,0,0,10.57,0,2.73,2.73,0,0,0,8.64.8L8.52.91,8.4.8A2.75,2.75,0,0,0,6.47,0a.87.87,0,0,0-.84.91.88.88,0,0,0,.85.88A1.26,1.26,0,0,1,7.68,2.9V14.1a1.26,1.26,0,0,1-1.2,1.11.9.9,0,0,0,0,1.79,2.75,2.75,0,0,0,1.93-.8l.12-.11.12.11a2.73,2.73,0,0,0,1.93.8.9.9,0,0,0,0-1.79A1.26,1.26,0,0,1,9.36,14.1V2.9A1.26,1.26,0,0,1,10.55,1.79Z"/>
</svg>
