<svg id="Capa_1" data-name="Capa 1" xmlns="http://www.w3.org/2000/svg" viewBox="0 0 17 17">
  <defs>
    <style>.cls-1 {
      fill: #28abe2;
    }</style>
  </defs>
  <title>1</title>
  <path class="cls-1"
        d="M13.49,2.26,7.57,8.18a.34.34,0,0,0,0,.48l.77.77a.34.34,0,0,0,.48,0l5.92-5.92L16,4.81a.31.31,0,0,0,.35.08.26.26,0,0,0,.13-.08.31.31,0,0,0,.09-.21L17,.37A.34.34,0,0,0,16.9.1a.35.35,0,0,0-.24-.1h0L12.4.39a.34.34,0,0,0-.29.22.33.33,0,0,0,.08.36Z"/>
  <path class="cls-1"
        d="M1.77,1.77h8.7V0H.88A.89.89,0,0,0,0,.88V16.12A.89.89,0,0,0,.88,17H16.12a.89.89,0,0,0,.88-.88V6.53H15.23v8.7H1.77Z"/>
</svg>
