<svg id="Capa_1" data-name="Capa 1" xmlns="http://www.w3.org/2000/svg" viewBox="0 0 17 17">
  <defs>
    <style>.cls-1 {
      fill: #2aace2;
    }</style>
  </defs>
  <title>1</title>
  <path class="cls-1"
        d="M8.9,12.34A.41.41,0,0,0,9,12.27a.25.25,0,0,0,.08-.18l.39-4.26A.3.3,0,0,0,9.4,7.6h0a.32.32,0,0,0-.21-.08h0l-4.26.39a.3.3,0,0,0-.25.18.3.3,0,0,0,.07.31L6.07,9.74l-6,6a.28.28,0,0,0,0,.41l.77.77a.27.27,0,0,0,.2.09h0a.27.27,0,0,0,.21-.09l6-6L8.6,12.27A.28.28,0,0,0,8.9,12.34Z"/>
  <path class="cls-1"
        d="M16.16,0H.84A.85.85,0,0,0,0,.84V11.53H1.68V1.68H15.32V15.32H5.47V17H16.16a.85.85,0,0,0,.84-.84V.84A.85.85,0,0,0,16.16,0Z"/>
</svg>
