<svg id="Layer_1" data-name="Layer 1" xmlns="http://www.w3.org/2000/svg" viewBox="0 0 50 50">
  <defs>
    <style>.cls-1 {
      fill: #cdd9ec;
    }</style>
  </defs>
  <title>meter</title>
  <path class="cls-1"
        d="M8.89,14.75v8.79H41.11V14.75Zm17.57,5.86H23.54V17.68h2.92Zm5.86,0H29.39V17.68h2.93Zm5.86,0H35.25V17.68h2.93ZM8.89,14.75v8.79H41.11V14.75Zm17.57,5.86H23.54V17.68h2.92Zm5.86,0H29.39V17.68h2.93Zm5.86,0H35.25V17.68h2.93ZM8.89,14.75v8.79H41.11V14.75Zm17.57,5.86H23.54V17.68h2.92Zm5.86,0H29.39V17.68h2.93Zm5.86,0H35.25V17.68h2.93ZM8.89,14.75v8.79H41.11V14.75Zm17.57,5.86H23.54V17.68h2.92Zm5.86,0H29.39V17.68h2.93Zm5.86,0H35.25V17.68h2.93ZM8.89,14.75v8.79H41.11V14.75Zm17.57,5.86H23.54V17.68h2.92Zm5.86,0H29.39V17.68h2.93Zm5.86,0H35.25V17.68h2.93ZM8.89,14.75v8.79H41.11V14.75Zm17.57,5.86H23.54V17.68h2.92Zm5.86,0H29.39V17.68h2.93Zm5.86,0H35.25V17.68h2.93ZM8.89,14.75v8.79H41.11V14.75Zm17.57,5.86H23.54V17.68h2.92Zm5.86,0H29.39V17.68h2.93Zm5.86,0H35.25V17.68h2.93ZM8.89,14.75v8.79H41.11V14.75Zm17.57,5.86H23.54V17.68h2.92Zm5.86,0H29.39V17.68h2.93Zm5.86,0H35.25V17.68h2.93ZM8.89,14.75v8.79H41.11V14.75Zm17.57,5.86H23.54V17.68h2.92Zm5.86,0H29.39V17.68h2.93Zm5.86,0H35.25V17.68h2.93ZM8.89,14.75v8.79H41.11V14.75Zm17.57,5.86H23.54V17.68h2.92Zm5.86,0H29.39V17.68h2.93Zm5.86,0H35.25V17.68h2.93ZM8.89,14.75v8.79H41.11V14.75Zm17.57,5.86H23.54V17.68h2.92Zm5.86,0H29.39V17.68h2.93Zm5.86,0H35.25V17.68h2.93ZM8.89,14.75v8.79H41.11V14.75Zm17.57,5.86H23.54V17.68h2.92Zm5.86,0H29.39V17.68h2.93Zm5.86,0H35.25V17.68h2.93ZM0,7.42V35.25H50V7.42Zm17.68,24.9H8.89V29.39h8.79Zm11.71,0H20.61V29.39h8.78Zm11.72,0H32.32V29.39h8.79ZM44,26.46H6V11.82H44ZM41.11,14.75H8.89v8.79H41.11ZM26.46,20.61H23.54V17.68h2.92Zm5.86,0H29.39V17.68h2.93Zm5.86,0H35.25V17.68h2.93ZM8.89,14.75v8.79H41.11V14.75Zm17.57,5.86H23.54V17.68h2.92Zm5.86,0H29.39V17.68h2.93Zm5.86,0H35.25V17.68h2.93ZM8.89,14.75v8.79H41.11V14.75Zm17.57,5.86H23.54V17.68h2.92Zm5.86,0H29.39V17.68h2.93Zm5.86,0H35.25V17.68h2.93ZM8.89,14.75v8.79H41.11V14.75Zm17.57,5.86H23.54V17.68h2.92Zm5.86,0H29.39V17.68h2.93Zm5.86,0H35.25V17.68h2.93ZM8.89,14.75v8.79H41.11V14.75Zm17.57,5.86H23.54V17.68h2.92Zm5.86,0H29.39V17.68h2.93Zm5.86,0H35.25V17.68h2.93ZM8.89,14.75v8.79H41.11V14.75Zm17.57,5.86H23.54V17.68h2.92Zm5.86,0H29.39V17.68h2.93Zm5.86,0H35.25V17.68h2.93ZM8.89,14.75v8.79H41.11V14.75Zm17.57,5.86H23.54V17.68h2.92Zm5.86,0H29.39V17.68h2.93Zm5.86,0H35.25V17.68h2.93ZM8.89,14.75v8.79H41.11V14.75Zm17.57,5.86H23.54V17.68h2.92Zm5.86,0H29.39V17.68h2.93Zm5.86,0H35.25V17.68h2.93ZM8.89,14.75v8.79H41.11V14.75Zm17.57,5.86H23.54V17.68h2.92Zm5.86,0H29.39V17.68h2.93Zm5.86,0H35.25V17.68h2.93ZM8.89,14.75v8.79H41.11V14.75Zm17.57,5.86H23.54V17.68h2.92Zm5.86,0H29.39V17.68h2.93Zm5.86,0H35.25V17.68h2.93ZM8.89,14.75v8.79H41.11V14.75Zm17.57,5.86H23.54V17.68h2.92Zm5.86,0H29.39V17.68h2.93Zm5.86,0H35.25V17.68h2.93ZM8.89,14.75v8.79H41.11V14.75Zm17.57,5.86H23.54V17.68h2.92Zm5.86,0H29.39V17.68h2.93Zm5.86,0H35.25V17.68h2.93ZM8.89,14.75v8.79H41.11V14.75Zm17.57,5.86H23.54V17.68h2.92Zm5.86,0H29.39V17.68h2.93Zm5.86,0H35.25V17.68h2.93Z"/>
  <path class="cls-1" d="M42.75,4.49H7.25L9.44,0H40.56Z"/>
  <path class="cls-1"
        d="M44,38.18l-.08,3.49L40.64,50H9.36L6,41.11V38.18h8.79V44h2.93V38.18h2.93V44h2.93V38.18h2.92V44h2.93V38.18h2.93V44h2.93V38.18Z"/>
</svg>
