<svg id="Слой_1" data-name="Слой 1" xmlns="http://www.w3.org/2000/svg" viewBox="0 0 20 20">
  <defs>
    <style>.cls-1 {
      fill: #18233b;
    }</style>
  </defs>
  <title>3</title>
  <polygon class="cls-1"
           points="2.95 7.64 4.57 7.64 4.57 4.82 7.4 4.82 7.4 3.2 4.57 3.2 4.57 0.37 2.95 0.37 2.95 3.2 0.12 3.2 0.12 4.82 2.95 4.82 2.95 7.64"/>
  <path class="cls-1"
        d="M6.17,12.54A3.83,3.83,0,1,0,10,8.71,3.84,3.84,0,0,0,6.17,12.54ZM10,10.2a2.35,2.35,0,1,1-2.35,2.34A2.35,2.35,0,0,1,10,10.2Z"/>
  <rect class="cls-1" x="14.81" y="8.27" width="2.72" height="1.48"/>
  <rect class="cls-1" x="18.52" y="10.74" width="1.48" height="1.48"/>
  <rect class="cls-1" x="18.52" y="13.21" width="1.48" height="1.48"/>
  <polygon class="cls-1"
           points="14.28 5.8 13.66 3.33 9.88 3.33 9.88 4.81 12.51 4.81 13.13 7.28 18.52 7.28 18.52 9.75 20 9.75 20 5.8 14.28 5.8"/>
  <polygon class="cls-1"
           points="18.52 18.15 1.48 18.15 1.48 10.12 0 10.12 0 19.63 20 19.63 20 15.68 18.52 15.68 18.52 18.15"/>
</svg>
