<svg id="Capa_1" data-name="Capa 1" xmlns="http://www.w3.org/2000/svg" viewBox="0 0 13 13">
  <defs>
    <style>.cls-1 {
      fill: #bfc5d1;
    }</style>
  </defs>
  <title>1</title>
  <path class="cls-1"
        d="M13,5.2a.46.46,0,0,0-.28-.31,6,6,0,0,0-4.4,0L5,2.07A2.78,2.78,0,0,0,4.45.19.45.45,0,0,0,4.09,0a.51.51,0,0,0-.36.14L.14,3.73A.51.51,0,0,0,0,4.09a.45.45,0,0,0,.16.33l0,0A2.91,2.91,0,0,0,2.05,5L4.88,8.34a6.41,6.41,0,0,0,0,4.36.47.47,0,0,0,.31.29h.12a.49.49,0,0,0,.34-.14L8.91,9.58l3.05,3a.47.47,0,0,0,.66,0,.45.45,0,0,0,0-.66l-3-3.05,3.26-3.26A.56.56,0,0,0,13,5.27V5.2ZM5.86,8.46v0a.49.49,0,0,0,0-.48L2.6,4.18A.52.52,0,0,0,2.25,4H2.16a2.24,2.24,0,0,1-.92-.08L4,1.26a2,2,0,0,1,.09.91.46.46,0,0,0,.15.44L7.92,5.77a.43.43,0,0,0,.52.07h0a5.21,5.21,0,0,1,3.18-.32L8.41,8.77,5.54,11.64A6,6,0,0,1,5.86,8.46Z"/>
</svg>
