<svg id="Capa_1" data-name="Capa 1" xmlns="http://www.w3.org/2000/svg" viewBox="0 0 13 13">
  <defs>
    <style>.cls-1 {
      fill: #fff;
    }</style>
  </defs>
  <title>1</title>
  <path class="cls-1"
        d="M13,5.2a.46.46,0,0,0-.28-.31,6,6,0,0,0-4.4,0L5,2.07A2.78,2.78,0,0,0,4.45.19.45.45,0,0,0,4.09,0a.51.51,0,0,0-.36.14L.14,3.73A.51.51,0,0,0,0,4.09a.45.45,0,0,0,.16.33l0,0A2.91,2.91,0,0,0,2.05,5L4.88,8.34a6.41,6.41,0,0,0,0,4.36.47.47,0,0,0,.31.29h.12a.49.49,0,0,0,.34-.14L8.91,9.58l3.05,3a.47.47,0,0,0,.66,0,.45.45,0,0,0,0-.66l-3-3.05,3.26-3.26A.56.56,0,0,0,13,5.27V5.2Z"/>
</svg>
