<?xml version="1.0" encoding="utf-8"?>
<!-- Generator: Adobe Illustrator 22.1.0, SVG Export Plug-In . SVG Version: 6.00 Build 0)  -->
<svg version="1.1" id="Layer_1" xmlns="http://www.w3.org/2000/svg" x="0px" y="0px"
     viewBox="0 0 13 13" style="enable-background:new 0 0 13 13;" xml:space="preserve">
<style type="text/css">
	.st0 {
    fill: #FFFFFF;
  }
</style>
  <title>pinned_settings</title>
  <g>
	<path class="st0" d="M13,5.9c0-0.1-0.1-0.2-0.2-0.2l-1.3-0.2c-0.1,0-0.2-0.1-0.2-0.2c-0.1-0.5-0.3-0.9-0.5-1.3
		c-0.1-0.1-0.1-0.2,0-0.3l0.7-1c0.1-0.1,0.1-0.2,0-0.3l-0.9-0.9l0,0c0,0-0.1,0-0.1,0h-0.1l-1,0.8c0,0-0.1,0-0.1,0
		c-0.1,0-0.1,0-0.1,0C8.7,1.9,8.2,1.8,7.8,1.6c-0.1,0-0.2-0.1-0.2-0.2L7.4,0.2l0,0C7.3,0.1,7.3,0,7.2,0H5.9c0,0,0,0,0,0
		C5.8,0,5.7,0.1,5.7,0.2L5.5,1.5c0,0.1-0.1,0.2-0.2,0.2C4.8,1.8,4.3,2,3.9,2.2c-0.1,0-0.2,0-0.3,0l-1-0.8H2.5c0,0-0.1,0-0.1,0l-1,1
		c-0.1,0.1-0.1,0.2,0,0.3l0.7,1c0.1,0.1,0.1,0.2,0,0.3C1.9,4.4,1.8,4.8,1.7,5.3c0,0.1-0.1,0.2-0.2,0.2L0.2,5.7C0.1,5.7,0,5.8,0,5.9
		v1.3c0,0.1,0.1,0.2,0.2,0.2l1.3,0.2c0.1,0,0.2,0.1,0.2,0.2C1.8,8.3,2,8.7,2.2,9.1c0.1,0.1,0.1,0.2,0,0.3l-0.8,1
		c-0.1,0.1-0.1,0.2,0,0.3l0.9,0.9l0.1,0c0,0,0.1,0,0.1,0h0.1l1.1-0.8c0,0,0.1,0,0.1,0c0.1,0,0.1,0,0.1,0c0.4,0.2,0.8,0.4,1.3,0.5
		c0.1,0,0.2,0.1,0.2,0.2l0.2,1.3c0,0.1,0.1,0.2,0.2,0.2c0,0,0,0,0,0h1.3c0,0,0,0,0,0c0.1,0,0.2-0.1,0.2-0.2l0.2-1.3
		c0-0.1,0.1-0.2,0.2-0.2c0.5-0.1,0.9-0.3,1.3-0.5c0,0,0.1,0,0.1,0c0.1,0,0.1,0,0.1,0l1.1,0.8c0,0,0.1,0,0.1,0c0,0,0.1,0,0.1,0l1-0.9
		c0.1-0.1,0.1-0.2,0-0.3l-0.7-1c-0.1-0.1-0.1-0.2,0-0.3c0.2-0.4,0.4-0.9,0.5-1.3c0-0.1,0.1-0.2,0.2-0.2L13,7.3l0-0.1
		c0,0,0-0.1,0-0.1L13,5.9z M9.6,9.6c-0.1,0-0.3-0.1-0.4-0.1c-0.3,0-0.5,0.1-0.8,0.2c-0.3,0.2-0.6,0.3-1,0.4
		c-0.4,0.1-0.7,0.4-0.9,0.7c-0.2-0.3-0.5-0.6-0.9-0.7c-0.3-0.1-0.7-0.2-0.9-0.4C4.4,9.6,4.2,9.5,3.9,9.5c0,0,0,0,0,0
		c-0.1,0-0.3,0-0.4,0.1c0.1-0.4,0.1-0.8-0.2-1.2C3.1,8.1,3,7.8,2.9,7.4C2.8,7,2.5,6.7,2.2,6.5C2.5,6.3,2.8,6,2.9,5.6
		c0.1-0.3,0.2-0.7,0.4-1c0.2-0.4,0.3-0.8,0.2-1.2c0.1,0,0.3,0,0.4,0.1c0.3,0,0.5-0.1,0.8-0.2c0.3-0.2,0.6-0.3,1-0.4
		c0.4-0.1,0.8-0.4,1-0.7c0.2,0.3,0.5,0.6,0.9,0.7c0.3,0.1,0.7,0.2,1,0.4c0.2,0.1,0.5,0.2,0.8,0.2c0.1,0,0.3,0,0.4-0.1
		C9.5,3.8,9.6,4.2,9.8,4.6c0.2,0.3,0.3,0.6,0.4,1c0.1,0.4,0.4,0.7,0.7,0.9c-0.3,0.2-0.6,0.5-0.7,0.9l0,0c-0.1,0.3-0.2,0.7-0.4,1
		C9.6,8.8,9.5,9.2,9.6,9.6z"/>
    <path class="st0" d="M4.7,8.4h3.8V4.6H4.6L4.7,8.4z M5.9,7.1l0-1.3h1.3v1.3H5.9z"/>
</g>
</svg>
