<svg id="Layer_1" data-name="Layer 1" xmlns="http://www.w3.org/2000/svg" viewBox="0 0 13 13">
  <defs>
    <style>.cls-1 {
      fill: #6dcff6;
    }</style>
  </defs>
  <title>1</title>
  <path class="cls-1"
        d="M11.54,6h0a5.56,5.56,0,0,0-1.27-1.8A5.84,5.84,0,0,0,8.32,3a7.59,7.59,0,0,0-2-.44V.88a.85.85,0,0,0-.5-.79l-.07,0h0a.89.89,0,0,0-.92.21l-4,4a.88.88,0,0,0,0,1.24l4,4a.88.88,0,0,0,.91.21l.07,0h0a.88.88,0,0,0,.51-.8V7.14c2.48.18,4.32,2.84,4.32,5.19a.67.67,0,0,0,.67.67.68.68,0,0,0,.68-.67V8.28A5.8,5.8,0,0,0,11.54,6ZM5.66,3.89c2.94,0,5,1.81,5,4.39v.06A6.49,6.49,0,0,0,9.47,7.07,5.3,5.3,0,0,0,6.06,5.79H5.65A.67.67,0,0,0,5,6.46V7.67L2.15,4.84,5,2V3.22A.68.68,0,0,0,5.66,3.89Z"/>
</svg>
