<svg id="Layer_1" data-name="Layer 1" xmlns="http://www.w3.org/2000/svg" xmlns:xlink="http://www.w3.org/1999/xlink"
     viewBox="0 0 20 20">
  <defs>
    <style>.cls-1 {
      fill: url(#linear-gradient);
    }

    .cls-2 {
      fill: url(#linear-gradient-2);
    }

    .cls-3 {
      fill: url(#linear-gradient-3);
    }</style>
    <linearGradient id="linear-gradient" x1="9.41" y1="11.21" x2="12.91" y2="11.21" gradientUnits="userSpaceOnUse">
      <stop offset="0" stop-color="#2a7ba7"/>
      <stop offset="1" stop-color="#2a327c"/>
    </linearGradient>
    <linearGradient id="linear-gradient-2" x1="4.75" y1="12.38" x2="15.25" y2="12.38" xlink:href="#linear-gradient"/>
    <linearGradient id="linear-gradient-3" x1="0" y1="10" x2="20" y2="10" xlink:href="#linear-gradient"/>
  </defs>
  <title>1</title>
  <path class="cls-1" d="M12.32,11.8H10.59V10a.59.59,0,0,0-1.18,0v2.34A.59.59,0,0,0,10,13h2.32a.59.59,0,1,0,0-1.17Z"/>
  <path class="cls-2"
        d="M10,7.11a5.28,5.28,0,1,0,5.25,5.27A5.25,5.25,0,0,0,10,7.11Zm0,9.37a4.1,4.1,0,1,1,4.08-4.1A4.09,4.09,0,0,1,10,16.48Z"/>
  <path class="cls-3"
        d="M19.74,6.39,17.58,5V1.41A.58.58,0,0,0,17,.82H14.65a.59.59,0,0,0-.59.59V2.6L10.33.1a.61.61,0,0,0-.66,0L.26,6.39A.58.58,0,0,0,.1,7.2l1.3,2a.58.58,0,0,0,.81.17l.2-.13V19.41A.58.58,0,0,0,3,20H17a.58.58,0,0,0,.58-.59V9.19a.77.77,0,0,0,.64.21.57.57,0,0,0,.37-.25L19.9,7.2A.58.58,0,0,0,19.74,6.39ZM15.24,2h1.17V4.16l-1.17-.78Zm1.18,16.84H3.58V8.4L10,4.11,16.42,8.4ZM18,8l-7.62-5.1a.59.59,0,0,0-.66,0L2.05,8,1.4,7,10,1.29,18.6,7Z"/>
</svg>
