<svg data-name="Layer 1" id="Layer_1" viewBox="0 0 12 12" xmlns="http://www.w3.org/2000/svg">
  <defs>
    <style>.cls-1 {
      fill: #bfc5d0;
    }</style>
  </defs>
  <title>Edit</title>
  <path class="cls-1"
        d="M10.2,1.64a.16.16,0,0,1,.12.28L6.17,6.08l-.23-.23,4.15-4.16a.16.16,0,0,1,.12,0M10.2,0A1.79,1.79,0,0,0,8.93.53L3.62,5.85,6.17,8.4l5.31-5.32a1.81,1.81,0,0,0,0-2.55h0A1.79,1.79,0,0,0,10.2,0Z"/>
  <path class="cls-1"
        d="M2.66,9.09l.3.17-.43.43-.31.07.07-.31.37-.37M2.54,6.9.81,8.63,0,12l3.36-.82L5.49,9.05c-.75-1-2.2-1.2-2.95-2.15Z"/>
  <rect class="cls-1" height="1.64" width="6.88" x="5.12" y="10.36"/>
</svg>
