<svg data-name="Layer 1" id="Layer_1" viewBox="0 0 13 13" xmlns="http://www.w3.org/2000/svg">
  <defs>
    <style>.cls-1 {
      fill: #6dcff6;
    }</style>
  </defs>
  <title>1</title>
  <path class="cls-1"
        d="M1.75,8.47A5.14,5.14,0,0,1,3.59,2.26v2H5V.44H1.11V1.8H2A6.5,6.5,0,0,0,5.51,12.92l.23,0L6,11.62l-.24,0A5.1,5.1,0,0,1,1.75,8.47Z"/>
  <path class="cls-1"
        d="M12.5,9a6.42,6.42,0,0,0,0-5,6.45,6.45,0,0,0-5-3.93L7.25,0l-.2,1.34.23,0A5.13,5.13,0,0,1,9.4,10.74v-2H8v3.85h3.85V11.2H11A6.45,6.45,0,0,0,12.5,9Z"/>
</svg>
