<svg data-name="Capa 1" id="Capa_1" viewBox="0 0 13 13" xmlns="http://www.w3.org/2000/svg">
  <defs>
    <style>.cls-1 {
      fill: #6dcff6;
    }</style>
  </defs>
  <title>1</title>
  <path class="cls-1"
        d="M12.65,2.39A.35.35,0,0,0,13,2.05V.35A.35.35,0,0,0,12.65,0H11a.35.35,0,0,0-.34.35v.5H2.39V.35A.35.35,0,0,0,2.05,0H.35A.35.35,0,0,0,0,.35v1.7a.35.35,0,0,0,.35.34h.5v8.22H.35A.35.35,0,0,0,0,11v1.7A.35.35,0,0,0,.35,13h1.7a.35.35,0,0,0,.34-.35v-.5H10.6v.5A.35.35,0,0,0,11,13h1.7a.35.35,0,0,0,.35-.35V11a.35.35,0,0,0-.35-.34h-.5V2.39ZM2.05,10.61h-.5V2.39h.5a.34.34,0,0,0,.34-.34v-.5H10.6v.5a.35.35,0,0,0,.35.34h.5v8.22H11a.34.34,0,0,0-.34.35v.5H2.39V11A.34.34,0,0,0,2.05,10.61Z"/>
</svg>
