<svg data-name="Capa 1" id="Capa_1" viewBox="0 0 13 11" xmlns="http://www.w3.org/2000/svg">
  <defs>
    <style>.cls-1 {
      fill: #6dcff6;
    }</style>
  </defs>
  <title>1</title>
  <path class="cls-1"
        d="M12.92,5.26,11.07,2.88a.23.23,0,0,0-.38,0l-.5.65a.4.4,0,0,0,0,.48l.54.69H8.86V.34A.31.31,0,0,0,8.59,0H7.88a.31.31,0,0,0-.27.34V10.66a.31.31,0,0,0,.27.34h.71a.31.31,0,0,0,.27-.34V6.3h1.87L10.19,7a.4.4,0,0,0,0,.48l.5.65a.23.23,0,0,0,.38,0l1.85-2.38A.39.39,0,0,0,12.92,5.26Z"/>
  <path class="cls-1"
        d="M5.12,0H4.41a.31.31,0,0,0-.27.34V4.7H2.27L2.81,4a.39.39,0,0,0,0-.48l-.5-.65a.26.26,0,0,0-.19-.1.26.26,0,0,0-.19.1L.08,5.26a.4.4,0,0,0,0,.48L1.93,8.12a.26.26,0,0,0,.19.1.26.26,0,0,0,.19-.1l.5-.65a.39.39,0,0,0,0-.48L2.27,6.3H4.14v4.36a.31.31,0,0,0,.27.34h.71a.31.31,0,0,0,.27-.34V.34A.31.31,0,0,0,5.12,0Z"/>
</svg>
