<?xml version="1.0" encoding="utf-8"?>
<!-- Generator: Adobe Illustrator 22.1.0, SVG Export Plug-In . SVG Version: 6.00 Build 0)  -->
<svg id="Layer_1" style="enable-background:new 0 0 15 15;" version="1.1" viewBox="0 0 15 15" x="0px"
     xml:space="preserve" xmlns="http://www.w3.org/2000/svg" y="0px">
<style type="text/css">
	.st0 {
    fill: #FFFFFF;
  }
</style>
  <title>1</title>
  <path class="st0" d="M6.4,1.1L4.3,4.4L3.2,6.1h3.1L3.3,9.8l0.6-1.3l0.7-1.6H1.7l2.9-5.7H6.4 M8,0H4C3.9,0,3.8,0.1,3.8,0.1L0,7.6
	c0,0.1,0,0.2,0,0.2C0,8,0.1,8,0.3,8h2.6L0,14.6c0,0.1,0,0.2,0.1,0.3h0.1h0.1c0,0,0.1,0,0.2,0l0,0l8-9.5c0-0.1,0-0.2,0-0.3
	C8.4,5.1,8.3,5,8.3,5h-3l3-4.6c0-0.1,0-0.2,0-0.3C8.2,0.1,8.1,0,8,0z"/>
  <path class="st0" d="M12.9,4.1l-1.4,2.3l-1.1,1.7h2.4l-1.2,1.4l0.5-1.3H9.9L12,4.1H12.9 M14.6,3h-3.2c-0.1,0-0.1,0-0.2,0.1l-3,6
	c0,0.1,0,0.1,0,0.2c0,0.1,0.1,0.1,0.2,0.1h2.1l-2.3,5.3c0,0.1,0,0.2,0.1,0.3h0.1l0,0c0,0,0.1,0,0.1,0l0,0L15,7.3c0-0.1,0-0.1,0-0.2
	C15,7,14.9,7,14.8,7h-2.4l2.4-3.7c0-0.1,0-0.1,0-0.2C14.7,3,14.7,3,14.6,3z"/>
</svg>
