<?xml version="1.0" encoding="utf-8"?>
<!-- Generator: Adobe Illustrator 22.1.0, SVG Export Plug-In . SVG Version: 6.00 Build 0)  -->
<svg id="Layer_1" style="enable-background:new 0 0 15 15;" version="1.1" viewBox="0 0 15 15" x="0px"
     xml:space="preserve" xmlns="http://www.w3.org/2000/svg" y="0px">
<style type="text/css">
	.st0 {
    fill: #FFFFFF;
  }
</style>
  <title>1</title>
  <path class="st0" d="M8.9,6.4c0-0.6-0.1-1.1-0.3-1.7C8.5,4.2,8.3,3.7,8,3.3C7.7,2.9,7.4,2.5,7,2.2C6.6,1.8,6.2,1.5,5.8,1.3
	C5.3,1,4.8,0.7,4.3,0.5L3.1,0l0.8,0.9l0,0c0.3,0.6,0.5,1.2,0.6,1.8c0,0.3-0.1,0.5-0.2,0.7C4.1,3.7,4,3.9,3.8,4.1
	C3.5,4.3,3.3,4.5,3,4.7S2.5,5.1,2.2,5.4C1.9,5.6,1.6,5.9,1.4,6.2C1.1,6.5,0.9,6.8,0.8,7.2C0.6,7.7,0.5,8.1,0.5,8.6
	c0,0.6,0.1,1.1,0.3,1.7c0.2,0.5,0.4,1,0.7,1.4c0.3,0.4,0.6,0.8,1,1.1c0.4,0.3,0.8,0.6,1.2,0.9c0.5,0.3,0.9,0.5,1.4,0.7L6.4,15
	l-0.9-0.9l0,0C5.2,13.5,5,12.9,5,12.2c0-0.3,0.1-0.5,0.2-0.7c0.1-0.2,0.3-0.5,0.5-0.6c0.2-0.2,0.5-0.4,0.8-0.6C6.7,10,7,9.8,7.3,9.6
	C7.5,9.3,7.8,9,8,8.8c0.3-0.3,0.5-0.7,0.6-1.1C8.8,7.3,8.9,6.8,8.9,6.4z M7.3,6.4c0,0.3,0,0.5-0.1,0.8C7.1,7.4,7,7.6,6.9,7.8
	C6.7,8,6.5,8.2,6.2,8.4C6,8.6,5.7,8.8,5.5,9S4.9,9.5,4.6,9.7c-0.3,0.3-0.6,0.6-0.8,1c-0.1,0.3-0.3,0.6-0.3,0.9l0,0
	c-0.3-0.2-0.6-0.5-0.8-0.8c-0.2-0.3-0.4-0.6-0.5-1C2.1,9.4,2.1,9,2.1,8.5c0-0.3,0-0.6,0.1-0.8c0.1-0.2,0.2-0.4,0.3-0.6
	C2.7,6.9,3,6.7,3.2,6.5c0.3-0.2,0.5-0.4,0.8-0.6s0.6-0.5,0.9-0.7c0.3-0.3,0.6-0.6,0.8-1c0.2-0.3,0.3-0.6,0.3-0.9l0,0
	c0.3,0.2,0.6,0.5,0.8,0.8c0.2,0.3,0.4,0.6,0.5,1C7.3,5.5,7.4,5.9,7.3,6.4z"/>
  <path class="st0" d="M14.3,7.6c-0.1-0.4-0.3-0.7-0.5-1c-0.2-0.3-0.4-0.6-0.7-0.8c-0.3-0.2-0.6-0.4-0.9-0.6c-0.3-0.2-0.7-0.4-1-0.5
	l-1.2-0.5L10.9,5c0.2,0.4,0.3,0.8,0.4,1.2c0,0.2,0,0.3-0.1,0.5C11,6.9,10.9,7,10.8,7.1c-0.2,0.1-0.3,0.3-0.5,0.4
	C10.1,7.7,9.9,7.9,9.7,8C9.5,8.2,9.3,8.4,9.1,8.6C8.9,8.8,8.8,9.1,8.7,9.4c-0.1,0.3-0.2,0.7-0.2,1c0,0.4,0.1,0.8,0.2,1.2
	c0.1,0.4,0.3,0.7,0.5,1c0.2,0.3,0.5,0.6,0.7,0.8c0.3,0.2,0.6,0.4,0.9,0.6c0.3,0.2,0.7,0.4,1,0.5l1.3,0.6l-0.9-0.9l0,0
	c-0.2-0.4-0.4-0.8-0.4-1.2c0-0.2,0-0.3,0.1-0.5c0.1-0.2,0.2-0.3,0.3-0.4l0.5-0.4c0.2-0.1,0.4-0.3,0.6-0.5c0.2-0.2,0.4-0.4,0.6-0.6
	c0.2-0.2,0.3-0.5,0.4-0.8c0.1-0.3,0.2-0.7,0.2-1C14.5,8.4,14.4,8,14.3,7.6z M12.9,8.8c0,0.1,0,0.3-0.1,0.4c0,0.1-0.1,0.2-0.2,0.3
	c-0.1,0.1-0.3,0.3-0.4,0.4c-0.2,0.1-0.3,0.3-0.5,0.4c-0.2,0.2-0.4,0.3-0.6,0.5c-0.3,0.2-0.5,0.5-0.6,0.8l0,0l-0.1-0.1
	c-0.1-0.2-0.2-0.4-0.3-0.6c-0.1-0.2-0.1-0.5-0.1-0.7c0-0.1,0-0.3,0.1-0.4c0-0.1,0.1-0.2,0.2-0.3c0.1-0.1,0.2-0.3,0.4-0.4
	c0.2-0.2,0.3-0.3,0.5-0.4c0.2-0.2,0.4-0.3,0.6-0.5c0.3-0.2,0.5-0.5,0.6-0.8V7.3l0.1,0.1c0.1,0.2,0.2,0.4,0.3,0.6
	C12.9,8.3,12.9,8.5,12.9,8.8z"/>
</svg>
