<svg data-name="Layer 1" id="Layer_1" viewBox="0 0 15 15" xmlns="http://www.w3.org/2000/svg"
     xmlns:xlink="http://www.w3.org/1999/xlink">
  <defs>
    <style>.cls-1 {
      fill: url(#linear-gradient);
    }

    .cls-2 {
      fill: url(#linear-gradient-2);
    }</style>
    <linearGradient gradientUnits="userSpaceOnUse" id="linear-gradient" x1="0.54" x2="8.87" y1="7.5" y2="7.5">
      <stop offset="0" stop-color="#e9c75d"/>
      <stop offset="1" stop-color="#d48743"/>
    </linearGradient>
    <linearGradient id="linear-gradient-2" x1="8.55" x2="14.46" xlink:href="#linear-gradient" y1="9.58" y2="9.58"/>
  </defs>
  <title>1</title>
  <path class="cls-1"
        d="M8.87,6.36a5.48,5.48,0,0,0-.25-1.69A5,5,0,0,0,8,3.29a6,6,0,0,0-1-1.12,9.68,9.68,0,0,0-1.24-.9A14.52,14.52,0,0,0,4.25.53L3.07,0,3.9.88h0a4.27,4.27,0,0,1,.55,1.83,1.48,1.48,0,0,1-.18.72,2.44,2.44,0,0,1-.51.65c-.22.2-.47.4-.74.61s-.57.44-.86.69a7.37,7.37,0,0,0-.79.79,3.53,3.53,0,0,0-.6,1.06A4,4,0,0,0,.54,8.59a5.38,5.38,0,0,0,.25,1.68,5.13,5.13,0,0,0,.67,1.39,6,6,0,0,0,1,1.12,9.85,9.85,0,0,0,1.24.89,14.52,14.52,0,0,0,1.43.74L6.45,15l-.92-.91v0A4.17,4.17,0,0,1,5,12.22a1.55,1.55,0,0,1,.19-.72,2.36,2.36,0,0,1,.5-.64,9.44,9.44,0,0,1,.75-.61c.28-.22.57-.45.85-.69A6.62,6.62,0,0,0,8,8.76,3.64,3.64,0,0,0,8.65,7.7,3.88,3.88,0,0,0,8.87,6.36Zm-1.52,0a2.3,2.3,0,0,1-.13.81,2.07,2.07,0,0,1-.34.61,6.24,6.24,0,0,1-.63.63c-.25.22-.51.43-.77.62s-.59.47-.85.7a3.93,3.93,0,0,0-.82,1,3,3,0,0,0-.31.85l0,0a4.25,4.25,0,0,1-.78-.82,3.87,3.87,0,0,1-.46-1,4,4,0,0,1-.18-1.22,2.35,2.35,0,0,1,.13-.82,2.14,2.14,0,0,1,.34-.6,6.24,6.24,0,0,1,.63-.63c.25-.22.51-.43.77-.62s.6-.47.86-.71a4.05,4.05,0,0,0,.81-1,2.78,2.78,0,0,0,.31-.86l0,0a4.24,4.24,0,0,1,.77.83,3.63,3.63,0,0,1,.46,1A4.06,4.06,0,0,1,7.35,6.36Z"/>
  <path class="cls-2"
        d="M14.28,7.6a3.3,3.3,0,0,0-.47-1,4.37,4.37,0,0,0-.72-.79,6.68,6.68,0,0,0-.87-.62,9.07,9.07,0,0,0-1-.51l-1.16-.53.81.88a2.76,2.76,0,0,1,.37,1.23,1,1,0,0,1-.12.46,1.46,1.46,0,0,1-.33.42,5.72,5.72,0,0,1-.51.42c-.19.15-.39.3-.59.47a5.78,5.78,0,0,0-.55.56,2.25,2.25,0,0,0-.43.76,2.67,2.67,0,0,0-.17,1,3.8,3.8,0,0,0,.18,1.19,3.65,3.65,0,0,0,.47,1,4.12,4.12,0,0,0,.73.79,7.07,7.07,0,0,0,.87.63,9,9,0,0,0,1,.51l1.29.59-.94-.94h0a2.79,2.79,0,0,1-.38-1.23,1,1,0,0,1,.12-.46,1.7,1.7,0,0,1,.33-.42l.51-.42c.2-.15.4-.31.59-.48a4.23,4.23,0,0,0,.56-.56,2.5,2.5,0,0,0,.43-.75,2.69,2.69,0,0,0,.16-1A3.83,3.83,0,0,0,14.28,7.6ZM12.94,8.78a1.14,1.14,0,0,1-.07.43,1.06,1.06,0,0,1-.16.3,3.59,3.59,0,0,1-.39.39,6.11,6.11,0,0,1-.51.41c-.22.17-.43.34-.62.51a3.27,3.27,0,0,0-.65.83l0,0-.06-.09a2,2,0,0,1-.27-.56,2.38,2.38,0,0,1-.11-.73,1.32,1.32,0,0,1,.07-.42.85.85,0,0,1,.17-.3,2.4,2.4,0,0,1,.39-.39q.25-.23.51-.42a8,8,0,0,0,.62-.51,3.14,3.14,0,0,0,.64-.82l0-.06.07.09a2.51,2.51,0,0,1,.26.57A2.36,2.36,0,0,1,12.94,8.78Z"/>
</svg>
