<?xml version="1.0" encoding="utf-8"?>
<!-- Generator: Adobe Illustrator 22.1.0, SVG Export Plug-In . SVG Version: 6.00 Build 0)  -->
<svg id="Capa_1" style="enable-background:new 0 0 14 14;" version="1.1" viewBox="0 0 14 14" x="0px"
     xml:space="preserve" xmlns="http://www.w3.org/2000/svg" y="0px">
<style type="text/css">
	.st0 {
    fill: #FFFFFF;
  }
</style>
  <path class="st0" d="M13.1,3.5c-0.6-1.1-1.5-1.9-2.6-2.6C9.4,0.3,8.2,0,7,0S4.6,0.3,3.5,0.9C2.4,1.6,1.6,2.4,0.9,3.5
	C0.3,4.6,0,5.8,0,7s0.3,2.4,0.9,3.5s1.5,1.9,2.6,2.6C4.6,13.7,5.8,14,7,14s2.4-0.3,3.5-0.9c1.1-0.6,1.9-1.5,2.6-2.6
	C13.7,9.4,14,8.2,14,7S13.7,4.6,13.1,3.5z M5.8,1.8c0-0.2,0.1-0.3,0.3-0.3l0,0h1.7c0.2,0,0.3,0.1,0.3,0.3l0,0v1.5
	c0,0.2-0.1,0.3-0.3,0.3l0,0H6.1C6,3.5,5.8,3.4,5.8,3.2l0,0V1.8z M9.3,11.4c0,0.2-0.1,0.3-0.3,0.3l0,0H5c-0.2,0-0.3-0.1-0.3-0.3l0,0
	V9.9c0-0.2,0.1-0.3,0.3-0.3l0,0h0.9V6.7H5c-0.2,0-0.3-0.1-0.3-0.3l0,0V5c0-0.2,0.1-0.3,0.3-0.3l0,0h2.9c0.2,0,0.3,0.1,0.3,0.3l0,0
	v4.7H9c0.2,0,0.3,0.1,0.3,0.3l0,0V11.4z"/>
</svg>
