<?xml version="1.0" encoding="utf-8"?>
<!-- Generator: Adobe Illustrator 22.1.0, SVG Export Plug-In . SVG Version: 6.00 Build 0)  -->
<svg id="Layer_1" style="enable-background:new 0 0 20 20;" version="1.1" viewBox="0 0 20 20" x="0px"
     xml:space="preserve" xmlns="http://www.w3.org/2000/svg" y="0px">
<style type="text/css">
	.st0 {
    fill: #FFFFFF;
  }
</style>
  <g>
	<path class="st0" d="M14.8,2.9c-0.6,0.6-0.6,1.6,0,2.3c0.6,0.6,1.6,0.6,2.3,0c0.6-0.6,0.6-1.6,0-2.3C16.4,2.3,15.4,2.3,14.8,2.9
		L14.8,2.9z"/>
    <path class="st0" d="M10.4,8.1L9.3,9.2l0.9,0.9c0.4,0.4,0.9,0.5,1.3,0.1l0,0c0.4-0.4,0.3-0.8-0.1-1.3L10.4,8.1z"/>
    <path class="st0" d="M19.6,1.7c0-0.7-0.6-1.3-1.3-1.3l-7-0.3c-0.4,0-0.7,0.1-1,0.4l-9.9,9.9C0.1,10.6,0,11,0,11.4s0.1,0.7,0.4,1
		l7.3,7.2C8,19.9,8.3,20,8.7,20c0.4,0,0.7-0.1,1-0.4l9.9-9.9C19.9,9.3,20,9,20,8.6L19.6,1.7z M12.8,11.4L12.8,11.4
		c-0.6,0.7-1.6,0.9-2.4,0.5l-0.5,2.8l-1.5-1.5l0.5-2.4l-0.6-0.6l-1.4,1.4l-1.3-1.3l4.7-4.7l2.2,2.2c0.6,0.5,0.9,1.3,1,2.1
		C13.5,10.5,13.2,11.1,12.8,11.4z M17,5.2c-0.6,0.6-1.6,0.6-2.3,0c-0.6-0.6-0.6-1.6,0-2.3c0.6-0.6,1.6-0.6,2.3,0S17.7,4.5,17,5.2
		L17,5.2z"/>
</g>
</svg>
