<svg data-name="Layer 1" id="Layer_1" viewBox="0 0 17.31 15" xmlns="http://www.w3.org/2000/svg"
     xmlns:xlink="http://www.w3.org/1999/xlink">
  <defs>
    <style>.cls-1 {
      fill: url(#linear-gradient);
    }

    .cls-2 {
      fill: url(#linear-gradient-2);
    }</style>
    <linearGradient gradientUnits="userSpaceOnUse" id="linear-gradient" x2="17.31" y1="7.5" y2="7.5">
      <stop offset="0" stop-color="#8061a6"/>
      <stop offset="1" stop-color="#513e6d"/>
    </linearGradient>
    <linearGradient id="linear-gradient-2" x1="8.33" x2="12.86" xlink:href="#linear-gradient" y1="8.78" y2="8.78"/>
  </defs>
  <title>1</title>
  <path class="cls-1"
        d="M16.17,13.64v-.23a10.17,10.17,0,0,0-3-7.23,10.26,10.26,0,0,0-6.57-3V0H2.05V1.36H0V2.73H2.05V8.64H0V10H2.05v1.36H6.6V10.07a3.42,3.42,0,0,1,2.74,3.34v.23H8.2V15h9.11V13.64ZM5.24,10H3.42V1.36H5.24Zm9.56,3.64H10.7v-.23A4.77,4.77,0,0,0,6.6,8.69V4.57a8.89,8.89,0,0,1,8.2,8.84Z"/>
  <path class="cls-2" d="M8.87,6.51,8.33,7.76a6.14,6.14,0,0,1,3.27,3.3l1.26-.52A7.4,7.4,0,0,0,8.87,6.51Z"/>
</svg>
