<?xml version="1.0" encoding="utf-8"?>
<!-- Generator: Adobe Illustrator 22.1.0, SVG Export Plug-In . SVG Version: 6.00 Build 0)  -->
<svg id="Layer_1" style="enable-background:new 0 0 17.3 15;" version="1.1" viewBox="0 0 17.3 15" x="0px"
     xml:space="preserve" xmlns="http://www.w3.org/2000/svg" y="0px">
<style type="text/css">
	.st0 {
    fill: #FFFFFF;
  }
</style>
  <title>1</title>
  <path class="st0" d="M16.2,13.6v-0.2c0-2.7-1.1-5.3-3-7.2c-1.8-1.8-4.1-2.8-6.6-3V0H2v1.4H0v1.4h2v5.9H0V10h2v1.4h4.6v-1.3
	c1.6,0.3,2.7,1.7,2.7,3.3v0.2H8.2V15h9.1v-1.4H16.2z M5.2,10H3.4V1.4h1.8V10z M14.8,13.6h-4.1v-0.2C10.7,11,9,9,6.6,8.7V4.6
	c4.6,0.4,8.2,4.2,8.2,8.8L14.8,13.6z"/>
  <path class="st0" d="M8.9,6.5L8.3,7.8c1.5,0.6,2.7,1.8,3.3,3.3l1.3-0.5C12.1,8.7,10.7,7.3,8.9,6.5z"/>
</svg>
