<svg data-name="Capa 1" id="Capa_1" viewBox="0 0 20 20" xmlns="http://www.w3.org/2000/svg">
  <defs>
    <style>.cls-1 {
      fill: #aeb4c0;
    }</style>
  </defs>
  <title>tab</title>
  <path class="cls-1"
        d="M19,7.38H17.5a8.68,8.68,0,0,0-.34-.84l1.07-1.07a1,1,0,0,0,0-1.38L15.91,1.76a1,1,0,0,0-1.38,0L13.45,2.84a8.76,8.76,0,0,0-.84-.35V1a1,1,0,0,0-.28-.68A.94.94,0,0,0,11.64,0H8.36a1,1,0,0,0-1,1V2.5a7.39,7.39,0,0,0-.84.34L5.46,1.77a1,1,0,0,0-1.37,0L1.76,4.09a1,1,0,0,0,0,1.38L2.84,6.55a8.76,8.76,0,0,0-.35.84H1a1,1,0,0,0-.68.28A.94.94,0,0,0,0,8.36v1.79H1.13V8.51H2.91a.56.56,0,0,0,.54-.41A6.88,6.88,0,0,1,4,6.7.56.56,0,0,0,3.93,6L2.68,4.78l2.1-2.1L6,3.93A.56.56,0,0,0,6.7,4a6.79,6.79,0,0,1,1.4-.58.57.57,0,0,0,.41-.54V1.13h3V2.91a.57.57,0,0,0,.41.54,6.88,6.88,0,0,1,1.4.58.56.56,0,0,0,.67-.1l1.26-1.25,2.1,2.1L16.06,6A.58.58,0,0,0,16,6.7a6.75,6.75,0,0,1,.57,1.4.58.58,0,0,0,.55.41h1.78v1.64H20V8.36A1,1,0,0,0,19,7.38Z"/>
  <path class="cls-1"
        d="M5.74,9.59v.56H6.87V9.59a3.13,3.13,0,1,1,6.25,0v.56h1.13V9.59A4.27,4.27,0,0,0,10,5.33,4.26,4.26,0,0,0,5.74,9.59Z"/>
  <rect class="cls-1" height="1.13" width="1.13" x="9.43" y="1.64"/>
  <rect class="cls-1" height="1.13" width="1.13" x="4.1" y="4.1"/>
  <rect class="cls-1" height="1.13" width="1.13" x="1.64" y="9.03"/>
  <rect class="cls-1" height="1.13" width="1.13" x="17.23" y="9.03"/>
  <rect class="cls-1" height="1.13" width="1.13" x="14.77" y="4.1"/>
  <path class="cls-1"
        d="M5.08,15.59H1a1,1,0,0,0-1,1V19a1,1,0,0,0,1,1H5.08a1,1,0,0,0,1-1V16.57A1,1,0,0,0,5.08,15.59Zm-.16,1.13v2.15H1.13V16.72Z"/>
  <path class="cls-1"
        d="M19,15.59H14.92a1,1,0,0,0-1,1V19a1,1,0,0,0,1,1H19a1,1,0,0,0,1-1V16.56A1,1,0,0,0,19,15.59Zm-.16,1.13v2.15H15.08V16.72Z"/>
  <path class="cls-1"
        d="M12.05,15.59H8a1,1,0,0,0-1,1V19a1,1,0,0,0,1,1h4.1a1,1,0,0,0,1-1V16.56A1,1,0,0,0,12.05,15.59Zm-.15,1.13v2.15H8.1V16.72Z"/>
  <path class="cls-1"
        d="M2.46,12.87v2.21H3.59V13.43H16.41v1.65h1.13V12.87a.57.57,0,0,0-.57-.56H3A.57.57,0,0,0,2.46,12.87Z"/>
  <rect class="cls-1" height="1.13" width="1.13" x="1.64" y="17.23"/>
  <rect class="cls-1" height="1.13" width="1.13" x="3.28" y="17.23"/>
  <rect class="cls-1" height="1.13" width="1.13" x="8.62" y="17.23"/>
  <rect class="cls-1" height="1.13" width="1.13" x="10.26" y="17.23"/>
  <rect class="cls-1" height="1.13" width="1.13" x="15.59" y="17.23"/>
  <rect class="cls-1" height="1.13" width="1.13" x="17.23" y="17.23"/>
  <path class="cls-1" d="M12.2,10.15V9.59a2.2,2.2,0,1,0-4.4,0v.56H8.92V9.59a1.08,1.08,0,0,1,2.16,0v.56Z"/>
</svg>
