<svg data-name="Capa 1" id="Capa_1" viewBox="0 0 20 20" xmlns="http://www.w3.org/2000/svg">
  <defs>
    <style>.cls-1 {
      fill: #aeb4c0;
    }</style>
  </defs>
  <title>tab</title>
  <path class="cls-1"
        d="M.06,15.84,0,6.76A.62.62,0,0,1,.9,6.18L9.18,9.72a.62.62,0,0,1,.38.57l0,9.09a.62.62,0,0,1-.87.57L.44,16.42A.64.64,0,0,1,.06,15.84ZM19,7.18l-7.64,3.31,0,8.41L19,15.6l0-8.42m.31-1.09a.62.62,0,0,1,.62.62l0,9.09a.63.63,0,0,1-.37.57L11.34,20a.74.74,0,0,1-.25.05.62.62,0,0,1-.62-.62l0-9.09a.63.63,0,0,1,.37-.58l8.26-3.57a.53.53,0,0,1,.25,0ZM9.94,1,2,4.5,10,8l7.92-3.53L9.94,1m0-1a.54.54,0,0,1,.25.06L18.9,3.89A.62.62,0,0,1,18.9,5L10.21,8.91A.54.54,0,0,1,10,9a.57.57,0,0,1-.25-.06L1,5.07A.62.62,0,0,1,1,3.94L9.69.06A.57.57,0,0,1,9.94,0Z"/>
</svg>
