<?xml version="1.0" encoding="utf-8"?>
<!-- Generator: Adobe Illustrator 22.1.0, SVG Export Plug-In . SVG Version: 6.00 Build 0)  -->
<svg id="Layer_1" style="enable-background:new 0 0 15 15;" version="1.1" viewBox="0 0 15 15" x="0px"
     xml:space="preserve" xmlns="http://www.w3.org/2000/svg" y="0px">
<style type="text/css">
	.st0 {
    fill: #FFFFFF;
  }
</style>
  <title>1</title>
  <path class="st0" d="M12.5,4.9L12.5,4.9l-0.3-0.3l-0.3-0.3L7.5,0L3.1,4.2C3,4.3,2.9,4.4,2.8,4.5L2.5,4.8l0,0C1.6,6,1.1,7.3,1.1,8.8
	C1.1,12.3,4,15.1,7.5,15c3.5,0.1,6.4-2.7,6.4-6.2C13.9,7.3,13.4,6,12.5,4.9z M12.3,8.8c0,2.6-2.2,4.7-4.8,4.6c-2.6,0-4.7-2-4.8-4.6
	c0-1.1,0.4-2.2,1.2-3L4,5.6l0.3-0.3l3.2-3.1l3.3,3.2L11,5.7l0.1,0.1C11.9,6.6,12.3,7.7,12.3,8.8z"/>
</svg>
