<svg data-name="Layer 1" id="Layer_1" viewBox="0 0 15 15" xmlns="http://www.w3.org/2000/svg">
  <defs>
    <style>.cls-1 {
      fill: url(#linear-gradient);
    }</style>
    <linearGradient gradientUnits="userSpaceOnUse" id="linear-gradient" x1="1.08" x2="13.92" y1="7.5" y2="7.5">
      <stop offset="0" stop-color="#2b7ba7"/>
      <stop offset="1" stop-color="#283479"/>
    </linearGradient>
  </defs>
  <title>1</title>
  <path class="cls-1"
        d="M12.47,4.86l0,0-.31-.31-.3-.29L7.5,0,3.12,4.24a4,4,0,0,0-.29.29l-.33.32h0A6.1,6.1,0,0,0,1.08,8.78,6.33,6.33,0,0,0,7.5,15a6.33,6.33,0,0,0,6.42-6.22A6,6,0,0,0,12.47,4.86Zm-.18,3.92A4.72,4.72,0,0,1,7.5,13.41,4.72,4.72,0,0,1,2.71,8.78a4.54,4.54,0,0,1,1.2-3L4,5.63l.26-.26L7.5,2.24,10.77,5.4l.26.25.07.08A4.58,4.58,0,0,1,12.29,8.78Z"/>
</svg>
