<?xml version="1.0" encoding="utf-8"?>
<!-- Generator: Adobe Illustrator 21.0.0, SVG Export Plug-In . SVG Version: 6.00 Build 0)  -->
<svg height="512px" id="Layer_1" style="enable-background:new 0 0 512 512;" version="1.1" viewBox="0 0 512 512"
     width="512px" x="0px" xml:space="preserve" xmlns="http://www.w3.org/2000/svg" y="0px">
<style type="text/css">
	.st0 {
    fill: #E2E5E7;
  }

  .st1 {
    fill: #B0B7BD;
  }

  .st2 {
    fill: #CAD1D8;
  }

  .st3 {
    fill: #FFFFFF;
  }
</style>
  <path class="st0" d="M128,0c-17.6,0-32,14.4-32,32v448c0,17.6,14.4,32,32,32h320c17.6,0,32-14.4,32-32V128L352,0H128z"/>
  <path class="st1" d="M384,128h96L352,0v96C352,113.6,366.4,128,384,128z"/>
  <polygon class="st2" points="480,224 384,128 480,128 "/>
  <path class="st1"
        d="M416,416c0,8.8-7.2,16-16,16H48c-8.8,0-16-7.2-16-16V256c0-8.8,7.2-16,16-16h352c8.8,0,16,7.2,16,16V416z"/>
  <path class="st2" d="M400,432H96v16h304c8.8,0,16-7.2,16-16v-16C416,424.8,408.8,432,400,432z"/>
  <g>
	<path class="st3" d="M151.4,352.6c-3.6-3.6-5.4-7.9-5.4-12.8c0-5.1,1.8-9.5,5.4-13.1c3.6-3.6,7.9-5.4,12.8-5.4
		c4.9,0,9.2,1.8,12.8,5.4c3.6,3.6,5.4,8,5.4,13.1c0,4.9-1.8,9.2-5.3,12.8c-3.5,3.6-7.8,5.4-12.9,5.4
		C159.3,358.1,155,356.2,151.4,352.6z"/>
    <path class="st3" d="M207.7,352.6c-3.6-3.6-5.4-7.9-5.4-12.8c0-5.1,1.8-9.5,5.4-13.1c3.6-3.6,7.9-5.4,12.8-5.4
		c4.9,0,9.2,1.8,12.8,5.4c3.6,3.6,5.4,8,5.4,13.1c0,4.9-1.8,9.2-5.3,12.8c-3.5,3.6-7.8,5.4-12.9,5.4
		C215.6,358.1,211.3,356.2,207.7,352.6z"/>
    <path class="st3" d="M264,352.6c-3.6-3.6-5.4-7.9-5.4-12.8c0-5.1,1.8-9.5,5.4-13.1c3.6-3.6,7.9-5.4,12.8-5.4
		c4.9,0,9.2,1.8,12.8,5.4c3.6,3.6,5.4,8,5.4,13.1c0,4.9-1.8,9.2-5.3,12.8c-3.5,3.6-7.8,5.4-12.9,5.4
		C271.8,358.1,267.6,356.2,264,352.6z"/>
</g>
</svg>
