<svg data-name="Слой 1" id="Слой_1" viewBox="0 0 12 12" xmlns="http://www.w3.org/2000/svg">
  <defs>
    <style>.cls-1 {
      fill: #b4b4b4;
    }</style>
  </defs>
  <title>Read only</title>
  <path class="cls-1"
        d="M1.84,0a.17.17,0,0,0-.12.05.18.18,0,0,0-.05.13V9.65a.18.18,0,0,0,.18.18A5.82,5.82,0,0,1,5.42,11V1.76a.17.17,0,0,0,0-.09A4.06,4.06,0,0,0,1.84,0Z"/>
  <path class="cls-1"
        d="M6.6,1.68a.17.17,0,0,0,0,.09V11a5.82,5.82,0,0,1,3.58-1.13.18.18,0,0,0,.18-.18V.18a.18.18,0,0,0-.05-.13A.17.17,0,0,0,10.17,0,4.06,4.06,0,0,0,6.6,1.68Z"/>
  <path class="cls-1"
        d="M11.57,1.26h-.31V9.65a1.11,1.11,0,0,1-1.09,1.12A4.7,4.7,0,0,0,6.93,11.9a10.13,10.13,0,0,1,4.55.09.42.42,0,0,0,.36-.08.44.44,0,0,0,.16-.34V1.7A.43.43,0,0,0,11.57,1.26Z"/>
  <path class="cls-1"
        d="M.74,9.65V1.26H.43A.43.43,0,0,0,0,1.7v9.86a.44.44,0,0,0,.16.34A.42.42,0,0,0,.53,12a10.13,10.13,0,0,1,4.55-.09,4.7,4.7,0,0,0-3.24-1.13A1.11,1.11,0,0,1,.74,9.65Z"/>
</svg>
