<svg data-name="Layer 1" id="Layer_1" viewBox="0 0 40 40" xmlns="http://www.w3.org/2000/svg">
  <defs>
    <style>.cls-1 {
      fill: #2e6098;
    }</style>
  </defs>
  <title>v1</title>
  <g data-name=" 36-Real Estate" id="_36-Real_Estate">
    <path class="cls-1"
          d="M39.33,24H.67A.67.67,0,0,1,0,23.35H0V2.67A2.69,2.69,0,0,1,2.67,0H37.33A2.69,2.69,0,0,1,40,2.67V23.34a.67.67,0,0,1-.66.66Zm-38-1.33H38.67v-20a1.34,1.34,0,0,0-1.33-1.33H2.67A1.34,1.34,0,0,0,1.33,2.66h0Z"/>
    <path class="cls-1"
          d="M37.33,29.34H2.67A2.69,2.69,0,0,1,0,26.67V23.34a.67.67,0,0,1,.67-.67H39.33a.67.67,0,0,1,.67.67v3.33A2.69,2.69,0,0,1,37.33,29.34ZM1.33,24v2.67A1.34,1.34,0,0,0,2.66,28H37.33a1.34,1.34,0,0,0,1.34-1.32h0V24Z"/>
    <path class="cls-1"
          d="M22,26.67H18a.67.67,0,0,1-.67-.67h0a.67.67,0,0,1,.66-.66h4a.67.67,0,0,1,.67.65h0a.67.67,0,0,1-.67.67Z"/>
    <path class="cls-1"
          d="M36.67,24H3.33a.67.67,0,0,1-.66-.66v-20a.67.67,0,0,1,.66-.67H36.67a.67.67,0,0,1,.66.67v20A.67.67,0,0,1,36.67,24ZM4,22.67H36V4H4Z"/>
    <path class="cls-1"
          d="M28.67,40H11.33a2,2,0,1,1,0-4H28.67a2,2,0,0,1,0,4ZM11.33,37.33a.67.67,0,0,0-.58.75.66.66,0,0,0,.58.58H28.67a.67.67,0,0,0,.58-.75.66.66,0,0,0-.58-.58Z"/>
    <path class="cls-1"
          d="M27.33,37.33H12.67a.67.67,0,1,1,0-1.33h0C14.88,36,16,31.77,16,28.67a.67.67,0,0,1,.67-.67h6.66a.67.67,0,0,1,.67.67h0c0,3.1,1.12,7.33,3.33,7.33a.67.67,0,0,1,.67.65h0a.67.67,0,0,1-.67.67ZM15.91,36h8.18c-.91-1.13-1.4-5.21-1.4-6.66H17.32C17.32,30.79,16.82,34.86,15.91,36Z"/>
    <path class="cls-1"
          d="M27.33,10H24.67A.67.67,0,0,1,24,9.35h0V6.67A.67.67,0,0,1,24.67,6h2.66a.67.67,0,0,1,.67.67h0V9.34a.67.67,0,0,1-.66.66Zm-2-1.33h1.34V7.34H25.33Z"/>
    <path class="cls-1"
          d="M32.67,10H30a.67.67,0,0,1-.67-.65h0V6.67A.67.67,0,0,1,30,6h2.67a.67.67,0,0,1,.66.67V9.34A.67.67,0,0,1,32.67,10Zm-2-1.33H32V7.34H30.67Z"/>
    <path class="cls-1"
          d="M30,12.67H24.67A.67.67,0,0,1,24,12h0a.67.67,0,0,1,.66-.66H30a.67.67,0,0,1,.67.65h0a.67.67,0,0,1-.67.67Z"/>
    <path class="cls-1" d="M32.67,15.34h-8a.67.67,0,0,1,0-1.34h8a.67.67,0,1,1,0,1.34Z"/>
    <path class="cls-1"
          d="M20.67,12.67H7.33A.68.68,0,0,1,6.67,12a.7.7,0,0,1,.25-.51l6.66-5.33a.69.69,0,0,1,.84,0l6.66,5.33a.67.67,0,0,1,.1.94A.65.65,0,0,1,20.67,12.67ZM9.23,11.34h9.54L14,7.52Z"/>
    <path class="cls-1"
          d="M19.33,20.67H8.67A.67.67,0,0,1,8,20H8V12a.67.67,0,0,1,.66-.66H19.33A.67.67,0,0,1,20,12h0v8a.67.67,0,0,1-.67.67Zm-10-1.33h9.34V12.67H9.33Z"/>
    <path class="cls-1"
          d="M16,20.67H12a.67.67,0,0,1-.67-.67h0V15.34a.67.67,0,0,1,.67-.67h4a.67.67,0,0,1,.67.67h0V20a.67.67,0,0,1-.67.67Zm-3.33-1.33h2.66V16H12.67Z"/>
    <path class="cls-1" d="M20.67,20.67H7.33a.67.67,0,0,1,0-1.33H20.67a.67.67,0,0,1,0,1.33Z"/>
    <path class="cls-1"
          d="M32.67,20.67h-8A.67.67,0,0,1,24,20h0V17.34a.67.67,0,0,1,.67-.67h8a.67.67,0,0,1,.66.67V20A.67.67,0,0,1,32.67,20.67Zm-7.34-1.33H32V18H25.33Z"/>
  </g>
</svg>
