<svg data-name="Capa 1" id="Capa_1" viewBox="0 0 401.99 401.99" xmlns="http://www.w3.org/2000/svg">
  <defs>
    <style>.cls-1 {
      fill: #bfc5d1;
    }</style>
  </defs>
  <title>plus-symbol</title>
  <path class="cls-1"
        d="M394,154.17a26.44,26.44,0,0,0-19.42-8H255.81V27.41a26.43,26.43,0,0,0-8-19.42A26.47,26.47,0,0,0,228.4,0H173.59a26.43,26.43,0,0,0-19.42,8,26.44,26.44,0,0,0-8,19.42V146.18H27.41a26.45,26.45,0,0,0-19.42,8,26.41,26.41,0,0,0-8,19.41v54.82a26.41,26.41,0,0,0,8,19.41,26.44,26.44,0,0,0,19.42,8H146.18V374.59A27.26,27.26,0,0,0,173.59,402H228.4a27.26,27.26,0,0,0,27.41-27.4V255.81H374.58A27.28,27.28,0,0,0,402,228.41V173.59A26.43,26.43,0,0,0,394,154.17Z"/>
</svg>
