<svg data-name="Слой 1" id="Слой_1" viewBox="0 0 20 20" xmlns="http://www.w3.org/2000/svg"
     xmlns:xlink="http://www.w3.org/1999/xlink">
  <defs>
    <style>.cls-1 {
      fill: url(#Безымянный_градиент_9);
    }

    .cls-2 {
      fill: url(#Безымянный_градиент_9-2);
    }

    .cls-3 {
      fill: url(#Безымянный_градиент_9-3);
    }

    .cls-4 {
      fill: url(#Безымянный_градиент_9-4);
    }

    .cls-5 {
      fill: url(#Безымянный_градиент_9-5);
    }

    .cls-6 {
      fill: url(#Безымянный_градиент_9-6);
    }

    .cls-7 {
      fill: url(#Безымянный_градиент_9-7);
    }

    .cls-8 {
      fill: url(#Безымянный_градиент_9-8);
    }

    .cls-9 {
      fill: url(#Безымянный_градиент_9-9);
    }

    .cls-10 {
      fill: url(#Безымянный_градиент_9-10);
    }

    .cls-11 {
      fill: url(#Безымянный_градиент_9-11);
    }</style>
    <linearGradient gradientUnits="userSpaceOnUse" id="Безымянный_градиент_9" x2="20" y1="10" y2="10">
      <stop offset="0" stop-color="#2f76a2"/>
      <stop offset="1" stop-color="#2b448b"/>
    </linearGradient>
    <linearGradient id="Безымянный_градиент_9-2" x1="9.5" x2="17.66" xlink:href="#Безымянный_градиент_9" y1="4.15"
                    y2="4.15"/>
    <linearGradient id="Безымянный_градиент_9-3" x1="11.84" x2="13.01" xlink:href="#Безымянный_градиент_9" y1="7.67"
                    y2="7.67"/>
    <linearGradient id="Безымянный_градиент_9-4" x1="14.16" x2="15.33" xlink:href="#Безымянный_градиент_9" y1="7.67"
                    y2="7.67"/>
    <linearGradient id="Безымянный_градиент_9-5" x1="16.49" x2="17.66" xlink:href="#Безымянный_градиент_9" y1="7.67"
                    y2="7.67"/>
    <linearGradient id="Безымянный_градиент_9-6" x1="11.84" x2="13.01" xlink:href="#Безымянный_градиент_9" y1="10.01"
                    y2="10.01"/>
    <linearGradient id="Безымянный_градиент_9-7" x1="14.16" x2="15.33" xlink:href="#Безымянный_градиент_9" y1="10.01"
                    y2="10.01"/>
    <linearGradient id="Безымянный_градиент_9-8" x1="9.5" x2="10.67" xlink:href="#Безымянный_градиент_9" y1="7.67"
                    y2="7.67"/>
    <linearGradient id="Безымянный_градиент_9-9" x1="14.16" x2="15.33" xlink:href="#Безымянный_градиент_9" y1="12.35"
                    y2="12.35"/>
    <linearGradient id="Безымянный_градиент_9-10" x1="16.49" x2="17.66" xlink:href="#Безымянный_градиент_9" y1="11.16"
                    y2="11.16"/>
    <linearGradient id="Безымянный_градиент_9-11" x1="4.01" x2="8.72" xlink:href="#Безымянный_градиент_9" y1="13.77"
                    y2="13.77"/>
  </defs>
  <title>tab</title>
  <path class="cls-1"
        d="M7.15.05v7.6a6,6,0,0,0-1-.07,6.19,6.19,0,1,0,4.37,10.56,6.06,6.06,0,0,0,1.59-2.7H20V.05ZM9.74,17.32a5,5,0,1,1,1.47-3.55A5,5,0,0,1,9.74,17.32Zm2.62-3.05a12.53,12.53,0,0,0,0-1.33H13V11.77h-1A6.23,6.23,0,0,0,8.33,8V1.22h10.5V14.27Z"/>
  <path class="cls-2" d="M9.5,2.4V5.91h8.16V2.4Zm7,2.34H10.67V3.57h5.82V4.74Z"/>
  <rect class="cls-3" height="1.17" width="1.17" x="11.84" y="7.08"/>
  <rect class="cls-4" height="1.17" width="1.17" x="14.16" y="7.08"/>
  <rect class="cls-5" height="1.17" width="1.17" x="16.49" y="7.08"/>
  <rect class="cls-6" height="1.17" width="1.17" x="11.84" y="9.42"/>
  <rect class="cls-7" height="1.17" width="1.17" x="14.16" y="9.42"/>
  <rect class="cls-8" height="1.17" width="1.17" x="9.5" y="7.08"/>
  <rect class="cls-9" height="1.17" width="1.17" x="14.16" y="11.77"/>
  <rect class="cls-10" height="3.48" width="1.17" x="16.49" y="9.42"/>
  <path class="cls-11"
        d="M4,11.05H6.5a2.18,2.18,0,0,1,1.59.55,1.71,1.71,0,0,1,.46,1.24v0a1.69,1.69,0,0,1-1.16,1.69l1.33,1.94H7.32L6.15,14.75H5.21v1.74H4Zm2.41,2.64c.59,0,.92-.31.92-.77v0c0-.51-.36-.77-.94-.77H5.21v1.56Z"/>
</svg>
