<svg data-name="Слой 1" id="Слой_1" viewBox="0 0 20 20" xmlns="http://www.w3.org/2000/svg"
     xmlns:xlink="http://www.w3.org/1999/xlink">
  <defs>
    <style>.cls-1 {
      fill: url(#Безымянный_градиент_9);
    }

    .cls-2 {
      fill: url(#Безымянный_градиент_9-2);
    }

    .cls-3 {
      fill: url(#Безымянный_градиент_9-3);
    }

    .cls-4 {
      fill: url(#Безымянный_градиент_9-4);
    }</style>
    <linearGradient gradientUnits="userSpaceOnUse" id="Безымянный_градиент_9" x1="0.08" x2="20.08" y1="14.37"
                    y2="14.37">
      <stop offset="0" stop-color="#2f76a2"/>
      <stop offset="1" stop-color="#2b448b"/>
    </linearGradient>
    <linearGradient id="Безымянный_градиент_9-2" x1="8.83" x2="12.58" xlink:href="#Безымянный_градиент_9" y1="2.5"
                    y2="2.5"/>
    <linearGradient id="Безымянный_градиент_9-3" x1="12.58" x2="16.33" xlink:href="#Безымянный_градиент_9" y1="7.5"
                    y2="7.5"/>
    <linearGradient id="Безымянный_градиент_9-4" x1="8.83" x2="16.33" xlink:href="#Безымянный_градиент_9" y1="5"
                    y2="5"/>
  </defs>
  <title>tab</title>
  <path class="cls-1"
        d="M19.69,10.73a1.87,1.87,0,0,0-2.63-.34l-4.45,3.46a2.48,2.48,0,0,1-1.53.52H10a4.36,4.36,0,0,0,1.32-3.12.62.62,0,0,0-.62-.62H3.83V10a.62.62,0,0,0-.62-.62H.71A.63.63,0,0,0,.08,10v8.75a.63.63,0,0,0,.63.62h2.5a.62.62,0,0,0,.62-.62v-.63h8.33a3.14,3.14,0,0,0,1.9-.65l5.29-4.11a1.87,1.87,0,0,0,.34-2.63ZM2.58,18.12H1.33v-7.5H2.58ZM18.83,12a.67.67,0,0,1-.24.42L13.3,16.48a1.92,1.92,0,0,1-1.14.39H3.83v-5H10A3.12,3.12,0,0,1,7,14.37a.63.63,0,1,0,0,1.25h4.12a3.75,3.75,0,0,0,2.3-.79l4.45-3.45a.66.66,0,0,1,.45-.13.65.65,0,0,1,.55.7Z"/>
  <path class="cls-2"
        d="M10.71.63A1.88,1.88,0,1,0,12.58,2.5,1.88,1.88,0,0,0,10.71.63Zm0,2.5a.63.63,0,0,1-.63-.63.63.63,0,0,1,1.25,0A.63.63,0,0,1,10.71,3.13Z"/>
  <path class="cls-3"
        d="M14.46,5.63A1.88,1.88,0,1,0,16.33,7.5,1.88,1.88,0,0,0,14.46,5.63Zm0,2.5a.63.63,0,0,1-.63-.63.63.63,0,0,1,1.25,0A.63.63,0,0,1,14.46,8.13Z"/>
  <path class="cls-4"
        d="M16.11.77a.63.63,0,0,0-.88.08L9,8.35a.62.62,0,0,0,.08.88.6.6,0,0,0,.4.15.63.63,0,0,0,.48-.23l6.25-7.5A.63.63,0,0,0,16.11.77Z"/>
</svg>
