<svg data-name="Слой 1" id="Слой_1" viewBox="0 0 20 20" xmlns="http://www.w3.org/2000/svg"
     xmlns:xlink="http://www.w3.org/1999/xlink">
  <defs>
    <style>.cls-1 {
      fill: url(#Безымянный_градиент_9);
    }

    .cls-2 {
      fill: url(#Безымянный_градиент_9-2);
    }

    .cls-3 {
      fill: url(#Безымянный_градиент_9-3);
    }

    .cls-4 {
      fill: url(#Безымянный_градиент_9-4);
    }

    .cls-5 {
      fill: url(#Безымянный_градиент_9-5);
    }

    .cls-6 {
      fill: url(#Безымянный_градиент_9-6);
    }</style>
    <linearGradient gradientUnits="userSpaceOnUse" id="Безымянный_градиент_9" x2="20" y1="10.02" y2="10.02">
      <stop offset="0" stop-color="#2f76a2"/>
      <stop offset="1" stop-color="#2b448b"/>
    </linearGradient>
    <linearGradient id="Безымянный_градиент_9-2" x1="8.16" x2="13.88" xlink:href="#Безымянный_градиент_9" y1="8.8"
                    y2="8.8"/>
    <linearGradient id="Безымянный_градиент_9-3" x1="5.39" x2="7.32" xlink:href="#Безымянный_градиент_9" y1="3.7"
                    y2="3.7"/>
    <linearGradient id="Безымянный_градиент_9-4" x1="15.1" x2="17.54" xlink:href="#Безымянный_градиент_9" y1="6.37"
                    y2="6.37"/>
    <linearGradient id="Безымянный_градиент_9-5" x1="2.46" x2="4.9" xlink:href="#Безымянный_градиент_9" y1="6.37"
                    y2="6.37"/>
    <linearGradient id="Безымянный_градиент_9-6" x1="12.68" x2="14.61" xlink:href="#Безымянный_градиент_9" y1="3.7"
                    y2="3.7"/>
  </defs>
  <title>tab</title>
  <path class="cls-1"
        d="M10,0A10,10,0,1,0,20,10,10,10,0,0,0,10,0Zm0,18.76a8.82,8.82,0,0,1-8.35-6.11H7.06A3.61,3.61,0,0,0,10,14.31a3.61,3.61,0,0,0,2.94-1.64h5.41A8.82,8.82,0,0,1,10,18.78Zm2.07-7h0A2.47,2.47,0,0,1,10,13.07a2.47,2.47,0,0,1-2.07-1.33.63.63,0,0,0-.53-.3H1.35a8,8,0,0,1-.11-1.29.61.61,0,0,0,.6.48H3.47A.61.61,0,0,0,4.09,10a.62.62,0,0,0-.62-.62H1.84a.62.62,0,0,0-.6.49A8.78,8.78,0,0,1,9.87,1.25a.63.63,0,0,0-.49.61V3.49a.62.62,0,1,0,1.24,0V1.86a.63.63,0,0,0-.49-.61,8.78,8.78,0,0,1,8.63,8.64.62.62,0,0,0-.6-.49H16.53a.62.62,0,0,0-.62.62.61.61,0,0,0,.62.61h1.63a.61.61,0,0,0,.6-.48,8,8,0,0,1-.11,1.29h-6A.63.63,0,0,0,12.07,11.74Z"/>
  <path class="cls-2"
        d="M13.88,6.34a.61.61,0,0,0-.19-.43.6.6,0,0,0-.86,0L10.49,8.25A2,2,0,0,0,10,8.17a1.85,1.85,0,0,0,0,3.69h0A1.84,1.84,0,0,0,11.51,9L13.7,6.78A.62.62,0,0,0,13.88,6.34ZM10.61,10A.61.61,0,1,1,10,9.41.61.61,0,0,1,10.61,10Z"/>
  <path class="cls-3"
        d="M6.54,2.79h0a.59.59,0,0,0-.38-.29.64.64,0,0,0-.47.06.62.62,0,0,0-.22.84l.69,1.21a.63.63,0,0,0,.54.31h0A.68.68,0,0,0,7,4.84.63.63,0,0,0,7.24,4Z"/>
  <path class="cls-4"
        d="M15.72,7.33A.58.58,0,0,0,16,7.25l1.2-.69a.62.62,0,0,0-.61-1.08l-1.21.7a.62.62,0,0,0,.31,1.15Z"/>
  <path class="cls-5"
        d="M4.6,6.18,3.39,5.49a.6.6,0,0,0-.47-.07.61.61,0,0,0-.38.29.64.64,0,0,0-.06.47.58.58,0,0,0,.28.37L4,7.25a.68.68,0,0,0,.31.08.41.41,0,0,0,.16,0A.63.63,0,0,0,4.82,7a.64.64,0,0,0,.06-.47A.63.63,0,0,0,4.6,6.18Z"/>
  <path class="cls-6"
        d="M13,4.83a.59.59,0,0,0,.31.09.63.63,0,0,0,.54-.31l.69-1.21a.64.64,0,0,0,.06-.47.62.62,0,0,0-1.13-.14L12.77,4A.62.62,0,0,0,13,4.83Z"/>
</svg>
