<svg data-name="Слой 1" id="Слой_1" viewBox="0 0 20 20" xmlns="http://www.w3.org/2000/svg">
  <defs>
    <style>.cls-1 {
      fill: #bfc5d1;
    }</style>
  </defs>
  <title>tab</title>
  <path class="cls-1"
        d="M7.15.05v7.6a6,6,0,0,0-1-.08,6.19,6.19,0,1,0,4.37,10.57,6.1,6.1,0,0,0,1.59-2.71H20V.05ZM9.74,17.31a5,5,0,0,1-8.57-3.55,5,5,0,0,1,5-5,5,5,0,0,1,3.55,8.56Zm2.62-3a12.68,12.68,0,0,0,0-1.33H13V11.76h-1a6.18,6.18,0,0,0-1.49-2.37A6.12,6.12,0,0,0,8.33,8V1.22h10.5v13Z"/>
  <path class="cls-1" d="M9.5,2.39V5.91h8.16V2.39Zm7,2.34H10.67V3.56h5.82V4.73Z"/>
  <rect class="cls-1" height="1.17" width="1.17" x="11.84" y="7.08"/>
  <rect class="cls-1" height="1.17" width="1.17" x="14.16" y="7.08"/>
  <rect class="cls-1" height="1.17" width="1.17" x="16.49" y="7.08"/>
  <rect class="cls-1" height="1.17" width="1.17" x="11.84" y="9.42"/>
  <rect class="cls-1" height="1.17" width="1.17" x="14.16" y="9.42"/>
  <rect class="cls-1" height="1.17" width="1.17" x="9.5" y="7.08"/>
  <rect class="cls-1" height="1.17" width="1.17" x="14.16" y="11.76"/>
  <rect class="cls-1" height="3.48" width="1.17" x="16.49" y="9.42"/>
  <path class="cls-1"
        d="M4,11H6.5a2.22,2.22,0,0,1,1.59.55,1.73,1.73,0,0,1,.46,1.25h0a1.69,1.69,0,0,1-1.16,1.69l1.33,1.95H7.32L6.15,14.74H5.21v1.75H4Zm2.41,2.65c.59,0,.92-.32.92-.77v0c0-.51-.36-.78-.94-.78H5.21v1.57Z"/>
</svg>
