<svg data-name="Слой 1" id="Слой_1" viewBox="0 0 20 20" xmlns="http://www.w3.org/2000/svg">
  <defs>
    <style>.cls-1 {
      fill: #bfc5d1;
    }</style>
  </defs>
  <title>tab</title>
  <path class="cls-1"
        d="M19.61,10.73A1.88,1.88,0,0,0,18.35,10a1.85,1.85,0,0,0-1.37.38l-4.46,3.46a2.45,2.45,0,0,1-1.52.52H9.93a4.36,4.36,0,0,0,1.32-3.12.63.63,0,0,0-.63-.62H3.75V10a.63.63,0,0,0-.63-.62H.62A.62.62,0,0,0,0,10v8.75a.62.62,0,0,0,.62.62h2.5a.63.63,0,0,0,.63-.62v-.63h8.32A3.17,3.17,0,0,0,14,17.47l5.29-4.11A1.91,1.91,0,0,0,20,12.1,1.86,1.86,0,0,0,19.61,10.73ZM2.5,18.12H1.25v-7.5H2.5ZM18.75,12a.69.69,0,0,1-.25.42l-5.28,4.11a1.92,1.92,0,0,1-1.15.39H3.75v-5H9.94a3.13,3.13,0,0,1-3.07,2.49.63.63,0,0,0,0,1.25H11a3.75,3.75,0,0,0,2.3-.79l4.45-3.45a.65.65,0,0,1,.44-.13.64.64,0,0,1,.43.25A.65.65,0,0,1,18.75,12Z"/>
  <path class="cls-1"
        d="M10.62.63A1.88,1.88,0,1,0,12.5,2.5,1.87,1.87,0,0,0,10.62.63Zm0,2.5A.63.63,0,0,1,10,2.5a.63.63,0,0,1,1.25,0A.63.63,0,0,1,10.62,3.13Z"/>
  <path class="cls-1"
        d="M14.37,5.63A1.88,1.88,0,1,0,16.25,7.5,1.87,1.87,0,0,0,14.37,5.63Zm0,2.5a.63.63,0,0,1-.62-.63A.63.63,0,0,1,15,7.5.63.63,0,0,1,14.37,8.13Z"/>
  <path class="cls-1"
        d="M16,.77a.64.64,0,0,0-.89.08L8.89,8.35A.63.63,0,0,0,9,9.23a.62.62,0,0,0,.4.15.62.62,0,0,0,.48-.23l6.25-7.5A.62.62,0,0,0,16,.77Z"/>
</svg>
