<svg data-name="Слой 1" id="Слой_1" viewBox="0 0 20 20" xmlns="http://www.w3.org/2000/svg">
  <defs>
    <style>.cls-1 {
      fill: url(#Безымянный_градиент_9);
    }</style>
    <linearGradient gradientTransform="translate(9.65 3.53)" gradientUnits="userSpaceOnUse" id="Безымянный_градиент_9" x1="-11.36" x2="13.32"
                    y1="6.47" y2="6.47">
      <stop offset="0" stop-color="#2f76a2"/>
      <stop offset="1" stop-color="#2b448b"/>
    </linearGradient>
  </defs>
  <title>tab</title>
  <path class="cls-1"
        d="M15,11H8v1.5h7Zm0-3.5H8V9h7ZM12,4V0H0V20H12V16h8V12.25H19v-.5h1V8.25H19v-.5h1V4ZM8,18.5H4L1.5,16V4L4,1.5H8L10.5,4H5V7.5H4v5H5V16h5.5ZM18.5,7h-1V9h1v2h-1v2h1v1.5H6.5v-9h12Z"/>
</svg>
