<svg data-name="Layer 1" id="Layer_1" viewBox="0 0 27.89 28" xmlns="http://www.w3.org/2000/svg"
     xmlns:xlink="http://www.w3.org/1999/xlink">
  <defs>
    <style>.cls-1 {
      fill: url(#Безымянный_градиент_10);
    }

    .cls-2 {
      fill: url(#Безымянный_градиент_10-2);
    }

    .cls-3 {
      fill: url(#Безымянный_градиент_10-3);
    }</style>
    <linearGradient gradientUnits="userSpaceOnUse" id="Безымянный_градиент_10" x1="0.25" x2="28.5" y1="11.01"
                    y2="11.01">
      <stop offset="0" stop-color="#e4877a"/>
      <stop offset="1" stop-color="#dd3839"/>
    </linearGradient>
    <linearGradient id="Безымянный_градиент_10-2" x2="28.5" xlink:href="#Безымянный_градиент_10" y1="20.56" y2="20.56"/>
    <linearGradient id="Безымянный_градиент_10-3" x2="28.5" xlink:href="#Безымянный_градиент_10" y1="14" y2="14"/>
  </defs>
  <title>Artboard 1</title>
  <path class="cls-1" d="M15.18,16.54l.5-11.08H12.09l.5,11.08Zm0,0"/>
  <path class="cls-2" d="M13.9,18.6a2,2,0,0,0,0,3.93h0a1.86,1.86,0,0,0,1.92-2,1.86,1.86,0,0,0-1.92-2Zm0,0"/>
  <path class="cls-3"
        d="M13.89,0a14,14,0,1,0,14,14,14,14,0,0,0-14-14Zm0,26.16A12.16,12.16,0,1,1,26.05,14,12.18,12.18,0,0,1,13.89,26.16Zm0,0"/>
</svg>
