<svg data-name="Capa 1" id="Capa_1" viewBox="0 0 25 25" xmlns="http://www.w3.org/2000/svg">
  <defs>
    <style>.cls-1 {
      fill: #19233c;
    }</style>
  </defs>
  <title>1</title>
  <path class="cls-1"
        d="M7.81,16a4.69,4.69,0,1,0,4.69-4.69A4.69,4.69,0,0,0,7.81,16Zm4.69-3.13A3.13,3.13,0,1,1,9.38,16,3.13,3.13,0,0,1,12.5,12.89Z"/>
  <rect class="cls-1" height="1.56" width="3.13" x="18.75" y="9.77"/>
  <rect class="cls-1" height="1.56" width="1.56" x="23.44" y="12.89"/>
  <rect class="cls-1" height="1.56" width="1.56" x="23.44" y="16.02"/>
  <polygon class="cls-1"
           points="17.8 6.64 17.02 3.52 12.5 3.52 12.5 5.08 15.8 5.08 16.58 8.2 23.44 8.2 23.44 11.33 25 11.33 25 6.64 17.8 6.64"/>
  <polygon class="cls-1"
           points="23.44 22.27 1.56 22.27 1.56 12.11 0 12.11 0 23.83 25 23.83 25 19.14 23.44 19.14 23.44 22.27"/>
  <path class="cls-1"
        d="M3.13,12.11H7.81V9h3.13V4.3H7.81V1.17H3.13V4.3H0V9H3.13ZM1.56,7.42V5.86H4.69V2.73H6.25V5.86H9.38V7.42H6.25v3.13H4.69V7.42Z"/>
</svg>
