<svg data-name="Слой 1" id="Слой_1" viewBox="0 0 20 20" xmlns="http://www.w3.org/2000/svg">
  <defs>
    <style>.cls-1 {
      fill: #fff;
    }</style>
  </defs>
  <title>add_new_equipment</title>
  <rect class="cls-1" height="6.73" width="1.5" x="9.25" y="6.64"/>
  <rect class="cls-1" height="1.5" width="6.73" x="6.64" y="9.25"/>
  <path class="cls-1"
        d="M10,0A10,10,0,1,0,20,10,10,10,0,0,0,10,0Zm8.35,12.66a8.76,8.76,0,0,1-16.7,0l-.3-1.24a7.93,7.93,0,0,1-.11-1.29.62.62,0,0,0,.6.49H3.47a.62.62,0,1,0,0-1.24H1.84a.62.62,0,0,0-.6.49A8.77,8.77,0,0,1,9.87,1.24a.62.62,0,0,0-.49.6V3.47a.62.62,0,0,0,1.24,0V1.84a.62.62,0,0,0-.49-.6,8.77,8.77,0,0,1,8.63,8.63.62.62,0,0,0-.6-.49H16.53a.62.62,0,1,0,0,1.24h1.63a.62.62,0,0,0,.6-.49,7.93,7.93,0,0,1-.11,1.29Z"/>
  <path class="cls-1"
        d="M6.54,2.77h0a.62.62,0,0,0-.38-.29.6.6,0,0,0-.47.07.62.62,0,0,0-.22.84l.69,1.2a.63.63,0,0,0,.54.31h0A.68.68,0,0,0,7,4.82.62.62,0,0,0,7.24,4Z"/>
  <path class="cls-1"
        d="M15.72,7.32A.59.59,0,0,0,16,7.23l1.2-.69a.6.6,0,0,0,.29-.37.64.64,0,0,0-.06-.47.61.61,0,0,0-.84-.23l-1.21.69a.62.62,0,0,0-.23.85A.63.63,0,0,0,15.72,7.32Z"/>
  <path class="cls-1"
        d="M4.6,6.17l-1.21-.7a.64.64,0,0,0-.47-.07.69.69,0,0,0-.38.29.64.64,0,0,0-.06.47.63.63,0,0,0,.28.38L4,7.23a.59.59,0,0,0,.31.09l.16,0A.65.65,0,0,0,4.82,7a.64.64,0,0,0,.06-.47A.58.58,0,0,0,4.6,6.17Z"/>
  <path class="cls-1"
        d="M13,4.82a.68.68,0,0,0,.31.08.63.63,0,0,0,.54-.31l.69-1.2a.63.63,0,0,0-.23-.85.63.63,0,0,0-.84.23L12.77,4A.63.63,0,0,0,13,4.82Z"/>
</svg>
