<svg data-name="Слой 1" id="Слой_1" viewBox="0 0 35 35" xmlns="http://www.w3.org/2000/svg">
  <defs>
    <style>.cls-1 {
      fill: #bfc6d1;
    }</style>
  </defs>
  <title>no_image_equipment</title>
  <path class="cls-1"
        d="M17.5,0A17.5,17.5,0,1,0,35,17.5,17.52,17.52,0,0,0,17.5,0Zm0,1.46a16,16,0,0,1,15.77,19H22.15a.71.71,0,0,0-.63.36,4.77,4.77,0,0,1-4,2.55,4.77,4.77,0,0,1-4-2.55.71.71,0,0,0-.63-.36H1.73a16,16,0,0,1,15.77-19Zm0,32.08A16.07,16.07,0,0,1,2.07,21.88H12.45a6.11,6.11,0,0,0,5.05,2.91,6.11,6.11,0,0,0,5.05-2.91H32.93A16.07,16.07,0,0,1,17.5,33.54Z"/>
  <path class="cls-1"
        d="M17.5,20.42a2.92,2.92,0,0,0,2.92-2.89,3,3,0,0,0-.72-1.93l4.15-4.15a.73.73,0,0,0-1-1l-4.34,4.34a3.32,3.32,0,0,0-1-.18,2.92,2.92,0,1,0,0,5.84Zm0-4.38A1.46,1.46,0,1,1,16,17.5,1.46,1.46,0,0,1,17.5,16Z"/>
  <path class="cls-1" d="M17.5,6.56a.73.73,0,0,0,.73-.73V2.92a.73.73,0,0,0-1.46,0V5.83A.73.73,0,0,0,17.5,6.56Z"/>
  <path class="cls-1" d="M28.44,17.5a.73.73,0,0,0,.73.73h2.91a.73.73,0,0,0,0-1.46H29.17A.73.73,0,0,0,28.44,17.5Z"/>
  <path class="cls-1" d="M2.92,18.23H5.83a.73.73,0,0,0,0-1.46H2.92a.73.73,0,0,0,0,1.46Z"/>
  <path class="cls-1"
        d="M11,7.64a.73.73,0,0,0,1,.28.75.75,0,0,0,.28-1h0L11,4.76a.74.74,0,0,0-1-.26.73.73,0,0,0-.26,1Z"/>
  <path class="cls-1"
        d="M27.72,12.33a.79.79,0,0,0,.37-.1L30.24,11a.73.73,0,0,0-.72-1.27h0L27.36,11a.73.73,0,0,0,.36,1.36Z"/>
  <path class="cls-1" d="M4.76,11l2.15,1.24a.73.73,0,0,0,1-.26.72.72,0,0,0-.26-1h0L5.49,9.73A.73.73,0,1,0,4.75,11Z"/>
  <path class="cls-1" d="M23,7.91a.72.72,0,0,0,1-.27l1.24-2.15A.73.73,0,0,0,24,4.76L22.77,6.92A.72.72,0,0,0,23,7.91Z"/>
</svg>
