<svg data-name="Capa 1" id="Capa_1" viewBox="0 0 22.01 20" xmlns="http://www.w3.org/2000/svg">
  <defs>
    <style>.cls-1 {
      fill: url(#Безымянный_градиент_44);
    }</style>
    <linearGradient gradientUnits="userSpaceOnUse" id="Безымянный_градиент_44" x1="-4.85" x2="26.65" y1="10" y2="10">
      <stop offset="0" stop-color="#307ea6"/>
      <stop offset="1" stop-color="#2a3a86"/>
    </linearGradient>
  </defs>
  <title>Монтажная область 1 копия</title>
  <path class="cls-1"
        d="M21.74,5.52a2.24,2.24,0,0,0-4.15,1.56L15.18,8.37A4.64,4.64,0,0,0,12,6.46V4.4a2.24,2.24,0,1,0-1.16,0V6.46A4.65,4.65,0,0,0,7.11,9.29L4.47,8.58A2.24,2.24,0,0,0,.08,8a2.24,2.24,0,0,0,1.58,2.74,2.25,2.25,0,0,0,.59.08A2.23,2.23,0,0,0,4.17,9.71l2.64.71a4.66,4.66,0,0,0,0,.63,4.61,4.61,0,0,0,1,2.84L5.8,15.83a2.24,2.24,0,1,0,.82.82l1.94-1.94a4.62,4.62,0,0,0,5.68,0l1.94,1.94a2.24,2.24,0,1,0,.82-.82l-1.94-1.94a4.62,4.62,0,0,0,.67-4.5L18.14,8.1a2.22,2.22,0,0,0,1,.61,2.22,2.22,0,0,0,1.7-.17,2.24,2.24,0,0,0,.92-3Zm-1.47,2a1.07,1.07,0,1,1-.51-2,1.08,1.08,0,0,1,.31,0,1.07,1.07,0,0,1,.2,2Zm-5.4,3.53A3.47,3.47,0,1,1,11.4,7.58,3.48,3.48,0,0,1,14.87,11.05ZM10.33,2.24A1.07,1.07,0,1,1,11.4,3.31,1.07,1.07,0,0,1,10.33,2.24ZM2,9.62a1.07,1.07,0,1,1,1.31-.76A1.07,1.07,0,0,1,2,9.62Zm3.49,8.9a1.07,1.07,0,1,1,0-1.52A1.07,1.07,0,0,1,5.45,18.52ZM18.87,17a1.07,1.07,0,1,1-.76-.31A1.07,1.07,0,0,1,18.87,17Z"/>
</svg>
