<?xml version="1.0" encoding="utf-8"?>
<!-- Generator: Adobe Illustrator 22.1.0, SVG Export Plug-In . SVG Version: 6.00 Build 0)  -->
<svg id="Capa_1" style="enable-background:new 0 0 20 20;" version="1.1" viewBox="0 0 20 20" x="0px"
     xml:space="preserve" xmlns="http://www.w3.org/2000/svg" y="0px">
<style type="text/css">
	.st0 {
    fill: #AEB4C0;
  }
</style>
  <title>tab</title>
  <g>
	<path class="st0" d="M8.3,2h11.1C19.7,2,20,1.6,20,1.1s-0.3-0.9-0.6-0.9H8.3C8,0.1,7.7,0.5,7.7,1S8,2,8.3,2z"/>
    <path class="st0" d="M8.3,6.4h7.2c0.4,0,0.7-0.4,0.7-0.9s-0.3-0.9-0.6-0.9H8.3C8,4.6,7.7,5,7.7,5.5S8,6.4,8.3,6.4z"/>
    <path class="st0" d="M2.9,13.4c-1.6,0-2.9,1.3-2.9,2.9s1.3,2.9,2.9,2.9c1.6,0,2.9-1.3,2.9-2.9c0,0,0,0,0,0
		C5.8,14.6,4.5,13.4,2.9,13.4z"/>
    <path class="st0" d="M3.1,5.8C4.7,5.8,6,4.5,6,2.9S4.7,0,3.1,0l0,0C1.5-0.1,0.1,1.1,0,2.7s1.1,3,2.7,3.1C2.8,5.8,3,5.8,3.1,5.8
		L3.1,5.8z"/>
    <path class="st0"
          d="M19.4,13.7H8.3c-0.3,0-0.6,0.4-0.6,0.9s0.3,0.9,0.6,0.9h11.1c0.4,0,0.6-0.4,0.6-0.9S19.7,13.7,19.4,13.7z"/>
    <path class="st0"
          d="M15.5,18.2H8.3c-0.3,0-0.6,0.4-0.6,0.9S8,20,8.3,20h7.2c0.4,0,0.7-0.4,0.7-0.9S15.8,18.2,15.5,18.2z"/>
</g>
</svg>
