<svg data-name="Capa 1" id="Capa_1" viewBox="0 0 20 20" xmlns="http://www.w3.org/2000/svg">
  <defs>
    <style>.cls-1 {
      fill: url(#Безымянный_градиент_44);
    }</style>
    <linearGradient gradientUnits="userSpaceOnUse" id="Безымянный_градиент_44" x1="-5.02" x2="25.25" y1="10" y2="10">
      <stop offset="0" stop-color="#307ea6"/>
      <stop offset="1" stop-color="#2a3a86"/>
    </linearGradient>
  </defs>
  <title>Монтажная область 1</title>
  <path class="cls-1"
        d="M16.42,12.33H14.08l1-1.47a7.39,7.39,0,0,0-.58-9,6.19,6.19,0,0,0-8.87,0,7.39,7.39,0,0,0-.59,9l1,1.48H3.58L0,20H20ZM10.12,4A2.33,2.33,0,1,1,7.83,6.33,2.31,2.31,0,0,1,10.12,4ZM4,13h2.5l3.57,5.25L13.63,13H16l3,6.33H1Z"/>
</svg>
