<svg data-name="Capa 1" id="Capa_1" viewBox="0 0 25 25" xmlns="http://www.w3.org/2000/svg">
  <defs>
    <style>.cls-1 {
      fill: #19233c;
    }</style>
  </defs>
  <title>1</title>
  <path class="cls-1"
        d="M24.06.16H.94A.94.94,0,0,0,0,1.1V23.9a.94.94,0,0,0,.94.94H24.06A.94.94,0,0,0,25,23.9V1.1A.94.94,0,0,0,24.06.16ZM22.34,18.84H2.39V2.7h20Z"/>
  <circle class="cls-1" cx="6.23" cy="6.82" r="2.77"/>
  <path class="cls-1"
        d="M6.76,13.39l-2.6,3.07c-.64.76-.35,1.39.65,1.39H19.7a1,1,0,0,0,.93-1.59l-4.49-8a1,1,0,0,0-1.85-.05l-2.61,4.17a1.68,1.68,0,0,1-2.35.6A2,2,0,0,0,6.76,13.39Z"/>
</svg>
