<svg data-name="Layer 1" id="Layer_1" viewBox="0 0 32 32" xmlns="http://www.w3.org/2000/svg"
     xmlns:xlink="http://www.w3.org/1999/xlink">
  <defs>
    <style>.cls-1 {
      isolation: isolate;
    }

    .cls-2 {
      fill: url(#linear-gradient);
    }

    .cls-3 {
      fill: url(#linear-gradient-2);
    }

    .cls-4 {
      fill: url(#linear-gradient-3);
    }

    .cls-5 {
      fill: url(#linear-gradient-4);
    }</style>
    <linearGradient gradientUnits="userSpaceOnUse" id="linear-gradient" x1="8.28" x2="24.79" y1="16.53" y2="9.42">
      <stop offset="0" stop-color="#2f76a2"/>
      <stop offset="0.25" stop-color="#2e689b"/>
      <stop offset="1" stop-color="#2b4189"/>
    </linearGradient>
    <linearGradient id="linear-gradient-2" x1="13.48" x2="26.69" xlink:href="#linear-gradient" y1="19.72" y2="12.7"/>
    <linearGradient gradientUnits="userSpaceOnUse" id="linear-gradient-3" x1="13.49" x2="24.71" y1="25.55" y2="21.41">
      <stop offset="0.01" stop-color="#2f76a2"/>
      <stop offset="0.19" stop-color="#2e689b"/>
      <stop offset="0.71" stop-color="#2b4189"/>
    </linearGradient>
    <linearGradient id="linear-gradient-4" x1="1.64" x2="31.94" xlink:href="#linear-gradient" y1="20.78" y2="10.64"/>
  </defs>
  <title>VR</title>
  <g class="cls-1">
    <polygon class="cls-2"
             points="15.57 11.68 13.55 11.68 11.32 17.69 9.09 11.68 7.01 11.68 10.46 20.27 12.12 20.27 15.57 11.68"/>
    <path class="cls-3"
          d="M24,14.52v0c0-1.76-1.21-2.82-3.22-2.82h-3.9v8.53h1.88V17.48h1.47l1.83,2.73h2.19l-2.08-3A2.67,2.67,0,0,0,24,14.52Zm-1.91.1c0,.72-.52,1.21-1.43,1.21h-1.9V13.38h1.86c.91,0,1.47.41,1.47,1.21Z"/>
    <rect class="cls-4" height="3.06" width="8.07" x="11.76" y="23.17"/>
    <path class="cls-5"
          d="M16,0A16,16,0,1,0,32,16,16,16,0,0,0,16,0Zm0,29.85A13.87,13.87,0,0,1,2.12,16c0-.33,0-.66,0-1H5.32V13H2.44A13.8,13.8,0,0,1,6,6.38L8,8.44,9.42,7.05l-2-2A13.87,13.87,0,0,1,15,2.14V5.25h2V2.14A13.81,13.81,0,0,1,24.5,5l-2,2,1.38,1.39L26,6.32a13.84,13.84,0,0,1,3.6,6.7h-3v2h3.26c0,.33.05.66.05,1A13.87,13.87,0,0,1,16,29.85Z"/>
  </g>
</svg>
