<svg data-name="Layer 1" id="Layer_1" viewBox="0 0 20 20" xmlns="http://www.w3.org/2000/svg">
  <defs>
    <style>.cls-1 {
      fill: #18233c;
    }</style>
  </defs>
  <title>category</title>
  <rect class="cls-1" height="1.17" width="6.64" x="6.68" y="14.55"/>
  <rect class="cls-1" height="3.1" width="6.64" x="6.68" y="16.9"/>
  <path class="cls-1"
        d="M5.12,3.84l.26-.33H1.61a.59.59,0,0,0-.56.42L0,7.45a.59.59,0,0,0,.56.75H5.51V6.41A1.76,1.76,0,0,1,5.12,3.84Z"/>
  <path class="cls-1"
        d="M20,7.45l-1-3.52a.59.59,0,0,0-.56-.42H14.62l.26.33a1.76,1.76,0,0,1-.39,2.56V8.2h4.92A.59.59,0,0,0,20,7.45Z"/>
  <path class="cls-1" d="M10.46.22a.59.59,0,0,0-.91,0L6,4.58a.59.59,0,0,0,.46,1h7a.59.59,0,0,0,.46-1Z"/>
  <path class="cls-1"
        d="M6.68,13.38h6.64V6.71H6.68Zm2-3.81A.59.59,0,0,1,9.22,9h1.56a.59.59,0,0,1,.59.59v1.54a.59.59,0,0,1-.59.59H9.22a.59.59,0,0,1-.59-.59Z"/>
  <path class="cls-1"
        d="M14.49,20H18.2a.59.59,0,0,0,.59-.59v-10h-4.3Zm1.17-8.87a.59.59,0,0,1,.59-.59H17a.59.59,0,0,1,.59.59v3.81a.59.59,0,0,1-.59.59h-.78a.59.59,0,0,1-.59-.59Zm0,6.16a.59.59,0,0,1,.59-.59H17a.59.59,0,0,1,.59.59v1a.59.59,0,0,1-.59.59h-.78a.59.59,0,0,1-.59-.59Z"/>
  <path class="cls-1"
        d="M1.21,19.41A.59.59,0,0,0,1.8,20H5.51V9.38H1.21Zm1.17-8.28A.59.59,0,0,1,3,10.55h.78a.59.59,0,0,1,.59.59v3.81a.59.59,0,0,1-.59.59H3a.59.59,0,0,1-.59-.59Zm0,6.16A.59.59,0,0,1,3,16.7h.78a.59.59,0,0,1,.59.59v1a.59.59,0,0,1-.59.59H3a.59.59,0,0,1-.59-.59Z"/>
</svg>
