<svg data-name="Layer 1" id="Layer_1" viewBox="0 0 20 20" xmlns="http://www.w3.org/2000/svg">
  <defs>
    <style>.cls-1 {
      fill: #18233c;
    }</style>
  </defs>
  <title>category</title>
  <polygon class="cls-1" points="0 20 2.34 20 2.34 10.72 0 11.89 0 20"/>
  <polygon class="cls-1" points="17.66 10.72 17.66 20 20 20 20 11.89 17.66 10.72"/>
  <polygon class="cls-1" points="15.11 2.34 13.52 2.34 13.52 4.13 16.09 7.34 15.11 2.34"/>
  <polygon class="cls-1" points="3.91 7.34 6.48 4.13 6.48 2.34 4.89 2.34 3.91 7.34"/>
  <polygon class="cls-1" points="3.52 20 6.48 20 6.48 6 3.52 9.7 3.52 20"/>
  <polygon class="cls-1" points="13.52 20 16.48 20 16.48 9.7 13.52 6 13.52 20"/>
  <path class="cls-1" d="M10,13a2.35,2.35,0,0,0-2.34,2.34V20h4.69V15.31A2.35,2.35,0,0,0,10,13Z"/>
  <path class="cls-1" d="M7.66,12.69a3.51,3.51,0,0,1,4.69,0V5.27H7.66Z"/>
  <rect class="cls-1" height="4.1" width="4.69" x="7.66"/>
</svg>
