<svg data-name="Layer 1" id="Layer_1" viewBox="0 0 20 20" xmlns="http://www.w3.org/2000/svg">
  <defs>
    <style>.cls-1 {
      fill: #18233c;
    }</style>
  </defs>
  <title>category</title>
  <rect class="cls-1" height="1.21" width="1.17" x="8.21" y="16.41"/>
  <rect class="cls-1" height="1.21" width="1.18" x="3.52" y="16.41"/>
  <path class="cls-1" d="M9.18,7.62a.59.59,0,0,0-.59.59V10H9.77V8.2A.59.59,0,0,0,9.18,7.62Z"/>
  <polygon class="cls-1" points="8.43 14.06 4.46 14.06 3.88 15.23 9.02 15.23 8.43 14.06"/>
  <path class="cls-1" d="M3.71,7.62a.59.59,0,0,0-.59.59V10H4.3V8.2A.59.59,0,0,0,3.71,7.62Z"/>
  <rect class="cls-1" height="1.21" width="1.17" x="8.21" y="18.79"/>
  <rect class="cls-1" height="1.21" width="1.18" x="3.52" y="18.79"/>
  <rect class="cls-1" height="3.59" width="1.17" x="5.87" y="16.41"/>
  <polygon class="cls-1" points="12.08 2.34 0.81 2.34 0.22 3.52 12.67 3.52 12.08 2.34"/>
  <rect class="cls-1" height="1.17" width="1.17" x="1.17"/>
  <rect class="cls-1" height="1.17" width="1.17" x="4.3"/>
  <rect class="cls-1" height="1.17" width="1.17" x="7.42"/>
  <rect class="cls-1" height="1.17" width="1.17" x="10.55"/>
  <path class="cls-1"
        d="M18.83,16.48v1.17H17.61V12.23h0A2.35,2.35,0,0,0,20,9.88V4.69H18.8V6.76a1.17,1.17,0,0,1-1.17,1.17h0V3.52H16.44v7.54h0a1.17,1.17,0,0,1-1.17-1.17v-4H14.08V13a2.35,2.35,0,0,0,2.34,2.34h0v2.3H15.26V16.48H14.09v1.17h-1.2v-13H0V20H2.35V15.68l1.39-2.79H9.16l1.39,2.79V20h2.34V18.83h1.2V20h1.17V18.83h1.18V20h1.17V18.83h1.22V20H20V16.48ZM17.61,9.1h0a2.33,2.33,0,0,0,1.17-.32v1.1a1.17,1.17,0,0,1-1.17,1.17h0Zm-12.14,2H2V8.2a1.76,1.76,0,0,1,3.52,0Zm5.47,0H7.42V8.2a1.76,1.76,0,0,1,3.52,0Zm5.5,3h0A1.17,1.17,0,0,1,15.25,13v-1.1a2.33,2.33,0,0,0,1.17.32h0Z"/>
</svg>
