<svg data-name="Layer 1" id="Layer_1" viewBox="0 0 20 20" xmlns="http://www.w3.org/2000/svg">
  <defs>
    <style>.cls-1 {
      fill: #18233c;
    }</style>
  </defs>
  <title>category</title>
  <path class="cls-1"
        d="M17.67,2.22a1.67,1.67,0,0,0-1.55-1.11H3.89A1.57,1.57,0,0,0,2.33,2.22L0,8.89v8.89a1.05,1.05,0,0,0,1.11,1.11H2.23a1,1,0,0,0,1.11-1.11V16.67H16.67v1.11a1.05,1.05,0,0,0,1.11,1.11h1.11A1,1,0,0,0,20,17.78V8.89ZM3.89,13.33a1.67,1.67,0,0,1,0-3.34,1.67,1.67,0,0,1,0,3.34Zm12.23,0a1.67,1.67,0,1,1,1.67-1.67A1.72,1.72,0,0,1,16.12,13.33ZM2.23,7.78l1.67-5H16.12l1.67,5Z"/>
</svg>
