<svg data-name="Layer 1" id="Layer_1" viewBox="0 0 20 20" xmlns="http://www.w3.org/2000/svg">
  <defs>
    <style>.cls-1 {
      fill: #18233c;
    }</style>
  </defs>
  <title>category</title>
  <path class="cls-1"
        d="M19.93,10.28A.82.82,0,0,0,18.8,10l-2.74,1.59-.7.41v3.8l.65.38s0,0,0,0l2.69,1.56a.74.74,0,0,0,.46.14.81.81,0,0,0,.82-.82V13.86l0-3.17A.63.63,0,0,0,19.93,10.28Z"/>
  <path class="cls-1"
        d="M3.92,9.05A3.87,3.87,0,1,0,0,5.18,3.87,3.87,0,0,0,3.92,9.05Zm0-5.46A1.59,1.59,0,1,1,2.33,5.18,1.56,1.56,0,0,1,3.92,3.59Z"/>
  <path class="cls-1"
        d="M13.73,9.27a4.61,4.61,0,0,1-2.07.5A4.49,4.49,0,0,1,9.16,9H6.42a4.49,4.49,0,0,1-2.5.75,4.31,4.31,0,0,1-2.07-.5,1.88,1.88,0,0,0-.94,1.61v5.87a2,2,0,0,0,1.95,1.95h9.88a2,2,0,0,0,1.95-1.95V10.88A2,2,0,0,0,13.73,9.27Z"/>
  <path class="cls-1"
        d="M11.66,9.05A3.87,3.87,0,1,0,7.79,5.18,3.87,3.87,0,0,0,11.66,9.05Zm0-5.46a1.59,1.59,0,1,1-1.59,1.59A1.58,1.58,0,0,1,11.66,3.59Z"/>
</svg>
