<svg data-name="Layer 1" id="Layer_1" viewBox="0 0 20 20" xmlns="http://www.w3.org/2000/svg">
  <defs>
    <style>.cls-1 {
      fill: #18233c;
    }</style>
  </defs>
  <title>category</title>
  <path class="cls-1"
        d="M19.41,16.84h-1V11.76H16.06a1.76,1.76,0,0,1-1.38-.66,1.76,1.76,0,0,1-1.38.66H6.69a1.76,1.76,0,0,1-1.38-.66,1.76,1.76,0,0,1-1.38.66H1.6v5.08h-1a.59.59,0,0,0-.59.59v2A.59.59,0,0,0,.59,20H19.41a.59.59,0,0,0,.59-.59v-2A.59.59,0,0,0,19.41,16.84Zm-12.93-1a.59.59,0,0,1-.59.59H3.55A.59.59,0,0,1,3,15.86V13.52a.59.59,0,0,1,.59-.59H5.9a.59.59,0,0,1,.59.59Zm5.66,1H7.85V14.69a2.15,2.15,0,0,1,4.3,0Zm4.88-1a.59.59,0,0,1-.59.59H14.1a.59.59,0,0,1-.59-.59V13.52a.59.59,0,0,1,.59-.59h2.34a.59.59,0,0,1,.59.59Z"/>
  <path class="cls-1"
        d="M.59,10.59H3.94a.59.59,0,0,0,.51-.29l.87-1.5.87,1.5a.59.59,0,0,0,.51.29h6.62a.59.59,0,0,0,.51-.29l.87-1.5.87,1.5a.59.59,0,0,0,.51.29h3.35A.59.59,0,0,0,20,9.84l-2.06-7a.59.59,0,0,0-.56-.42H15.89V1.17a.59.59,0,0,0,0-1.17H12.37a.59.59,0,0,0,0,1.17V2.38H2.64a.59.59,0,0,0-.56.42L0,9.84a.59.59,0,0,0,.56.75Zm13-9.41h1.17V2.38H13.54Z"/>
</svg>
