<svg data-name="Layer 1" id="Layer_1" viewBox="0 0 20 20" xmlns="http://www.w3.org/2000/svg">
  <defs>
    <style>.cls-1 {
      fill: #18233c;
    }</style>
  </defs>
  <title>category</title>
  <path class="cls-1"
        d="M19.6,4.83,18,0H2L.4,4.84A1.87,1.87,0,0,0,0,6,2.15,2.15,0,0,0,2.25,8,2.31,2.31,0,0,0,4.19,7,2.31,2.31,0,0,0,6.13,8,2.31,2.31,0,0,0,8.06,7a2.38,2.38,0,0,0,3.87,0,2.38,2.38,0,0,0,3.87,0,2.31,2.31,0,0,0,1.94,1A2.15,2.15,0,0,0,20,6,1.87,1.87,0,0,0,19.6,4.83Z"/>
  <polygon class="cls-1"
           points="15.77 17.39 9.97 17.39 9.97 10.26 4.1 10.26 2.16 10.26 1.16 10.26 1.16 20 18.67 20 18.67 10.26 15.77 10.26 15.77 17.39"/>
</svg>
