<svg data-name="Layer 1" id="Layer_1" viewBox="0 0 20 20" xmlns="http://www.w3.org/2000/svg">
  <defs>
    <style>.cls-1 {
      fill: #18233c;
    }</style>
  </defs>
  <title>category</title>
  <polygon class="cls-1" points="11.3 1.27 10 0 8.7 1.27 8.7 3.06 11.3 3.06 11.3 1.27"/>
  <polygon class="cls-1" points="15.06 4.96 12.47 2.42 12.47 9.45 15.06 9.45 15.06 4.96"/>
  <path class="cls-1"
        d="M15.08,13.55a1.8,1.8,0,0,0-1.8,1.8V20h3.59V15.35A1.8,1.8,0,0,0,15.08,13.55Zm0,2.38a.59.59,0,1,1,.59-.59A.59.59,0,0,1,15.08,15.94Z"/>
  <polygon class="cls-1" points="7.53 2.42 4.94 4.96 4.94 9.45 7.53 9.45 7.53 2.42"/>
  <rect class="cls-1" height="1.76" width="2.59" x="8.7" y="7.7"/>
  <rect class="cls-1" height="2.29" width="2.59" x="8.7" y="4.23"/>
  <polygon class="cls-1" points="3.77 6.11 0.35 9.45 3.77 9.45 3.77 6.11"/>
  <rect class="cls-1" height="1.17" width="1.17" x="3.13" y="15.9"/>
  <rect class="cls-1" height="1.17" width="1.17" x="5.47" y="13.55"/>
  <rect class="cls-1" height="1.17" width="1.17" x="7.81" y="13.55"/>
  <rect class="cls-1" height="1.17" width="1.17" x="7.81" y="15.9"/>
  <rect class="cls-1" height="1.17" width="1.17" x="3.13" y="13.55"/>
  <polygon class="cls-1" points="16.23 6.11 16.23 9.45 19.65 9.45 16.23 6.11"/>
  <rect class="cls-1" height="1.17" width="1.17" x="5.47" y="15.9"/>
  <path class="cls-1" d="M0,10.63V20H12.11V15.35a3,3,0,0,1,5.94,0V20h2V10.63Zm10.16,7.62H2V12.38h8.2Z"/>
</svg>
