<svg data-name="Layer 1" id="Layer_1" viewBox="0 0 20 20" xmlns="http://www.w3.org/2000/svg">
  <defs>
    <style>.cls-1 {
      fill: #18233c;
    }</style>
  </defs>
  <title>category</title>
  <path class="cls-1"
        d="M19.69,9.69,10,0,5.43,4.57v-2a.85.85,0,0,0-1.7,0V6.27L.31,9.69a1.06,1.06,0,0,0,1.5,1.51L10,3l8.19,8.18a1.06,1.06,0,0,0,1.5-1.5Z"/>
  <path class="cls-1"
        d="M1.94,12.63v7a.38.38,0,0,0,.37.37H11.1V12.59h4.13V20h2.45a.37.37,0,0,0,.37-.37v-7L10,4.61ZM8.49,16H4.77V12.59H8.49Z"/>
</svg>
