<svg data-name="Layer 1" id="Layer_1" viewBox="0 0 20 20" xmlns="http://www.w3.org/2000/svg">
  <defs>
    <style>.cls-1 {
      fill: #18233c;
    }</style>
  </defs>
  <title>category</title>
  <path class="cls-1" d="M10,13.55a.63.63,0,0,0-.62.63v.55h1.25v-.55A.63.63,0,0,0,10,13.55Z"/>
  <polygon class="cls-1"
           points="11.8 4.69 10.59 4.69 10.59 3.52 9.41 3.52 9.41 4.69 8.2 4.69 8.2 3.52 7.03 3.52 7.03 7.03 12.97 7.03 12.97 3.52 11.8 3.52 11.8 4.69"/>
  <path class="cls-1" d="M7,20H8.2V14.18a1.8,1.8,0,0,1,3.59,0V20H13V8.2H7Z"/>
  <rect class="cls-1" height="4.1" width="1.25" x="9.38" y="15.9"/>
  <path class="cls-1"
        d="M4.71,1.17H3.53V0H2.35V1.17H1.17V0H0V20H5.88V0H4.71ZM3.53,17.66H2.35V15.31H3.53Zm0-3.52H2.35V11.8H3.53Z"/>
  <path class="cls-1"
        d="M18.83,0V1.17H17.65V0H16.47V1.17H15.29V0H14.12V20H20V0ZM17.65,17.66H16.47V15.31h1.17Zm0-3.52H16.47V11.8h1.17Z"/>
</svg>
