<svg data-name="Layer 1" id="Layer_1" viewBox="0 0 20 20" xmlns="http://www.w3.org/2000/svg">
  <defs>
    <style>.cls-1 {
      fill: #18233c;
    }</style>
  </defs>
  <title>category</title>
  <polygon class="cls-1" points="18.75 16.25 18.75 8.75 19.38 7.5 15.63 7.5 16.25 8.75 16.25 16.25 18.75 16.25"/>
  <path class="cls-1" d="M10,0,0,6.25H20Zm0,5a1.25,1.25,0,1,1,1.25-1.25A1.25,1.25,0,0,1,10,5Z"/>
  <polygon class="cls-1" points="8.75 16.25 8.75 8.75 9.38 7.5 5.63 7.5 6.25 8.75 6.25 16.25 8.75 16.25"/>
  <polygon class="cls-1" points="0.63 17.5 0 20 20 20 19.38 17.5 0.63 17.5"/>
  <polygon class="cls-1" points="3.75 16.25 3.75 8.75 4.38 7.5 0.63 7.5 1.25 8.75 1.25 16.25 3.75 16.25"/>
  <polygon class="cls-1" points="13.75 16.25 13.75 8.75 14.38 7.5 10.63 7.5 11.25 8.75 11.25 16.25 13.75 16.25"/>
</svg>
