<svg data-name="Layer 1" id="Layer_1" viewBox="0 0 20 20" xmlns="http://www.w3.org/2000/svg">
  <defs>
    <style>.cls-1 {
      fill: #18233c;
    }</style>
  </defs>
  <title>category</title>
  <polygon class="cls-1" points="2.64 16.48 0 20 20 20 17.36 16.48 2.64 16.48"/>
  <rect class="cls-1" height="4.77" width="3.54" x="12.94" y="10.55"/>
  <rect class="cls-1" height="4.77" width="3.54" x="3.52" y="10.55"/>
  <polygon class="cls-1" points="0 7.03 0 15.31 2.34 15.31 2.34 9.38 17.66 9.38 17.66 15.31 20 15.31 20 7.03 0 7.03"/>
  <rect class="cls-1" height="4.77" width="3.54" x="8.23" y="10.55"/>
  <rect class="cls-1" height="2.34" width="8.28" x="5.86" y="3.52"/>
  <polygon class="cls-1"
           points="4.69 2.34 15.31 2.34 15.31 5.86 17.66 5.86 17.66 0 2.34 0 2.34 5.86 4.69 5.86 4.69 2.34"/>
</svg>
