<svg data-name="Layer 1" id="Layer_1" viewBox="0 0 20 20" xmlns="http://www.w3.org/2000/svg">
  <defs>
    <style>.cls-1 {
      fill: #18233c;
    }</style>
  </defs>
  <title>category</title>
  <path class="cls-1"
        d="M0,12.19H1.88v1.6l.23-.16.35-.27.35.27.23.16v-1.6H16.95v1.6l.23-.16.35-.27.35.27.23.16v-1.6H20V11H0Z"/>
  <rect class="cls-1" height="3.98" width="2.34" x="6.95" y="5.86"/>
  <rect class="cls-1" height="6.91" width="3.77" x="14.35" y="2.93"/>
  <polygon class="cls-1"
           points="5.77 4.69 10.46 4.69 10.46 9.84 13.18 9.84 13.18 2.93 1.88 2.93 1.88 9.84 5.77 9.84 5.77 4.69"/>
  <rect class="cls-1" height="1.76" width="18.12" x="1.88"/>
  <path class="cls-1"
        d="M17.53,14.8a3.71,3.71,0,0,1-3.77,0,3.72,3.72,0,0,1-3.77,0,3.72,3.72,0,0,1-3.77,0,3.72,3.72,0,0,1-3.77,0,3.68,3.68,0,0,1-1.88.51H0V20H20V15.31h-.59A3.68,3.68,0,0,1,17.53,14.8Z"/>
</svg>
