<svg data-name="Layer 1" id="Layer_1" viewBox="0 0 20 20" xmlns="http://www.w3.org/2000/svg">
  <defs>
    <style>.cls-1 {
      fill: #18233c;
    }</style>
  </defs>
  <title>category</title>
  <polygon class="cls-1"
           points="18.83 1.17 17.66 1.17 17.66 0 16.48 0 16.48 1.17 15.31 1.17 15.31 4.69 18.83 4.69 18.83 1.17"/>
  <polygon class="cls-1" points="4.69 1.17 3.52 1.17 3.52 0 2.34 0 2.34 1.17 1.17 1.17 1.17 4.69 4.69 4.69 4.69 1.17"/>
  <path class="cls-1" d="M15.9,20H20V10.23H15.9Zm1.46-8.55h1.17v2.34H17.36Z"/>
  <polygon class="cls-1" points="0 5.86 0 9.06 4.26 9.06 5.83 5.86 0 5.86"/>
  <path class="cls-1" d="M0,20H4.1V10.23H0Zm1.46-8.55H2.64v2.34H1.46Z"/>
  <polygon class="cls-1" points="14.18 5.86 15.74 9.06 20 9.06 20 5.86 14.18 5.86"/>
  <rect class="cls-1" height="3.91" width="3.52" x="8.24" y="13.16"/>
  <path class="cls-1" d="M5.27,9.65V20h1.8V12.58a2.93,2.93,0,0,1,5.86,0V20h1.8V9.65L10,0Z"/>
  <path class="cls-1" d="M10,10.82A1.76,1.76,0,0,0,8.34,12h3.31A1.76,1.76,0,0,0,10,10.82Z"/>
  <rect class="cls-1" height="1.76" width="3.52" x="8.24" y="18.24"/>
</svg>
