<svg data-name="Layer 1" id="Layer_1" viewBox="0 0 20 20" xmlns="http://www.w3.org/2000/svg">
  <defs>
    <style>.cls-1 {
      fill: #18233c;
    }</style>
  </defs>
  <title>category</title>
  <path class="cls-1" d="M1.37,1.17h1V2H17.62V1.17h1a.59.59,0,0,0,0-1.17H1.37a.59.59,0,0,0,0,1.17Z"/>
  <path class="cls-1"
        d="M1.6,19.41a.59.59,0,0,0,.59.59H3.55V16.68a.59.59,0,0,1,.59-.59H6.48a.59.59,0,0,1,.59.59V20H8.24V16.68a.59.59,0,0,1,.59-.59h2.34a.59.59,0,0,1,.59.59V20h1.17V16.68a.59.59,0,0,1,.59-.59h2.34a.59.59,0,0,1,.59.59V20h1.37a.59.59,0,0,0,.59-.59V13.36H1.6Zm12.3-5.27h1.56a.59.59,0,0,1,0,1.17H13.91a.59.59,0,0,1,0-1.17Zm-4.69,0h1.56a.59.59,0,0,1,0,1.17H9.22a.59.59,0,0,1,0-1.17Zm-4.69,0H6.09a.59.59,0,1,1,0,1.17H4.53a.59.59,0,0,1,0-1.17Z"/>
  <path class="cls-1"
        d="M19.41,11h-1V4.37h1a.59.59,0,0,0,0-1.17H.59a.59.59,0,0,0,0,1.17h1V11h-1a.59.59,0,0,0,0,1.17H19.41a.59.59,0,0,0,0-1.17ZM13.91,5.16h1.56a.59.59,0,0,1,0,1.17H13.91a.59.59,0,0,1,0-1.17Zm-4.69,0h1.56a.59.59,0,0,1,0,1.17H9.22a.59.59,0,0,1,0-1.17Zm-4.69,0H6.09a.59.59,0,0,1,0,1.17H4.53a.59.59,0,0,1,0-1.17ZM7.07,11H3.55V7.7a.59.59,0,0,1,.59-.59H6.48a.59.59,0,0,1,.59.59Zm4.69,0H8.24V7.7a.59.59,0,0,1,.59-.59h2.34a.59.59,0,0,1,.59.59Zm4.69,0H12.93V7.7a.59.59,0,0,1,.59-.59h2.34a.59.59,0,0,1,.59.59Z"/>
</svg>
