<svg data-name="Layer 1" id="Layer_1" viewBox="0 0 20 20" xmlns="http://www.w3.org/2000/svg">
  <defs>
    <style>.cls-1 {
      fill: #18233c;
    }</style>
  </defs>
  <title>category</title>
  <rect class="cls-1" height="1.17" width="1.17" x="15.88" y="12.3"/>
  <path class="cls-1" d="M10,12.3a1.76,1.76,0,0,0-1.76,1.76V20h3.52V14.06A1.76,1.76,0,0,0,10,12.3Z"/>
  <path class="cls-1" d="M0,9.38V20H7.07V14.06a2.93,2.93,0,0,1,5.86,0V20H20V9.38Zm18.22,5.27H14.71V11.13h3.52Z"/>
  <path class="cls-1"
        d="M13.82,3.78a4.1,4.1,0,0,0-3.23-2.56V0H9.41V1.21A4.1,4.1,0,0,0,6.18,3.78L4.35,8.2H15.65ZM10.59,5.86H9.41V4.69h1.17Z"/>
</svg>
