<svg data-name="Layer 1" id="Layer_1" viewBox="0 0 20 20" xmlns="http://www.w3.org/2000/svg">
  <defs>
    <style>.cls-1 {
      fill: #18233c;
    }</style>
  </defs>
  <title>category</title>
  <circle class="cls-1" cx="10" cy="8.24" r="0.59"/>
  <path class="cls-1" d="M3.52,11.8H5.9V6.15a6.47,6.47,0,0,0-2.38,5Z"/>
  <path class="cls-1"
        d="M12.93,5.39a6.48,6.48,0,0,0-5.86,0V11.8h5.86ZM10,10a1.76,1.76,0,1,1,1.76-1.76A1.76,1.76,0,0,1,10,10Z"/>
  <path class="cls-1" d="M14.1,6.15V11.8h2.38v-.62A6.47,6.47,0,0,0,14.1,6.15Z"/>
  <path class="cls-1"
        d="M17.07,4.1A10,10,0,0,0,14.1,2V4.71a7.66,7.66,0,0,1,3.55,6.46V20H20V11.17A9.93,9.93,0,0,0,17.07,4.1Z"/>
  <rect class="cls-1" height="4.1" width="3.52" x="8.24" y="15.9"/>
  <polygon class="cls-1"
           points="3.52 20 7.07 20 7.07 14.73 12.93 14.73 12.93 20 16.48 20 16.48 12.97 3.52 12.97 3.52 20"/>
  <path class="cls-1" d="M5.9,4.71V2A10,10,0,0,0,0,11.17V20H2.34V11.17A7.66,7.66,0,0,1,5.9,4.71Z"/>
  <path class="cls-1" d="M10.59,3.54V0H9.41V3.54l.59,0Z"/>
  <path class="cls-1" d="M12.93,0H11.76V3.72a7.59,7.59,0,0,1,1.17.38Z"/>
  <path class="cls-1" d="M8.24,0H7.07V4.1a7.59,7.59,0,0,1,1.17-.38Z"/>
</svg>
