<svg data-name="Layer 1" id="Layer_1" viewBox="0 0 20 20" xmlns="http://www.w3.org/2000/svg">
  <defs>
    <style>.cls-1 {
      fill: #18233c;
    }</style>
  </defs>
  <title>category</title>
  <path class="cls-1"
        d="M19,1H16V0H4V1H1A.94.94,0,0,0,0,2V4.4A4.54,4.54,0,0,0,4,8.9V9a6,6,0,0,0,4.7,5.9L8,17H5.7a1,1,0,0,0-.9.7L4,20H16l-.8-2.3a1,1,0,0,0-.9-.7H12l-.7-2.1A6,6,0,0,0,16,9V8.9a4.54,4.54,0,0,0,4-4.5V2A.94.94,0,0,0,19,1ZM4,6.9A2.67,2.67,0,0,1,2,4.4V3H4ZM12,10,10,8.9,8,10l.5-2L7,6H9.1L10,4l.9,2H13L11.5,8Zm6-5.6a2.58,2.58,0,0,1-2,2.5V3h2Z"/>
</svg>
