<svg data-name="Layer 1" id="Layer_1" viewBox="0 0 20 20" xmlns="http://www.w3.org/2000/svg">
  <defs>
    <style>.cls-1 {
      fill: #18233c;
    }</style>
  </defs>
  <title>category</title>
  <path class="cls-1"
        d="M5,.38A.42.42,0,0,0,4.58,0H2.08a.42.42,0,0,0-.41.38L0,19.55A.42.42,0,0,0,.42,20H6.27a.42.42,0,0,0,.42-.42.41.41,0,0,0,0-.15Z"/>
  <path class="cls-1"
        d="M19.76,5.87a.42.42,0,0,0-.44.06L15,9.53V6.25a.42.42,0,0,0-.68-.32L10,9.53V6.25a.42.42,0,0,0-.25-.38.41.41,0,0,0-.45.07L6.69,8.34a.42.42,0,0,0-.13.34l.94,10.8s0,.07,0,.11a.42.42,0,0,0,.42.42H19.58a.42.42,0,0,0,.42-.42V6.25A.42.42,0,0,0,19.76,5.87ZM12.5,15.42a.42.42,0,0,1-.42.42H9.58a.42.42,0,0,1-.42-.42v-2.5a.42.42,0,0,1,.42-.42h2.5a.42.42,0,0,1,.42.42Zm5,0a.42.42,0,0,1-.42.42h-2.5a.42.42,0,0,1-.42-.42v-2.5a.42.42,0,0,1,.42-.42h2.5a.42.42,0,0,1,.42.42Z"/>
</svg>
