<svg data-name="Layer 1" id="Layer_1" viewBox="0 0 20 20" xmlns="http://www.w3.org/2000/svg">
  <defs>
    <style>.cls-1 {
      fill: #18233c;
    }</style>
  </defs>
  <title>category</title>
  <rect class="cls-1" height="1.17" width="4.73" x="4.69" y="7.11"/>
  <rect class="cls-1" height="2.42" width="4.73" x="4.69" y="3.52"/>
  <polygon class="cls-1" points="1.17 20 2.34 20 2.34 16.48 8.24 16.48 8.24 12.97 1.17 12.97 1.17 20"/>
  <path class="cls-1"
        d="M15.27,7V1.17h1.21V0H0V1.17H1.17V11.8h14.1V8.2h1.19V13H9.41v7h1.17V18.83H14.1V20h1.17V16.48h3.55V20H20V7ZM10.59,9.45H3.52V2.34h7.07Zm3.52,8.2H10.59V16.48H14.1Zm0-2.34H10.59V14.14H14.1Zm4.73,0H15.27V14.14h3.55Zm0-2.34H17.64V8.2h1.19Z"/>
</svg>
