<svg data-name="Layer 1" id="Layer_1" viewBox="0 0 20 20" xmlns="http://www.w3.org/2000/svg">
  <defs>
    <style>.cls-1 {
      fill: #18233c;
    }</style>
  </defs>
  <title>category</title>
  <rect class="cls-1" height="1.56" width="1.17" x="15.88" y="8.98"/>
  <rect class="cls-1" height="5.35" width="1.58" x="15.68" y="14.65"/>
  <rect class="cls-1" height="5.35" width="1.58" x="18.42" y="14.65"/>
  <path class="cls-1" d="M19.89,6.05H13l-.11.28v7.14H20V6.33Zm-1.67,5.66H14.71V7.81h3.52Z"/>
  <rect class="cls-1" height="5.35" width="1.58" x="12.93" y="14.65"/>
  <path class="cls-1" d="M17.47,0h-2l-2,4.88h5.91Zm-.42,3H15.88V1.86h1.17Z"/>
  <path class="cls-1" d="M8.42,14.65a.59.59,0,0,0-.59.59v1.84H9V15.23A.59.59,0,0,0,8.42,14.65Z"/>
  <path class="cls-1" d="M3.33,14.65a.59.59,0,0,0-.59.59v1.84H3.92V15.23A.59.59,0,0,0,3.33,14.65Z"/>
  <path class="cls-1"
        d="M0,20H11.76V12.3H0Zm6.67-4.77a1.76,1.76,0,1,1,3.52,0v3H6.67Zm-5.09,0a1.76,1.76,0,0,1,3.52,0v3H1.58Z"/>
  <polygon class="cls-1" points="1.88 6.33 0 11.02 0 11.13 11.76 11.13 11.76 6.05 1.88 6.05 1.88 6.33"/>
  <polygon class="cls-1"
           points="5.39 3.71 4.22 3.71 4.22 2.54 3.05 2.54 3.05 3.71 1.88 3.71 1.88 4.88 5.39 4.88 5.39 3.71"/>
</svg>
