<svg data-name="Layer 1" id="Layer_1" viewBox="0 0 20 20" xmlns="http://www.w3.org/2000/svg">
  <defs>
    <style>.cls-1 {
      fill: #18233c;
    }</style>
  </defs>
  <title>category</title>
  <path class="cls-1"
        d="M10,0A10,10,0,1,0,20,10,10,10,0,0,0,10,0Zm0,2.5a7.49,7.49,0,0,1,7,5H3A7.49,7.49,0,0,1,10,2.5ZM2.5,10c3.41,0,6.18,3.29,6.24,7.37A7.5,7.5,0,0,1,2.5,10ZM10,11.25A1.25,1.25,0,1,1,11.25,10,1.25,1.25,0,0,1,10,11.25Zm1.26,6.12C11.32,13.29,14.08,10,17.5,10A7.5,7.5,0,0,1,11.26,17.37Z"/>
</svg>
