<svg data-name="Layer 1" id="Layer_1" viewBox="0 0 20 20" xmlns="http://www.w3.org/2000/svg">
  <defs>
    <style>.cls-1 {
      fill: #18233c;
    }</style>
  </defs>
  <title>category</title>
  <path class="cls-1"
        d="M19.82,8.73,10.37.14a.54.54,0,0,0-.73,0L.18,8.73A.55.55,0,0,0,0,9.34a.55.55,0,0,0,.51.35H2.16L9.64,3a.54.54,0,0,1,.74,0l7.48,6.72h1.59A.55.55,0,0,0,20,9.34.55.55,0,0,0,19.82,8.73Z"/>
  <path class="cls-1"
        d="M2.83,10.56v8.89a.55.55,0,0,0,.55.55H16.64a.55.55,0,0,0,.55-.55V10.56L10,4.12ZM11.7,9.08a.55.55,0,0,1,.55.55v1.72h1.14a.55.55,0,0,1,0,1.1h-.58V13a2.82,2.82,0,0,1-2.25,2.77v2.91a.55.55,0,1,1-1.09,0V15.81A2.82,2.82,0,0,1,7.22,13v-.58H6.64a.55.55,0,0,1,0-1.1H7.78V9.63a.55.55,0,1,1,1.09,0v1.72h2.28V9.63h0A.55.55,0,0,1,11.7,9.08Z"/>
  <path class="cls-1" d="M8.31,13a1.7,1.7,0,1,0,3.41,0v-.58H8.31Z"/>
</svg>
