<svg data-name="Layer 1" id="Layer_1" viewBox="0 0 20 20" xmlns="http://www.w3.org/2000/svg">
  <defs>
    <style>.cls-1 {
      fill: #18233c;
    }</style>
  </defs>
  <title>category</title>
  <path class="cls-1"
        d="M19.66,4.35l0,0a1.18,1.18,0,0,0-1.67,0l-1.8,1.82a.25.25,0,0,1-.35,0L13.27,3.8a1.32,1.32,0,0,0-.9-.35H8.62a.35.35,0,0,0-.24.09l-3.18,3a1.22,1.22,0,0,0-.07,1.68A1.18,1.18,0,0,0,6,8.62H6a1.18,1.18,0,0,0,.86-.38L9.11,5.86h.8L4.67,11.72H1.44A1.41,1.41,0,0,0,0,13a1.37,1.37,0,0,0,.38,1,1.38,1.38,0,0,0,1,.43H6.21a.34.34,0,0,0,.25-.11l2.47-2.64L11,13.91l-.63,4a1.38,1.38,0,0,0,1.33,1.73,1.38,1.38,0,0,0,1.34-1.08l1.07-5.75a.34.34,0,0,0-.1-.31L11.17,9.66l2.27-2.27L15,9a1.2,1.2,0,0,0,1.66,0l3-3a1.16,1.16,0,0,0,0-1.64Z"/>
  <circle class="cls-1" cx="15.86" cy="2.42" r="2.07"/>
</svg>
