<svg data-name="Layer 1" id="Layer_1" viewBox="0 0 20 20" xmlns="http://www.w3.org/2000/svg">
  <defs>
    <style>.cls-1 {
      fill: #18233c;
    }</style>
  </defs>
  <title>category</title>
  <path class="cls-1" d="M.55,16.8A1.87,1.87,0,0,0,3.2,19.45L9.35,13.3,6.7,10.65Z"/>
  <polygon class="cls-1"
           points="15.92 5.4 18.6 4.02 20 1.31 18.69 0 15.98 1.41 14.6 4.08 11.34 7.34 12.66 8.67 15.92 5.4"/>
  <path class="cls-1"
        d="M16.25,15a1.23,1.23,0,0,1,.43.08,1.2,1.2,0,0,1,.45.28l2.49,2.49A3.69,3.69,0,0,0,20,16.23a3.74,3.74,0,0,0-3.49-3.72l-.25,0a3.72,3.72,0,0,0-1.29.24L7.27,5a3.72,3.72,0,0,0,.24-1.29l0-.25A3.71,3.71,0,0,0,2.16.38L4.65,2.86a1.22,1.22,0,0,1,.28.45,1.25,1.25,0,0,1-2,1.31L.4,2.14A3.71,3.71,0,0,0,3.52,7.47l.25,0a3.74,3.74,0,0,0,1.29-.24l7.69,7.69a3.77,3.77,0,0,0-.24,1.29l0,.25A3.73,3.73,0,0,0,16.25,20a3.67,3.67,0,0,0,1.61-.37l-2.49-2.49a1.27,1.27,0,0,1-.28-.45A1.24,1.24,0,0,1,16.25,15Z"/>
</svg>
