<svg data-name="Layer 1" id="Layer_1" viewBox="0 0 20 20" xmlns="http://www.w3.org/2000/svg">
  <defs>
    <style>.cls-1 {
      fill: #18233c;
    }</style>
  </defs>
  <title>category</title>
  <path class="cls-1"
        d="M19.47,17,11.63,9.16,2.47,0H1.75L1.61.37a6.57,6.57,0,0,0-.48,2.9A4.1,4.1,0,0,0,2.28,5.89L9.43,13l.94-.94L17,19.49A1.76,1.76,0,1,0,19.47,17Z"/>
  <path class="cls-1" d="M.51,17A1.76,1.76,0,0,0,3,19.47l5.6-5.6L6.12,11.38Z"/>
  <path class="cls-1"
        d="M13.93,9.16a2.93,2.93,0,0,0,1.9-.85L20,4.16l-.83-.83L16,6.51l-.83-.83L18.32,2.5l-.83-.83L14.31,4.85,13.48,4,16.66.84,15.83,0,11.68,4.16a2.93,2.93,0,0,0-.85,1.9,1.69,1.69,0,0,1-.12.53L13.4,9.28A1.69,1.69,0,0,1,13.93,9.16Z"/>
</svg>
