<svg data-name="Layer 1" id="Layer_1" viewBox="0 0 20 20" xmlns="http://www.w3.org/2000/svg">
  <defs>
    <style>.cls-1 {
      fill: #18233c;
    }</style>
  </defs>
  <title>category</title>
  <polygon class="cls-1" points="6.46 0 1.34 3.2 11.57 3.2 6.46 0"/>
  <rect class="cls-1" height="4.49" width="2.36" x="7.04" y="7.3"/>
  <path class="cls-1" d="M12.92,4.38H0V14.73H12.92ZM10.57,13H2.34V6.13h8.23Z"/>
  <rect class="cls-1" height="4.49" width="2.36" x="3.52" y="7.3"/>
  <polygon class="cls-1"
           points="18.79 17.66 17.61 17.66 17.61 15.31 16.44 15.31 16.44 17.66 15.26 17.66 15.26 16.48 14.09 16.48 14.09 17.66 12.91 17.66 12.91 15.9 0 15.9 0 20 12.91 20 12.91 18.83 14.09 18.83 14.09 20 15.26 20 15.26 18.83 16.44 18.83 16.44 20 17.61 20 17.61 18.83 18.79 18.83 18.79 20 19.96 20 19.96 16.48 18.79 16.48 18.79 17.66"/>
  <path class="cls-1"
        d="M17,2.62a3,3,0,0,0-3,3v6.27a2.35,2.35,0,0,0,2.34,2.34h1.25A2.35,2.35,0,0,0,20,11.84V5.57A3,3,0,0,0,17,2.62Z"/>
</svg>
