<svg data-name="Layer 1" id="Layer_1" viewBox="0 0 20 20" xmlns="http://www.w3.org/2000/svg">
  <defs>
    <style>.cls-1 {
      fill: #18233c;
    }</style>
  </defs>
  <title>category</title>
  <path class="cls-1"
        d="M19.75,2.61A1,1,0,0,0,19,2.22H4.6L4.4.93a1.06,1.06,0,0,0-1-.93H1A1.08,1.08,0,0,0,0,1.11,1.08,1.08,0,0,0,1,2.22H2.5l1.93,12.4a1,1,0,0,0,0,.14,1,1,0,0,0,.06.17,1.1,1.1,0,0,0,.12.2l.1.12a1,1,0,0,0,.2.14l.12.07a1,1,0,0,0,.38.08H16.88a1.11,1.11,0,0,0,0-2.22H6.33l-.17-1.11H17.92a1.06,1.06,0,0,0,1-1l1-7.78A1.17,1.17,0,0,0,19.75,2.61ZM8.57,10H5.82L5.47,7.78h3.1Zm0-3.33H5.45a.47.47,0,0,0-.15,0L4.95,4.44H8.57ZM12.73,10H9.61V7.78h3.12Zm0-3.33H9.61V4.44h3.12ZM17,10H13.77V7.78h3.55Zm.45-3.33h-3.7V4.44h4Z"/>
  <ellipse class="cls-1" cx="7.01" cy="18.33" rx="1.56" ry="1.67"/>
  <ellipse class="cls-1" cx="16.36" cy="18.33" rx="1.56" ry="1.67"/>
</svg>
