<svg data-name="Layer 1" id="Layer_1" viewBox="0 0 20 20" xmlns="http://www.w3.org/2000/svg">
  <defs>
    <style>.cls-1 {
      fill: #18233c;
    }</style>
  </defs>
  <title>category</title>
  <path class="cls-1"
        d="M14,4.58C12.21,2.15,10.38.18,10.36.16a.49.49,0,0,0-.72,0S7.79,2.15,6,4.58C3.51,7.91,2.26,10.5,2.26,12.26a7.74,7.74,0,1,0,15.47,0C17.74,10.5,16.49,7.91,14,4.58ZM10.77,17.5a5.4,5.4,0,0,1-6.64-5.25,5.6,5.6,0,0,1,.73-2.37.28.28,0,0,1,.53.16,2.79,2.79,0,0,0,0,.33A6.74,6.74,0,0,0,10.76,17a.28.28,0,0,1,0,.55Z"/>
</svg>
