<svg data-name="Layer 1" id="Layer_1" viewBox="0 0 20 20" xmlns="http://www.w3.org/2000/svg">
  <defs>
    <style>.cls-1 {
      fill: #18233c;
    }</style>
  </defs>
  <title>category</title>
  <rect class="cls-1" height="1.76" width="4.71" x="2.35" y="18.24"/>
  <rect class="cls-1" height="6.13" width="3.54" x="8.23" y="13.87"/>
  <polygon class="cls-1"
           points="16.48 10.16 15.29 10.16 15.29 10.94 14.12 10.94 14.12 10.16 12.94 10.16 12.94 10.94 11.77 10.94 11.77 10.16 10.59 10.16 10.59 10.94 9.41 10.94 9.41 10.16 8.23 10.16 8.23 10.94 7.06 10.94 7.06 10.16 5.88 10.16 5.88 10.94 4.71 10.94 4.71 10.16 3.52 10.16 3.52 10.94 2.35 10.94 2.35 17.07 7.06 17.07 7.06 12.7 12.94 12.7 12.94 17.07 17.65 17.07 17.65 10.94 16.48 10.94 16.48 10.16"/>
  <rect class="cls-1" height="1.76" width="4.71" x="12.94" y="18.24"/>
  <path class="cls-1"
        d="M19.25,7.83,11.61.64a2.34,2.34,0,0,0-3.22,0L.75,7.83A2.64,2.64,0,0,0,.09,9H19.91A2.64,2.64,0,0,0,19.25,7.83Z"/>
  <rect class="cls-1" height="0.78" width="1.17" x="18.83" y="10.16"/>
  <rect class="cls-1" height="0.78" width="1.17" y="10.16"/>
</svg>
