<svg data-name="Layer 1" id="Layer_1" viewBox="0 0 20 20" xmlns="http://www.w3.org/2000/svg">
  <defs>
    <style>.cls-1 {
      fill: #18233c;
    }</style>
  </defs>
  <title>category</title>
  <polygon class="cls-1" points="5.29 0 1.27 2.62 9.02 2.62 5.29 0"/>
  <polygon class="cls-1"
           points="11.37 10.21 11.37 20 13.52 20 13.52 12.76 17.85 12.76 17.85 20 20 20 20 10.21 11.37 10.21"/>
  <rect class="cls-1" height="3.13" width="1.19" x="5.88" y="6.72"/>
  <path class="cls-1" d="M0,20H10.2V3.79H0ZM2.34,5.55h5.9V11H2.34Zm0,7.23h5.9v5.47H2.34Z"/>
  <rect class="cls-1" height="3.13" width="1.19" x="3.52" y="13.95"/>
  <rect class="cls-1" height="6.07" width="1.99" x="14.69" y="13.93"/>
  <rect class="cls-1" height="3.13" width="1.19" x="3.52" y="6.72"/>
  <rect class="cls-1" height="3.13" width="1.19" x="5.88" y="13.95"/>
  <polygon class="cls-1" points="18.6 6.69 11.37 6.69 11.37 9.04 19.78 9.04 18.6 6.69"/>
</svg>
