<svg data-name="Layer 1" id="Layer_1" viewBox="0 0 20 20" xmlns="http://www.w3.org/2000/svg">
  <defs>
    <style>.cls-1 {
      fill: #18233c;
    }</style>
  </defs>
  <title>category</title>
  <path class="cls-1"
        d="M19.67,7.72,10.5,1.18a.77.77,0,0,0-1,0L.33,7.72a.82.82,0,0,0,.5,1.47H2.5v9a.78.78,0,0,0,.83.82H16.67a.78.78,0,0,0,.83-.82v-9h1.67A.82.82,0,0,0,19.67,7.72ZM10,17.37a5,5,0,0,1-5-4.9,5,5,0,0,1,10,0A5,5,0,0,1,10,17.37Z"/>
  <polygon class="cls-1"
           points="11.25 8.78 8.75 8.78 8.75 11.24 6.25 11.24 6.25 13.69 8.75 13.69 8.75 16.14 11.25 16.14 11.25 13.69 13.75 13.69 13.75 11.24 11.25 11.24 11.25 8.78"/>
</svg>
