<svg data-name="Layer 1" id="Layer_1" viewBox="0 0 20 20" xmlns="http://www.w3.org/2000/svg">
  <defs>
    <style>.cls-1 {
      fill: #18233c;
    }</style>
  </defs>
  <title>category</title>
  <path class="cls-1"
        d="M0,20H8.25V14.1h3.51V20H20V6.45H0ZM14.12,8.2h3.51v4.14H14.12Zm0,5.9h3.51v4.14H14.12ZM8.25,8.2h3.51v4.14H8.25Zm-5.88,0H5.88v4.14H2.37Zm0,5.9H5.88v4.14H2.37Z"/>
  <rect class="cls-1" height="4.73" width="1.16" x="9.42" y="15.27"/>
  <rect class="cls-1" height="1.76" width="20" y="3.52"/>
  <rect class="cls-1" height="1.8" width="1.16" x="3.54" y="9.38"/>
  <polygon class="cls-1" points="3.52 1.17 2.34 1.17 2.34 0 1.17 0 1.17 1.17 0 1.17 0 2.34 3.52 2.34 3.52 1.17"/>
  <polygon class="cls-1"
           points="18.83 1.17 18.83 0 17.66 0 17.66 1.17 16.48 1.17 16.48 2.34 20 2.34 20 1.17 18.83 1.17"/>
  <rect class="cls-1" height="1.8" width="1.16" x="15.3" y="15.27"/>
  <rect class="cls-1" height="1.8" width="1.16" x="9.42" y="9.38"/>
  <rect class="cls-1" height="1.8" width="1.16" x="15.3" y="9.38"/>
  <rect class="cls-1" height="1.8" width="1.16" x="3.54" y="15.27"/>
</svg>
