<svg data-name="Layer 1" id="Layer_1" viewBox="0 0 20 20" xmlns="http://www.w3.org/2000/svg">
  <defs>
    <style>.cls-1 {
      fill: #18233c;
    }</style>
  </defs>
  <title>category</title>
  <path class="cls-1"
        d="M5.77,5.27h.8a3.52,3.52,0,0,1,6.86,0h.8a3.53,3.53,0,0,1,2.26-2.53v-.4A2.35,2.35,0,0,0,14.14,0H5.86A2.35,2.35,0,0,0,3.52,2.34v.4A3.53,3.53,0,0,1,5.77,5.27Z"/>
  <rect class="cls-1" height="1.17" width="1.17" x="3.24" y="13.48"/>
  <rect class="cls-1" height="1.17" width="1.17" x="15.59" y="13.48"/>
  <path class="cls-1"
        d="M17.66,3.71a2.35,2.35,0,0,0-2.34,2.34v.39h-3V6.05a2.34,2.34,0,0,0-4.69,0v.39h-3V6.05A2.34,2.34,0,1,0,0,6.05V20H7.66V12.3h4.69V20H20V6.05A2.35,2.35,0,0,0,17.66,3.71ZM4.14,8.79H5.31V10H4.14Zm1.45,7H2.07V12.3H5.59ZM8.83,10H7.66V8.79H8.83Zm3.52,0H11.17V8.79h1.17Zm2.34-1.17h1.17V10H14.69Zm3.24,7H14.41V12.3h3.52Z"/>
  <rect class="cls-1" height="6.52" width="2.34" x="8.83" y="13.48"/>
</svg>
