<svg data-name="Layer 1" id="Layer_1" viewBox="0 0 30 35" xmlns="http://www.w3.org/2000/svg">
  <defs>
    <style>.cls-1 {
      fill: #740f36;
    }

    .cls-2 {
      fill: url(#New_Gradient_Swatch_1);
    }

    .cls-3 {
      fill: #fff;
    }</style>
    <linearGradient gradientUnits="userSpaceOnUse" id="New_Gradient_Swatch_1" x2="30" y1="15" y2="15">
      <stop offset="0" stop-color="#e58d81"/>
      <stop offset="1" stop-color="#ff082b"/>
    </linearGradient>
  </defs>
  <title>pin</title>
  <path class="cls-1" d="M27,30H15v5Z" data-name="Rectangle 756 copy 21" id="Rectangle_756_copy_21"/>
  <rect class="cls-2" data-name="Rectangle 755 copy 21" height="30" id="Rectangle_755_copy_21" rx="3" ry="3"
        width="30"/>
  <path class="cls-3"
        d="M24.69,14.07,15,4.39,10.43,9v-2a.85.85,0,0,0-1.7,0v3.72L5.31,14.07a1.06,1.06,0,0,0,0,1.51,1.1,1.1,0,0,0,.75.31,1.08,1.08,0,0,0,.75-.31L15,7.4l8.19,8.18a1.06,1.06,0,0,0,1.5-1.51Z"/>
  <path class="cls-3"
        d="M6.94,17v7a.38.38,0,0,0,.37.38H16.1V17h4.13v7.42h2.46a.38.38,0,0,0,.37-.38V17L15,9Zm6.55,3.41H9.77V17h3.72Z"/>
</svg>
