<svg data-name="Layer 1" id="Layer_1" viewBox="0 0 30 35" xmlns="http://www.w3.org/2000/svg">
  <defs>
    <style>.cls-1 {
      fill: #1b2228;
    }

    .cls-2 {
      fill: url(#linear-gradient);
    }

    .cls-3 {
      fill: #fff;
    }</style>
    <linearGradient gradientUnits="userSpaceOnUse" id="linear-gradient" x2="30" y1="15" y2="15">
      <stop offset="0" stop-color="#576574"/>
      <stop offset="1" stop-color="#222f3e"/>
    </linearGradient>
  </defs>
  <title>pin</title>
  <path class="cls-1" d="M27,30H15v5Z" data-name="Rectangle 756 copy 21" id="Rectangle_756_copy_21"/>
  <rect class="cls-2" data-name="Rectangle 755 copy 21" height="30" id="Rectangle_755_copy_21" rx="3" ry="3"
        width="30"/>
  <path class="cls-3"
        d="M5,25h8.25V19.1h3.5V25H25V11.44H5ZM19.12,13.2h3.51v4.14H19.12Zm0,5.9h3.51v4.14H19.12Zm-5.87-5.9h3.5v4.14h-3.5Zm-5.88,0h3.51v4.14H7.37Zm0,5.9h3.51v4.14H7.37Z"/>
  <rect class="cls-3" height="4.73" width="1.16" x="14.42" y="20.27"/>
  <rect class="cls-3" height="1.76" width="20" x="5" y="8.51"/>
  <rect class="cls-3" height="1.8" width="1.16" x="8.54" y="14.37"/>
  <polygon class="cls-3" points="8.52 6.17 7.34 6.17 7.34 5 6.17 5 6.17 6.17 5 6.17 5 7.34 8.52 7.34 8.52 6.17"/>
  <polygon class="cls-3"
           points="23.83 6.17 23.83 5 22.66 5 22.66 6.17 21.48 6.17 21.48 7.34 25 7.34 25 6.17 23.83 6.17"/>
  <rect class="cls-3" height="1.8" width="1.16" x="20.3" y="20.27"/>
  <rect class="cls-3" height="1.8" width="1.16" x="14.42" y="14.37"/>
  <rect class="cls-3" height="1.8" width="1.16" x="20.3" y="14.37"/>
  <rect class="cls-3" height="1.8" width="1.16" x="8.54" y="20.27"/>
</svg>
