<svg data-name="Layer 1" id="Layer_1" viewBox="0 0 30 35" xmlns="http://www.w3.org/2000/svg">
  <defs>
    <style>.cls-1 {
      fill: #934a21;
    }

    .cls-2 {
      fill: url(#linear-gradient);
    }

    .cls-3 {
      fill: #fff;
    }</style>
    <linearGradient gradientUnits="userSpaceOnUse" id="linear-gradient" x2="30" y1="15" y2="15">
      <stop offset="0" stop-color="#e67e22"/>
      <stop offset="1" stop-color="#d35400"/>
    </linearGradient>
  </defs>
  <title>pin</title>
  <path class="cls-1" d="M27,30H15v5Z" data-name="Rectangle 756 copy 21" id="Rectangle_756_copy_21"/>
  <rect class="cls-2" data-name="Rectangle 755 copy 21" height="30" id="Rectangle_755_copy_21" rx="3" ry="3"
        width="30"/>
  <path class="cls-3"
        d="M22.67,7.22a1.66,1.66,0,0,0-1.55-1.11H8.89A1.55,1.55,0,0,0,7.34,7.22L5,13.89v8.89a1.06,1.06,0,0,0,1.11,1.11H7.23a1,1,0,0,0,1.1-1.11V21.66H21.67v1.12a1.06,1.06,0,0,0,1.11,1.11H23.9A1,1,0,0,0,25,22.78V13.89ZM8.89,18.33a1.67,1.67,0,0,1,0-3.34,1.67,1.67,0,1,1,0,3.34Zm12.23,0a1.67,1.67,0,1,1,1.66-1.66A1.71,1.71,0,0,1,21.12,18.33ZM7.23,12.78l1.66-5H21.12l1.66,5Z"/>
</svg>
