<svg data-name="Layer 1" id="Layer_1" viewBox="0 0 30 35" xmlns="http://www.w3.org/2000/svg">
  <defs>
    <style>.cls-1 {
      fill: #740f36;
    }

    .cls-2 {
      fill: url(#New_Gradient_Swatch_1);
    }

    .cls-3 {
      fill: #fff;
    }</style>
    <linearGradient gradientUnits="userSpaceOnUse" id="New_Gradient_Swatch_1" x2="30" y1="15" y2="15">
      <stop offset="0" stop-color="#e58d81"/>
      <stop offset="1" stop-color="#ff082b"/>
    </linearGradient>
  </defs>
  <title>pin</title>
  <path class="cls-1" d="M27,30H15v5Z" data-name="Rectangle 756 copy 21" id="Rectangle_756_copy_21"/>
  <rect class="cls-2" data-name="Rectangle 755 copy 21" height="30" id="Rectangle_755_copy_21" rx="3" ry="3"
        width="30"/>
  <path class="cls-3"
        d="M5,24.39H9.84V19.92h2.91v4.47h4.84v-20H5ZM12.18,6.75h2.91V9.39H12.18Zm0,4.22h2.91v2.62H12.18Zm0,4.22h2.91v2.63H12.18ZM7.5,6.75h2.91V9.39H7.5ZM7.5,11h2.91v2.62H7.5Zm0,4.22h2.91v2.63H7.5Z"/>
  <path class="cls-3"
        d="M18.72,6.18V20.32h1.87v4.07H25V6.18Zm4,12.22H20.07V16h2.65Zm0-3.84H20.07V12.17h2.65Zm0-3.84H20.07V8.33h2.65Z"/>
</svg>
