<svg data-name="Layer 1" id="Layer_1" viewBox="0 0 30 35" xmlns="http://www.w3.org/2000/svg">
  <defs>
    <style>.cls-1 {
      fill: #740f36;
    }

    .cls-2 {
      fill: url(#New_Gradient_Swatch_1);
    }

    .cls-3 {
      fill: #fff;
    }</style>
    <linearGradient gradientUnits="userSpaceOnUse" id="New_Gradient_Swatch_1" x2="30" y1="15" y2="15">
      <stop offset="0" stop-color="#e58d81"/>
      <stop offset="1" stop-color="#ff082b"/>
    </linearGradient>
  </defs>
  <title>pin</title>
  <path class="cls-1" d="M27,30H15v5Z" data-name="Rectangle 756 copy 21" id="Rectangle_756_copy_21"/>
  <rect class="cls-2" data-name="Rectangle 755 copy 21" height="30" id="Rectangle_755_copy_21" rx="3" ry="3"
        width="30"/>
  <path class="cls-3"
        d="M10.67,4.76a.42.42,0,0,0-.42-.38H7.75a.42.42,0,0,0-.42.38L5.67,23.94a.43.43,0,0,0,.11.32.42.42,0,0,0,.3.13h5.85a.42.42,0,0,0,.42-.42.4.4,0,0,0,0-.15Z"/>
  <path class="cls-3"
        d="M25.43,10.26a.43.43,0,0,0-.45.05l-4.31,3.6V10.63a.42.42,0,0,0-.24-.37.43.43,0,0,0-.45.05l-4.31,3.6V10.63a.43.43,0,0,0-.25-.38.42.42,0,0,0-.45.08l-2.61,2.39a.43.43,0,0,0-.14.35l.94,10.79V24a.42.42,0,0,0,.42.42H25.25a.42.42,0,0,0,.42-.42V10.63A.42.42,0,0,0,25.43,10.26Zm-7.26,9.55a.41.41,0,0,1-.42.41h-2.5a.41.41,0,0,1-.42-.41V17.3a.41.41,0,0,1,.42-.41h2.5a.41.41,0,0,1,.42.41Zm5,0a.41.41,0,0,1-.42.41h-2.5a.41.41,0,0,1-.42-.41V17.3a.41.41,0,0,1,.42-.41h2.5a.41.41,0,0,1,.42.41Z"/>
</svg>
