<svg data-name="Layer 1" id="Layer_1" viewBox="0 0 30 35" xmlns="http://www.w3.org/2000/svg">
  <defs>
    <style>.cls-1 {
      fill: #12584a;
    }

    .cls-2 {
      fill: url(#linear-gradient);
    }

    .cls-3 {
      fill: #fff;
    }</style>
    <linearGradient gradientUnits="userSpaceOnUse" id="linear-gradient" x2="30" y1="15" y2="15">
      <stop offset="0" stop-color="#1abc9c"/>
      <stop offset="1" stop-color="#307769"/>
    </linearGradient>
  </defs>
  <title>pin</title>
  <path class="cls-1" d="M27,30H15v5Z" data-name="Rectangle 756 copy 21" id="Rectangle_756_copy_21"/>
  <rect class="cls-2" data-name="Rectangle 755 copy 21" height="30" id="Rectangle_755_copy_21" rx="3" ry="3"
        width="30"/>
  <path class="cls-3"
        d="M24.69,14.07,15,4.39,10.43,9v-2a.85.85,0,0,0-1.7,0v3.72L5.31,14.07a1.06,1.06,0,0,0,1.5,1.51L15,7.4l8.19,8.18a1.06,1.06,0,1,0,1.5-1.5Z"/>
  <path class="cls-3"
        d="M6.94,17v7a.38.38,0,0,0,.37.37H16.1V17h4.13v7.41h2.45a.37.37,0,0,0,.37-.37V17L15,9Zm6.55,3.41H9.77V17h3.72Z"/>
</svg>
