<svg data-name="Layer 1" id="Layer_1" viewBox="0 0 30 35" xmlns="http://www.w3.org/2000/svg">
  <defs>
    <style>.cls-1 {
      fill: #740f36;
    }

    .cls-2 {
      fill: url(#New_Gradient_Swatch_1);
    }

    .cls-3 {
      fill: #fff;
    }</style>
    <linearGradient gradientUnits="userSpaceOnUse" id="New_Gradient_Swatch_1" x2="30" y1="15" y2="15">
      <stop offset="0" stop-color="#e58d81"/>
      <stop offset="1" stop-color="#ff082b"/>
    </linearGradient>
  </defs>
  <title>pin</title>
  <path class="cls-1" d="M27,30H15v5Z" data-name="Rectangle 756 copy 21" id="Rectangle_756_copy_21"/>
  <rect class="cls-2" data-name="Rectangle 755 copy 21" height="30" id="Rectangle_755_copy_21" rx="3" ry="3"
        width="30"/>
  <polygon class="cls-3" points="23.75 20.64 23.75 13.14 24.38 11.89 20.63 11.89 21.25 13.14 21.25 20.64 23.75 20.64"/>
  <path class="cls-3" d="M15,4.39,5,10.64H25Zm0,5a1.25,1.25,0,1,1,1.25-1.25A1.25,1.25,0,0,1,15,9.39Z"/>
  <polygon class="cls-3" points="13.75 20.64 13.75 13.14 14.38 11.89 10.63 11.89 11.25 13.14 11.25 20.64 13.75 20.64"/>
  <polygon class="cls-3" points="5.63 21.89 5 24.39 25 24.39 24.38 21.89 5.63 21.89"/>
  <polygon class="cls-3" points="8.75 20.64 8.75 13.14 9.38 11.89 5.63 11.89 6.25 13.14 6.25 20.64 8.75 20.64"/>
  <polygon class="cls-3" points="18.75 20.64 18.75 13.14 19.38 11.89 15.63 11.89 16.25 13.14 16.25 20.64 18.75 20.64"/>
</svg>
