<svg data-name="Layer 1" id="Layer_1" viewBox="0 0 20 15" xmlns="http://www.w3.org/2000/svg">
  <defs>
    <style>.cls-1 {
      fill: #18233c;
    }</style>
  </defs>
  <title>go_back</title>
  <path class="cls-1"
        d="M17.64,7.94c-1.45-1.79-4.18-3.93-9-4.11V.51A.51.51,0,0,0,8.36,0a.5.5,0,0,0-.53.07L.26,6.47a.51.51,0,0,0-.18.39.51.51,0,0,0,.18.39l7.57,6.38a.49.49,0,0,0,.53.07.51.51,0,0,0,.29-.46V9.92c3.14,0,7.94.25,10.49,4.82a.5.5,0,0,0,.44.26l.13,0a.51.51,0,0,0,.37-.49,10.94,10.94,0,0,0-2.44-6.55Zm-9.49,1a.5.5,0,0,0-.36.15.51.51,0,0,0-.15.36v2.73L1.37,6.86,7.65,1.59V4.32a.51.51,0,0,0,.49.51c7.2.07,9.88,4.53,10.66,7.67-3.1-3.6-7.74-3.6-10.66-3.6Zm0,0"/>
</svg>
