<svg id="Layer_1" data-name="Layer 1" xmlns="http://www.w3.org/2000/svg" viewBox="0 0 512 512">
  <defs>
    <style>.cls-1 {
      fill: #c7d2e4;
    }</style>
  </defs>
  <title>cloud-computing</title>
  <path class="cls-1"
        d="M406,169.47C404.9,91.41,341.07,28.23,262.75,28.23A143.16,143.16,0,0,0,122.71,142h-1.37a121.34,121.34,0,0,0,0,242.68H191.1a10.92,10.92,0,0,0,0-21.84H121.34a99.5,99.5,0,0,1,0-199c2.92,0,6,.15,9.45.48a10.93,10.93,0,0,0,11.84-9.4,121.32,121.32,0,0,1,241.51,16.52c0,2.41-.45,8.65-.45,8.65a10.92,10.92,0,0,0,12,11.63c2.9-.29,5.83-.44,8.7-.44a85.78,85.78,0,0,1,0,171.56H321.93a10.92,10.92,0,1,0,0,21.83h82.45A107.61,107.61,0,0,0,406,169.47Z"/>
  <path class="cls-1"
        d="M256,90.47a10.92,10.92,0,0,0,10.92,10.92,70.19,70.19,0,0,1,69.28,60.48,10.92,10.92,0,1,0,21.63-3,92.09,92.09,0,0,0-90.91-79.36A10.92,10.92,0,0,0,256,90.47Z"/>
  <path class="cls-1"
        d="M383.62,216.74a10.93,10.93,0,0,0,9.68,12,70.17,70.17,0,0,1,62.35,67.59,10.92,10.92,0,1,0,21.83-.6,92.11,92.11,0,0,0-81.82-88.71A10.93,10.93,0,0,0,383.62,216.74Z"/>
  <path class="cls-1"
        d="M350.7,406.14l-22.49.07a6.32,6.32,0,0,1-6.34-6.32V260.1a6.32,6.32,0,0,0-6.31-6.32h-118a6.31,6.31,0,0,0-6.31,6.32V399.78a6.32,6.32,0,0,1-6.23,6.31l-23.79.33a6.32,6.32,0,0,0-3.74,11.34l95.23,72.64a6.33,6.33,0,0,0,7.7,0l94.21-72.92A6.32,6.32,0,0,0,350.7,406.14Zm-19.69,14L259.33,475.6a4.79,4.79,0,0,1-5.86,0L181,420.36a4.81,4.81,0,0,1,2.85-8.63l18.1-.25a4.81,4.81,0,0,0,4.74-4.81V273a4.81,4.81,0,0,1,4.81-4.81h89.8a4.81,4.81,0,0,1,4.81,4.81V406.76a4.81,4.81,0,0,0,4.82,4.81l17.12-.06A4.81,4.81,0,0,1,331,420.12Z"/>
  <rect class="cls-1" x="191.1" y="233.04" width="130.83" height="13.04" rx="3.31"/>
  <rect class="cls-1" x="191.1" y="213.71" width="130.83" height="13.04" rx="3.31"/>
</svg>
