<svg id="Layer_1" data-name="Layer 1" xmlns="http://www.w3.org/2000/svg" viewBox="0 0 79 79">
  <defs>
    <style>.cls-1 {
      fill: #cdd9ec;
    }

    .cls-2 {
      fill: none;
    }</style>
  </defs>
  <title>upload_image</title>
  <path class="cls-1"
        d="M26.41,15.33a5.61,5.61,0,1,0-5.61-5.6A5.61,5.61,0,0,0,26.41,15.33Zm0-9.2a3.6,3.6,0,1,1-3.6,3.6A3.6,3.6,0,0,1,26.41,6.13Z"/>
  <path class="cls-1"
        d="M17.34,33.32a1,1,0,0,0,.67-.25L34.44,18.61,44.81,29a1,1,0,1,0,1.43-1.42L41.4,22.72l9.24-10.13L62,23a1,1,0,1,0,1.36-1.49L51.26,10.43a1,1,0,0,0-.73-.27,1,1,0,0,0-.7.33L40,21.29l-4.78-4.77a1,1,0,0,0-1.37-.05L16.68,31.56A1,1,0,0,0,16.59,33,1,1,0,0,0,17.34,33.32Z"/>
  <path class="cls-2" d="M40.07,36.36l9.89,8H66.69V2H12.31v42.3H29.08l9.85-8A.9.9,0,0,1,40.07,36.36Z"/>
  <path class="cls-1"
        d="M67.7,0H11.3a1,1,0,0,0-1,1V45.32a1,1,0,0,0,1,1H26.58l2.5-2H12.31V2H66.69v42.3H50l2.5,2H67.7a1,1,0,0,0,1-1V1A1,1,0,0,0,67.7,0Z"/>
  <path class="cls-1"
        d="M40.07,36.36a.9.9,0,0,0-1.14,0l-9.85,8-2.5,2-5.22,4.21a.92.92,0,0,0,.58,1.63h8.35V71.26a.92.92,0,0,0,.92.91H47.79a.92.92,0,0,0,.92-.91V52.17h8.41a.93.93,0,0,0,.87-.61.92.92,0,0,0-.29-1l-5.24-4.21-2.5-2Zm14.46,14H47.79a.91.91,0,0,0-.91.91V70.34H32.12V51.25a.91.91,0,0,0-.91-.91H24.53l5-4,2.5-2,7.51-6.06L47,44.31l2.5,2Z"/>
  <path class="cls-1" d="M47.79,73.76H31.21a.91.91,0,1,0,0,1.82H47.79a.91.91,0,1,0,0-1.82Z"/>
  <path class="cls-1" d="M47.79,77.17H31.21a.92.92,0,1,0,0,1.83H47.79a.92.92,0,1,0,0-1.83Z"/>
</svg>
