<svg data-name="Слой 1" id="Слой_1" viewBox="0 0 20 20" xmlns="http://www.w3.org/2000/svg">
  <defs>
    <style>.cls-1 {
      fill: #fff;
    }</style>
  </defs>
  <title>add_new_supplier</title>
  <polygon class="cls-1"
           points="11.77 7.71 13.47 7.71 13.47 4.75 16.43 4.75 16.43 3.05 13.47 3.05 13.47 0.09 11.77 0.09 11.77 3.05 8.81 3.05 8.81 4.75 11.77 4.75 11.77 7.71"/>
  <path class="cls-1"
        d="M19.61,10.69a1.86,1.86,0,0,0-1.26-.77,1.79,1.79,0,0,0-1.37.41L12.52,14a2.33,2.33,0,0,1-1.52.57H9.93a4.83,4.83,0,0,0,1.32-3.34.65.65,0,0,0-.63-.66H3.75V9.91a.65.65,0,0,0-.63-.67H.63A.65.65,0,0,0,0,9.91v9.33a.65.65,0,0,0,.63.67H3.12a.65.65,0,0,0,.63-.67v-.66h8.32a3,3,0,0,0,1.91-.7l5.29-4.39A2.05,2.05,0,0,0,20,12.15,2.07,2.07,0,0,0,19.61,10.69ZM2.5,18.58H1.25v-8H2.5Zm16-6.14-5.28,4.38a1.83,1.83,0,0,1-1.15.42H3.75V11.91H9.94a3.2,3.2,0,0,1-3.07,2.67.67.67,0,0,0,0,1.33H11a3.57,3.57,0,0,0,2.3-.85l4.45-3.68a.56.56,0,0,1,.44-.13.62.62,0,0,1,.43.26.71.71,0,0,1,.13.48A.76.76,0,0,1,18.5,12.44Z"/>
</svg>
