<svg data-name="Capa 1" id="Capa_1" viewBox="0 0 20 20" xmlns="http://www.w3.org/2000/svg">
  <defs>
    <style>.cls-1 {
      fill: #00aeef;
    }</style>
  </defs>
  <title>calendar</title>
  <path class="cls-1"
        d="M14.91,4.22a1.38,1.38,0,0,0,1.38-1.38V1.39a1.39,1.39,0,1,0-2.77,0V2.84A1.38,1.38,0,0,0,14.91,4.22Z"/>
  <path class="cls-1"
        d="M19.84,2.4H17v.7a2.11,2.11,0,1,1-4.22,0V2.4H7.19v.7A2.12,2.12,0,1,1,3,3.1V2.4l-2.82,0V20H19.86ZM18.45,18.6H1.55V7.33h16.9V18.6Z"/>
  <path class="cls-1"
        d="M5.05,4.22A1.38,1.38,0,0,0,6.44,2.84V1.39a1.39,1.39,0,0,0-2.78,0V2.84A1.38,1.38,0,0,0,5.05,4.22Z"/>
  <rect class="cls-1" height="1.96" width="2.22" x="7.19" y="8.84"/>
  <rect class="cls-1" height="1.96" width="2.22" x="10.78" y="8.84"/>
  <rect class="cls-1" height="1.96" width="2.22" x="14.1" y="8.84"/>
  <rect class="cls-1" height="1.96" width="2.22" x="7.19" y="12.09"/>
  <rect class="cls-1" height="1.96" width="2.22" x="10.78" y="12.09"/>
  <rect class="cls-1" height="1.96" width="2.22" x="14.1" y="12.09"/>
  <rect class="cls-1" height="1.96" width="2.22" x="7.19" y="15.41"/>
  <rect class="cls-1" height="1.96" width="2.22" x="3.66" y="12.09"/>
  <rect class="cls-1" height="1.96" width="2.22" x="3.66" y="15.41"/>
  <rect class="cls-1" height="1.96" width="2.22" x="10.78" y="15.41"/>
  <rect class="cls-1" height="1.96" width="2.22" x="14.1" y="15.41"/>
</svg>
