<svg data-name="Capa 1" id="Capa_1" viewBox="0 0 12 12" xmlns="http://www.w3.org/2000/svg">
  <defs>
    <style>.cls-1 {
      fill: #19233c;
    }</style>
  </defs>
  <title>1</title>
  <path class="cls-1"
        d="M11.2,3A6.05,6.05,0,0,0,9,.8,5.92,5.92,0,0,0,6,0,5.92,5.92,0,0,0,3,.8,6.05,6.05,0,0,0,.8,3,5.92,5.92,0,0,0,0,6,5.92,5.92,0,0,0,.8,9,6.05,6.05,0,0,0,3,11.2,5.92,5.92,0,0,0,6,12a5.92,5.92,0,0,0,3-.8A6.05,6.05,0,0,0,11.2,9,5.92,5.92,0,0,0,12,6,5.92,5.92,0,0,0,11.2,3ZM5,1.5a.24.24,0,0,1,.25-.25h1.5A.24.24,0,0,1,7,1.5V2.75A.24.24,0,0,1,6.75,3H5.25A.24.24,0,0,1,5,2.75ZM8,9.75a.24.24,0,0,1-.25.25H4.25A.24.24,0,0,1,4,9.75V8.5a.24.24,0,0,1,.25-.25H5V5.75H4.25A.24.24,0,0,1,4,5.5V4.25A.24.24,0,0,1,4.25,4h2.5A.24.24,0,0,1,7,4.25v4h.75A.24.24,0,0,1,8,8.5V9.75Z"/>
</svg>
