<svg data-name="Слой 1" id="Слой_1" viewBox="0 0 50 50" xmlns="http://www.w3.org/2000/svg"
     xmlns:xlink="http://www.w3.org/1999/xlink">
  <defs>
    <style>.cls-1 {
      fill: url(#Безымянный_градиент_16);
    }

    .cls-2 {
      fill: url(#Безымянный_градиент_16-2);
    }

    .cls-3 {
      fill: url(#Безымянный_градиент_16-3);
    }

    .cls-4 {
      fill: url(#Безымянный_градиент_16-4);
    }

    .cls-5 {
      fill: url(#Безымянный_градиент_16-5);
    }</style>
    <linearGradient gradientUnits="userSpaceOnUse" id="Безымянный_градиент_16" x1="0.75" x2="48.83" y1="25" y2="25">
      <stop offset="0" stop-color="#6792e2"/>
      <stop offset="1" stop-color="#405192"/>
    </linearGradient>
    <linearGradient id="Безымянный_градиент_16-2" x2="48.83" xlink:href="#Безымянный_градиент_16" y1="32.65"
                    y2="32.65"/>
    <linearGradient id="Безымянный_градиент_16-3" x2="48.83" xlink:href="#Безымянный_градиент_16" y1="36.74"
                    y2="36.74"/>
    <linearGradient id="Безымянный_градиент_16-4" x2="48.83" xlink:href="#Безымянный_градиент_16" y1="36.74"
                    y2="36.74"/>
    <linearGradient id="Безымянный_градиент_16-5" x2="48.83" xlink:href="#Безымянный_градиент_16" y1="9.18" y2="9.18"/>
  </defs>
  <title>save_popup</title>
  <path class="cls-1"
        d="M41.18,0H0V50H50V8.82ZM39.4,28.78V47.49H10.6V28.78ZM12.62,16.17V2.52H36.37V16.17ZM8.09,26.27V47.49H2.52v-45H10.1V18.68H38.89V2.52h1.25l7.35,7.34V47.49H41.92V26.27Z"/>
  <path class="cls-2" d="M14.28,33.92h7.15a1.27,1.27,0,1,0,0-2.54H14.28a1.27,1.27,0,0,0,0,2.54Z"/>
  <path class="cls-3" d="M14.28,38H24.49a1.28,1.28,0,0,0,0-2.55H14.28a1.28,1.28,0,0,0,0,2.55Z"/>
  <path class="cls-4" d="M27.55,38a1.35,1.35,0,0,0,.91-.38,1.28,1.28,0,0,0-1.81-1.8h0A1.28,1.28,0,0,0,27.55,38Z"/>
  <path class="cls-5" d="M28.33,14.54h6.61V3.83H28.33Zm4.08-8.17V12H30.86V6.37Z"/>
</svg>
