<svg data-name="Слой 1" id="Слой_1" viewBox="0 0 20 20" xmlns="http://www.w3.org/2000/svg">
  <defs>
    <style>.cls-1 {
      fill: #aeb4c0;
    }</style>
  </defs>
  <title>tab</title>
  <path class="cls-1"
        d="M8.59,0H.78A.78.78,0,0,0,0,.78V8.59a.77.77,0,0,0,.78.78H8.59a.78.78,0,0,0,.79-.78V.78A.78.78,0,0,0,8.59,0ZM7.81,7.81H1.56V1.56H7.81Zm11.71,2.87a.79.79,0,0,0-.85.17l-7.82,7.82a.79.79,0,0,0-.17.85.8.8,0,0,0,.73.48h7.81a.78.78,0,0,0,.78-.78V11.41A.8.8,0,0,0,19.52,10.68Zm-1.08,7.76H13.29l5.15-5.15ZM15.31,9.37a4.69,4.69,0,1,0-4.69-4.68A4.69,4.69,0,0,0,15.31,9.37Zm0-7.81a3.13,3.13,0,1,1-3.12,3.13A3.13,3.13,0,0,1,15.31,1.56ZM9.15,12,5.79,15.31l3.36,3.36A.78.78,0,0,1,8,19.77L4.69,16.42,1.33,19.77a.77.77,0,0,1-1.1,0,.77.77,0,0,1,0-1.1l3.35-3.36L.23,12a.78.78,0,0,1,1.1-1.11l3.36,3.36L8,10.85A.78.78,0,0,1,9.15,12Z"/>
</svg>
