<?xml version="1.0" encoding="utf-8"?>
<!-- Generator: Adobe Illustrator 22.1.0, SVG Export Plug-In . SVG Version: 6.00 Build 0)  -->
<svg id="Слой_1" style="enable-background:new 0 0 20 20;" version="1.1" viewBox="0 0 20 20" x="0px"
     xml:space="preserve" xmlns="http://www.w3.org/2000/svg" y="0px">
<style type="text/css">
	.st0 {
    fill: url(#SVGID_1_);
  }
</style>
  <title>tab</title>
  <linearGradient gradientUnits="userSpaceOnUse" id="SVGID_1_" x1="-1.360937e-03" x2="20" y1="10.0028" y2="10.0028">
	<stop offset="0" style="stop-color:#2B7CA8"/>
    <stop offset="1" style="stop-color:#2B327C"/>
</linearGradient>
  <path class="st0" d="M8.6,0H0.8C0.3,0,0,0.3,0,0.8c0,0,0,0,0,0v7.8C0,9,0.3,9.4,0.8,9.4c0,0,0,0,0,0h7.8C9,9.4,9.4,9,9.4,8.6
	c0,0,0,0,0,0V0.8C9.4,0.3,9,0,8.6,0C8.6,0,8.6,0,8.6,0z M7.8,7.8H1.6V1.6h6.3V7.8z M19.5,10.7c-0.3-0.1-0.6-0.1-0.9,0.2l-7.8,7.8
	c-0.2,0.2-0.3,0.6-0.2,0.9c0.1,0.3,0.4,0.5,0.7,0.5h7.8c0.4,0,0.8-0.3,0.8-0.8v0v-7.8C20,11.1,19.8,10.8,19.5,10.7z M18.4,18.4h-5.2
	l5.2-5.1V18.4z M15.3,9.4c2.6,0,4.7-2.1,4.7-4.7S17.9,0,15.3,0c-2.6,0-4.7,2.1-4.7,4.7c0,0,0,0,0,0C10.6,7.3,12.7,9.4,15.3,9.4z
	 M15.3,1.6c1.7,0,3.1,1.4,3.1,3.1c0,1.7-1.4,3.1-3.1,3.1s-3.1-1.4-3.1-3.1c0,0,0,0,0,0C12.2,3,13.6,1.6,15.3,1.6z M9.1,12l-3.4,3.3
	l3.4,3.4c0.3,0.3,0.3,0.8,0,1.1s-0.8,0.3-1.1,0l-3.3-3.4l-3.4,3.4c-0.3,0.3-0.8,0.3-1.1,0c0,0,0,0,0,0c-0.3-0.3-0.3-0.8,0-1.1
	c0,0,0,0,0,0l3.3-3.4L0.2,12c-0.3-0.3-0.3-0.8,0-1.1c0.3-0.3,0.8-0.3,1.1,0l3.4,3.4L8,10.9c0.3-0.3,0.8-0.3,1.1,0S9.5,11.7,9.1,12z"
  />
</svg>
