<svg data-name="Слой 1" id="Слой_1" viewBox="0 0 20 20" xmlns="http://www.w3.org/2000/svg"
     xmlns:xlink="http://www.w3.org/1999/xlink">
  <defs>
    <style>.cls-1 {
      fill: url(#linear-gradient);
    }

    .cls-2 {
      fill: url(#linear-gradient-2);
    }

    .cls-3 {
      fill: url(#linear-gradient-3);
    }

    .cls-4 {
      fill: url(#linear-gradient-4);
    }

    .cls-5 {
      fill: url(#linear-gradient-5);
    }

    .cls-6 {
      fill: url(#linear-gradient-6);
    }</style>
    <linearGradient gradientUnits="userSpaceOnUse" id="linear-gradient" x2="20" y1="10" y2="10">
      <stop offset="0" stop-color="#2b7ca8"/>
      <stop offset="1" stop-color="#2b327c"/>
    </linearGradient>
    <linearGradient id="linear-gradient-2" x1="3" x2="4.5" xlink:href="#linear-gradient" y1="16.25" y2="16.25"/>
    <linearGradient id="linear-gradient-3" x1="3" x2="4.5" xlink:href="#linear-gradient" y1="13.25" y2="13.25"/>
    <linearGradient id="linear-gradient-4" x1="5.5" x2="7" xlink:href="#linear-gradient" y1="16.25" y2="16.25"/>
    <linearGradient id="linear-gradient-5" x1="5.5" x2="7" xlink:href="#linear-gradient" y1="13.25" y2="13.25"/>
    <linearGradient id="linear-gradient-6" x1="9" x2="17" xlink:href="#linear-gradient" y1="6.25" y2="6.25"/>
  </defs>
  <title>tab</title>
  <path class="cls-1"
        d="M20,3.5,16.5,0H6V8H0V20H10V16H20ZM8.5,18.5h-7v-9h7Zm1.5-4V13h7V11.5H10V10h7V8.5H10V8H7.5V1.5h8V4.55H18.5v10Z"/>
  <rect class="cls-2" height="1.5" width="1.5" x="3" y="15.5"/>
  <rect class="cls-3" height="1.5" width="1.5" x="3" y="12.5"/>
  <rect class="cls-4" height="1.5" width="1.5" x="5.5" y="15.5"/>
  <rect class="cls-5" height="1.5" width="1.5" x="5.5" y="12.5"/>
  <rect class="cls-6" height="1.5" width="8" x="9" y="5.5"/>
</svg>
