<svg data-name="Capa 1" id="Capa_1" viewBox="0 0 20 20" xmlns="http://www.w3.org/2000/svg">
  <defs>
    <style>.cls-1 {
      fill: url(#linear-gradient);
    }</style>
    <linearGradient gradientUnits="userSpaceOnUse" id="linear-gradient" x2="20" y1="10" y2="10">
      <stop offset="0" stop-color="#2a7ba7"/>
      <stop offset="1" stop-color="#2a327c"/>
    </linearGradient>
  </defs>
  <title>tab</title>
  <path class="cls-1"
        d="M19.9,8.88l-2-.33a.63.63,0,0,1-.51-.47,7.54,7.54,0,0,0-.82-2,.64.64,0,0,1,0-.69l1.16-1.63a.12.12,0,0,0,0-.16l-1.4-1.4a.11.11,0,0,0-.09,0l-.07,0L14.58,3.38a.62.62,0,0,1-.36.12.63.63,0,0,1-.33-.09,7.75,7.75,0,0,0-2-.83.65.65,0,0,1-.47-.51l-.33-2A.12.12,0,0,0,11,0H9a.12.12,0,0,0-.12.1l-.34,2A.63.63,0,0,1,8,2.6a7.57,7.57,0,0,0-2,.83.62.62,0,0,1-.32.09.63.63,0,0,1-.37-.12L3.76,2.24l-.08,0a.12.12,0,0,0-.08,0L2.19,3.66a.13.13,0,0,0,0,.16L3.35,5.47a.62.62,0,0,1,0,.69,7.35,7.35,0,0,0-.8,2,.63.63,0,0,1-.51.47l-2,.33a.12.12,0,0,0-.1.12v2a.12.12,0,0,0,.1.12l2,.34A.62.62,0,0,1,2.6,12a7.43,7.43,0,0,0,.83,2,.64.64,0,0,1,0,.7L2.24,16.25a.14.14,0,0,0,0,.16l1.4,1.4a.14.14,0,0,0,.09,0l.07,0,1.65-1.18a.61.61,0,0,1,.36-.11.69.69,0,0,1,.32.08,7.61,7.61,0,0,0,1.94.79.64.64,0,0,1,.46.51l.33,2A.12.12,0,0,0,9,20h2a.13.13,0,0,0,.13-.1l.33-2a.63.63,0,0,1,.47-.51,7.54,7.54,0,0,0,2-.82.72.72,0,0,1,.32-.08.62.62,0,0,1,.37.11l1.63,1.16a.09.09,0,0,0,.07,0,.12.12,0,0,0,.09,0l1.41-1.4a.14.14,0,0,0,0-.16l-1.16-1.64a.62.62,0,0,1,0-.69,7.9,7.9,0,0,0,.82-2,.63.63,0,0,1,.51-.47l2-.33A.13.13,0,0,0,20,11h0V9A.13.13,0,0,0,19.9,8.88ZM16,11.53a5.82,5.82,0,0,1-.66,1.59,2.19,2.19,0,0,0,0,2.2A2.05,2.05,0,0,0,14.2,15a2.14,2.14,0,0,0-1.09.31,6.75,6.75,0,0,1-1.57.65A2.11,2.11,0,0,0,10,17.5,2.12,2.12,0,0,0,8.46,16a6.18,6.18,0,0,1-1.56-.64A2.22,2.22,0,0,0,5.83,15a2.11,2.11,0,0,0-1.11.31,2.17,2.17,0,0,0,0-2.19,6.09,6.09,0,0,1-.67-1.6,2.15,2.15,0,0,0-1.57-1.51A2.15,2.15,0,0,0,4,8.5a6.18,6.18,0,0,1,.65-1.59,2.13,2.13,0,0,0,0-2.19,2.12,2.12,0,0,0,1.1.3,2.17,2.17,0,0,0,1.1-.3,5.89,5.89,0,0,1,1.59-.67A2.16,2.16,0,0,0,10,2.48,2.12,2.12,0,0,0,11.51,4a6.37,6.37,0,0,1,1.62.67,2.21,2.21,0,0,0,1.09.3,2.17,2.17,0,0,0,1.08-.3,2.15,2.15,0,0,0,0,2.18A6.38,6.38,0,0,1,16,8.45,2.13,2.13,0,0,0,17.5,10,2.15,2.15,0,0,0,16,11.53Zm-8.7,1.22h5.5V7.25H7.25Zm1.5-4h2.5v2.5H8.75Z"/>
</svg>
