<svg height="96" width="96" xmlns="http://www.w3.org/2000/svg">

  <g>
    <title>background</title>
    <rect fill="none" height="402" id="canvas_background" width="582" x="-1" y="-1"/>
  </g>
  <g>
    <title>Layer 1</title>
    <path d="m48,4c-24.3,0 -44,19.7 -44,44c0,24.301 19.7,44 44,44c24.301,0 44,-19.699 44,-44c0,-24.3 -19.699,-44 -44,-44zm0,80c-19.882,0 -36,-16.118 -36,-36s16.118,-36 36,-36s36,16.118 36,36s-16.118,36 -36,36z" fill="#00aeef"
          id="svg_1"/>
    <path d="m52,46.343l0,-22.343c0,-2.209 -1.791,-4 -4,-4s-4,1.791 -4,4l0,24c0,0.009 0.003,0.018 0.003,0.027c0.001,0.253 0.026,0.506 0.076,0.755c0.024,0.123 0.069,0.234 0.104,0.354c0.039,0.132 0.069,0.266 0.122,0.395c0.058,0.138 0.136,0.264 0.208,0.394c0.054,0.1 0.097,0.2 0.16,0.295c0.147,0.221 0.314,0.428 0.501,0.613l11.311,11.312c1.562,1.562 4.097,1.562 5.658,0c1.562,-1.562 1.562,-4.097 0,-5.656l-10.143,-10.146z" fill="#00aeef"
          id="svg_2"/>
  </g>
</svg>
