<svg data-name="Слой 1" id="Слой_1" viewBox="0 0 20 20" xmlns="http://www.w3.org/2000/svg"
     xmlns:xlink="http://www.w3.org/1999/xlink">
  <defs>
    <style>.cls-1 {
      fill: url(#Безымянный_градиент_9);
    }

    .cls-2 {
      fill: url(#Безымянный_градиент_9-2);
    }

    .cls-3 {
      fill: url(#Безымянный_градиент_9-3);
    }

    .cls-4 {
      fill: url(#Безымянный_градиент_9-4);
    }

    .cls-5 {
      fill: url(#Безымянный_градиент_9-5);
    }</style>
    <linearGradient gradientUnits="userSpaceOnUse" id="Безымянный_градиент_9" x1="0.17" x2="19.93" y1="13" y2="13">
      <stop offset="0" stop-color="#2f76a2"/>
      <stop offset="1" stop-color="#2b448b"/>
    </linearGradient>
    <linearGradient id="Безымянный_градиент_9-2" x1="0.17" x2="19.93" xlink:href="#Безымянный_градиент_9" y1="18"
                    y2="18"/>
    <linearGradient id="Безымянный_градиент_9-3" x1="0.17" x2="19.93" xlink:href="#Безымянный_градиент_9" y1="15.5"
                    y2="15.5"/>
    <linearGradient id="Безымянный_градиент_9-4" x1="0.17" x2="19.93" xlink:href="#Безымянный_градиент_9" y1="7.66"
                    y2="7.66"/>
    <linearGradient id="Безымянный_градиент_9-5" x1="0.17" x2="19.93" xlink:href="#Безымянный_градиент_9" y1="2.65"
                    y2="2.65"/>
  </defs>
  <title>Монтажная область 1 копия 50</title>
  <path class="cls-1" d="M18.5,7.5v11h-2V7.5h2M20,6H15V20h5V6Z"/>
  <path class="cls-2" d="M3.5,17.5v1h-2v-1h2M5,16H0v4H5V16Z"/>
  <path class="cls-3" d="M11,12.5v6H9v-6h2M12.5,11h-5v9h5V11Z"/>
  <polygon class="cls-4"
           points="0 13.41 3.46 13.41 5.96 8.41 10.96 8.41 13.46 3.41 18 3.41 18 1.91 12.54 1.91 10.04 6.91 5.04 6.91 2.54 11.91 0 11.91 0 13.41"/>
  <polygon class="cls-5" points="20 2.68 17.38 5.3 16.32 4.24 17.91 2.65 16.32 1.06 17.38 0 20 2.62 20 2.68"/>
</svg>
