<svg data-name="Слой 1" id="Слой_1" viewBox="0 0 20 20" xmlns="http://www.w3.org/2000/svg">
  <defs>
    <style>.cls-1 {
      fill: #bfc5d1;
    }</style>
  </defs>
  <title>Монтажная область 1 копия 52</title>
  <path
    d="M32.16-16.5a1.77,1.77,0,0,0,0-2.49,1.77,1.77,0,0,0-2.49,0,1.81,1.81,0,0,0-.43.71,5.76,5.76,0,0,0-6.47.57l-5.82,4.89L16.6-13a2.9,2.9,0,0,0-3.41.53,1.74,1.74,0,0,0,0,2.46l0,0L16.13-7A2.93,2.93,0,0,0,17-3a2.93,2.93,0,0,0,3.23,0l2.94,3a1.76,1.76,0,0,0,2.48,0,2.93,2.93,0,0,0,.54-3.42A1.53,1.53,0,0,0,26-3.78L30.88-9.6a5.76,5.76,0,0,0,.57-6.47A1.81,1.81,0,0,0,32.16-16.5ZM17.33-4.16a1.77,1.77,0,0,1-.35-2l2.35,2.35A1.77,1.77,0,0,1,17.33-4.16ZM24.79-.84a.59.59,0,0,1-.83,0L14-10.79a.57.57,0,0,1,0-.81h0a1.76,1.76,0,0,1,1.25-.52,1.64,1.64,0,0,1,.8.2,2.39,2.39,0,0,1,.44.32h0l8.28,8.28h0s.29.37.33.44A1.76,1.76,0,0,1,24.79-.84ZM30-10.35,25.16-4.61,17.78-12l5.73-4.82a4.59,4.59,0,0,1,6.47.58A4.59,4.59,0,0,1,30-10.35Zm.52-7a.59.59,0,0,1,0-.83.59.59,0,0,1,.83,0,.59.59,0,0,1,0,.83h0a.59.59,0,0,1-.83,0Z"/>
  <path class="cls-1" d="M18.5,7.5v11h-2V7.5h2M20,6H15V20h5V6Z"/>
  <path class="cls-1" d="M3.5,17.5v1h-2v-1h2M5,16H0v4H5V16Z"/>
  <path class="cls-1" d="M11,12.5v6H9v-6h2M12.5,11h-5v9h5V11Z"/>
  <polygon class="cls-1"
           points="0 13.41 3.46 13.41 5.96 8.41 10.96 8.41 13.46 3.41 18 3.41 18 1.91 12.54 1.91 10.04 6.91 5.04 6.91 2.54 11.91 0 11.91 0 13.41"/>
  <polygon class="cls-1" points="20 2.68 17.38 5.3 16.32 4.24 17.91 2.65 16.32 1.06 17.38 0 20 2.62 20 2.68"/>
</svg>
