<svg data-name="Слой 1" id="Слой_1" viewBox="0 0 20 20" xmlns="http://www.w3.org/2000/svg">
  <defs>
    <style>.cls-1 {
      fill: #bfc5d1;
    }</style>
  </defs>
  <title>Монтажная область 1 копия 51</title>
  <path class="cls-1" d="M3.5,7.5v11h-2V7.5h2M5,6H0V20H5V6Z"/>
  <path class="cls-1" d="M18.5,17.5v1h-2v-1h2M20,16H15v4h5V16Z"/>
  <path class="cls-1" d="M11,12.5v6H9v-6h2M12.5,11h-5v9h5V11Z"/>
  <polygon class="cls-1"
           points="18 11.5 14.54 11.5 12.04 6.5 7.04 6.5 4.54 1.5 0 1.5 0 0 5.46 0 7.96 5 12.96 5 15.46 10 18 10 18 11.5"/>
  <polygon class="cls-1" points="20 10.71 17.38 8.1 16.32 9.15 17.91 10.75 16.32 12.34 17.38 13.4 20 10.78 20 10.71"/>
</svg>
