<svg data-name="Слой 1" id="Слой_1" viewBox="0 0 50 50" xmlns="http://www.w3.org/2000/svg"
     xmlns:xlink="http://www.w3.org/1999/xlink">
  <defs>
    <style>.cls-1 {
      fill: url(#Безымянный_градиент_12);
    }

    .cls-2 {
      fill: url(#Безымянный_градиент_12-2);
    }

    .cls-3 {
      fill: url(#Безымянный_градиент_12-3);
    }</style>
    <linearGradient gradientUnits="userSpaceOnUse" id="Безымянный_градиент_12" x1="0.21" x2="49.71" y1="25" y2="25">
      <stop offset="0" stop-color="#e4867a"/>
      <stop offset="1" stop-color="#dc3938"/>
    </linearGradient>
    <linearGradient id="Безымянный_градиент_12-2" x1="0.21" x2="49.71" xlink:href="#Безымянный_градиент_12" y1="23.9"
                    y2="23.9"/>
    <linearGradient id="Безымянный_градиент_12-3" x1="0.21" x2="49.71" xlink:href="#Безымянный_градиент_12" y1="40.31"
                    y2="40.31"/>
  </defs>
  <title>change_supply_type_popup</title>
  <path class="cls-1"
        d="M49.59,44.42,28.45,2.13a3.86,3.86,0,0,0-6.9,0L.41,44.42A3.86,3.86,0,0,0,3.86,50H46.14a3.86,3.86,0,0,0,3.45-5.58Zm-4.22,1.25H4.63L25,4.93Z"/>
  <path class="cls-2" d="M22.84,14.46V33.33a2.16,2.16,0,1,0,4.32,0V14.46a2.16,2.16,0,0,0-4.32,0Z"/>
  <path class="cls-3"
        d="M27,39.51a2.26,2.26,0,0,0-.17-.35l-.05-.09-.26-.3-.09-.08a1.3,1.3,0,0,0-.22-.17,1.65,1.65,0,0,0-.38-.21,2.53,2.53,0,0,0-.43-.13,2.3,2.3,0,0,0-.9,0l-.31.09a1.56,1.56,0,0,0-.35.18,2,2,0,0,0-.32.25l-.14.14a2.26,2.26,0,0,0-.19.25,1.66,1.66,0,0,0-.2.36c0,.11-.08.24-.11.36a1.89,1.89,0,0,0-.05.48,2.42,2.42,0,0,0,.15.82,2.45,2.45,0,0,0,.48.7,1.9,1.9,0,0,0,.66.45,2,2,0,0,0,.87.19,2.12,2.12,0,0,0,1.53-.64,2,2,0,0,0,.46-.68,2,2,0,0,0,.18-.84,1.93,1.93,0,0,0-.05-.42A1.72,1.72,0,0,0,27,39.51Zm-2.9,0Z"/>
</svg>
