<svg data-name="Layer 1" id="Layer_1" viewBox="0 0 20 20" xmlns="http://www.w3.org/2000/svg">
  <defs>
    <style>.cls-1 {
      fill: #fff;
    }</style>
  </defs>
  <title>Untitled-1</title>
  <polygon class="cls-1"
           points="7.68 2.9 7.68 5.75 4.83 5.75 4.83 7.06 7.68 7.06 7.68 9.9 8.99 9.9 8.99 7.06 11.83 7.06 11.83 5.75 8.99 5.75 8.99 2.9 7.68 2.9"/>
  <path class="cls-1"
        d="M19.25,11.65H15.52V10a1,1,0,0,0-1-1v2.71h-.66V0H2.76V16.55L4,13.93V1.2h8.76V11.65H6.42a1.13,1.13,0,0,0-.92.68L2.18,19.05h-.7A.51.51,0,0,1,1,18.54V8.31a.51.51,0,0,1,.51-.51h.69v-1h-1A1.12,1.12,0,0,0,0,8V18.88A1.12,1.12,0,0,0,1.14,20H15.2a1.39,1.39,0,0,0,1-.68l3.51-6.64C20.06,12.09,19.69,11.65,19.25,11.65Z"/>
</svg>
