<svg data-name="Layer 1" id="Layer_1" viewBox="0 0 20 20" xmlns="http://www.w3.org/2000/svg">
  <defs>
    <style>.cls-1 {
      fill: #fff;
    }</style>
  </defs>
  <title>Untitled-1</title>
  <polygon class="cls-1"
           points="10.68 12.9 12.18 12.9 12.18 10.29 14.79 10.29 14.79 8.79 12.18 8.79 12.18 6.17 10.68 6.17 10.68 8.79 8.06 8.79 8.06 10.29 10.68 10.29 10.68 12.9"/>
  <path class="cls-1"
        d="M19.35,0H2.9a.62.62,0,0,0-.65.59V2.77H.65A.62.62,0,0,0,0,3.36a.62.62,0,0,0,.65.59h1.6V7.2H.65a.59.59,0,1,0,0,1.17h1.6v3.26H.65a.59.59,0,1,0,0,1.17h1.6v3.26H.65a.59.59,0,1,0,0,1.17h1.6v2.19A.62.62,0,0,0,2.9,20H19.35a.62.62,0,0,0,.65-.59V.59A.62.62,0,0,0,19.35,0ZM18.7,18.83H3.55v-1.6H4.2a.59.59,0,1,0,0-1.17H3.55V12.8H4.2a.59.59,0,1,0,0-1.17H3.55V8.37H4.2a.59.59,0,1,0,0-1.17H3.55V3.95H4.2a.62.62,0,0,0,.65-.59.62.62,0,0,0-.65-.59H3.55V1.17H18.7Z"/>
</svg>
