<svg data-name="Слой 1" id="Слой_1" viewBox="0 0 20 20" xmlns="http://www.w3.org/2000/svg"
     xmlns:xlink="http://www.w3.org/1999/xlink">
  <defs>
    <style>.cls-1 {
      fill: url(#linear-gradient);
    }

    .cls-2 {
      fill: url(#linear-gradient-2);
    }

    .cls-3 {
      fill: url(#linear-gradient-3);
    }</style>
    <linearGradient gradientUnits="userSpaceOnUse" id="linear-gradient" x1="3.41" x2="11.41" y1="11" y2="11">
      <stop offset="0" stop-color="#34b298"/>
      <stop offset="1" stop-color="#30776a"/>
    </linearGradient>
    <linearGradient id="linear-gradient-2" x1="0" x2="14.83" xlink:href="#linear-gradient" y1="17.5" y2="17.5"/>
    <linearGradient id="linear-gradient-3" x1="10.75" x2="20" xlink:href="#linear-gradient" y1="3.53" y2="3.53"/>
  </defs>
  <title>1</title>
  <path class="cls-1"
        d="M11.41,11a4,4,0,1,0-4,4A4,4,0,0,0,11.41,11Zm-4,2.5A2.5,2.5,0,1,1,9.91,11,2.5,2.5,0,0,1,7.41,13.5Z"/>
  <path class="cls-2" d="M7.41,15A8,8,0,0,0,0,20H1.65a6.49,6.49,0,0,1,11.52,0h1.65A8,8,0,0,0,7.41,15Z"/>
  <path class="cls-3" d="M18.84.06,14.22,4.69,11.91,2.38H10.75V3.53L14.22,7,20,1.22V.06Z"/>
</svg>
