<svg data-name="Layer 1" id="Layer_1" viewBox="0 0 20 20" xmlns="http://www.w3.org/2000/svg"
     xmlns:xlink="http://www.w3.org/1999/xlink">
  <defs>
    <style>.cls-1 {
      fill: url(#linear-gradient);
    }

    .cls-2 {
      fill: url(#linear-gradient-2);
    }</style>
    <linearGradient gradientUnits="userSpaceOnUse" id="linear-gradient" x1="4.88" x2="15.13" y1="7.03" y2="7.03">
      <stop offset="0" stop-color="#307ea7"/>
      <stop offset="1" stop-color="#283b85"/>
    </linearGradient>
    <linearGradient id="linear-gradient-2" x1="1.25" x2="18.75" xlink:href="#linear-gradient" y1="17.03" y2="17.03"/>
  </defs>
  <title>Untitled-1</title>
  <path class="cls-1"
        d="M14.72,9.31a4.73,4.73,0,0,0-.53-2.15.69.69,0,0,0,.26-.44l.67-4.67a.7.7,0,0,0-.34-.7.69.69,0,0,0-.77,0L12.15,2.84,10.59.33A.69.69,0,0,0,10,0a.68.68,0,0,0-.59.31L7.75,2.83,6,1.41a.69.69,0,0,0-.78-.07.7.7,0,0,0-.34.71l.67,4.67a.69.69,0,0,0,.25.44,4.72,4.72,0,1,0,8.91,2.15ZM7.47,4.4a.69.69,0,0,0,1-.15L10,2l1.39,2.24a.69.69,0,0,0,1,.18l1.12-.86-.34,2.38H6.84L6.51,3.62ZM10,12.28a3,3,0,0,1-2.17-5h4.34a3,3,0,0,1-2.17,5Z"/>
  <path class="cls-2" d="M10,14.06A9.44,9.44,0,0,0,1.25,20H3.2A7.63,7.63,0,0,1,16.8,20h1.95A9.44,9.44,0,0,0,10,14.06Z"/>
</svg>
