<svg data-name="Layer 1" id="Layer_1" viewBox="0 0 20 20" xmlns="http://www.w3.org/2000/svg"
     xmlns:xlink="http://www.w3.org/1999/xlink">
  <defs>
    <style>.cls-1 {
      fill: url(#linear-gradient);
    }

    .cls-2 {
      fill: url(#linear-gradient-2);
    }

    .cls-3 {
      fill: url(#linear-gradient-3);
    }

    .cls-4 {
      fill: url(#linear-gradient-4);
    }

    .cls-5 {
      fill: url(#linear-gradient-5);
    }

    .cls-6 {
      fill: url(#linear-gradient-6);
    }

    .cls-7 {
      fill: url(#linear-gradient-7);
    }

    .cls-8 {
      fill: url(#linear-gradient-8);
    }

    .cls-9 {
      fill: url(#linear-gradient-9);
    }

    .cls-10 {
      fill: url(#linear-gradient-10);
    }

    .cls-11 {
      fill: url(#linear-gradient-11);
    }

    .cls-12 {
      fill: url(#linear-gradient-12);
    }

    .cls-13 {
      fill: url(#linear-gradient-13);
    }

    .cls-14 {
      fill: url(#linear-gradient-14);
    }

    .cls-15 {
      fill: url(#linear-gradient-15);
    }

    .cls-16 {
      fill: url(#linear-gradient-16);
    }

    .cls-17 {
      fill: url(#linear-gradient-17);
    }

    .cls-18 {
      fill: url(#linear-gradient-18);
    }

    .cls-19 {
      fill: url(#linear-gradient-19);
    }

    .cls-20 {
      fill: url(#linear-gradient-20);
    }

    .cls-21 {
      fill: url(#linear-gradient-21);
    }

    .cls-22 {
      fill: url(#linear-gradient-22);
    }

    .cls-23 {
      fill: url(#linear-gradient-23);
    }

    .cls-24 {
      fill: url(#linear-gradient-24);
    }

    .cls-25 {
      fill: url(#linear-gradient-25);
    }

    .cls-26 {
      fill: url(#linear-gradient-26);
    }

    .cls-27 {
      fill: url(#linear-gradient-27);
    }

    .cls-28 {
      fill: url(#linear-gradient-28);
    }

    .cls-29 {
      fill: url(#linear-gradient-29);
    }

    .cls-30 {
      fill: url(#linear-gradient-30);
    }</style>
    <linearGradient gradientUnits="userSpaceOnUse" id="linear-gradient" x1="9.24" x2="20" y1="13.3" y2="13.3">
      <stop offset="0" stop-color="#307ea7"/>
      <stop offset="1" stop-color="#283b85"/>
    </linearGradient>
    <linearGradient id="linear-gradient-2" x1="11.55" x2="12.75" xlink:href="#linear-gradient" y1="10.99" y2="10.99"/>
    <linearGradient id="linear-gradient-3" x1="13.2" x2="14.4" xlink:href="#linear-gradient" y1="10.99" y2="10.99"/>
    <linearGradient id="linear-gradient-4" x1="14.85" x2="16.05" xlink:href="#linear-gradient" y1="10.99" y2="10.99"/>
    <linearGradient id="linear-gradient-5" x1="16.5" x2="17.69" xlink:href="#linear-gradient" y1="10.99" y2="10.99"/>
    <linearGradient id="linear-gradient-6" x1="10.89" x2="12.42" xlink:href="#linear-gradient" y1="12.64" y2="12.64"/>
    <linearGradient id="linear-gradient-7" x1="12.87" x2="14.4" xlink:href="#linear-gradient" y1="12.64" y2="12.64"/>
    <linearGradient id="linear-gradient-8" x1="14.85" x2="16.38" xlink:href="#linear-gradient" y1="12.64" y2="12.64"/>
    <linearGradient id="linear-gradient-9" x1="16.83" x2="18.36" xlink:href="#linear-gradient" y1="12.64" y2="12.64"/>
    <linearGradient id="linear-gradient-10" x1="10.89" x2="12.42" xlink:href="#linear-gradient" y1="13.96" y2="13.96"/>
    <linearGradient id="linear-gradient-11" x1="12.87" x2="14.4" xlink:href="#linear-gradient" y1="13.96" y2="13.96"/>
    <linearGradient id="linear-gradient-12" x1="14.85" x2="16.38" xlink:href="#linear-gradient" y1="13.96" y2="13.96"/>
    <linearGradient id="linear-gradient-13" x1="16.83" x2="18.36" xlink:href="#linear-gradient" y1="13.96" y2="13.96"/>
    <linearGradient id="linear-gradient-14" x1="10.89" x2="12.42" xlink:href="#linear-gradient" y1="15.28" y2="15.28"/>
    <linearGradient id="linear-gradient-15" x1="12.87" x2="14.4" xlink:href="#linear-gradient" y1="15.28" y2="15.28"/>
    <linearGradient id="linear-gradient-16" x1="14.85" x2="16.38" xlink:href="#linear-gradient" y1="15.28" y2="15.28"/>
    <linearGradient id="linear-gradient-17" x1="16.83" x2="18.36" xlink:href="#linear-gradient" y1="15.28" y2="15.28"/>
    <linearGradient id="linear-gradient-18" x1="10.89" x2="12.42" xlink:href="#linear-gradient" y1="16.6" y2="16.6"/>
    <linearGradient id="linear-gradient-19" x1="12.87" x2="14.4" xlink:href="#linear-gradient" y1="16.6" y2="16.6"/>
    <linearGradient id="linear-gradient-20" x1="14.85" x2="16.38" xlink:href="#linear-gradient" y1="16.6" y2="16.6"/>
    <linearGradient id="linear-gradient-21" x1="16.83" x2="18.36" xlink:href="#linear-gradient" y1="16.6" y2="16.6"/>
    <linearGradient id="linear-gradient-22" x1="10.89" x2="12.42" xlink:href="#linear-gradient" y1="17.92" y2="17.92"/>
    <linearGradient id="linear-gradient-23" x1="12.87" x2="14.4" xlink:href="#linear-gradient" y1="17.92" y2="17.92"/>
    <linearGradient id="linear-gradient-24" x1="14.85" x2="16.38" xlink:href="#linear-gradient" y1="17.92" y2="17.92"/>
    <linearGradient id="linear-gradient-25" x1="16.83" x2="18.36" xlink:href="#linear-gradient" y1="17.92" y2="17.92"/>
    <linearGradient id="linear-gradient-26" x1="0" x2="16.71" xlink:href="#linear-gradient" y1="4.06" y2="4.06"/>
    <linearGradient id="linear-gradient-27" x1="0" x2="8.79" xlink:href="#linear-gradient" y1="14.62" y2="14.62"/>
    <linearGradient id="linear-gradient-28" x1="12.54" x2="15.06" xlink:href="#linear-gradient" y1="2.08" y2="2.08"/>
    <linearGradient id="linear-gradient-29" x1="8.91" x2="15.06" xlink:href="#linear-gradient" y1="3.73" y2="3.73"/>
    <linearGradient id="linear-gradient-30" x1="14.52" x2="15.72" xlink:href="#linear-gradient" y1="8.35" y2="8.35"/>
  </defs>
  <title>Untitled-1</title>
  <path class="cls-1"
        d="M19.57,6.6H9.67A.41.41,0,0,0,9.24,7V19.57a.41.41,0,0,0,.43.43h9.9a.41.41,0,0,0,.43-.43V7A.41.41,0,0,0,19.57,6.6Zm-.43,3.51v9h-9v-9Zm-9-2.19V7.46h9V9.24h-9V8.78h4V7.92Z"/>
  <rect class="cls-2" height="0.87" width="1.2" x="11.55" y="10.56"/>
  <rect class="cls-3" height="0.87" width="1.2" x="13.2" y="10.56"/>
  <rect class="cls-4" height="0.87" width="1.2" x="14.85" y="10.56"/>
  <rect class="cls-5" height="0.87" width="1.2" x="16.5" y="10.56"/>
  <rect class="cls-6" height="0.87" width="1.53" x="10.89" y="12.21"/>
  <rect class="cls-7" height="0.87" width="1.53" x="12.87" y="12.21"/>
  <rect class="cls-8" height="0.87" width="1.53" x="14.85" y="12.21"/>
  <rect class="cls-9" height="0.87" width="1.53" x="16.83" y="12.21"/>
  <rect class="cls-10" height="0.87" width="1.53" x="10.89" y="13.53"/>
  <rect class="cls-11" height="0.87" width="1.53" x="12.87" y="13.53"/>
  <rect class="cls-12" height="0.87" width="1.53" x="14.85" y="13.53"/>
  <rect class="cls-13" height="0.87" width="1.53" x="16.83" y="13.53"/>
  <rect class="cls-14" height="0.87" width="1.53" x="10.89" y="14.85"/>
  <rect class="cls-15" height="0.87" width="1.53" x="12.87" y="14.85"/>
  <rect class="cls-16" height="0.87" width="1.53" x="14.85" y="14.85"/>
  <rect class="cls-17" height="0.87" width="1.53" x="16.83" y="14.85"/>
  <rect class="cls-18" height="0.87" width="1.53" x="10.89" y="16.16"/>
  <rect class="cls-19" height="0.87" width="1.53" x="12.87" y="16.16"/>
  <rect class="cls-20" height="0.87" width="1.53" x="14.85" y="16.16"/>
  <rect class="cls-21" height="0.87" width="1.53" x="16.83" y="16.16"/>
  <rect class="cls-22" height="0.87" width="1.53" x="10.89" y="17.48"/>
  <rect class="cls-23" height="0.87" width="1.53" x="12.87" y="17.48"/>
  <rect class="cls-24" height="0.87" width="1.53" x="14.85" y="17.48"/>
  <rect class="cls-25" height="0.87" width="1.53" x="16.83" y="17.48"/>
  <path class="cls-26"
        d="M.87,4.82H4.4a.41.41,0,0,0,.43-.43V.87h11V5.48h.87V.43A.41.41,0,0,0,16.27,0H4.4a.24.24,0,0,0-.13,0h0l0,0h0L4.09.13l-4,4a.27.27,0,0,0,0,.07v0l0,0V4.3a.21.21,0,0,0,0,.09V8.12H.87ZM4,1.47V4H1.48Z"/>
  <path class="cls-27"
        d="M8.36,14.18H4.83V9.67a.41.41,0,0,0-.43-.43h-4A.41.41,0,0,0,0,9.67v9.9A.41.41,0,0,0,.44,20H8.36a.41.41,0,0,0,.43-.43V14.62A.41.41,0,0,0,8.36,14.18Zm-.43.87v.78H4.83v-.78Zm0,1.65v.78H4.83V16.7Zm0,1.65v.78H4.83v-.78Zm-4,0v.78H.87v-.78ZM4,16.7v.78H.87V16.7Zm0-1.65v.78H.87v-.78ZM4,13.4v.78H.87V13.4Zm0-1.65v.78H.87v-.78ZM4,10.1v.78H.87V10.1Z"/>
  <rect class="cls-28" height="0.87" width="2.52" x="12.54" y="1.65"/>
  <rect class="cls-29" height="0.87" width="6.14" x="8.91" y="3.3"/>
  <rect class="cls-30" height="0.87" width="1.2" x="14.52" y="7.92"/>
</svg>
