<?xml version="1.0" encoding="utf-8"?>
<!-- Generator: Adobe Illustrator 20.1.0, SVG Export Plug-In . SVG Version: 6.00 Build 0)  -->
<svg id="Layer_1" style="enable-background:new 0 0 20 20;" version="1.1" viewBox="0 0 20 20" x="0px"
     xml:space="preserve" xmlns="http://www.w3.org/2000/svg" y="0px">
<style type="text/css">
	.st0 {
    fill: url(#SVGID_1_);
  }

  .st1 {
    fill: url(#SVGID_2_);
  }

  .st2 {
    fill: url(#SVGID_3_);
  }

  .st3 {
    fill: url(#SVGID_4_);
  }

  .st4 {
    fill: url(#SVGID_5_);
  }

  .st5 {
    fill: url(#SVGID_6_);
  }

  .st6 {
    fill: url(#SVGID_7_);
  }

  .st7 {
    fill: url(#SVGID_8_);
  }

  .st8 {
    fill: url(#SVGID_9_);
  }

  .st9 {
    fill: url(#SVGID_10_);
  }
</style>
  <g>
	<linearGradient gradientUnits="userSpaceOnUse" id="SVGID_1_" x1="3" x2="4.5" y1="5.75" y2="5.75">
		<stop offset="0" style="stop-color:#307EA7"/>
    <stop offset="1" style="stop-color:#283B85"/>
	</linearGradient>
    <rect class="st0" height="1.5" width="1.5" x="3" y="5"/>
    <linearGradient gradientUnits="userSpaceOnUse" id="SVGID_2_" x1="3" x2="4.5" y1="9.75" y2="9.75">
		<stop offset="0" style="stop-color:#307EA7"/>
      <stop offset="1" style="stop-color:#283B85"/>
	</linearGradient>
    <rect class="st1" height="1.5" width="1.5" x="3" y="9"/>
    <linearGradient gradientUnits="userSpaceOnUse" id="SVGID_3_" x1="3" x2="4.5" y1="13.75" y2="13.75">
		<stop offset="0" style="stop-color:#307EA7"/>
      <stop offset="1" style="stop-color:#283B85"/>
	</linearGradient>
    <rect class="st2" height="1.5" width="1.5" x="3" y="13"/>
    <linearGradient gradientUnits="userSpaceOnUse" id="SVGID_4_" x1="0" x2="20" y1="10" y2="10">
		<stop offset="0" style="stop-color:#307EA7"/>
      <stop offset="1" style="stop-color:#283B85"/>
	</linearGradient>
    <polygon class="st3" points="12,4 12,0 0,0 0,20 1.5,20 1.5,1.5 10.5,1.5 10.5,4 6,4 6,20 7.5,20 7.5,5.5 18.5,5.5 18.5,20 20,20
		20,4 	"/>
    <linearGradient gradientUnits="userSpaceOnUse" id="SVGID_5_" x1="10" x2="11.5" y1="9.75" y2="9.75">
		<stop offset="0" style="stop-color:#307EA7"/>
      <stop offset="1" style="stop-color:#283B85"/>
	</linearGradient>
    <rect class="st4" height="1.5" width="1.5" x="10" y="9"/>
    <linearGradient gradientUnits="userSpaceOnUse" id="SVGID_6_" x1="10" x2="11.5" y1="13.75" y2="13.75">
		<stop offset="0" style="stop-color:#307EA7"/>
      <stop offset="1" style="stop-color:#283B85"/>
	</linearGradient>
    <rect class="st5" height="1.5" width="1.5" x="10" y="13"/>
    <linearGradient gradientUnits="userSpaceOnUse" id="SVGID_7_" x1="10" x2="11.5" y1="17.75" y2="17.75">
		<stop offset="0" style="stop-color:#307EA7"/>
      <stop offset="1" style="stop-color:#283B85"/>
	</linearGradient>
    <rect class="st6" height="1.5" width="1.5" x="10" y="17"/>
    <linearGradient gradientUnits="userSpaceOnUse" id="SVGID_8_" x1="14.5" x2="16" y1="9.75" y2="9.75">
		<stop offset="0" style="stop-color:#307EA7"/>
      <stop offset="1" style="stop-color:#283B85"/>
	</linearGradient>
    <rect class="st7" height="1.5" width="1.5" x="14.5" y="9"/>
    <linearGradient gradientUnits="userSpaceOnUse" id="SVGID_9_" x1="14.5" x2="16" y1="13.75" y2="13.75">
		<stop offset="0" style="stop-color:#307EA7"/>
      <stop offset="1" style="stop-color:#283B85"/>
	</linearGradient>
    <rect class="st8" height="1.5" width="1.5" x="14.5" y="13"/>
    <linearGradient gradientUnits="userSpaceOnUse" id="SVGID_10_" x1="14.5" x2="16" y1="17.75" y2="17.75">
		<stop offset="0" style="stop-color:#307EA7"/>
      <stop offset="1" style="stop-color:#283B85"/>
	</linearGradient>
    <rect class="st9" height="1.5" width="1.5" x="14.5" y="17"/>
</g>
</svg>
