<?xml version="1.0" encoding="utf-8"?>
<!-- Generator: Adobe Illustrator 21.0.0, SVG Export Plug-In . SVG Version: 6.00 Build 0)  -->
<svg id="Слой_1" style="enable-background:new 0 0 28.7 29.1;" version="1.1" viewBox="0 0 28.7 29.1" x="0px"
     xml:space="preserve" xmlns="http://www.w3.org/2000/svg" y="0px">
<style type="text/css">
	.st0 {
    fill: #19233C;
  }
</style>
  <g>
	<g>
		<path class="st0" d="M21.5,6.1c1.1,0,2-0.9,2-2V2c0-1.1-0.9-2-2-2s-2,0.9-2,2v2.1C19.5,5.2,20.4,6.1,21.5,6.1"/>
    <path class="st0" d="M28.7,3.5h-4.1v1c0,1.7-1.4,3.1-3.1,3.1s-3.1-1.4-3.1-3.1v-1h-8.2v1c0,1.7-1.4,3.1-3.1,3.1s-3-1.4-3-3.1v-1
			L0,3.4v25.7h2.1h24.6h2V3.5z M26.7,27.1H2.1V10.7h24.6V27.1L26.7,27.1z"/>
    <path class="st0" d="M7.1,6.1c1.1,0,2-0.9,2-2V2c0-1.1-0.9-2-2-2s-2,0.9-2,2v2.1C5.1,5.2,6,6.1,7.1,6.1"/>
    <rect class="st0" height="2.9" width="3.2" x="10.3" y="12.9"/>
    <rect class="st0" height="2.9" width="3.2" x="15.5" y="12.9"/>
    <rect class="st0" height="2.9" width="3.2" x="20.3" y="12.9"/>
    <rect class="st0" height="2.8" width="3.2" x="10.3" y="17.6"/>
    <rect class="st0" height="2.8" width="3.2" x="15.5" y="17.6"/>
    <rect class="st0" height="2.8" width="3.2" x="20.3" y="17.6"/>
    <rect class="st0" height="2.8" width="3.2" x="10.3" y="22.4"/>
    <rect class="st0" height="2.8" width="3.2" x="5.1" y="17.6"/>
    <rect class="st0" height="2.8" width="3.2" x="5.1" y="22.4"/>
    <rect class="st0" height="2.8" width="3.2" x="15.5" y="22.4"/>
    <rect class="st0" height="2.8" width="3.2" x="20.3" y="22.4"/>
	</g>
</g>
</svg>
