<?xml version="1.0" encoding="utf-8"?>
<!-- Generator: Adobe Illustrator 21.0.0, SVG Export Plug-In . SVG Version: 6.00 Build 0)  -->
<svg id="Слой_1" style="enable-background:new 0 0 17 17;" version="1.1" viewBox="0 0 17 17" x="0px"
     xml:space="preserve" xmlns="http://www.w3.org/2000/svg" y="0px">
<style type="text/css">
	.st0 {
    fill: #00AEEF;
  }
</style>
  <g>
	<path class="st0" d="M12.7,3.6c0.7,0,1.2-0.5,1.2-1.2V1.2c0-0.7-0.5-1.2-1.2-1.2c-0.7,0-1.2,0.5-1.2,1.2v1.2
		C11.5,3.1,12.1,3.6,12.7,3.6"/>
    <path class="st0" d="M17,2h-2.4v0.6c0,1-0.8,1.8-1.8,1.8c-1,0-1.8-0.8-1.8-1.8V2H6.1v0.6c0,1-0.8,1.8-1.8,1.8S2.4,3.6,2.4,2.6V2
		L0,2v15h1.2h14.6l1.2,0L17,2z M15.8,15.8H1.2V6.2h14.6L15.8,15.8L15.8,15.8z"/>
    <path class="st0" d="M4.2,3.6c0.7,0,1.2-0.5,1.2-1.2V1.2C5.4,0.5,4.9,0,4.2,0S3,0.5,3,1.2v1.2C3,3.1,3.6,3.6,4.2,3.6"/>
    <rect class="st0" height="1.7" width="1.9" x="6.1" y="7.5"/>
    <rect class="st0" height="1.7" width="1.9" x="9.2" y="7.5"/>
    <rect class="st0" height="1.7" width="1.9" x="12" y="7.5"/>
    <rect class="st0" height="1.7" width="1.9" x="6.1" y="10.3"/>
    <rect class="st0" height="1.7" width="1.9" x="9.2" y="10.3"/>
    <rect class="st0" height="1.7" width="1.9" x="12" y="10.3"/>
    <rect class="st0" height="1.7" width="1.9" x="6.1" y="13.1"/>
    <rect class="st0" height="1.7" width="1.9" x="3" y="10.3"/>
    <rect class="st0" height="1.7" width="1.9" x="3" y="13.1"/>
    <rect class="st0" height="1.7" width="1.9" x="9.2" y="13.1"/>
    <rect class="st0" height="1.7" width="1.9" x="12" y="13.1"/>
</g>
</svg>
