<?xml version="1.0" encoding="utf-8"?>
<!-- Generator: Adobe Illustrator 22.1.0, SVG Export Plug-In . SVG Version: 6.00 Build 0)  -->
<svg id="Capa_1" style="enable-background:new 0 0 20 20;" version="1.1" viewBox="0 0 20 20" x="0px"
     xml:space="preserve" xmlns="http://www.w3.org/2000/svg" y="0px">
<style type="text/css">
	.st0 {
    fill: url(#SVGID_1_);
  }
</style>
  <title>check-mark</title>
  <linearGradient gradientTransform="matrix(1 0 0 -1 0 19)" gradientUnits="userSpaceOnUse" id="SVGID_1_" x1="0.6016" x2="19.4016" y1="9"
                  y2="9">
	<stop offset="0" style="stop-color:#1ABC9C"/>
    <stop offset="1" style="stop-color:#307769"/>
</linearGradient>
  <path class="st0" d="M7.6,20c-0.6,0-1.2-0.3-1.5-0.8L1,12.6c-0.6-0.9-0.3-2.1,0.6-2.7c0.8-0.5,1.9-0.4,2.6,0.4l3.3,4.4l8.3-13.4
	c0.4-1,1.6-1.5,2.6-1c1,0.4,1.5,1.6,1,2.6c-0.1,0.2-0.2,0.3-0.3,0.5L9.2,19C8.9,19.6,8.3,19.9,7.6,20L7.6,20z"/>
</svg>
