<svg data-name="Layer 1" id="Layer_1" viewBox="0 0 20 20" xmlns="http://www.w3.org/2000/svg"
     xmlns:xlink="http://www.w3.org/1999/xlink">
  <defs>
    <style>.cls-1 {
      fill: url(#linear-gradient);
    }

    .cls-2 {
      fill: url(#linear-gradient-2);
    }

    .cls-3 {
      fill: url(#linear-gradient-3);
    }

    .cls-4 {
      fill: url(#linear-gradient-4);
    }

    .cls-5 {
      fill: url(#linear-gradient-5);
    }

    .cls-6 {
      fill: url(#linear-gradient-6);
    }

    .cls-7 {
      fill: url(#linear-gradient-7);
    }</style>
    <linearGradient gradientUnits="userSpaceOnUse" id="linear-gradient" x1="6.28" x2="7.26" y1="3.75" y2="3.75">
      <stop offset="0" stop-color="#2c7ca8"/>
      <stop offset="1" stop-color="#2b347c"/>
    </linearGradient>
    <linearGradient id="linear-gradient-2" x1="6.28" x2="7.26" xlink:href="#linear-gradient" y1="6.35" y2="6.35"/>
    <linearGradient id="linear-gradient-3" x1="6.28" x2="7.26" xlink:href="#linear-gradient" y1="8.96" y2="8.96"/>
    <linearGradient id="linear-gradient-4" x1="9.21" x2="10.19" xlink:href="#linear-gradient" y1="3.75" y2="3.75"/>
    <linearGradient id="linear-gradient-5" x1="9.21" x2="10.19" xlink:href="#linear-gradient" y1="6.35" y2="6.35"/>
    <linearGradient id="linear-gradient-6" x1="9.21" x2="10.19" xlink:href="#linear-gradient" y1="8.96" y2="8.96"/>
    <linearGradient id="linear-gradient-7" x1="0" x2="19.85" xlink:href="#linear-gradient" y1="10" y2="10"/>
  </defs>
  <title>Untitled-5</title>
  <rect class="cls-1" height="0.98" width="0.98" x="6.28" y="3.26"/>
  <rect class="cls-2" height="0.98" width="0.98" x="6.28" y="5.87"/>
  <rect class="cls-3" height="0.98" width="0.98" x="6.28" y="8.47"/>
  <rect class="cls-4" height="0.98" width="0.98" x="9.21" y="3.26"/>
  <rect class="cls-5" height="0.98" width="0.98" x="9.21" y="5.87"/>
  <rect class="cls-6" height="0.98" width="0.98" x="9.21" y="8.47"/>
  <path class="cls-7"
        d="M19.24,11.64H15.5V10a1,1,0,0,0-1-1v2.71h-.66V0H2.75V16.55l1.19-2.62V1.19H12.7V11.64H6.41a1.13,1.13,0,0,0-.92.68L2.17,19h-.7A.51.51,0,0,1,1,18.54V8.3a.51.51,0,0,1,.51-.51h.69v-1h-1A1.12,1.12,0,0,0,0,8V18.88A1.12,1.12,0,0,0,1.12,20H15.18a1.39,1.39,0,0,0,1-.68l3.51-6.64C20,12.08,19.68,11.65,19.24,11.64Z"/>
</svg>
