<svg data-name="Layer 1" id="Layer_1" viewBox="0 0 20 20" xmlns="http://www.w3.org/2000/svg">
  <defs>
    <style>.cls-1 {
      fill: #bfc5d0;
    }</style>
  </defs>
  <title>Untitled-5</title>
  <rect class="cls-1" height="0.98" width="0.98" x="6.28" y="3.26"/>
  <rect class="cls-1" height="0.98" width="0.98" x="6.28" y="5.87"/>
  <rect class="cls-1" height="0.98" width="0.98" x="6.28" y="8.47"/>
  <rect class="cls-1" height="0.98" width="0.98" x="9.21" y="3.26"/>
  <rect class="cls-1" height="0.98" width="0.98" x="9.21" y="5.87"/>
  <rect class="cls-1" height="0.98" width="0.98" x="9.21" y="8.47"/>
  <path class="cls-1"
        d="M19.24,11.64H15.5V10a1,1,0,0,0-1-1v2.71h-.66V0H2.75V16.55l1.19-2.62V1.19H12.7V11.64H6.41a1.13,1.13,0,0,0-.92.68L2.17,19h-.7A.51.51,0,0,1,1,18.54V8.3a.51.51,0,0,1,.51-.51h.69v-1h-1A1.12,1.12,0,0,0,0,8V18.88A1.12,1.12,0,0,0,1.12,20H15.18a1.39,1.39,0,0,0,1-.68l3.51-6.64C20,12.08,19.68,11.65,19.24,11.64Z"/>
</svg>
