<svg data-name="Layer 1" id="Layer_1" viewBox="0 0 32 32" xmlns="http://www.w3.org/2000/svg">
  <defs>
    <style>.cls-1 {
      fill: #cbcdcb;
    }</style>
  </defs>
  <title>icons</title>
  <path class="cls-1"
        d="M25.6,18.67V11.2a6.91,6.91,0,0,0-6.1-6.88L21.28.77A.53.53,0,0,0,20.8,0H11.2a.53.53,0,0,0-.48.77L12.5,4.32A6.94,6.94,0,0,0,6.4,11.2v9.6H7.47V11.2a5.87,5.87,0,0,1,5.87-5.87h5.33a5.86,5.86,0,0,1,5.87,5.87v7.47ZM18.34,4.27H13.66l-1.6-3.2h7.87Z"/>
  <path class="cls-1" d="M11.47,8a3.7,3.7,0,0,1,.93-.38l-.27-1a4.81,4.81,0,0,0-1.2.49Z"/>
  <path class="cls-1" d="M8.53,13.33H9.6V11.2a3.7,3.7,0,0,1,1.13-2.68L10,7.76A4.76,4.76,0,0,0,8.53,11.2Z"/>
  <path class="cls-1"
        d="M1.52,26.21l9.05,4.94A6.93,6.93,0,0,0,13.9,32H31.47a.53.53,0,0,0,.53-.53v-9.6a.53.53,0,0,0-.53-.53H27.39l-.06,0a8.44,8.44,0,0,0-2.06-1.18,8.65,8.65,0,0,0-7.89.7h-4a2.67,2.67,0,0,0-2.54,3.47L4.2,21a2.85,2.85,0,0,0-3,.29A2.93,2.93,0,0,0,0,23.59v.06A2.91,2.91,0,0,0,1.52,26.21ZM27.73,22.4h3.2v8.53h-3.2ZM1.07,23.59a1.88,1.88,0,0,1,.77-1.51,1.78,1.78,0,0,1,1.88-.17L12,26.08a.53.53,0,0,0,.24.06h8V25.07H13.33a1.6,1.6,0,1,1,0-3.2h4.2a.54.54,0,0,0,.29-.09,7.58,7.58,0,0,1,7-.69,7.41,7.41,0,0,1,1.8,1v8.81H13.9a5.86,5.86,0,0,1-2.81-.72L2,25.28a1.84,1.84,0,0,1-1-1.62Z"/>
  <path class="cls-1" d="M28.8,28.27h1.07v1.07H28.8Z"/>
  <path class="cls-1"
        d="M16.53,18.67V17.6h.53a2.13,2.13,0,1,0,0-4.27H14.93a1.07,1.07,0,1,1,0-2.13h3.73V10.13H16.53V9.07H15.47v1.07h-.53a2.13,2.13,0,1,0,0,4.27h2.13a1.07,1.07,0,1,1,0,2.13H13.33V17.6h2.13v1.07Z"/>
</svg>
