<?xml version="1.0" encoding="utf-8"?>
<!-- Generator: Adobe Illustrator 20.1.0, SVG Export Plug-In . SVG Version: 6.00 Build 0)  -->
<svg id="Layer_1" style="enable-background:new 0 0 50 50;" version="1.1" viewBox="0 0 50 50" x="0px"
     xml:space="preserve" xmlns="http://www.w3.org/2000/svg" y="0px">
<style type="text/css">
	.st0 {
    fill: url(#SVGID_1_);
  }

  .st1 {
    fill: url(#SVGID_2_);
  }
</style>
  <title>Delete_popup</title>
  <g>

		<linearGradient gradientTransform="matrix(1 0 0 -1 0 50)" gradientUnits="userSpaceOnUse" id="SVGID_1_" x1="50" x2="1.818989e-12" y1="25"
                    y2="25">
		<stop offset="0" style="stop-color:#E4877A"/>
      <stop offset="1" style="stop-color:#DD3839"/>
	</linearGradient>
    <path class="st0" d="M25,0C11.2,0,0,11.2,0,25s11.2,25,25,25s25-11.2,25-25S38.8,0,25,0z M25,46.7C13,46.7,3.3,37,3.3,25
		S13,3.3,25,3.3S46.7,13,46.7,25C46.7,37,37,46.7,25,46.7z"/>

    <linearGradient gradientTransform="matrix(1 0 0 -1 0 50)" gradientUnits="userSpaceOnUse" id="SVGID_2_" x1="33.6707" x2="16.3295" y1="25"
                    y2="25">
		<stop offset="0" style="stop-color:#E4877A"/>
      <stop offset="1" style="stop-color:#DD3839"/>
	</linearGradient>
    <path class="st1" d="M33.2,16.8c-0.6-0.6-1.7-0.6-2.3,0c0,0,0,0,0,0L25,22.7l-5.9-5.9c-0.6-0.6-1.7-0.6-2.3,0s-0.6,1.7,0,2.3l0,0
		l5.9,5.9l-5.9,5.9c-0.6,0.6-0.6,1.7,0,2.3s1.7,0.6,2.3,0l5.9-5.9l5.9,5.9c0.6,0.6,1.7,0.6,2.3,0s0.6-1.7,0-2.3L27.3,25l5.9-5.9
		C33.8,18.5,33.8,17.5,33.2,16.8C33.2,16.8,33.2,16.8,33.2,16.8L33.2,16.8z"/>
</g>
</svg>
