<svg data-name="Layer 1" id="Layer_1" viewBox="0 0 20 20" xmlns="http://www.w3.org/2000/svg">
  <defs>
    <style>.cls-1 {
      fill: #fff;
    }</style>
  </defs>
  <title>icon</title>
  <path class="cls-1"
        d="M9.17,15.08,11,13.22l8.09-8.09A3,3,0,0,0,14.86.88L6.11,9.63,4.24,11.5,2.4,13.34l-1,1L0,20l5.62-1.36,1-1,.22-.22,2.29-2.29ZM15.93,1.95a1.5,1.5,0,1,1,2.13,2.13L16.59,5.54,14.46,3.41ZM8.8,9.07h0l4.6-4.6L15.53,6.6l-4.34,4.34h0L6.66,15.47,4.53,13.34Zm-3.95,8.2L2,18l.68-2.81.74-.74L5.6,16.53Z"/>
  <rect class="cls-1" height="1.5" width="11.5" x="8.49" y="18.5"/>
</svg>
