<svg data-name="Layer 1" id="Layer_1" viewBox="0 0 13 10" xmlns="http://www.w3.org/2000/svg">
  <defs>
    <style>.cls-1 {
      fill: #566787;
    }</style>
  </defs>
  <title>1</title>
  <path class="cls-1"
        d="M6.5,1.67c1.57,0,3.39,1.91,4.41,3.33-1,1.42-2.84,3.33-4.41,3.33S3.11,6.42,2.09,5c1-1.42,2.84-3.33,4.41-3.33M6.5,0C2.91,0,0,5,0,5s2.91,5,6.5,5S13,5,13,5,10.09,0,6.5,0Z"/>
  <path class="cls-1"
        d="M6.5,3.63A1.39,1.39,0,0,0,5.06,5,1.4,1.4,0,0,0,6.5,6.34,1.4,1.4,0,0,0,7.94,5,1.39,1.39,0,0,0,6.5,3.63Z"/>
</svg>
