<svg data-name="Layer 1" id="Layer_1" viewBox="0 0 20 20" xmlns="http://www.w3.org/2000/svg">
  <defs>
    <style>.cls-1 {
      fill: #aeb4c0;
    }</style>
  </defs>
  <title>general_info</title>
  <path class="cls-1"
        d="M8.87,6.53h0a2,2,0,0,0,.11.2l.13.16h0a1.65,1.65,0,0,0,.18.16.62.62,0,0,0,.22.11h0a.91.91,0,0,0,.24.07,1.12,1.12,0,0,0,.24,0,1,1,0,0,0,.24,0,.65.65,0,0,0,.2-.07h0A1.36,1.36,0,0,0,10.66,7a1.18,1.18,0,0,0,.16-.15l0,0A1,1,0,0,0,11,6.71a.57.57,0,0,0,.09-.18s0,0,0,0a1.18,1.18,0,0,0,.07-.24,1,1,0,0,0,0-.24,1,1,0,0,0,0-.24,1.7,1.7,0,0,0-.07-.24h0a1,1,0,0,0-.22-.33l0,0A1.6,1.6,0,0,0,10.64,5l-.2-.11h0a1,1,0,0,0-.22-.07,1.12,1.12,0,0,0-.24,0,1,1,0,0,0-.24,0,1,1,0,0,0-.22.07h0L9.31,5a1.6,1.6,0,0,0-.18.15h0A1.18,1.18,0,0,0,9,5.34a2,2,0,0,0-.11.2h0a1,1,0,0,0-.07.22h0a1.12,1.12,0,0,0,0,.24,1,1,0,0,0,0,.24A1.66,1.66,0,0,0,8.87,6.53Z"/>
  <path class="cls-1"
        d="M11.41,13.22H11V8.74a.47.47,0,0,0-.48-.48H8.59a.47.47,0,0,0-.48.48v1a.47.47,0,0,0,.48.48H9v3H8.59a.47.47,0,0,0-.48.48v1a.47.47,0,0,0,.48.48h2.82a.47.47,0,0,0,.48-.48v-1A.49.49,0,0,0,11.41,13.22Z"/>
  <path class="cls-1"
        d="M10,0A10,10,0,1,0,20,10,10,10,0,0,0,10,0Zm0,18.68A8.68,8.68,0,1,1,18.68,10,8.69,8.69,0,0,1,10,18.68Z"/>
</svg>
