<svg data-name="Layer 1" id="Layer_1" viewBox="0 0 18 18" xmlns="http://www.w3.org/2000/svg">
  <defs>
    <style>.cls-1 {
      fill: #18233c;
    }</style>
  </defs>
  <title>info</title>
  <path class="cls-1"
        d="M8,5.91H8a1.79,1.79,0,0,0,.1.18l.12.15h0l.16.15a.55.55,0,0,0,.2.1h0a.81.81,0,0,0,.21.07,1,1,0,0,0,.21,0,.94.94,0,0,0,.21,0,.59.59,0,0,0,.18-.07h0a1.23,1.23,0,0,0,.2-.12,1.06,1.06,0,0,0,.15-.13l0,0a.9.9,0,0,0,.12-.15A.51.51,0,0,0,10,5.91s0,0,0,0A1.06,1.06,0,0,0,10,5.67a.94.94,0,0,0,0-.21.94.94,0,0,0,0-.21A1.53,1.53,0,0,0,10,5h0a.93.93,0,0,0-.2-.3l0,0-.16-.13-.18-.1h0a.93.93,0,0,0-.2-.07,1,1,0,0,0-.21,0,.94.94,0,0,0-.21,0,.93.93,0,0,0-.2.07h0l-.18.1-.16.13h0a1.06,1.06,0,0,0-.13.15A1.79,1.79,0,0,0,8,5H8a.93.93,0,0,0-.07.2h0a1,1,0,0,0,0,.21.94.94,0,0,0,0,.21A1.49,1.49,0,0,0,8,5.91Z"/>
  <path class="cls-1"
        d="M10.27,11.94H9.89v-4a.42.42,0,0,0-.43-.43H7.73a.42.42,0,0,0-.43.43v.89a.42.42,0,0,0,.43.43h.35V12H7.73a.42.42,0,0,0-.43.43v.89a.42.42,0,0,0,.43.43h2.53a.42.42,0,0,0,.43-.43v-.89A.44.44,0,0,0,10.27,11.94Z"/>
  <path class="cls-1" d="M9,0a9,9,0,1,0,9,9A9,9,0,0,0,9,0ZM9,16.85A7.82,7.82,0,1,1,16.82,9,7.82,7.82,0,0,1,9,16.85Z"/>
</svg>
