<?xml version="1.0" encoding="utf-8"?>
<!-- Generator: Adobe Illustrator 20.1.0, SVG Export Plug-In . SVG Version: 6.00 Build 0)  -->
<svg id="Layer_1" style="enable-background:new 0 0 20 20;" version="1.1" viewBox="0 0 20 20" x="0px"
     xml:space="preserve" xmlns="http://www.w3.org/2000/svg" y="0px">
<style type="text/css">
	.st0 {
    fill: #BFC5D0;
  }
</style>
  <path class="st0" d="M12,0C7.6,0,4,3.6,4,8c0,1.9,0.7,3.7,1.8,5.1C3.9,15.1,1.9,17,0,18.9L1.1,20c1.9-1.9,3.9-3.9,5.8-5.8
	C8.3,15.3,10,16,12,16c4.4,0,8-3.6,8-8C20,3.6,16.4,0,12,0z M12,14.5c-3.6,0-6.5-2.9-6.5-6.5S8.4,1.5,12,1.5c3.6,0,6.5,2.9,6.5,6.5
	S15.6,14.5,12,14.5z"/>
</svg>
