<?xml version="1.0" encoding="utf-8"?>
<!-- Generator: Adobe Illustrator 20.1.0, SVG Export Plug-In . SVG Version: 6.00 Build 0)  -->
<svg id="Layer_1" style="enable-background:new 0 0 20 20;" version="1.1" viewBox="0 0 20 20" x="0px"
     xml:space="preserve" xmlns="http://www.w3.org/2000/svg" y="0px">
<style type="text/css">
	.st0 {
    fill: #BFC5D0;
  }
</style>
  <path class="st0" d="M15.9,4c-0.3-2.2-2.2-4-4.4-4S7.3,1.8,7.1,4H0v16h20V4H15.9z M11.5,1.5c1.7,0,3,1.3,3,3c0,0.9-1.4,2.9-3,4.6
	c-1.6-1.7-3-3.7-3-4.6C8.5,2.8,9.8,1.5,11.5,1.5z M11.5,11.3c0,0,3.4-3.3,4.3-5.8h2.7v1.8l-7.1,7.1L2.5,5.5h4.7
	C8.1,8,11.5,11.3,11.5,11.3z M18.5,9.4v3.8l-1.9-1.9L18.5,9.4z M7.2,12.3L5.4,14l-3.9-3.9l0,0V6.6L7.2,12.3z M4.4,15.1L1.5,18v-5.7
	L4.4,15.1z M8.2,13.3l5.2,5.2H3.1L8.2,13.3z M15.5,18.5l-3.1-3.1l3.1-3.1l3,3v3.2H15.5z"/>
</svg>
