<svg data-name="Capa 1" id="Capa_1" viewBox="0 0 13 13" xmlns="http://www.w3.org/2000/svg">
  <defs>
    <style>.cls-1 {
      fill: #1ab296;
    }</style>
  </defs>
  <title>new_info</title>
  <path class="cls-1"
        d="M12.16,3.25A6.63,6.63,0,0,0,9.75.84a6.71,6.71,0,0,0-6.5,0A7.5,7.5,0,0,0,.84,3.25a6.71,6.71,0,0,0,0,6.5,6.63,6.63,0,0,0,2.41,2.41,6.71,6.71,0,0,0,6.5,0,6.63,6.63,0,0,0,2.41-2.41,6.71,6.71,0,0,0,0-6.5ZM5.39,1.67a.25.25,0,0,1,.27-.28H7.24a.25.25,0,0,1,.28.28h0V3.06a.24.24,0,0,1-.28.28H5.66c-.09-.09-.27-.18-.27-.37h0Zm3.25,8.92a.25.25,0,0,1-.28.27H4.64a.25.25,0,0,1-.28-.27h0V9.19a.25.25,0,0,1,.28-.28h.84V6.22H4.64a.25.25,0,0,1-.28-.28h0V4.64a.25.25,0,0,1,.28-.28h2.7a.25.25,0,0,1,.27.28h0V9h.75a.25.25,0,0,1,.28.28h0Z"/>
</svg>
