<svg data-name="Слой 1" id="Слой_1" viewBox="0 0 50 50" xmlns="http://www.w3.org/2000/svg">
  <defs>
    <style>.cls-1 {
      fill: #bfc6d1;
    }</style>
  </defs>
  <title>no_contacts</title>
  <path class="cls-1"
        d="M37.82,28.48a12.87,12.87,0,0,0-4.38-2.89,7.63,7.63,0,1,0-9.59,0,13,13,0,0,0-8.18,12.06V38h2.61v-.32a10.36,10.36,0,1,1,20.73,0V38h2.61v-.32A12.89,12.89,0,0,0,37.82,28.48ZM28.64,14.64a5,5,0,1,1-5,5A5,5,0,0,1,28.64,14.64Z"/>
  <path class="cls-1"
        d="M7,50A1.26,1.26,0,0,1,5.7,48.83V43H1.33a1.18,1.18,0,1,1,0-2.33H5.7V31.77H1.33a1.18,1.18,0,1,1,0-2.33H5.7V20.56H1.33a1.18,1.18,0,1,1,0-2.33H5.7V9.36H1.33A1.26,1.26,0,0,1,0,8.19,1.26,1.26,0,0,1,1.33,7H5.7V1.17A1.26,1.26,0,0,1,7,0H48.67A1.26,1.26,0,0,1,50,1.17V48.83A1.26,1.26,0,0,1,48.67,50Zm1.33-2.33h39V2.33h-39V7h2a1.26,1.26,0,0,1,1.33,1.17,1.26,1.26,0,0,1-1.33,1.17h-2v8.87h2a1.18,1.18,0,1,1,0,2.33h-2v8.87h2a1.18,1.18,0,1,1,0,2.33h-2v8.87h2a1.18,1.18,0,1,1,0,2.33h-2Z"/>
</svg>
