<svg data-name="Слой 1" id="Слой_1" viewBox="0 0 50 50" xmlns="http://www.w3.org/2000/svg">
  <defs>
    <style>.cls-1 {
      fill: #c5c5c5;
    }</style>
  </defs>
  <title>client_portfolio_big</title>
  <polygon class="cls-1"
           points="6.92 0.13 6.92 41.29 9.9 34.76 9.9 3.1 31.8 3.1 31.8 31.82 34.78 31.82 34.78 0.13 6.92 0.13"/>
  <rect class="cls-1" height="2.43" width="2.44" x="15.76" y="8.24"/>
  <rect class="cls-1" height="2.43" width="2.44" x="15.76" y="14.72"/>
  <rect class="cls-1" height="2.43" width="2.44" x="15.76" y="21.21"/>
  <rect class="cls-1" height="2.43" width="2.44" x="23.09" y="8.24"/>
  <rect class="cls-1" height="2.43" width="2.44" x="23.09" y="14.72"/>
  <rect class="cls-1" height="2.43" width="2.44" x="23.09" y="21.21"/>
  <path class="cls-1"
        d="M49.37,31.68,40.6,48.19A3.47,3.47,0,0,1,38,49.88H2.86a2.81,2.81,0,0,1-2-.81,2.78,2.78,0,0,1-.82-2V19.93a2.79,2.79,0,0,1,2.8-2.78H5.43v2.38H3.71a1.28,1.28,0,0,0-.9.37,1.26,1.26,0,0,0-.37.89V46.25a1.27,1.27,0,0,0,1.27,1.27H5.47l8.31-16.73a2.81,2.81,0,0,1,2.3-1.69H36.43V22.36a2.6,2.6,0,0,1,2.38,2.57V29.1h9.33c1.1,0,2,1.1,1.22,2.58ZM10.82,28.87"/>
</svg>
