<svg data-name="Layer 1" id="Layer_1" viewBox="0 0 50 50" xmlns="http://www.w3.org/2000/svg">
  <defs>
    <style>.cls-1 {
      fill: #bfc5d0;
    }</style>
  </defs>
  <title>icon</title>
  <path class="cls-1"
        d="M50,9.54a9.54,9.54,0,1,0-9.54,9.54A9.55,9.55,0,0,0,50,9.54Zm-9.54,7.22a7.22,7.22,0,1,1,7.22-7.22A7.23,7.23,0,0,1,40.46,16.75Z"/>
  <path class="cls-1"
        d="M34.54,27.58A9.54,9.54,0,1,0,25,37.11,9.55,9.55,0,0,0,34.54,27.58ZM25,34.79a7.22,7.22,0,1,1,7.22-7.22A7.23,7.23,0,0,1,25,34.79Z"/>
  <path class="cls-1"
        d="M37.86,23.14A17.3,17.3,0,0,1,50,25.78v-2.7a19.82,19.82,0,0,0-9.54-2.46,19.47,19.47,0,0,0-3.54.33A13.8,13.8,0,0,1,37.86,23.14Z"/>
  <path class="cls-1"
        d="M19.07,9.54a9.54,9.54,0,1,0-9.54,9.54A9.55,9.55,0,0,0,19.07,9.54ZM9.54,16.75a7.22,7.22,0,1,1,7.22-7.22A7.23,7.23,0,0,1,9.54,16.75Z"/>
  <path class="cls-1"
        d="M0,25.78a17,17,0,0,1,12.14-2.64A13.8,13.8,0,0,1,13.07,21a19.47,19.47,0,0,0-3.54-.33A19.82,19.82,0,0,0,0,23.08Z"/>
  <path class="cls-1" d="M7.08,50H9.69a17.5,17.5,0,0,1,30.62,0h2.61A19.83,19.83,0,0,0,7.08,50Z"/>
</svg>
