<svg data-name="Layer 1" id="Layer_1" viewBox="0 0 28 28" xmlns="http://www.w3.org/2000/svg"
     xmlns:xlink="http://www.w3.org/1999/xlink">
  <defs>
    <style>.cls-1 {
      fill: url(#linear-gradient);
    }

    .cls-2 {
      fill: url(#linear-gradient-2);
    }

    .cls-3 {
      fill: url(#linear-gradient-3);
    }</style>
    <linearGradient gradientUnits="userSpaceOnUse" id="linear-gradient" x1="16.91" x2="11.34" y1="15.61" y2="5.97">
      <stop offset="0" stop-color="#eac85e"/>
      <stop offset="1" stop-color="#d58843"/>
    </linearGradient>
    <linearGradient id="linear-gradient-2" x1="15" x2="13.01" xlink:href="#linear-gradient" y1="22.29" y2="18.84"/>
    <linearGradient id="linear-gradient-3" x1="21" x2="7" xlink:href="#linear-gradient" y1="26.12" y2="1.88"/>
  </defs>
  <title>notifications</title>
  <path class="cls-1" d="M15.3,16.54l.5-11.08H12.2l.5,11.08Zm0,0"/>
  <path class="cls-2" d="M14,18.6a2,2,0,0,0,0,3.93h0a1.86,1.86,0,0,0,1.92-2,1.86,1.86,0,0,0-1.92-2Zm0,0"/>
  <path class="cls-3"
        d="M14,0A14,14,0,1,0,28,14,14,14,0,0,0,14,0Zm0,26.16A12.16,12.16,0,1,1,26.16,14,12.18,12.18,0,0,1,14,26.16Zm0,0"/>
</svg>
