<svg data-name="Layer 1" id="Layer_1" viewBox="0 0 28 28" xmlns="http://www.w3.org/2000/svg"
     xmlns:xlink="http://www.w3.org/1999/xlink">
  <defs>
    <style>.cls-1 {
      fill: url(#linear-gradient);
    }

    .cls-2 {
      fill: url(#linear-gradient-2);
    }</style>
    <linearGradient gradientUnits="userSpaceOnUse" id="linear-gradient" x1="21" x2="7" y1="26.12" y2="1.88">
      <stop offset="0" stop-color="#e4877a"/>
      <stop offset="1" stop-color="#dd3839"/>
    </linearGradient>
    <linearGradient id="linear-gradient-2" x1="17.71" x2="10.29" xlink:href="#linear-gradient" y1="20.43" y2="7.57"/>
  </defs>
  <title>notifications</title>
  <path class="cls-1"
        d="M14,0A14,14,0,1,0,28,14,14,14,0,0,0,14,0Zm0,26.16A12.16,12.16,0,1,1,26.16,14,12.18,12.18,0,0,1,14,26.16Zm0,0"/>
  <polygon class="cls-2"
           points="19.99 9.53 18.47 8.01 14 12.48 9.53 8.01 8.01 9.53 12.48 14 8.01 18.47 9.53 19.99 14 15.52 18.47 19.99 19.99 18.47 15.52 14 19.99 9.53"/>
</svg>
