<svg data-name="Capa 1" id="Capa_1" viewBox="0 0 20 20" xmlns="http://www.w3.org/2000/svg">
  <defs>
    <style>.cls-1 {
      fill: #aeb4c0;
    }</style>
  </defs>
  <title>tab</title>
  <path class="cls-1"
        d="M19.48,8.65a1.74,1.74,0,0,0-2.48,0l-.59.59V5.8a1.75,1.75,0,0,0-.52-1.25L14.24,2.9l-.18-.15V.59A.58.58,0,0,0,13.48,0H.59A.58.58,0,0,0,0,.59V17a.59.59,0,0,0,.59.59H2.35v1.79a.58.58,0,0,0,.58.59H15.82a.58.58,0,0,0,.59-.59V14.23l3.07-3.1A1.74,1.74,0,0,0,19.48,8.65Zm-6.59-5.1H13a.6.6,0,0,1,.42.18l1.65,1.65a.56.56,0,0,1,.18.42v.1H12.89ZM2.35,3V16.45H1.17V1.17H12.89V2.38h-10A.59.59,0,0,0,2.35,3ZM15.24,18.83H3.52V3.55h8.2V6.48a.58.58,0,0,0,.59.59h2.93v3.35l-4,4a.61.61,0,0,0-.16.28l-.52,2.17a.59.59,0,0,0,.71.7l2.17-.51a.5.5,0,0,0,.28-.16l1.52-1.52v3.42Zm-2-3.07L13,16l-1.09.25.26-1.08.23-.23a1.85,1.85,0,0,1,.48.35A1.65,1.65,0,0,1,13.24,15.76Zm.85-.86a3.16,3.16,0,0,0-.37-.45,2.82,2.82,0,0,0-.46-.38l3.33-3.35.83.83Zm4.56-4.59-.41.41-.83-.83.42-.41a.59.59,0,0,1,.83,0A.59.59,0,0,1,18.65,10.31Z"/>
  <path class="cls-1" d="M10,4.73H5.28a.59.59,0,1,0,0,1.17H10a.59.59,0,1,0,0-1.17Z"/>
  <path class="cls-1" d="M10,7.07H5.28a.59.59,0,1,0,0,1.17H10a.59.59,0,1,0,0-1.17Z"/>
  <path class="cls-1" d="M13.48,9.41H5.28a.59.59,0,0,0,0,1.18h8.2a.59.59,0,0,0,0-1.18Z"/>
  <path class="cls-1"
        d="M10.38,13.1a.59.59,0,0,0-.83,0l-3.1,3.1-.76-.75a.59.59,0,0,0-.83,0,.57.57,0,0,0,0,.82L6,17.45a.6.6,0,0,0,.83,0l3.52-3.52A.59.59,0,0,0,10.38,13.1Z"/>
</svg>
