<svg data-name="Layer 1" id="Layer_1" viewBox="0 0 20 20" xmlns="http://www.w3.org/2000/svg"
     xmlns:xlink="http://www.w3.org/1999/xlink">
  <defs>
    <style>.cls-1 {
      fill: url(#linear-gradient);
    }

    .cls-2 {
      fill: url(#linear-gradient-2);
    }

    .cls-3 {
      fill: url(#linear-gradient-3);
    }

    .cls-4 {
      fill: url(#linear-gradient-4);
    }</style>
    <linearGradient gradientUnits="userSpaceOnUse" id="linear-gradient" x1="4.47" x2="15.67" y1="10" y2="10">
      <stop offset="0" stop-color="#307ea7"/>
      <stop offset="1" stop-color="#283b85"/>
    </linearGradient>
    <linearGradient id="linear-gradient-2" x1="4.47" x2="9.42" xlink:href="#linear-gradient" y1="6.88" y2="6.88"/>
    <linearGradient id="linear-gradient-3" x1="0.04" x2="20.04" xlink:href="#linear-gradient" y1="10" y2="10"/>
    <linearGradient id="linear-gradient-4" x1="10.72" x2="15.67" xlink:href="#linear-gradient" y1="13.13" y2="13.13"/>
  </defs>
  <title>Untitled-1</title>
  <path class="cls-1"
        d="M5.1,15.6a.62.62,0,0,1-.44-1.07L14.6,4.58a.62.62,0,1,1,.88.88L5.54,15.41A.63.63,0,0,1,5.1,15.6Z"/>
  <path class="cls-2"
        d="M6.94,9.35A2.48,2.48,0,1,1,9.42,6.88,2.48,2.48,0,0,1,6.94,9.35Zm0-3.7A1.23,1.23,0,1,0,8.17,6.88,1.23,1.23,0,0,0,6.94,5.65Z"/>
  <path class="cls-3"
        d="M10,20A10,10,0,1,1,20,10,10,10,0,0,1,10,20ZM10,1.25A8.75,8.75,0,1,0,18.79,10,8.76,8.76,0,0,0,10,1.25Z"/>
  <path class="cls-4"
        d="M13.19,15.6a2.47,2.47,0,1,1,2.47-2.48A2.48,2.48,0,0,1,13.19,15.6Zm0-3.7a1.22,1.22,0,1,0,1.22,1.22A1.23,1.23,0,0,0,13.19,11.9Z"/>
</svg>
