<svg data-name="Layer 1" id="Layer_1" viewBox="0 0 20 20" xmlns="http://www.w3.org/2000/svg">
  <defs>
    <style>.cls-1 {
      fill: #aeb4c0;
    }</style>
  </defs>
  <title>Untitled-1</title>
  <path class="cls-1"
        d="M5.06,15.6a.62.62,0,0,1-.44-1.07l9.95-9.95a.62.62,0,0,1,.88.88L5.5,15.41A.63.63,0,0,1,5.06,15.6Z"/>
  <path class="cls-1"
        d="M6.91,9.35A2.48,2.48,0,1,1,9.38,6.88,2.48,2.48,0,0,1,6.91,9.35Zm0-3.7A1.23,1.23,0,1,0,8.13,6.88,1.23,1.23,0,0,0,6.91,5.65Z"/>
  <path class="cls-1"
        d="M10,20A10,10,0,1,1,20,10,10,10,0,0,1,10,20ZM10,1.25A8.75,8.75,0,1,0,18.75,10,8.76,8.76,0,0,0,10,1.25Z"/>
  <path class="cls-1"
        d="M13.16,15.6a2.47,2.47,0,1,1,2.47-2.48A2.48,2.48,0,0,1,13.16,15.6Zm0-3.7a1.22,1.22,0,1,0,1.22,1.22A1.23,1.23,0,0,0,13.16,11.9Z"/>
</svg>
