<svg data-name="Capa 1" id="Capa_1" viewBox="0 0 20 20" xmlns="http://www.w3.org/2000/svg"
     xmlns:xlink="http://www.w3.org/1999/xlink">
  <defs>
    <style>.cls-1 {
      fill: url(#linear-gradient);
    }

    .cls-2 {
      fill: url(#linear-gradient-2);
    }

    .cls-3 {
      fill: url(#linear-gradient-3);
    }

    .cls-4 {
      fill: url(#linear-gradient-4);
    }</style>
    <linearGradient gradientUnits="userSpaceOnUse" id="linear-gradient" x2="20" y1="10" y2="10">
      <stop offset="0" stop-color="#307ea6"/>
      <stop offset="1" stop-color="#2a3a86"/>
    </linearGradient>
    <linearGradient id="linear-gradient-2" x1="2.61" x2="6.85" xlink:href="#linear-gradient" y1="15.33" y2="15.33"/>
    <linearGradient id="linear-gradient-3" x1="7.88" x2="12.12" xlink:href="#linear-gradient" y1="15.33" y2="15.33"/>
    <linearGradient id="linear-gradient-4" x1="13.15" x2="17.39" xlink:href="#linear-gradient" y1="15.33" y2="15.33"/>
  </defs>
  <title>1</title>
  <path class="cls-1"
        d="M17,10.66V6.26C17,2.81,13.87,0,10,0S3,2.81,3,6.26v4.4H0V20H20V10.66ZM4.29,6.26c0-2.8,2.56-5.09,5.71-5.09s5.71,2.29,5.71,5.09v1.9H13.58V6.53A3.42,3.42,0,0,0,10,3.33a3.42,3.42,0,0,0-3.58,3.2v4.13H4.29ZM15.71,9.34v1.32H13.58V9.34ZM12.27,6.53v4.13H7.73V6.53a2.16,2.16,0,0,1,2.27-2A2.16,2.16,0,0,1,12.27,6.53Zm6.42,12.3H1.31v-7H18.69Z"/>
  <polygon class="cls-2"
           points="3.23 16.67 4.13 16.18 4.11 17.06 5.34 17.06 5.31 16.18 6.21 16.67 6.85 15.75 5.96 15.33 6.85 14.91 6.21 13.99 5.31 14.49 5.34 13.61 4.11 13.61 4.13 14.49 3.23 13.99 2.6 14.91 3.49 15.33 2.6 15.75 3.23 16.67"/>
  <polygon class="cls-3"
           points="8.5 16.67 9.41 16.18 9.38 17.06 10.61 17.06 10.58 16.18 11.49 16.67 12.12 15.75 11.24 15.33 12.12 14.91 11.49 13.99 10.58 14.49 10.61 13.61 9.38 13.61 9.41 14.49 8.5 13.99 7.88 14.91 8.76 15.33 7.88 15.75 8.5 16.67"/>
  <polygon class="cls-4"
           points="13.78 16.67 14.68 16.18 14.65 17.06 15.88 17.06 15.86 16.18 16.76 16.67 17.39 15.75 16.51 15.33 17.39 14.91 16.76 13.99 15.86 14.49 15.88 13.61 14.65 13.61 14.68 14.49 13.78 13.99 13.15 14.91 14.04 15.33 13.15 15.75 13.78 16.67"/>
</svg>
