<svg data-name="Capa 1" id="Capa_1" viewBox="0 0 20 20" xmlns="http://www.w3.org/2000/svg">
  <defs>
    <style>.cls-1 {
      fill: #bfc5d1;
    }</style>
  </defs>
  <title>1</title>
  <path class="cls-1"
        d="M19.49,3a1.77,1.77,0,0,0,0-2.49A1.77,1.77,0,0,0,17,.51a1.81,1.81,0,0,0-.43.71,5.76,5.76,0,0,0-6.47.57L4.28,6.68a3.35,3.35,0,0,0-.35-.15,2.9,2.9,0,0,0-3.41.53,1.74,1.74,0,0,0,0,2.48l2.94,2.94a2.93,2.93,0,0,0,4.06,4.06l2.94,2.95a1.76,1.76,0,0,0,2.48,0,2.93,2.93,0,0,0,.54-3.42c0-.05-.12-.29-.16-.35L18.21,9.9a5.76,5.76,0,0,0,.57-6.47A1.81,1.81,0,0,0,19.49,3ZM4.66,15.34a1.77,1.77,0,0,1-.35-2l2.35,2.35A1.77,1.77,0,0,1,4.66,15.34Zm7.46,3.32a.59.59,0,0,1-.83,0L1.34,8.71a.57.57,0,0,1,0-.82,1.76,1.76,0,0,1,1.25-.52,1.64,1.64,0,0,1,.8.2c.07,0,.44.32.44.32h0l8.28,8.28h0s.29.37.33.44A1.76,1.76,0,0,1,12.12,18.66Zm5.19-9.51-4.82,5.74L5.11,7.51l5.73-4.82a4.59,4.59,0,0,1,6.47,6.46Zm.52-7a.59.59,0,1,1,.83,0A.59.59,0,0,1,17.83,2.17Z"/>
  <path class="cls-1"
        d="M15.34,3.83a.59.59,0,0,0,0,.83,2.23,2.23,0,0,1,.15,3l-1,1.18a.59.59,0,0,0,.08.83.6.6,0,0,0,.83-.09l1-1.18a3.4,3.4,0,0,0-.23-4.58A.59.59,0,0,0,15.34,3.83Z"/>
</svg>
