<svg data-name="Layer 1" id="Layer_1" viewBox="0 0 20 20" xmlns="http://www.w3.org/2000/svg">
  <defs>
    <style>.cls-1 {
      fill: #bfc5d1;
    }</style>
  </defs>
  <title>tab</title>
  <path class="cls-1"
        d="M18.78,12.92a8.92,8.92,0,0,0-4.05-9.58.52.52,0,1,0-.65.81l.11.07A7.93,7.93,0,0,1,18,11a9.08,9.08,0,0,1-.17,1.56h-.34A2.55,2.55,0,1,0,20,15.15v-.07A2.53,2.53,0,0,0,18.78,12.92Z"/>
  <path class="cls-1"
        d="M13.05,18.37A7.78,7.78,0,0,1,10,19a8,8,0,0,1-5.53-2.23A2.55,2.55,0,1,0,.63,13.41a2.54,2.54,0,0,0,1.91,4.22,2.57,2.57,0,0,0,1.12-.27,8.93,8.93,0,0,0,9.76,2c.14-.07.24-.13.27-.27a.4.4,0,0,0,0-.37.5.5,0,0,0-.61-.36Z"/>
  <path class="cls-1"
        d="M1.53,10.92h0A.53.53,0,0,0,2,10.44a7.9,7.9,0,0,1,5.56-7,2.51,2.51,0,1,0-.17-1,9,9,0,0,0-6.41,8,.49.49,0,0,0,.14.38A.42.42,0,0,0,1.53,10.92Z"/>
</svg>
