<svg data-name="Layer 1" id="Layer_1" viewBox="0 0 32 32" xmlns="http://www.w3.org/2000/svg">
  <defs>
    <style>.cls-1 {
      fill: #cbcdcb;
    }</style>
  </defs>
  <title>icons</title>
  <path class="cls-1"
        d="M24.14,13.82v-.61a1.43,1.43,0,0,0-1.42-1.42h-6l.64-1.57a2.52,2.52,0,0,0-.43-2.81,1.43,1.43,0,0,0-2.25.2h0l-2.82,4.67a.94.94,0,0,0-.65-.26h-2a.95.95,0,0,0-.95.95v8.42a1,1,0,0,0,.95.95h2a1,1,0,0,0,.93-.75l2.08.71a9.65,9.65,0,0,0,3.12.52h4a1.43,1.43,0,0,0,1.42-1.42v-.61a1.42,1.42,0,0,0-.16-.65,1.43,1.43,0,0,0,.77-1.26v-.61a1.42,1.42,0,0,0-.19-.7,1.42,1.42,0,0,0,.67-1.21v-.61a1.42,1.42,0,0,0-.23-.78A1.42,1.42,0,0,0,24.14,13.82Zm-.94,0a.49.49,0,0,1-.49.49H19.13a.47.47,0,0,0,0,.94h3.26a.49.49,0,0,1,.49.49v.61a.49.49,0,0,1-.49.49H19.13a.47.47,0,0,0,0,.94H21.9a.49.49,0,0,1,.49.49v.61a.49.49,0,0,1-.49.49H19.13a.47.47,0,0,0,0,.94h2.16a.49.49,0,0,1,.49.49v.61a.49.49,0,0,1-.49.49h-4a8.72,8.72,0,0,1-2.82-.47l-2.36-.8v-4a.47.47,0,0,0-.94,0v4.77h-2V13h2V14.7a.47.47,0,0,0,.94,0V13.5a1.1,1.1,0,0,0,.22-.25h0l3.1-5.13A.49.49,0,0,1,16.23,8a1.59,1.59,0,0,1,.26,1.78v0l-.91,2.23a.47.47,0,0,0,.43.65h6.72a.49.49,0,0,1,.49.49Z"/>
  <path class="cls-1"
        d="M16,32a3,3,0,0,1-2.52-1.31A2.14,2.14,0,0,0,10.83,30a3.07,3.07,0,0,1-4.36-2.52,2.14,2.14,0,0,0-1.94-1.94A3.07,3.07,0,0,1,2,21.17a2.14,2.14,0,0,0-.71-2.65,3.07,3.07,0,0,1,0-5A2.14,2.14,0,0,0,2,10.83,3.07,3.07,0,0,1,4.53,6.47,2.14,2.14,0,0,0,6.47,4.53,3.07,3.07,0,0,1,10.83,2a2.14,2.14,0,0,0,2.65-.71,3.08,3.08,0,0,1,5,0h0A2.14,2.14,0,0,0,21.17,2a3.07,3.07,0,0,1,4.36,2.52,2.13,2.13,0,0,0,1.94,1.94A3.07,3.07,0,0,1,30,10.83a2.13,2.13,0,0,0,.71,2.65,3.07,3.07,0,0,1,0,5A2.13,2.13,0,0,0,30,21.17a3.07,3.07,0,0,1-2.52,4.36,2.14,2.14,0,0,0-1.94,1.94A3.07,3.07,0,0,1,21.17,30a2.14,2.14,0,0,0-2.65.71A3,3,0,0,1,16,32Zm-4.27-3.16a3.07,3.07,0,0,1,2.52,1.31,2.14,2.14,0,0,0,3.5,0,3.07,3.07,0,0,1,3.81-1,2.14,2.14,0,0,0,3-1.75,3.07,3.07,0,0,1,2.79-2.79,2.14,2.14,0,0,0,1.75-3,3.07,3.07,0,0,1,1-3.81,2.14,2.14,0,0,0,0-3.5,3.07,3.07,0,0,1-1-3.81,2.14,2.14,0,0,0-1.75-3,3.07,3.07,0,0,1-2.79-2.79,2.14,2.14,0,0,0-3-1.75,3.07,3.07,0,0,1-3.81-1h0a2.14,2.14,0,0,0-3.5,0,3.07,3.07,0,0,1-3.81,1,2.14,2.14,0,0,0-3,1.75A3.07,3.07,0,0,1,4.62,7.41a2.14,2.14,0,0,0-1.75,3,3.07,3.07,0,0,1-1,3.81,2.14,2.14,0,0,0,0,3.5,3.07,3.07,0,0,1,1,3.81,2.14,2.14,0,0,0,1.75,3,3.07,3.07,0,0,1,2.79,2.79,2.14,2.14,0,0,0,3,1.75A3.07,3.07,0,0,1,11.73,28.84Z"/>
  <path class="cls-1"
        d="M16,28.39A12.39,12.39,0,0,1,3.65,17a.47.47,0,0,1,.93-.07,11.45,11.45,0,0,0,22.84,0,.47.47,0,0,1,.93.07A12.39,12.39,0,0,1,16,28.39Z"/>
  <path class="cls-1"
        d="M4.11,15.52h0a.47.47,0,0,1-.43-.5,12.39,12.39,0,0,1,24.7,0,.47.47,0,0,1-.93.07,11.45,11.45,0,0,0-22.84,0A.47.47,0,0,1,4.11,15.52Z"/>
</svg>
