<svg data-name="Layer 1" id="Layer_1" viewBox="0 0 20 20" xmlns="http://www.w3.org/2000/svg">
  <defs>
    <style>.cls-1 {
      fill: #fff;
    }</style>
  </defs>
  <title>Building</title>
  <path class="cls-1"
        d="M20,17.14a.78.78,0,1,0-1.53.32.82.82,0,0,1-.79,1H14.1a.78.78,0,1,0,0,1.56h3.53A2.36,2.36,0,0,0,20,17.14Z"/>
  <path class="cls-1"
        d="M10.79,10.66a8.58,8.58,0,0,1,6.36,3.78.78.78,0,0,0,1.3-.87,10.13,10.13,0,0,0-5.27-4,5.31,5.31,0,1,0-6.36,0A10.18,10.18,0,0,0,.05,17.14,2.36,2.36,0,0,0,2.37,20H5.78a.78.78,0,0,0,0-1.56H2.37a.82.82,0,0,1-.79-1,8.65,8.65,0,0,1,7.55-6.8L7.64,17.45a.77.77,0,0,0,.21.72l1.56,1.56a.77.77,0,0,0,1.1,0l1.57-1.56a.83.83,0,0,0,.21-.72ZM6.25,5.31a3.75,3.75,0,1,1,3.94,3.75H9.82A3.76,3.76,0,0,1,6.25,5.31ZM10,18.07l-.71-.7L10,14.15l.71,3.22Z"/>
</svg>
