<svg data-name="Layer 1" id="Layer_1" viewBox="0 0 20 20" xmlns="http://www.w3.org/2000/svg">
  <defs>
    <style>.cls-1 {
      fill: #fff;
    }</style>
  </defs>
  <title>UP</title>
  <path class="cls-1" d="M0,0V20H20V0ZM18.5,18.5H1.5V1.5h17Z"/>
  <path class="cls-1" d="M10,10a5.46,5.46,0,0,1,3.15,1h2.21A7,7,0,0,0,4.64,11H6.85A5.46,5.46,0,0,1,10,10Z"/>
  <path class="cls-1" d="M13,5.5a3,3,0,1,0-3,3A3,3,0,0,0,13,5.5ZM10,7a1.5,1.5,0,1,1,1.5-1.5A1.5,1.5,0,0,1,10,7Z"/>
  <polygon class="cls-1"
           points="10.52 11.72 9.48 11.72 9.48 13.95 7.25 13.95 7.25 14.98 9.48 14.98 9.48 17.22 10.52 17.22 10.52 14.98 12.75 14.98 12.75 13.95 10.52 13.95 10.52 11.72"/>
</svg>
