<svg data-name="Layer 1" id="Layer_1" viewBox="0 0 20 20" xmlns="http://www.w3.org/2000/svg">
  <defs>
    <style>.cls-1 {
      fill: url(#linear-gradient);
    }</style>
    <linearGradient gradientUnits="userSpaceOnUse" id="linear-gradient" x2="20" y1="10" y2="10">
      <stop offset="0" stop-color="#307ea7"/>
      <stop offset="1" stop-color="#283b85"/>
    </linearGradient>
  </defs>
  <title>UP</title>
  <path class="cls-1"
        d="M17.66,14.15V13.5a1.76,1.76,0,0,0-1.76-1.76h0v-.25a5.88,5.88,0,0,0-3.53-5.38,3.5,3.5,0,1,0-4.67,0,5.88,5.88,0,0,0-3.53,5.38v.25h0A1.76,1.76,0,0,0,2.34,13.5v.64A3,3,0,0,0,2.93,20a3,3,0,0,0,.59-5.84V13.5a.59.59,0,0,1,.59-.59H9.41v1.23a2.93,2.93,0,1,0,1.17,0V12.92H15.9a.59.59,0,0,1,.59.59v.64a2.93,2.93,0,1,0,1.17,0ZM4.69,17a1.8,1.8,0,0,1-1.76,1.8A1.8,1.8,0,0,1,1.17,17a1.76,1.76,0,0,1,3.52,0ZM10,1.39A2.12,2.12,0,1,1,7.88,3.51,2.12,2.12,0,0,1,10,1.39ZM11.76,17a1.76,1.76,0,1,1-3.52,0,1.76,1.76,0,0,1,3.52,0ZM5.51,11.74v-.25a4.49,4.49,0,0,1,9,0v.25Zm11.56,7.07A1.8,1.8,0,0,1,15.31,17a1.76,1.76,0,1,1,3.52,0A1.8,1.8,0,0,1,17.07,18.81Z"/>
</svg>
