<svg data-name="Layer 1" id="Layer_1" viewBox="0 0 20 20" xmlns="http://www.w3.org/2000/svg"
     xmlns:xlink="http://www.w3.org/1999/xlink">
  <defs>
    <style>.cls-1 {
      fill: url(#linear-gradient);
    }

    .cls-2 {
      fill: url(#linear-gradient-2);
    }

    .cls-3 {
      fill: url(#linear-gradient-3);
    }

    .cls-4 {
      fill: url(#linear-gradient-4);
    }

    .cls-5 {
      fill: url(#linear-gradient-5);
    }

    .cls-6 {
      fill: url(#linear-gradient-6);
    }</style>
    <linearGradient gradientUnits="userSpaceOnUse" id="linear-gradient" x1="12" x2="20" y1="4" y2="4">
      <stop offset="0" stop-color="#307ea7"/>
      <stop offset="1" stop-color="#283b85"/>
    </linearGradient>
    <linearGradient id="linear-gradient-2" x1="6" x2="14" xlink:href="#linear-gradient" y1="11" y2="11"/>
    <linearGradient id="linear-gradient-3" x1="14.15" xlink:href="#linear-gradient" y1="9.44" y2="9.44"/>
    <linearGradient id="linear-gradient-4" x1="0" x2="8" xlink:href="#linear-gradient"/>
    <linearGradient id="linear-gradient-5" x1="0" x2="5.85" xlink:href="#linear-gradient" y1="9.44" y2="9.44"/>
    <linearGradient id="linear-gradient-6" x1="2.59" x2="17.41" xlink:href="#linear-gradient" y1="17.5" y2="17.5"/>
  </defs>
  <title>UP</title>
  <path class="cls-1" d="M16,1.5A2.5,2.5,0,1,1,13.5,4,2.5,2.5,0,0,1,16,1.5M16,0a4,4,0,1,0,4,4,4,4,0,0,0-4-4Z"/>
  <path class="cls-2" d="M10,8.5A2.5,2.5,0,1,1,7.5,11,2.5,2.5,0,0,1,10,8.5M10,7a4,4,0,1,0,4,4,4,4,0,0,0-4-4Z"/>
  <path class="cls-3"
        d="M16,9.5a6.46,6.46,0,0,1,4,1.39V9.08a7.9,7.9,0,0,0-5.85-.86,5,5,0,0,1,.63,1.4A6.5,6.5,0,0,1,16,9.5Z"/>
  <path class="cls-4" d="M4,1.5A2.5,2.5,0,1,1,1.5,4,2.5,2.5,0,0,1,4,1.5M4,0A4,4,0,1,0,8,4,4,4,0,0,0,4,0Z"/>
  <path class="cls-5"
        d="M4,9.5a6.46,6.46,0,0,0-4,1.39V9.08a7.9,7.9,0,0,1,5.85-.86,5,5,0,0,0-.63,1.4A6.5,6.5,0,0,0,4,9.5Z"/>
  <path class="cls-6" d="M4.24,20a6.49,6.49,0,0,1,11.52,0h1.65A8,8,0,0,0,2.59,20Z"/>
</svg>
