<svg data-name="Capa 1" id="Capa_1" viewBox="0 0 15.85 17" xmlns="http://www.w3.org/2000/svg">
  <defs>
    <style>.cls-1 {
      fill: #19233c;
    }</style>
  </defs>
  <title>1</title>
  <path class="cls-1"
        d="M6,12.77H4.13V11a.81.81,0,1,0-1.62,0v1.81H.81a.81.81,0,1,0,0,1.61h1.7v1.81a.81.81,0,1,0,1.62,0V14.38H6a.81.81,0,1,0,0-1.61Z"/>
  <path class="cls-1"
        d="M15.59,4.56,10.88.21A.86.86,0,0,0,10.33,0h-7a.81.81,0,0,0-.81.81v6.8a.81.81,0,0,0,1.62,0v-6H8.79V6.88a.81.81,0,0,0,.81.81h4.63v6.65h-5a.81.81,0,0,0,0,1.61H15a.8.8,0,0,0,.81-.8v-10A.77.77,0,0,0,15.59,4.56ZM10.41,6.07V2L14.23,5.5v.57Z"/>
</svg>
