<svg data-name="Layer 1" id="Layer_1" viewBox="0 0 50 36" xmlns="http://www.w3.org/2000/svg">
  <defs>
    <style>.cls-1 {
      fill: #2aace2;
    }</style>
  </defs>
  <title>upload</title>
  <path class="cls-1"
        d="M43.1,12.87A10.14,10.14,0,0,0,30.71,6.7a14.06,14.06,0,0,0-26,7.09A9.37,9.37,0,0,0,9.38,31.28h9.37V28.15H9.37A6.25,6.25,0,0,1,8,15.82a10.94,10.94,0,0,1,21.27-4.89,7,7,0,0,1,11.36,4.73h0a6.25,6.25,0,1,1,0,12.49H31.25v3.13h9.37A9.37,9.37,0,0,0,43.1,12.87Zm0,0"/>
  <path class="cls-1" d="M25,14.09l-7.81,9.38h4.68V36h6.25V23.47h4.69Zm0,0"/>
</svg>
