<svg data-name="Слой 1" id="Слой_1" viewBox="0 0 20 20" xmlns="http://www.w3.org/2000/svg">
  <defs>
    <style>.cls-1 {
      fill: #3d4060;
    }

    .cls-2 {
      fill: #fff;
    }</style>
  </defs>
  <title>Монтажная область 79 копия 2</title>
  <circle class="cls-1" cx="10" cy="10" r="10"/>
  <path class="cls-2" d="M10,7A1,1,0,1,1,9,8a1,1,0,0,1,1-1m0-2a3,3,0,1,0,3,3,3,3,0,0,0-3-3Z"/>
  <path class="cls-2" d="M10,11a2.5,2.5,0,0,1,2.5,2.5h2a4.5,4.5,0,0,0-9,0h2A2.5,2.5,0,0,1,10,11Z"/>
</svg>
