<?xml version="1.0" encoding="utf-8"?>
<!-- Generator: Adobe Illustrator 20.1.0, SVG Export Plug-In . SVG Version: 6.00 Build 0)  -->
<svg id="Layer_1" style="enable-background:new 0 0 12 12;" version="1.1" viewBox="0 0 12 12" x="0px"
     xml:space="preserve" xmlns="http://www.w3.org/2000/svg" y="0px">
<style type="text/css">
	.st0 {
    fill: #566787;
  }
</style>
  <g>
	<path class="st0" d="M6,2.7c1.4,0,3.1,1.9,4.1,3.3C9.1,7.4,7.4,9.3,6,9.3S2.9,7.4,1.9,6C2.9,4.6,4.6,2.7,6,2.7 M6,1C2.7,1,0,6,0,6
		s2.7,5,6,5s6-5,6-5S9.3,1,6,1z"/>
    <path class="st0" d="M6,4.6C5.2,4.6,4.6,5.2,4.6,6c0,0.8,0.6,1.4,1.3,1.4c0.8,0,1.4-0.6,1.4-1.3c0,0,0,0,0,0C7.3,5.3,6.8,4.6,6,4.6
		C6,4.6,6,4.6,6,4.6z"/>
</g>
</svg>
