<?xml version="1.0" encoding="UTF-8"?>
<!DOCTYPE svg PUBLIC "-//W3C//DTD SVG 1.1//EN" "http://www.w3.org/Graphics/SVG/1.1/DTD/svg11.dtd">
<!-- Creator: CorelDRAW 2021.5 -->
<svg xmlns="http://www.w3.org/2000/svg" xml:space="preserve" width="198px" height="231px" version="1.1" style="shape-rendering:geometricPrecision; text-rendering:geometricPrecision; image-rendering:optimizeQuality; fill-rule:evenodd; clip-rule:evenodd"
viewBox="0 0 125.727 146.704"
 xmlns:xlink="http://www.w3.org/1999/xlink"
 xmlns:xodm="http://www.corel.com/coreldraw/odm/2003">
 <defs>
  <style type="text/css">
   <![CDATA[
    .str0 {stroke:#003F96;stroke-width:2.539;stroke-linecap:round;stroke-linejoin:round;stroke-miterlimit:2.61313}
    .str1 {stroke:#454545;stroke-width:2.539;stroke-linecap:round;stroke-linejoin:round;stroke-miterlimit:2.61313}
    .fil2 {fill:#003C91}
    .fil1 {fill:#004099}
    .fil0 {fill:#014097}
    .fil3 {fill:#454545;fill-rule:nonzero}
   ]]>
  </style>
   <mask id="id0">
  <linearGradient id="id1" gradientUnits="userSpaceOnUse" x1="49.077" y1="58.691" x2="135.781" y2="158.694">
   <stop offset="0" style="stop-opacity:1; stop-color:white"/>
   <stop offset="0.690196" style="stop-opacity:0.501961; stop-color:white"/>
   <stop offset="1" style="stop-opacity:0; stop-color:white"/>
  </linearGradient>
    <rect style="fill:url(#id1)" y="95.614" width="38.975" height="11.222"/>
   </mask>
   <mask id="id2">
  <linearGradient id="id3" gradientUnits="userSpaceOnUse" x1="49.077" y1="58.691" x2="135.781" y2="158.694">
   <stop offset="0" style="stop-opacity:1; stop-color:white"/>
   <stop offset="0.690196" style="stop-opacity:0.501961; stop-color:white"/>
   <stop offset="1" style="stop-opacity:0; stop-color:white"/>
  </linearGradient>
    <rect style="fill:url(#id3)" y="108.161" width="38.975" height="15.509"/>
   </mask>
   <mask id="id4">
  <linearGradient id="id5" gradientUnits="userSpaceOnUse" x1="49.077" y1="58.691" x2="135.781" y2="158.694">
   <stop offset="0" style="stop-opacity:1; stop-color:white"/>
   <stop offset="0.690196" style="stop-opacity:0.501961; stop-color:white"/>
   <stop offset="1" style="stop-opacity:0; stop-color:white"/>
  </linearGradient>
    <rect style="fill:url(#id5)" y="125.102" width="38.975" height="21.446"/>
   </mask>
   <mask id="id6">
  <linearGradient id="id7" gradientUnits="userSpaceOnUse" x1="49.077" y1="58.691" x2="135.781" y2="158.694">
   <stop offset="0" style="stop-opacity:1; stop-color:white"/>
   <stop offset="0.690196" style="stop-opacity:0.501961; stop-color:white"/>
   <stop offset="1" style="stop-opacity:0; stop-color:white"/>
  </linearGradient>
    <rect style="fill:url(#id7)" x="43.714" y="67.064" width="38.975" height="11.222"/>
   </mask>
   <mask id="id8">
  <linearGradient id="id9" gradientUnits="userSpaceOnUse" x1="49.077" y1="58.691" x2="135.781" y2="158.694">
   <stop offset="0" style="stop-opacity:1; stop-color:white"/>
   <stop offset="0.690196" style="stop-opacity:0.501961; stop-color:white"/>
   <stop offset="1" style="stop-opacity:0; stop-color:white"/>
  </linearGradient>
    <rect style="fill:url(#id9)" x="43.714" y="79.612" width="38.975" height="15.508"/>
   </mask>
   <mask id="id10">
  <linearGradient id="id11" gradientUnits="userSpaceOnUse" x1="49.077" y1="58.691" x2="135.781" y2="158.694">
   <stop offset="0" style="stop-opacity:1; stop-color:white"/>
   <stop offset="0.690196" style="stop-opacity:0.501961; stop-color:white"/>
   <stop offset="1" style="stop-opacity:0; stop-color:white"/>
  </linearGradient>
    <rect style="fill:url(#id11)" x="43.714" y="96.552" width="38.975" height="21.446"/>
   </mask>
   <mask id="id12">
  <linearGradient id="id13" gradientUnits="userSpaceOnUse" x1="49.077" y1="58.691" x2="135.781" y2="158.694">
   <stop offset="0" style="stop-opacity:1; stop-color:white"/>
   <stop offset="0.690196" style="stop-opacity:0.501961; stop-color:white"/>
   <stop offset="1" style="stop-opacity:0; stop-color:white"/>
  </linearGradient>
    <rect style="fill:url(#id13)" x="43.714" y="119.441" width="38.975" height="27.262"/>
   </mask>
   <mask id="id14">
  <linearGradient id="id15" gradientUnits="userSpaceOnUse" x1="49.077" y1="58.691" x2="135.781" y2="158.694">
   <stop offset="0" style="stop-opacity:1; stop-color:white"/>
   <stop offset="0.690196" style="stop-opacity:0.501961; stop-color:white"/>
   <stop offset="1" style="stop-opacity:0; stop-color:white"/>
  </linearGradient>
    <rect style="fill:url(#id15)" x="86.753" y="32.464" width="38.974" height="11.222"/>
   </mask>
   <mask id="id16">
  <linearGradient id="id17" gradientUnits="userSpaceOnUse" x1="49.077" y1="58.691" x2="135.781" y2="158.694">
   <stop offset="0" style="stop-opacity:1; stop-color:white"/>
   <stop offset="0.690196" style="stop-opacity:0.501961; stop-color:white"/>
   <stop offset="1" style="stop-opacity:0; stop-color:white"/>
  </linearGradient>
    <rect style="fill:url(#id17)" x="86.753" y="45.011" width="38.974" height="15.509"/>
   </mask>
   <mask id="id18">
  <linearGradient id="id19" gradientUnits="userSpaceOnUse" x1="49.077" y1="58.691" x2="135.781" y2="158.694">
   <stop offset="0" style="stop-opacity:1; stop-color:white"/>
   <stop offset="0.690196" style="stop-opacity:0.501961; stop-color:white"/>
   <stop offset="1" style="stop-opacity:0; stop-color:white"/>
  </linearGradient>
    <rect style="fill:url(#id19)" x="86.753" y="61.952" width="38.974" height="21.446"/>
   </mask>
   <mask id="id20">
  <linearGradient id="id21" gradientUnits="userSpaceOnUse" x1="49.077" y1="58.691" x2="135.781" y2="158.694">
   <stop offset="0" style="stop-opacity:1; stop-color:white"/>
   <stop offset="0.690196" style="stop-opacity:0.501961; stop-color:white"/>
   <stop offset="1" style="stop-opacity:0; stop-color:white"/>
  </linearGradient>
    <rect style="fill:url(#id21)" x="86.753" y="84.841" width="38.974" height="27.262"/>
   </mask>
   <mask id="id22">
  <linearGradient id="id23" gradientUnits="userSpaceOnUse" x1="49.077" y1="58.691" x2="135.781" y2="158.694">
   <stop offset="0" style="stop-opacity:1; stop-color:white"/>
   <stop offset="0.690196" style="stop-opacity:0.501961; stop-color:white"/>
   <stop offset="1" style="stop-opacity:0; stop-color:white"/>
  </linearGradient>
    <rect style="fill:url(#id23)" x="86.753" y="113.444" width="38.974" height="33.165"/>
   </mask>
   <mask id="id24">
  <linearGradient id="id25" gradientUnits="userSpaceOnUse" x1="49.077" y1="58.691" x2="135.781" y2="158.694">
   <stop offset="0" style="stop-opacity:1; stop-color:white"/>
   <stop offset="0.690196" style="stop-opacity:0.501961; stop-color:white"/>
   <stop offset="1" style="stop-opacity:0; stop-color:white"/>
  </linearGradient>
    <rect style="fill:url(#id25)" x="7.381" y="66.852" width="24.243" height="25.758"/>
   </mask>
   <mask id="id26">
  <linearGradient id="id27" gradientUnits="userSpaceOnUse" x1="49.077" y1="58.691" x2="135.781" y2="158.694">
   <stop offset="0" style="stop-opacity:1; stop-color:white"/>
   <stop offset="0.690196" style="stop-opacity:0.501961; stop-color:white"/>
   <stop offset="1" style="stop-opacity:0; stop-color:white"/>
  </linearGradient>
    <rect style="fill:url(#id27)" x="51.199" y="34.386" width="24.243" height="30.046"/>
   </mask>
   <mask id="id28">
  <linearGradient id="id29" gradientUnits="userSpaceOnUse" x1="49.077" y1="58.691" x2="135.781" y2="158.694">
   <stop offset="0" style="stop-opacity:1; stop-color:white"/>
   <stop offset="0.690196" style="stop-opacity:0.501961; stop-color:white"/>
   <stop offset="1" style="stop-opacity:0; stop-color:white"/>
  </linearGradient>
    <rect style="fill:url(#id29)" x="93.444" width="24.243" height="31.411"/>
   </mask>
 </defs>
 <g id="Layer_x0020_1">
  <metadata id="CorelCorpID_0Corel-Layer"/>
  <polygon class="fil0 str0" style="mask:url(#id0)" points="3.124,96.883 35.851,96.883 37.706,98.737 37.706,103.712 35.851,105.567 3.124,105.567 1.269,103.712 1.269,98.737 "/>
  <polygon class="fil0 str0" style="mask:url(#id2)" points="3.124,109.43 35.851,109.43 37.706,111.285 37.706,120.547 35.851,122.401 3.124,122.401 1.269,120.547 1.269,111.285 "/>
  <polygon class="fil0 str0" style="mask:url(#id4)" points="3.124,126.371 35.851,126.371 37.706,128.226 37.706,143.425 35.851,145.279 3.124,145.279 1.269,143.425 1.269,128.226 "/>
  <polygon class="fil1 str0" style="mask:url(#id6)" points="46.838,68.333 79.565,68.333 81.42,70.187 81.42,75.162 79.565,77.017 46.838,77.017 44.983,75.162 44.983,70.187 "/>
  <polygon class="fil1 str0" style="mask:url(#id8)" points="46.838,80.881 79.565,80.881 81.42,82.735 81.42,91.997 79.565,93.851 46.838,93.851 44.983,91.997 44.983,82.735 "/>
  <polygon class="fil1 str0" style="mask:url(#id10)" points="46.838,97.821 79.565,97.821 81.42,99.676 81.42,114.875 79.565,116.729 46.838,116.729 44.983,114.875 44.983,99.676 "/>
  <polygon class="fil1 str0" style="mask:url(#id12)" points="46.838,120.71 79.565,120.71 81.42,122.564 81.42,143.58 79.565,145.434 46.838,145.434 44.983,143.58 44.983,122.564 "/>
  <polygon class="fil2 str0" style="mask:url(#id14)" points="89.876,33.733 122.603,33.733 124.458,35.587 124.458,40.562 122.603,42.417 89.876,42.417 88.022,40.562 88.022,35.587 "/>
  <polygon class="fil2 str0" style="mask:url(#id16)" points="89.876,46.28 122.603,46.28 124.458,48.135 124.458,57.397 122.603,59.251 89.876,59.251 88.022,57.397 88.022,48.135 "/>
  <polygon class="fil2 str0" style="mask:url(#id18)" points="89.876,63.221 122.603,63.221 124.458,65.075 124.458,80.275 122.603,82.129 89.876,82.129 88.022,80.275 88.022,65.075 "/>
  <polygon class="fil2 str0" style="mask:url(#id20)" points="89.876,86.11 122.603,86.11 124.458,87.964 124.458,108.979 122.603,110.834 89.876,110.834 88.022,108.979 88.022,87.964 "/>
  <polygon class="fil2 str0" style="mask:url(#id22)" points="89.876,114.713 122.603,114.713 124.458,116.568 124.458,143.485 122.603,145.34 89.876,145.34 88.022,143.485 88.022,116.568 "/>
  <path class="fil3 str1" style="mask:url(#id24)" d="M14.075 91.341l0 -11.61 -5.425 0 10.852 -11.61 10.853 11.61 -5.426 0 0 11.61 -10.854 0zm0 -5.805m-2.713 -5.805m2.713 -5.805m10.853 0m2.713 5.805m-2.712 5.805m-5.427 5.805"/>
  <path class="fil3 str1" style="mask:url(#id26)" d="M57.894 63.163l0 -13.754 -5.426 0 10.853 -13.754 10.852 13.754 -5.426 0 0 13.754 -10.853 0zm0 -6.878m-2.713 -6.876m2.713 -6.878m10.853 0m2.713 6.878m-2.713 6.876m-5.426 6.878"/>
  <path class="fil3 str1" style="mask:url(#id28)" d="M100.139 30.142l0 -14.436 -5.426 0 10.852 -14.437 10.853 14.437 -5.426 0 0 14.436 -10.853 0zm0 -7.218m-2.714 -7.218m2.714 -7.219m10.852 0m2.714 7.219m-2.713 7.218m-5.427 7.218"/>
 </g>
</svg>
