<svg data-name="Capa 1" id="Capa_1" viewBox="0 0 14 14" xmlns="http://www.w3.org/2000/svg">
  <defs>
    <style>.cls-1 {
      fill: #6dcff6;
    }</style>
  </defs>
  <title>1</title>
  <path class="cls-1"
        d="M12.55,6.35H14a6.93,6.93,0,0,0-.79-2.64l-.78.46-.26-.46L13,3.26a7.15,7.15,0,0,0-2.19-2.19l-.46.79-.45-.27L10.31.8A7,7,0,0,0,7.65,0V1.47H6.35V0A7.1,7.1,0,0,0,3.69.8l.46.79-.45.27-.46-.79A7.15,7.15,0,0,0,1.05,3.26l.78.45-.26.46L.79,3.71A6.93,6.93,0,0,0,0,6.35H1.45v1.3H0a6.93,6.93,0,0,0,.79,2.64l.78-.46.26.46-.78.45a7.15,7.15,0,0,0,2.19,2.19l.46-.79.45.27-.46.79a7,7,0,0,0,2.66.8V12.53h1.3V14a7,7,0,0,0,2.66-.8l-.46-.79.45-.27.46.79A7.15,7.15,0,0,0,13,10.74l-.78-.45.26-.46.78.46A6.93,6.93,0,0,0,14,7.65H12.55V6.35ZM6.85,8.92a.53.53,0,0,1-.53.53H3.16a.54.54,0,0,1-.4-.18.49.49,0,0,1-.08-.39,1.75,1.75,0,0,1,.24-.59,3,3,0,0,1,1.18-1,8.08,8.08,0,0,0,1-.61.67.67,0,0,0,.28-.51.47.47,0,0,0-.14-.35.61.61,0,0,0-.45-.14.6.6,0,0,0-.54.21.73.73,0,0,0-.07.21.55.55,0,0,1-.56.43H3.22a.52.52,0,0,1-.39-.17A.5.5,0,0,1,2.73,6,1.75,1.75,0,0,1,3,5.31a1.9,1.9,0,0,1,1.73-.76A2.55,2.55,0,0,1,6.24,5a1.47,1.47,0,0,1,.18,2.21,3.67,3.67,0,0,1-.85.61l-.45.25-.44.26H6.32a.53.53,0,0,1,.53.53v.08Zm4-.44a.16.16,0,0,0-.14.17v.27a.53.53,0,0,1-.53.53H9.79a.53.53,0,0,1-.53-.53V8.65a.18.18,0,0,0-.18-.17H7.55A.53.53,0,0,1,7,8V7.88a1.43,1.43,0,0,1,.25-.75L8.92,5a1,1,0,0,1,.71-.35h.54a.53.53,0,0,1,.53.53V7.25a.16.16,0,0,0,.14.18.5.5,0,0,1,.49.52A.51.51,0,0,1,10.84,8.48Z"/>
  <path class="cls-1" d="M8.37,7.43h.71a.18.18,0,0,0,.18-.18v-1L8.38,7.42Z"/>
</svg>
