<svg data-name="Capa 1" id="Capa_1" viewBox="0 0 20 20" xmlns="http://www.w3.org/2000/svg">
  <defs>
    <style>.cls-1 {
      fill: #00aeef;
    }</style>
  </defs>
  <title>2</title>
  <path class="cls-1"
        d="M15.06,11.25c0,1.88-2.17,3.75-4.34,3.75H9.28c-2.17,0-4.34-1.87-4.34-3.75V7.5H3.5v3.75c0,2.5,2.89,5,5.78,5v2.5H4.94V20H15.06V18.75H10.72v-2.5c2.89,0,5.78-2.5,5.78-5V7.5H15.06Z"/>
  <path class="cls-1"
        d="M10.71,13.75a2.72,2.72,0,0,0,2.9-2.49V2.49A2.72,2.72,0,0,0,10.71,0H9.29a2.72,2.72,0,0,0-2.9,2.49v8.77a2.72,2.72,0,0,0,2.9,2.49Z"/>
</svg>
