<?xml version="1.0" encoding="utf-8"?>
<!-- Generator: Adobe Illustrator 23.0.1, SVG Export Plug-In . SVG Version: 6.00 Build 0)  -->
<svg id="Layer_1" style="enable-background:new 0 0 512 512;" version="1.1" viewBox="0 0 512 512" x="0px"
     xml:space="preserve" xmlns="http://www.w3.org/2000/svg" y="0px">
<style type="text/css">
	.st0 {
    fill: #19233c;
  }
</style>
  <g>
	<g>
		<path class="st0" d="M89.2,229.4H16.7C7.5,229.4,0,238,0,248.5v177.1c0,10.6,7.5,19.1,16.7,19.1h72.5c9.2,0,16.7-8.6,16.7-19.1
			V248.5C106,238,98.5,229.4,89.2,229.4z M72.5,406.5h-39V267.6h39L72.5,406.5z"/>
	</g>
</g>
  <g>
	<g>
		<path class="st0" d="M224.6,152.9h-72.5c-9.2,0-16.7,8.6-16.7,19.1v253.6c0,10.6,7.5,19.1,16.7,19.1h72.5
			c9.2,0,16.7-8.6,16.7-19.1V172C241.3,161.5,233.8,152.9,224.6,152.9z M207.8,406.5h-39V191.2h39V406.5z"/>
	</g>
</g>
  <g>
	<g>
		<path class="st0" d="M359.9,76.5h-72.5c-9.2,0-16.7,8.6-16.7,19.1v330.1c0,10.6,7.5,19.1,16.7,19.1h72.5c9.2,0,16.7-8.6,16.7-19.1
			V95.6C376.7,85,369.2,76.5,359.9,76.5z M343.2,406.5h-39V114.7h39V406.5z"/>
	</g>
</g>
  <g>
	<g>
		<path class="st0" d="M495.3,0h-72.5C413.5,0,406,8.6,406,19.1v406.5c0,10.6,7.5,19.1,16.7,19.1h72.5c9.2,0,16.7-8.6,16.7-19.1
			V19.1C512,8.6,504.5,0,495.3,0z M478.5,406.5h-39V38.2h39V406.5z"/>
	</g>
</g>
  <g>
	<g>
		<path class="st0" d="M495.3,478.5H16.7C7.5,478.5,0,486,0,495.3S7.5,512,16.7,512h478.5c9.2,0,16.7-7.5,16.7-16.7
			S504.5,478.5,495.3,478.5z"/>
	</g>
</g>
</svg>
