<svg data-name="Capa 1" id="Capa_1" viewBox="0 0 14 14" xmlns="http://www.w3.org/2000/svg">
  <defs>
    <style>.cls-1 {
      fill: #bfc5d1;
    }</style>
  </defs>
  <title>4</title>
  <path class="cls-1" d="M13.59.39a1.41,1.41,0,0,0-2,0L8.43,3.56l2,2,3.17-3.17A1.41,1.41,0,0,0,13.59.39Z"/>
  <path class="cls-1" d="M9.91,6.22,7.76,4.07a2,2,0,0,0-2.59-.16L5.07,4,10,8.91l.08-.1A2,2,0,0,0,9.91,6.22Z"/>
  <path class="cls-1"
        d="M4.4,4.5.16,7.82a.43.43,0,0,0-.16.3.42.42,0,0,0,.13.32L1.49,9.8,3.76,7.75a.41.41,0,0,1,.59,0,.42.42,0,0,1,0,.59l-2.24,2,1.5,1.5,2-2.24a.42.42,0,0,1,.59,0,.41.41,0,0,1,0,.59L4.18,12.49l1.36,1.37a.45.45,0,0,0,.32.12.43.43,0,0,0,.3-.16L9.48,9.58Z"/>
</svg>
