<svg data-name="Layer 1" id="Layer_1" viewBox="0 0 25 25" xmlns="http://www.w3.org/2000/svg"
     xmlns:xlink="http://www.w3.org/1999/xlink">
  <defs>
    <style>.cls-1 {
      fill: url(#linear-gradient);
    }

    .cls-2 {
      fill: url(#linear-gradient-2);
    }

    .cls-3 {
      fill: url(#linear-gradient-3);
    }</style>
    <linearGradient gradientUnits="userSpaceOnUse" id="linear-gradient" x2="25" y1="12.5" y2="12.5">
      <stop offset="0" stop-color="#e58d80"/>
      <stop offset="1" stop-color="#ee2132"/>
    </linearGradient>
    <linearGradient id="linear-gradient-2" x1="6.03" x2="18.97" xlink:href="#linear-gradient" y1="10.34" y2="10.34"/>
    <linearGradient id="linear-gradient-3" x1="6.03" x2="18.97" xlink:href="#linear-gradient" y1="14.66" y2="14.66"/>
  </defs>
  <title>1</title>
  <path class="cls-1"
        d="M12.5,0A12.5,12.5,0,1,0,25,12.5,12.52,12.52,0,0,0,12.5,0Zm0,23.36A10.86,10.86,0,1,1,23.36,12.5,10.87,10.87,0,0,1,12.5,23.36Zm0,0"/>
  <path class="cls-2"
        d="M19,10.34a.72.72,0,0,0-1.12-.6,4.46,4.46,0,0,1-5,0h0a5.91,5.91,0,0,0-6.55,0h0a.73.73,0,0,0-.32.6.72.72,0,0,0,1.12.6,4.46,4.46,0,0,1,4.95,0,5.91,5.91,0,0,0,6.55,0h0A.73.73,0,0,0,19,10.34Z"/>
  <path class="cls-3"
        d="M19,14.66a.72.72,0,0,0-1.12-.6,4.46,4.46,0,0,1-5,0h0a5.91,5.91,0,0,0-6.55,0h0a.73.73,0,0,0-.32.6.72.72,0,0,0,1.12.6,4.46,4.46,0,0,1,4.95,0,5.91,5.91,0,0,0,6.55,0h0A.73.73,0,0,0,19,14.66Z"/>
</svg>
