<svg data-name="Capa 1" id="Capa_1" viewBox="0 0 20 20" xmlns="http://www.w3.org/2000/svg">
  <defs>
    <style>.cls-1 {
      fill: #fff;
    }</style>
  </defs>
  <title>1</title>
  <path class="cls-1"
        d="M8.87,6.53h0a1.28,1.28,0,0,0,.11.2s.09.11.12.16h0a1.62,1.62,0,0,0,.19.17.64.64,0,0,0,.22.11h0l.23.07a1.1,1.1,0,0,0,.24,0,1,1,0,0,0,.24,0,.93.93,0,0,0,.2-.07h0L10.66,7a1.1,1.1,0,0,0,.16-.15l0,0A.91.91,0,0,0,11,6.71a.61.61,0,0,0,.09-.18s0,0,0,0a1,1,0,0,0,.07-.24.93.93,0,0,0,0-.24.9.9,0,0,0,0-.23,1.27,1.27,0,0,0-.07-.24h0a1.12,1.12,0,0,0-.22-.33l0,0A1.41,1.41,0,0,0,10.64,5l-.2-.11h0a1,1,0,0,0-.22-.08H9.74a1.19,1.19,0,0,0-.22.08h0a.75.75,0,0,0-.2.11l-.19.14h0A1,1,0,0,0,9,5.34a1,1,0,0,0-.11.2h0a1,1,0,0,0-.08.22h0a2,2,0,0,0,0,.24,1.77,1.77,0,0,0,0,.23A1.74,1.74,0,0,0,8.87,6.53Z"/>
  <path class="cls-1"
        d="M11.41,13.22H11V8.74a.47.47,0,0,0-.48-.48H8.59a.47.47,0,0,0-.47.48v1a.47.47,0,0,0,.47.47H9v3H8.59a.47.47,0,0,0-.47.47v1a.47.47,0,0,0,.47.47h2.82a.47.47,0,0,0,.47-.47v-1A.49.49,0,0,0,11.41,13.22Z"/>
  <path class="cls-1"
        d="M10,0A10,10,0,1,0,20,10,10,10,0,0,0,10,0Zm0,18.68A8.68,8.68,0,1,1,18.68,10,8.68,8.68,0,0,1,10,18.68Z"/>
</svg>
