<?xml version="1.0" encoding="utf-8"?>
<!-- Generator: Adobe Illustrator 23.0.1, SVG Export Plug-In . SVG Version: 6.00 Build 0)  -->
<svg id="Layer_1" style="enable-background:new 0 0 512 512;" version="1.1" viewBox="0 0 512 512" x="0px"
     xml:space="preserve" xmlns="http://www.w3.org/2000/svg" y="0px">
<style type="text/css">
	.st0 {
    fill: #BDC2CC;
  }
</style>
  <g>
	<g>
		<path class="st0" d="M495.3,478.5H16.7C7.5,478.5,0,486,0,495.3S7.5,512,16.7,512h478.5c9.2,0,16.7-7.5,16.7-16.7
			S504.5,478.5,495.3,478.5z"/>
	</g>
</g>
  <g>
	<g>
		<path class="st0" d="M444.6,0c-37.2,0-67.4,31-67.4,69.2c0,21.2,9.3,40.1,23.9,52.8l-55.1,138.3c-17.5,0.6-33.4,8.2-45,20
			l-76.3-39.7c0.5-3.5,0.8-7,0.8-10.6c0-38.1-30.3-69.2-67.4-69.2s-67.4,31-67.4,69.2c0,16.7,5.8,32.1,15.5,44.1l-21.5,34.5
			c-5.5-1.5-11.2-2.2-17.1-2.2c-37.2,0-67.4,31-67.4,69.2s30.3,69.2,67.4,69.2s67.4-31,67.4-69.2c0-16.7-5.8-32-15.4-43.9l21.6-34.6
			c5.4,1.4,11,2.2,16.8,2.2c18.7,0,35.7-7.9,47.9-20.5l76,39.5c-0.6,3.7-0.9,7.4-0.9,11.2c0,38.1,30.3,69.2,67.4,69.2
			s67.4-31,67.4-69.2c0-23.8-11.8-44.8-29.7-57.3l53.4-134c1.7,0.1,3.3,0.2,5,0.2c37.2,0,67.4-31,67.4-69.2S481.7,0,444.6,0z
			 M67.4,402.1c-14.3,0-25.9-11.9-25.9-26.5c0-14.6,11.6-26.5,25.9-26.5s25.9,11.9,25.9,26.5C93.3,390.2,81.7,402.1,67.4,402.1z
			 M157.9,256.6c-14.3,0-25.9-11.9-25.9-26.5s11.6-26.5,25.9-26.5s25.9,11.9,25.9,26.5C183.8,244.3,172.5,256.6,157.9,256.6z
			 M348.3,356c-14.3,0-25.9-11.9-25.9-26.5c0-14.6,11.6-26.5,25.9-26.5s25.9,11.9,25.9,26.5C374.2,344.1,362.6,356,348.3,356z
			 M444.6,95.7c-14.3,0-25.9-11.9-25.9-26.5s11.6-26.5,25.9-26.5s25.9,11.9,25.9,26.5C470.4,83.8,458.8,95.7,444.6,95.7z"/>
	</g>
</g>
</svg>
