<svg data-name="Слой 1" id="Слой_1" viewBox="0 0 20 20" xmlns="http://www.w3.org/2000/svg">
  <defs>
    <style>.cls-1 {
      fill: #18233b;
    }</style>
  </defs>
  <title>1</title>
  <rect class="cls-1" height="7.62" width="1.7" x="7.12" y="4.88"/>
  <rect class="cls-1" height="1.7" width="7.62" x="4.16" y="7.84"/>
  <path class="cls-1"
        d="M19.41,7.15a2,2,0,0,0-2.81,0l-.67.67V3.92a2,2,0,0,0-.58-1.41L13.47.63C13,.16,13,0,12.61,0L.67.05A.66.66,0,0,0,0,.71V19.34A.66.66,0,0,0,.67,20h14.6a.67.67,0,0,0,.66-.66V13.47L19.41,10A2,2,0,0,0,19.41,7.15Zm-5-3.7a.67.67,0,0,1,.19.47V4H12V1.38h.11a.67.67,0,0,1,.47.19Zm.19,15.22H1.33V1.38h9.29V4.7a.67.67,0,0,0,.67.66H14.6V9.15l-4.53,4.57A.67.67,0,0,0,9.9,14l-.59,2.45a.66.66,0,0,0,.8.8l2.46-.57a.68.68,0,0,0,.32-.18L14.6,14.8ZM12.34,15.2l-.26.26-1.23.29.29-1.23.26-.26a2,2,0,0,1,.94.94Zm1-1a4.33,4.33,0,0,0-.42-.52,3.42,3.42,0,0,0-.52-.42L16.13,9.5l.94.93ZM18.47,9,18,9.49l-.94-.94.47-.47a.66.66,0,0,1,.93.94Z"/>
</svg>
