<svg data-name="Слой 1" id="Слой_1" viewBox="0 0 20 20" xmlns="http://www.w3.org/2000/svg">
  <defs>
    <style>.cls-1 {
      fill: #28abe3;
    }</style>
  </defs>
  <title>3</title>
  <path class="cls-1"
        d="M19.25,0H.75A.76.76,0,0,0,0,.76V19.24A.76.76,0,0,0,.75,20h18.5a.76.76,0,0,0,.75-.76V.76A.76.76,0,0,0,19.25,0ZM17.87,15.14h-16V2.06h16Z"/>
  <ellipse class="cls-1" cx="4.98" cy="5.4" rx="2.22" ry="2.24"/>
  <path class="cls-1"
        d="M5.41,10.72,3.33,13.21c-.52.62-.28,1.12.52,1.12H15.76c.8,0,1.13-.58.74-1.29l-3.59-6.5a.79.79,0,0,0-1.48,0L9.34,9.88a1.33,1.33,0,0,1-1.88.49A1.59,1.59,0,0,0,5.41,10.72Z"/>
</svg>
