<?xml version="1.0" encoding="utf-8"?>
<!-- Generator: Adobe Illustrator 22.1.0, SVG Export Plug-In . SVG Version: 6.00 Build 0)  -->
<svg id="Capa_1" style="enable-background:new 0 0 13 13;" version="1.1" viewBox="0 0 13 13" x="0px"
     xml:space="preserve" xmlns="http://www.w3.org/2000/svg" y="0px">
<style type="text/css">
	.st0 {
    fill: #19233C;
  }
</style>
  <path class="st0" d="M13,5.2c0-0.1-0.1-0.3-0.3-0.3c-1.4-0.6-3-0.6-4.4,0L5,2.1c0.1-0.7-0.1-1.3-0.6-1.9C4.4,0.1,4.2,0,4.1,0
	C4,0,3.8,0,3.7,0.1L0.1,3.7C0,3.8,0,4,0,4.1c0,0.1,0.1,0.2,0.2,0.3l0,0C0.7,4.8,1.4,5,2,5l2.8,3.3c-0.5,1.4-0.5,3,0,4.4
	C4.9,12.8,5,12.9,5.2,13h0.1c0.1,0,0.2-0.1,0.3-0.1l3.3-3.3l3.1,3c0.2,0.2,0.5,0.2,0.7,0c0.2-0.2,0.2-0.5,0-0.6c0,0,0,0,0,0l-3-3.1
	l3.3-3.3C13,5.5,13,5.4,13,5.2L13,5.2z M5.9,8.5L5.9,8.5c0.1-0.1,0.1-0.3,0-0.5L2.6,4.2C2.5,4.1,2.4,4,2.3,4H2.2
	C1.9,4,1.5,4,1.2,3.9L4,1.3c0.1,0.3,0.1,0.6,0.1,0.9c0,0.2,0,0.3,0.2,0.4l3.7,3.2c0.1,0.1,0.4,0.2,0.5,0.1l0,0
	c1-0.4,2.1-0.5,3.2-0.3L8.4,8.8l-2.9,2.9C5.4,10.6,5.5,9.5,5.9,8.5z"/>
</svg>
