<svg data-name="Layer 1" id="Layer_1" viewBox="0 0 20 20" xmlns="http://www.w3.org/2000/svg">
  <defs>
    <style>.cls-1 {
      fill: #bfc5d1;
    }</style>
  </defs>
  <title>tab</title>
  <rect class="cls-1" height="9.23" width="3.19" x="8.41" y="10.77"/>
  <rect class="cls-1" height="12.77" width="3.19" x="15.1" y="7.23"/>
  <rect class="cls-1" height="8.52" width="3.19" x="1.72" y="11.48"/>
  <path class="cls-1"
        d="M19.87.14h0a.41.41,0,0,0-.62,0l-4,4.45L13.82,3a.42.42,0,0,0-.31-.15A.39.39,0,0,0,13.2,3L8.73,8,5.53,4.4a.41.41,0,0,0-.31-.14.44.44,0,0,0-.31.14L.13,9.72a.53.53,0,0,0-.12.47.44.44,0,0,0,.32.35l.11,0a.39.39,0,0,0,.31-.15l4.47-5L8.42,9A.4.4,0,0,0,9,9L13.5,4,15,5.62a.4.4,0,0,0,.61,0L19.87.83A.53.53,0,0,0,19.87.14Z"/>
</svg>
