<svg data-name="Layer 1" id="Layer_1" viewBox="0 0 20 20" xmlns="http://www.w3.org/2000/svg">
  <defs>
    <style>.cls-1 {
      fill: #bfc5d1;
    }</style>
  </defs>
  <title>1</title>
  <path class="cls-1"
        d="M5.62,8.25h1.5V6.75H5.62Zm5.13,0h1.5V6.75h-1.5Zm6.63-1.5h-1.5v1.5h1.5ZM3,0V6.5H1.5V4H0v7H1.5V8.5H3V20H20V0ZM4.5,5.5H8.13v4H4.5Zm14,13H4.5V11h14Zm-8.75-9v-4h3.5v4Zm8.75,0H14.87v-4H18.5Zm0-5.5H4.5V1.5h14ZM7.25,12.5H5.75V14h1.5Zm2,0H7.75V14h1.5Zm2,0H9.75V14h1.5Zm2,0h-1.5V14h1.5Zm2,0h-1.5V14h1.5Zm2,0h-1.5V14h1.5Zm0,3h-5.5V17h5.5Z"/>
</svg>
