<svg data-name="Layer 1" id="Layer_1" viewBox="0 0 25 25" xmlns="http://www.w3.org/2000/svg"
     xmlns:xlink="http://www.w3.org/1999/xlink">
  <defs>
    <style>.cls-1 {
      fill: url(#linear-gradient);
    }

    .cls-2 {
      fill: url(#linear-gradient-2);
    }</style>
    <linearGradient gradientUnits="userSpaceOnUse" id="linear-gradient" x2="25" y1="12.5" y2="12.5">
      <stop offset="0" stop-color="#e58d80"/>
      <stop offset="1" stop-color="#ee2132"/>
    </linearGradient>
    <linearGradient id="linear-gradient-2" x1="8.48" x2="16.52" xlink:href="#linear-gradient"/>
  </defs>
  <title>1</title>
  <path class="cls-1"
        d="M12.5,0A12.5,12.5,0,1,0,25,12.5,12.52,12.52,0,0,0,12.5,0Zm0,23.36A10.86,10.86,0,1,1,23.36,12.5,10.87,10.87,0,0,1,12.5,23.36Zm0,0"/>
  <path class="cls-2"
        d="M15.34,7.11a5,5,0,0,0-3-.85,4.17,4.17,0,0,0-2.3.6,3.68,3.68,0,0,0-1.58,3.2h2.29a2.41,2.41,0,0,1,.38-1.27,1.44,1.44,0,0,1,1.31-.61,1.46,1.46,0,0,1,1.28.5,1.8,1.8,0,0,1,.36,1.09,1.69,1.69,0,0,1-.39,1,2,2,0,0,1-.46.47,10.62,10.62,0,0,0-1.79,1.44,2.8,2.8,0,0,0-.37,1.73c0,.05,0,.17.22.17h1.78a.2.2,0,0,0,.22-.19,2.19,2.19,0,0,1,.09-.61,2,2,0,0,1,.68-.83l.63-.43a6.94,6.94,0,0,0,1.23-1.1,2.92,2.92,0,0,0,.58-1.73A2.93,2.93,0,0,0,15.34,7.11Zm-3,8.81a1.41,1.41,0,1,0-.08,2.82,1.41,1.41,0,1,0,.08-2.82Z"/>
</svg>
