<svg data-name="Layer 1" id="Layer_1" viewBox="0 0 20 20" xmlns="http://www.w3.org/2000/svg">
  <defs>
    <style>.cls-1 {
      fill: #edeff0;
    }</style>
  </defs>
  <title>left menu</title>
  <rect class="cls-1" height="1.5" width="1.5" x="3" y="5"/>
  <rect class="cls-1" height="1.5" width="1.5" x="3" y="9"/>
  <rect class="cls-1" height="1.5" width="1.5" x="3" y="13"/>
  <polygon class="cls-1"
           points="12 4 12 0 0 0 0 20 1.5 20 1.5 1.5 10.5 1.5 10.5 4 6 4 6 20 7.5 20 7.5 5.5 18.5 5.5 18.5 20 20 20 20 4 12 4"/>
  <rect class="cls-1" height="1.5" width="1.5" x="10" y="9"/>
  <rect class="cls-1" height="1.5" width="1.5" x="10" y="13"/>
  <rect class="cls-1" height="1.5" width="1.5" x="10" y="17"/>
  <rect class="cls-1" height="1.5" width="1.5" x="14.5" y="9"/>
  <rect class="cls-1" height="1.5" width="1.5" x="14.5" y="13"/>
  <rect class="cls-1" height="1.5" width="1.5" x="14.5" y="17"/>
</svg>
