<svg data-name="Layer 1" id="Layer_1" viewBox="0 0 20 20" xmlns="http://www.w3.org/2000/svg">
  <defs>
    <style>.cls-1 {
      fill: #566787;
    }</style>
  </defs>
  <title>MC</title>
  <path class="cls-1"
        d="M10,0A10,10,0,1,0,20,10,10,10,0,0,0,10,0Zm0,18.76a8.82,8.82,0,0,1-8.35-6.1H7.06A3.58,3.58,0,0,0,10,14.29a3.58,3.58,0,0,0,2.94-1.63h5.41A8.82,8.82,0,0,1,10,18.76Zm2.07-7h0A2.44,2.44,0,0,1,10,13.05a2.46,2.46,0,0,1-2.07-1.32.61.61,0,0,0-.53-.31H1.35a8,8,0,0,1-.11-1.29.62.62,0,0,0,.6.49H3.47a.62.62,0,1,0,0-1.24H1.84a.62.62,0,0,0-.6.49A8.78,8.78,0,0,1,9.87,1.24a.62.62,0,0,0-.49.6V3.47a.62.62,0,0,0,1.24,0V1.84a.62.62,0,0,0-.49-.6,8.78,8.78,0,0,1,8.63,8.63.62.62,0,0,0-.6-.49H16.53a.62.62,0,1,0,0,1.24h1.63a.62.62,0,0,0,.6-.49,8,8,0,0,1-.11,1.29h-6a.6.6,0,0,0-.58.31Z"/>
  <path class="cls-1"
        d="M13.88,6.32a.63.63,0,0,0-.19-.43.62.62,0,0,0-.86,0L10.49,8.23A1.61,1.61,0,0,0,10,8.16a1.84,1.84,0,0,0,0,3.68h0A1.83,1.83,0,0,0,11.81,10a1.77,1.77,0,0,0-.3-1L13.7,6.8A.62.62,0,0,0,13.88,6.32ZM10.61,10A.61.61,0,1,1,10,9.39h0A.63.63,0,0,1,10.61,10Z"/>
  <path class="cls-1"
        d="M6.54,2.77h0a.62.62,0,0,0-.38-.29.6.6,0,0,0-.47.07.62.62,0,0,0-.22.84l.69,1.2a.63.63,0,0,0,.54.31h0A.64.64,0,0,0,7,4.82.62.62,0,0,0,7.24,4Z"/>
  <path class="cls-1"
        d="M15.72,7.32A.66.66,0,0,0,16,7.23l1.2-.69a.6.6,0,0,0,.29-.37.64.64,0,0,0-.06-.47.62.62,0,0,0-.83-.24h0l-1.21.69a.62.62,0,0,0-.23.85h0A.64.64,0,0,0,15.72,7.32Z"/>
  <path class="cls-1"
        d="M4.6,6.17l-1.21-.7a.64.64,0,0,0-.47-.07.69.69,0,0,0-.38.29.64.64,0,0,0-.06.47.63.63,0,0,0,.28.38L4,7.23a.56.56,0,0,0,.31.09h.16A.65.65,0,0,0,4.82,7a.64.64,0,0,0,.06-.47A.59.59,0,0,0,4.6,6.17Z"/>
  <path class="cls-1"
        d="M13,4.82a.68.68,0,0,0,.31.08.63.63,0,0,0,.54-.31l.69-1.2a.62.62,0,1,0-1.07-.62L12.77,4A.63.63,0,0,0,13,4.82Z"/>
</svg>
