<svg data-name="Capa 1" id="Capa_1" viewBox="0 0 20 20" xmlns="http://www.w3.org/2000/svg">
  <defs>
    <style>.cls-1 {
      fill: #eceff1;
    }</style>
  </defs>
  <title>left menu</title>
  <path class="cls-1"
        d="M10.92.19l-.8-.1v6l.54.14A4.4,4.4,0,0,1,14,10.52a4.26,4.26,0,0,1-.09.86l-.1.54,5.44,2.59.25-.77A10.42,10.42,0,0,0,10.92.19Zm7.47,12.17,0,.15-3-1.41V11c0-.17,0-.33,0-.5a5.86,5.86,0,0,0-3.78-5.46l-.08,0V1.73l.16,0a9,9,0,0,1,6.88,8.75A9.42,9.42,0,0,1,18.39,12.36Z"/>
  <path class="cls-1" d="M0,10.52A9.61,9.61,0,0,0,8.2,20V15.58a5.25,5.25,0,0,1,0-10.12V1A9.61,9.61,0,0,0,0,10.52Z"/>
  <path class="cls-1" d="M10.73,15.58V20a9.61,9.61,0,0,0,6.59-4.16l-4-1.9A5.25,5.25,0,0,1,10.73,15.58Z"/>
</svg>
