<svg data-name="Layer 1" id="Layer_1" viewBox="0 0 20 20" xmlns="http://www.w3.org/2000/svg">
  <defs>
    <style>.cls-1 {
      fill: #566787;
    }</style>
  </defs>
  <title>MC</title>
  <path class="cls-1"
        d="M10,2.48A2.12,2.12,0,0,0,11.51,4a6.37,6.37,0,0,1,1.62.67,2.21,2.21,0,0,0,1.09.3,2.17,2.17,0,0,0,1.08-.3,2.15,2.15,0,0,0,0,2.18A6.38,6.38,0,0,1,16,8.45,2.13,2.13,0,0,0,17.5,10,2.13,2.13,0,0,0,16,11.53a5.82,5.82,0,0,1-.66,1.59,2.19,2.19,0,0,0,0,2.2A2.05,2.05,0,0,0,14.2,15a2.23,2.23,0,0,0-1.09.3,6.38,6.38,0,0,1-1.57.66A2.11,2.11,0,0,0,10,17.5,2.13,2.13,0,0,0,8.46,16a6.18,6.18,0,0,1-1.56-.64,2.16,2.16,0,0,0-2.18,0,2.17,2.17,0,0,0,0-2.19,6.09,6.09,0,0,1-.67-1.6,2.15,2.15,0,0,0-1.57-1.51A2.15,2.15,0,0,0,4,8.5a6.18,6.18,0,0,1,.65-1.59,2.13,2.13,0,0,0,0-2.19,2.12,2.12,0,0,0,1.1.3,2.17,2.17,0,0,0,1.1-.3,5.89,5.89,0,0,1,1.59-.67A2.16,2.16,0,0,0,10,2.48M11,0H9a.12.12,0,0,0-.12.1l-.34,2A.63.63,0,0,1,8,2.6a7.36,7.36,0,0,0-2,.83.68.68,0,0,1-.33.09.63.63,0,0,1-.37-.12L3.76,2.24l-.08,0a.12.12,0,0,0-.08,0L2.19,3.66a.13.13,0,0,0,0,.16L3.35,5.47a.62.62,0,0,1,0,.69,7.35,7.35,0,0,0-.8,2,.62.62,0,0,1-.51.47l-2,.33a.12.12,0,0,0-.1.12v2a.12.12,0,0,0,.1.12l2,.34A.62.62,0,0,1,2.6,12a7.43,7.43,0,0,0,.83,2,.64.64,0,0,1,0,.7L2.24,16.25a.14.14,0,0,0,0,.16l1.4,1.4a.14.14,0,0,0,.09,0l.07,0,1.65-1.18a.62.62,0,0,1,.37-.11.63.63,0,0,1,.32.08,7.48,7.48,0,0,0,1.92.79.63.63,0,0,1,.47.51l.33,2A.12.12,0,0,0,9,20h2a.13.13,0,0,0,.13-.1l.33-2a.63.63,0,0,1,.47-.51,7.54,7.54,0,0,0,2-.82.62.62,0,0,1,.32-.09.63.63,0,0,1,.37.12l1.63,1.16a.09.09,0,0,0,.07,0,.12.12,0,0,0,.09,0l1.4-1.4a.12.12,0,0,0,0-.16l-1.16-1.64a.62.62,0,0,1,0-.69,7.54,7.54,0,0,0,.82-2,.63.63,0,0,1,.51-.47l2-.33A.13.13,0,0,0,20,11h0V9a.13.13,0,0,0-.1-.13l-2-.33a.63.63,0,0,1-.51-.47,7.54,7.54,0,0,0-.82-2,.66.66,0,0,1,0-.69l1.16-1.63a.12.12,0,0,0,0-.16l-1.4-1.4a.11.11,0,0,0-.09,0l-.07,0L14.58,3.38a.62.62,0,0,1-.36.12.63.63,0,0,1-.33-.09,7.75,7.75,0,0,0-2-.83.63.63,0,0,1-.47-.51l-.33-2A.12.12,0,0,0,11,0Z"/>
  <path class="cls-1" d="M11.25,8.75v2.5H8.75V8.75h2.5m1.5-1.5H7.25v5.5h5.5V7.25Z"/>
</svg>
