<svg data-name="Layer 1" id="Layer_1" viewBox="0 0 20 20" xmlns="http://www.w3.org/2000/svg">
  <defs>
    <style>.cls-1 {
      fill: #566787;
    }</style>
  </defs>
  <title>1</title>
  <path class="cls-1"
        d="M18.78,12.92A9,9,0,0,0,19,11a8.92,8.92,0,0,0-4.27-7.66.52.52,0,1,0-.54.88A7.92,7.92,0,0,1,18,11a8.65,8.65,0,0,1-.17,1.56c-.11,0-.24,0-.34,0A2.55,2.55,0,1,0,20,15.08,2.52,2.52,0,0,0,18.78,12.92Z"/>
  <path class="cls-1"
        d="M13.05,18.37A7.83,7.83,0,0,1,10,19a8,8,0,0,1-5.53-2.23A2.55,2.55,0,1,0,0,15.08a2.57,2.57,0,0,0,2.54,2.55,2.57,2.57,0,0,0,1.12-.27,8.94,8.94,0,0,0,9.76,2c.14-.07.24-.13.27-.27a.43.43,0,0,0,0-.37A.5.5,0,0,0,13.05,18.37Z"/>
  <path class="cls-1"
        d="M1.53,10.92h0a.53.53,0,0,0,.51-.48,7.89,7.89,0,0,1,5.56-7,2.51,2.51,0,1,0-.17-1,9,9,0,0,0-6.41,8,.5.5,0,0,0,.14.38A.41.41,0,0,0,1.53,10.92Z"/>
</svg>
