<svg data-name="Layer 1" id="Layer_1" viewBox="0 0 20 20" xmlns="http://www.w3.org/2000/svg">
  <defs>
    <style>.cls-1 {
      fill: #566787;
    }</style>
  </defs>
  <title>MC</title>
  <path class="cls-1" d="M16,1.5A2.5,2.5,0,1,1,13.5,4,2.5,2.5,0,0,1,16,1.5M16,0a4,4,0,1,0,4,4,4,4,0,0,0-4-4Z"/>
  <path class="cls-1" d="M10,8.5A2.5,2.5,0,1,1,7.5,11,2.5,2.5,0,0,1,10,8.5M10,7a4,4,0,1,0,4,4,4,4,0,0,0-4-4Z"/>
  <path class="cls-1"
        d="M16,9.5a6.43,6.43,0,0,1,4,1.39V9.08A8,8,0,0,0,16,8a8.08,8.08,0,0,0-1.85.22,4.66,4.66,0,0,1,.63,1.4A6.16,6.16,0,0,1,16,9.5Z"/>
  <path class="cls-1" d="M4,1.5A2.5,2.5,0,1,1,1.5,4,2.5,2.5,0,0,1,4,1.5M4,0A4,4,0,1,0,8,4,4,4,0,0,0,4,0Z"/>
  <path class="cls-1"
        d="M4,9.5a6.43,6.43,0,0,0-4,1.39V9.08A8,8,0,0,1,4,8a8.08,8.08,0,0,1,1.85.22,4.66,4.66,0,0,0-.63,1.4A6.16,6.16,0,0,0,4,9.5Z"/>
  <path class="cls-1" d="M4.24,20a6.49,6.49,0,0,1,11.52,0h1.65A8,8,0,0,0,2.59,20Z"/>
</svg>
