<svg data-name="Layer 1" id="Layer_1" viewBox="0 0 20 20" xmlns="http://www.w3.org/2000/svg">
  <defs>
    <style>.cls-1 {
      fill: #2fa6de;
    }</style>
  </defs>
  <title>left menu</title>
  <path class="cls-1"
        d="M10,2.48A2.13,2.13,0,0,0,11.51,4a6.15,6.15,0,0,1,1.63.67,2.13,2.13,0,0,0,2.17,0,2.14,2.14,0,0,0,0,2.18A6,6,0,0,1,16,8.45,2.12,2.12,0,0,0,17.5,10,2.13,2.13,0,0,0,16,11.53a6.06,6.06,0,0,1-.66,1.59,2.15,2.15,0,0,0,0,2.2A2.11,2.11,0,0,0,14.2,15a2.15,2.15,0,0,0-1.09.3,6,6,0,0,1-1.57.65A2.12,2.12,0,0,0,10,17.5,2.13,2.13,0,0,0,8.46,16a6.33,6.33,0,0,1-1.56-.64,2.15,2.15,0,0,0-2.18,0,2.16,2.16,0,0,0,0-2.19A6,6,0,0,1,4,11.56,2.15,2.15,0,0,0,2.48,10,2.14,2.14,0,0,0,4,8.5a6,6,0,0,1,.64-1.58,2.13,2.13,0,0,0,0-2.2,2.13,2.13,0,0,0,1.1.3,2.16,2.16,0,0,0,1.1-.3A6,6,0,0,1,8.44,4,2.15,2.15,0,0,0,10,2.48M11,0H9a.12.12,0,0,0-.12.1l-.34,2A.64.64,0,0,1,8,2.6a7.46,7.46,0,0,0-2,.83.64.64,0,0,1-.7,0L3.76,2.24l-.07,0a.12.12,0,0,0-.09,0l-1.4,1.4a.13.13,0,0,0,0,.16L3.35,5.47a.63.63,0,0,1,0,.69,7.52,7.52,0,0,0-.8,2,.64.64,0,0,1-.51.47l-2,.33a.12.12,0,0,0-.1.12v2a.12.12,0,0,0,.1.12l2,.34A.64.64,0,0,1,2.6,12a7.45,7.45,0,0,0,.83,2,.64.64,0,0,1,0,.7L2.24,16.25a.13.13,0,0,0,0,.16l1.4,1.4a.13.13,0,0,0,.09,0l.07,0,1.65-1.17a.62.62,0,0,1,.37-.12.65.65,0,0,1,.32.08,7.82,7.82,0,0,0,1.93.79.63.63,0,0,1,.47.51l.33,2A.12.12,0,0,0,9,20h2a.12.12,0,0,0,.12-.1l.33-2a.62.62,0,0,1,.47-.51,7.54,7.54,0,0,0,2-.82.64.64,0,0,1,.33-.09.62.62,0,0,1,.37.12l1.63,1.16.07,0a.12.12,0,0,0,.09,0l1.4-1.4a.13.13,0,0,0,0-.16l-1.16-1.64a.64.64,0,0,1,0-.69,7.54,7.54,0,0,0,.82-2,.63.63,0,0,1,.51-.47l2-.33A.12.12,0,0,0,20,11h0V9a.12.12,0,0,0-.1-.12l-2-.33a.62.62,0,0,1-.51-.47,7.53,7.53,0,0,0-.82-2,.64.64,0,0,1,0-.69l1.16-1.63a.13.13,0,0,0,0-.16l-1.4-1.4a.13.13,0,0,0-.09,0l-.07,0L14.58,3.38a.64.64,0,0,1-.69,0,7.64,7.64,0,0,0-2-.83.64.64,0,0,1-.47-.51l-.33-2A.12.12,0,0,0,11,0Z"/>
  <path class="cls-1" d="M11.25,8.75v2.5H8.75V8.75h2.5m1.5-1.5H7.25v5.5h5.5V7.25Z"/>
</svg>
