<svg data-name="Слой 1" id="Слой_1" viewBox="0 0 20 20" xmlns="http://www.w3.org/2000/svg">
  <defs>
    <style>.cls-1 {
      fill: #576787;
    }</style>
  </defs>
  <title>1</title>
  <path class="cls-1"
        d="M19.61,10.78A1.82,1.82,0,0,0,18.35,10a1.74,1.74,0,0,0-1.37.4l-4.46,3.69a2.38,2.38,0,0,1-1.52.56H9.93a4.82,4.82,0,0,0,1.32-3.33.65.65,0,0,0-.63-.67H3.75V10a.65.65,0,0,0-.63-.66H.62A.65.65,0,0,0,0,10v9.34A.64.64,0,0,0,.62,20h2.5a.64.64,0,0,0,.63-.66v-.67h8.32A3,3,0,0,0,14,18l5.29-4.38A2.07,2.07,0,0,0,20,12.25,2.1,2.1,0,0,0,19.61,10.78ZM2.5,18.67H1.25v-8H2.5Zm16.25-6.59a.7.7,0,0,1-.25.45l-5.28,4.39a1.83,1.83,0,0,1-1.15.42H3.75V12H9.94a3.2,3.2,0,0,1-3.07,2.66.65.65,0,0,0-.62.67.64.64,0,0,0,.62.66H11a3.62,3.62,0,0,0,2.3-.84l4.45-3.69a.6.6,0,0,1,.44-.13.62.62,0,0,1,.43.26A.74.74,0,0,1,18.75,12.08Z"/>
  <path class="cls-1"
        d="M16.24,0h-8a.64.64,0,0,0-.64.64v8a.65.65,0,0,0,.64.65h8a.65.65,0,0,0,.65-.65v-8A.65.65,0,0,0,16.24,0Zm-.65,1.29V8H8.84V1.29Z"/>
  <path class="cls-1" d="M11.57,4V7.33h1.29V4l1.1.82.77-1L12.6,2.14a.62.62,0,0,0-.77,0L9.7,3.73l.78,1Z"/>
</svg>
