<svg data-name="Layer 1" id="Layer_1" viewBox="0 0 20 20" xmlns="http://www.w3.org/2000/svg">
  <defs>
    <style>.cls-1 {
      fill: #edeff0;
    }</style>
  </defs>
  <title>left menu</title>
  <path class="cls-1"
        d="M18.1,5.33H15.15a5.73,5.73,0,0,0-2.23.45l-5.1,2V5.88l5.15-2A2,2,0,0,0,14.35,2a2,2,0,0,0-2-2h-.07L2.87,1h0A3.31,3.31,0,0,0,0,4.35v15A.66.66,0,0,0,.65,20H7.17a.66.66,0,0,0,.65-.67V15.67l6-4.55h0a1.94,1.94,0,0,1,1-.42v1.06a1.57,1.57,0,0,0,1.55,1.58h.82a1.57,1.57,0,0,0,1.55-1.58V10.6A1.82,1.82,0,0,0,20,8.84V7.27A1.91,1.91,0,0,0,18.1,5.33ZM3,2.37l9.41-1A.66.66,0,0,1,13,2a.67.67,0,0,1-.46.64h0l-5.29,2H1.3V4.35A2,2,0,0,1,3,2.37Zm3.51,16.3H1.3V6H6.52ZM17.15,12h-.82a.25.25,0,0,1-.24-.25V10.67h1.3v1.08A.25.25,0,0,1,17.15,12ZM18.7,8.84a.49.49,0,0,1-.48.49H15a3.23,3.23,0,0,0-2,.72L7.83,14V9.23L13.4,7h0a4.46,4.46,0,0,1,1.74-.36h2.95a.6.6,0,0,1,.59.6V8.84Z"/>
</svg>
