<svg data-name="Capa 1" id="Capa_1" viewBox="0 0 20 20" xmlns="http://www.w3.org/2000/svg">
  <defs>
    <style>.cls-1 {
      fill: #eceff1;
    }</style>
  </defs>
  <title>1</title>
  <path class="cls-1"
        d="M6.77,15.79a.74.74,0,0,0-1,0,.78.78,0,0,0-.21.52.76.76,0,0,0,.21.52l.22.22H4.07a2.6,2.6,0,0,1-2.6-2.6V12.71a.74.74,0,1,0-1.47,0v1.74a4.07,4.07,0,0,0,4.07,4.07H5.94l-.22.22A.74.74,0,0,0,6.25,20a.75.75,0,0,0,.51-.21l1.49-1.48a.75.75,0,0,0,0-1Z"/>
  <path class="cls-1"
        d="M10.06.74A.74.74,0,0,0,9.32,0H.78A.74.74,0,0,0,0,.74V9.27A.74.74,0,0,0,.78,10H9.32a.74.74,0,0,0,.74-.73Zm-1.48.73V8.53H1.51V1.47Z"/>
  <path class="cls-1"
        d="M15.92,1.48H14.05l.22-.22a.74.74,0,0,0,.22-.52.71.71,0,0,0-.22-.52.73.73,0,0,0-1,0L11.75,1.69a.75.75,0,0,0,0,1l1.48,1.48a.73.73,0,0,0,.52.21.72.72,0,0,0,.52-.21h0a.75.75,0,0,0,0-1L14.06,3h1.87a2.6,2.6,0,0,1,2.6,2.6V7.29a.74.74,0,1,0,1.47,0V5.55A4.08,4.08,0,0,0,15.92,1.48Z"/>
  <path class="cls-1" d="M19.74,18.74a.75.75,0,1,0,.22.52.78.78,0,0,0-.22-.52Z"/>
  <circle class="cls-1" cx="17.09" cy="19.26" r="0.74"/>
  <circle class="cls-1" cx="12.81" cy="19.26" r="0.74"/>
  <circle class="cls-1" cx="14.95" cy="19.26" r="0.74"/>
  <path class="cls-1"
        d="M10.68,18.53a.78.78,0,0,0-.52.21.74.74,0,0,0,0,1.05.78.78,0,0,0,.52.21.76.76,0,0,0,.52-.21.74.74,0,0,0,0-1.05A.76.76,0,0,0,10.68,18.53Z"/>
  <circle class="cls-1" cx="10.68" cy="17.13" r="0.74"/>
  <circle class="cls-1" cx="10.68" cy="15" r="0.74"/>
  <circle class="cls-1" cx="10.68" cy="12.86" r="0.74"/>
  <path class="cls-1"
        d="M10.68,10a.73.73,0,0,0-.52.21.74.74,0,0,0-.22.52.71.71,0,0,0,.22.52.74.74,0,0,0,.52.22.73.73,0,0,0,.52-.22.71.71,0,0,0,.22-.52.74.74,0,0,0-.22-.52A.7.7,0,0,0,10.68,10Z"/>
  <circle class="cls-1" cx="17.09" cy="10.73" r="0.74"/>
  <circle class="cls-1" cx="14.95" cy="10.73" r="0.74"/>
  <circle class="cls-1" cx="12.81" cy="10.73" r="0.74"/>
  <path class="cls-1"
        d="M19.74,10.21a.75.75,0,0,0-1,0,.78.78,0,0,0-.21.52.73.73,0,0,0,.73.74.75.75,0,0,0,.53-.22.74.74,0,0,0,.21-.52.78.78,0,0,0-.21-.52Z"/>
  <circle class="cls-1" cx="19.22" cy="12.86" r="0.74"/>
  <circle class="cls-1" cx="19.22" cy="17.13" r="0.74"/>
  <circle class="cls-1" cx="19.22" cy="15" r="0.74"/>
</svg>
