<svg data-name="Capa 1" id="Capa_1" viewBox="0 0 20 20" xmlns="http://www.w3.org/2000/svg">
  <defs>
    <style>.cls-1 {
      fill: #566787;
    }</style>
  </defs>
  <title>1</title>
  <path class="cls-1"
        d="M13.23,4.21a.74.74,0,0,0,1,0,.78.78,0,0,0,.21-.52.76.76,0,0,0-.21-.52L14.06,3h1.87a2.6,2.6,0,0,1,2.6,2.6V7.29a.74.74,0,1,0,1.47,0V5.55a4.07,4.07,0,0,0-4.07-4.07H14.06l.22-.22a.78.78,0,0,0,.21-.52.78.78,0,0,0-.21-.53A.78.78,0,0,0,13.75,0a.75.75,0,0,0-.51.21L11.75,1.69a.75.75,0,0,0,0,1Z"/>
  <path class="cls-1"
        d="M9.94,19.26a.74.74,0,0,0,.74.74h8.54a.74.74,0,0,0,.74-.74V10.73a.74.74,0,0,0-.74-.73H10.68a.74.74,0,0,0-.74.73Zm1.48-.73V11.47h7.07v7.06Z"/>
  <path class="cls-1"
        d="M4.08,18.52H6l-.22.22a.74.74,0,0,0-.22.52.71.71,0,0,0,.22.52.73.73,0,0,0,1,0l1.48-1.47a.75.75,0,0,0,0-1L6.77,15.79a.73.73,0,0,0-.52-.21.72.72,0,0,0-.52.21h0a.75.75,0,0,0,0,1l.22.22H4.07a2.6,2.6,0,0,1-2.6-2.6V12.71a.74.74,0,1,0-1.47,0v1.74A4.08,4.08,0,0,0,4.08,18.52Z"/>
  <path class="cls-1"
        d="M.26,1.26a.78.78,0,0,0,.52.21.78.78,0,0,0,.52-.21A.78.78,0,0,0,1.51.74.78.78,0,0,0,1.3.21.78.78,0,0,0,.78,0,.78.78,0,0,0,.25.21.78.78,0,0,0,0,.74a.78.78,0,0,0,.21.52Z"/>
  <circle class="cls-1" cx="2.91" cy="0.74" r="0.74"/>
  <circle class="cls-1" cx="7.19" cy="0.74" r="0.74"/>
  <circle class="cls-1" cx="5.05" cy="0.74" r="0.74"/>
  <path class="cls-1"
        d="M9.32,1.47a.78.78,0,0,0,.52-.21.74.74,0,0,0,.22-.52A.75.75,0,0,0,9.84.21.78.78,0,0,0,9.32,0,.76.76,0,0,0,8.8.21a.75.75,0,0,0-.22.53.74.74,0,0,0,.22.52A.76.76,0,0,0,9.32,1.47Z"/>
  <circle class="cls-1" cx="9.32" cy="2.87" r="0.74"/>
  <circle class="cls-1" cx="9.32" cy="5" r="0.74"/>
  <circle class="cls-1" cx="9.32" cy="7.14" r="0.74"/>
  <path class="cls-1"
        d="M9.32,10a.73.73,0,0,0,.52-.21.74.74,0,0,0,.22-.52.71.71,0,0,0-.22-.52.74.74,0,0,0-.52-.22.73.73,0,0,0-.52.22.71.71,0,0,0-.22.52.74.74,0,0,0,.22.52A.7.7,0,0,0,9.32,10Z"/>
  <circle class="cls-1" cx="2.91" cy="9.27" r="0.74"/>
  <circle class="cls-1" cx="5.05" cy="9.27" r="0.74"/>
  <circle class="cls-1" cx="7.19" cy="9.27" r="0.74"/>
  <path class="cls-1"
        d="M.26,9.79A.73.73,0,0,0,.78,10a.73.73,0,0,0,.52-.21.78.78,0,0,0,.21-.52.73.73,0,0,0-.73-.74.75.75,0,0,0-.53.22A.74.74,0,0,0,0,9.27a.78.78,0,0,0,.21.52Z"/>
  <circle class="cls-1" cx="0.78" cy="7.14" r="0.74"/>
  <circle class="cls-1" cx="0.78" cy="2.87" r="0.74"/>
  <circle class="cls-1" cx="0.78" cy="5" r="0.74"/>
</svg>
