<svg data-name="Layer 1" id="Layer_1" viewBox="0 0 20 20" xmlns="http://www.w3.org/2000/svg">
  <defs>
    <style>.cls-1 {
      fill: #edeff0;
    }</style>
  </defs>
  <title>left menu</title>
  <path class="cls-1" d="M18.5,1.5v17H1.5V1.5h17M20,0H0V20H20V0Z"/>
  <polygon class="cls-1" points="17 15.5 3 15.5 3 17 17 17 17 15.5 17 15.5"/>
  <polygon class="cls-1" points="17 12.5 3 12.5 3 14 17 14 17 12.5 17 12.5"/>
  <path class="cls-1" d="M6.85,11a5.47,5.47,0,0,1,6.3,0h2.21A7,7,0,0,0,4.64,11Z"/>
  <path class="cls-1" d="M10,4A1.5,1.5,0,1,1,8.5,5.5,1.5,1.5,0,0,1,10,4m0-1.5a3,3,0,1,0,3,3,3,3,0,0,0-3-3Z"/>
</svg>
