<?xml version="1.0" encoding="utf-8"?>
<!-- Generator: Adobe Illustrator 23.0.1, SVG Export Plug-In . SVG Version: 6.00 Build 0)  -->
<svg version="1.1" id="Capa_1" xmlns="http://www.w3.org/2000/svg" x="0px" y="0px"
     viewBox="0 0 374.1 374.1" style="enable-background:new 0 0 374.1 374.1;" xml:space="preserve">
<style type="text/css">
	.st0 {
    fill: #5F6370;
  }
</style>
  <g>
	<g>
		<g>
			<path class="st0" d="M188,72.6c-63.2,0-114.4,51.2-114.4,114.4S124.8,301.5,188,301.5S302.5,250.2,302.5,187S251.2,72.6,188,72.6
				z M188,280.6v-187c44.4-0.1,82.7,31.2,91.4,74.7c2.8,12.4,2.8,25.2,0,37.6C270.7,249.4,232.4,280.7,188,280.6z"/>
      <path class="st0" d="M280,95.1c1.9,2,4.6,3.1,7.3,3.1c2.8,0,5.4-1.2,7.3-3.1l25.6-25.6c4.6-3.5,5.6-10,2.1-14.6s-10-5.6-14.6-2.1
				c-0.8,0.6-1.5,1.3-2.1,2.1L280,80.5c-4,3.7-4.3,10-0.6,14C279.6,94.7,279.8,94.9,280,95.1z"/>
      <path class="st0" d="M94,279c-3.7-2.8-8.8-2.8-12.5,0l-25.6,25.6c-4,3.7-4.3,10-0.6,14c0.2,0.2,0.4,0.4,0.6,0.6
				c3.7,4,10,4.3,14,0.6c0.2-0.2,0.4-0.4,0.6-0.6l25.6-25.6C99.5,289,98.6,282.4,94,279z"/>
      <path class="st0" d="M320.2,304.6L294.6,279c-4.6-3.5-11.2-2.5-14.6,2.1c-2.8,3.7-2.8,8.8,0,12.5l25.6,25.6c3.7,4,10,4.3,14,0.6
				c0.2-0.2,0.4-0.4,0.6-0.6c4-3.7,4.3-10,0.6-14C320.6,305,320.4,304.8,320.2,304.6z"/>
      <path class="st0" d="M81.5,95.1c3.7,4,10,4.3,14,0.6c0.2-0.2,0.4-0.4,0.6-0.6c4-3.7,4.3-10,0.6-14c-0.2-0.2-0.4-0.4-0.6-0.6
				L70.5,54.9c-4.6-3.5-11.2-2.5-14.6,2.1c-2.8,3.7-2.8,8.8,0,12.5L81.5,95.1z"/>
      <path class="st0" d="M188,56.9c5.8,0,10.4-4.7,10.4-10.4v-36C198.5,4.7,193.8,0,188,0s-10.4,4.7-10.4,10.4v36
				C177.6,52.3,182.3,56.9,188,56.9z"/>
      <path class="st0" d="M188,317.1c-5.8,0-10.4,4.7-10.4,10.4v36c0,5.8,4.7,10.4,10.4,10.4s10.4-4.7,10.4-10.4v-36
				C198.5,321.8,193.8,317.1,188,317.1z"/>
      <path class="st0" d="M364.6,176.6h-36c-5.8,0-10.4,4.7-10.4,10.4s4.7,10.4,10.4,10.4h36c5.8,0,10.4-4.7,10.4-10.4
				S370.4,176.6,364.6,176.6z"/>
      <path class="st0" d="M57.9,187c0-5.8-4.7-10.4-10.4-10.4h-36C5.7,176.6,1,181.3,1,187s4.7,10.4,10.4,10.4h36
				C53.3,197.5,57.9,192.8,57.9,187z"/>
		</g>
	</g>
</g>
</svg>
