<?xml version="1.0" encoding="utf-8"?>
<!-- Generator: Adobe Illustrator 23.0.1, SVG Export Plug-In . SVG Version: 6.00 Build 0)  -->
<svg version="1.1" id="Layer_1" xmlns="http://www.w3.org/2000/svg" x="0px" y="0px"
     viewBox="0 0 512 512" style="enable-background:new 0 0 512 512;" xml:space="preserve">
<style type="text/css">
	.st0 {
    fill: #5F6370;
  }
</style>
  <path class="st0" d="M490.7,362.7h-85.3v-192c0-35.3-28.7-64-64-64h-192V21.3C149.3,9.5,139.8,0,128,0s-21.3,9.5-21.3,21.3v85.3
	H21.3C9.5,106.7,0,116.2,0,128s9.5,21.3,21.3,21.3h85.3v192c0,35.3,28.7,64,64,64h192v85.3c0,11.8,9.5,21.3,21.3,21.3
	s21.3-9.5,21.3-21.3v-85.3h85.3c11.8,0,21.3-9.5,21.3-21.3S502.5,362.7,490.7,362.7z M170.7,362.7c-11.8,0-21.3-9.6-21.3-21.3v-192
	h192c11.8,0,21.3,9.6,21.3,21.3v192H170.7z"/>
</svg>
