<?xml version="1.0" encoding="utf-8"?>
<!-- Generator: Adobe Illustrator 23.0.1, SVG Export Plug-In . SVG Version: 6.00 Build 0)  -->
<svg version="1.1" id="Capa_1" xmlns="http://www.w3.org/2000/svg" x="0px" y="0px"
     viewBox="0 0 482 482" style="enable-background:new 0 0 482 482;" xml:space="preserve">
<style type="text/css">
	.st0 {
    fill: #5F6370;
  }
</style>
  <g>
	<g id="rotate-right">
		<path class="st0" d="M331.5,114.8L216.8,0v79.1C117.3,91.8,38.3,175.9,38.3,280.5S117.3,469.2,216.8,482v-51
			c-71.4-12.8-127.5-74-127.5-150.5s56.1-137.7,127.5-150.4v99.4L331.5,114.8z M443.7,255c-5.1-35.7-17.9-68.9-40.8-99.4l-35.7,35.7
			c12.8,20.4,23,40.8,25.5,63.8H443.7z M267.8,431v51c35.7-5.1,68.9-17.9,99.5-40.8l-35.7-35.7C311.1,418.2,290.7,428.4,267.8,431z
			 M367.2,369.8l35.7,35.7c22.9-30.6,38.3-63.8,40.8-99.5h-51C390.1,329,380,349.4,367.2,369.8z"/>
	</g>
</g>
</svg>
