<svg data-name="Capa 1" id="Capa_1" viewBox="0 0 20 20" xmlns="http://www.w3.org/2000/svg"
     xmlns:xlink="http://www.w3.org/1999/xlink">
  <defs>
    <style>.cls-1 {
      fill: url(#linear-gradient);
    }

    .cls-2 {
      fill: url(#linear-gradient-2);
    }

    .cls-3 {
      fill: url(#linear-gradient-3);
    }</style>
    <linearGradient gradientUnits="userSpaceOnUse" id="linear-gradient" x1="0.1" x2="19.92" y1="10" y2="10">
      <stop offset="0" stop-color="#2a7ba7"/>
      <stop offset="1" stop-color="#2a327c"/>
    </linearGradient>
    <linearGradient gradientTransform="translate(13.19 -7.69) rotate(80.53)" id="linear-gradient-2" x1="0.1" x2="19.92" xlink:href="#linear-gradient"
                    y1="3.94" y2="3.94"/>
    <linearGradient gradientTransform="translate(10.72 -5.6) rotate(80.52)" id="linear-gradient-3" x1="0.1" x2="19.92" xlink:href="#linear-gradient"
                    y1="3.53" y2="3.53"/>
  </defs>
  <title>Монтажная область 1 копия</title>
  <path class="cls-1"
        d="M20,5a2.5,2.5,0,0,0-4.78-1l-2.13-.36-.21,1.23L15,5.22a2.5,2.5,0,0,0,1.54,2.09L16,11.9a2.49,2.49,0,0,0-2.2,2.47h0l-7.21,1.9A2.49,2.49,0,0,0,4.7,15L3.42,4.82A2.51,2.51,0,0,0,4.78,3.51l1.93.32L6.92,2.6,5,2.28A2.49,2.49,0,1,0,2.18,5L3.46,15.18A2.5,2.5,0,1,0,6.88,17.5h0l7.21-1.9a2.49,2.49,0,1,0,3.11-3.53l.61-4.59A2.49,2.49,0,0,0,20,5ZM2.5,3.75A1.25,1.25,0,1,1,3.75,2.5,1.25,1.25,0,0,1,2.5,3.75Zm1.87,15A1.25,1.25,0,1,1,5.63,17.5,1.25,1.25,0,0,1,4.38,18.75ZM17.5,14.37a1.25,1.25,0,1,1-1.25-1.25A1.25,1.25,0,0,1,17.5,14.37ZM16.25,5A1.25,1.25,0,1,1,17.5,6.25,1.25,1.25,0,0,1,16.25,5Z"/>
  <rect class="cls-2" height="1.25" transform="translate(5.41 14.27) rotate(-80.53)" width="1.25" x="10.51" y="3.32"/>
  <rect class="cls-3" height="1.25" transform="translate(3.75 11.49) rotate(-80.52)" width="1.25" x="8.04" y="2.9"/>
</svg>
