<?xml version="1.0" encoding="utf-8"?>
<!-- Generator: Adobe Illustrator 21.0.0, SVG Export Plug-In . SVG Version: 6.00 Build 0)  -->
<svg id="Слой_1" style="enable-background:new 0 0 50 50;" version="1.1" viewBox="0 0 50 50" x="0px"
     xml:space="preserve" xmlns="http://www.w3.org/2000/svg" y="0px">
<style type="text/css">
	.st0 {
    fill: #BEC4D0;
  }
</style>
  <g>
	<path class="st0" d="M44,6.4C44,6.4,44,6.4,44,6.4c-2.4,0-4.5,1.4-5.4,3.5l-0.1,0.3l-5.3-0.9l-0.4,2.4l5.4,0.9l0,0.3
		c0.2,2.2,1.6,4.1,3.7,5l0.3,0.1l-1.6,12.2l-0.3,0c-3,0.4-5.2,2.9-5.3,5.9l0,0.3l-0.3,0.1L16,41.4l-0.1-0.3c-0.9-1.6-2.6-2.7-4.4-3
		l-0.3,0L7.9,11.6l0.3-0.1c1.5-0.6,2.6-1.7,3.2-3.1l0.1-0.3l4.8,0.8l0.4-2.4l-4.8-0.8l0-0.3C11.6,2.3,9,0,6,0C5.8,0,5.6,0,5.4,0
		c-1.6,0.1-3,0.9-4,2.1C0.4,3.3-0.1,4.9,0,6.5c0.2,2.8,2.4,5,5.2,5.4l0.3,0l3.3,26.5l-0.3,0.1c-1.5,0.6-2.6,1.7-3.3,3.2
		c-0.6,1.5-0.7,3.1-0.1,4.6c0.6,1.5,1.7,2.6,3.2,3.3c1.5,0.6,3.1,0.7,4.6,0.1c2.3-0.9,3.8-3.1,3.8-5.6v-0.3l0.3-0.1l18.6-4.9
		l0.1,0.3c0.8,1.4,2,2.4,3.6,2.8c1.5,0.4,3.1,0.2,4.5-0.5c1.4-0.8,2.4-2,2.8-3.6c0.4-1.5,0.2-3.1-0.5-4.5c-0.7-1.2-1.7-2.1-3-2.6
		l-0.3-0.1l1.6-12.2l0.3,0c3-0.4,5.2-2.9,5.2-5.9C50,9,47.3,6.4,44,6.4z M2.4,6C2.4,4,4,2.4,6,2.4S9.5,4,9.5,6S7.9,9.5,6,9.5
		S2.4,7.9,2.4,6z M10.7,47.6c-2,0-3.6-1.6-3.6-3.6c0-2,1.6-3.6,3.6-3.6s3.6,1.6,3.6,3.6C14.3,46,12.7,47.6,10.7,47.6z M44.4,36.1
		c0,2-1.6,3.6-3.6,3.6c-2,0-3.6-1.6-3.6-3.6c0-2,1.6-3.6,3.6-3.6C42.8,32.5,44.4,34.1,44.4,36.1z M44,15.9c-2,0-3.6-1.6-3.6-3.6
		s1.6-3.6,3.6-3.6c2,0,3.6,1.6,3.6,3.6S46,15.9,44,15.9z"/>
    <rect class="st0" height="2.4" transform="matrix(0.1645 -0.9864 0.9864 0.1645 13.797 35.5308)" width="2.4" x="26.7"
          y="8.4"/>
    <rect class="st0" height="2.4" transform="matrix(0.1645 -0.9864 0.9864 0.1645 9.5927 28.4768)" width="2.4" x="20.4"
          y="7.4"/>
</g>
</svg>
