<svg data-name="Layer 1" id="Layer_1" viewBox="0 0 13 13" xmlns="http://www.w3.org/2000/svg"
     xmlns:xlink="http://www.w3.org/1999/xlink">
  <defs>
    <style>.cls-1 {
      fill: url(#linear-gradient);
    }

    .cls-2 {
      fill: url(#linear-gradient-2);
    }</style>
    <linearGradient gradientUnits="userSpaceOnUse" id="linear-gradient" x2="7.36" y1="6.5" y2="6.5">
      <stop offset="0" stop-color="#f56a92"/>
      <stop offset="1" stop-color="#cf1a4d"/>
    </linearGradient>
    <linearGradient id="linear-gradient-2" x1="7.08" x2="13" xlink:href="#linear-gradient" y1="7.77" y2="7.77"/>
  </defs>
  <title>1</title>
  <path class="cls-1"
        d="M5.55,1,3.75,3.81l-1,1.5H5.51L2.86,8.46l.48-1.15L3.91,6H1.44L3.93,1H5.55M6.93,0H3.46a.22.22,0,0,0-.19.12L0,6.62a.22.22,0,0,0,0,.21.22.22,0,0,0,.18.1H2.44L0,12.7A.22.22,0,0,0,.1,13l.06,0h0a.32.32,0,0,0,.13,0l0,0L7.31,4.69a.2.2,0,0,0,0-.23.21.21,0,0,0-.19-.13H4.58l2.53-4a.2.2,0,0,0,0-.22A.21.21,0,0,0,6.93,0Z"/>
  <path class="cls-2"
        d="M11.2,3.53l-1.26,2L9,7H11.1l-1,1.25.47-1.11h-2l1.81-3.62h.84m1.45-1H9.87a.18.18,0,0,0-.16.1L7.1,7.87a.15.15,0,0,0,0,.17.16.16,0,0,0,.14.08h1.8l-2,4.64a.17.17,0,0,0,.07.21l0,0h0a.16.16,0,0,0,.11,0l0,0L13,6.32a.18.18,0,0,0,0-.19.18.18,0,0,0-.16-.1H10.76l2-3.21a.17.17,0,0,0,0-.18.19.19,0,0,0-.16-.09Z"/>
</svg>
