<svg data-name="Layer 1" id="Layer_1" viewBox="0 0 13 13" xmlns="http://www.w3.org/2000/svg"
     xmlns:xlink="http://www.w3.org/1999/xlink">
  <defs>
    <style>.cls-1 {
      fill: url(#linear-gradient);
    }

    .cls-2 {
      fill: url(#linear-gradient-2);
    }</style>
    <linearGradient gradientUnits="userSpaceOnUse" id="linear-gradient" x1="0.47" x2="7.69" y1="6.5" y2="6.5">
      <stop offset="0" stop-color="#eac85f"/>
      <stop offset="1" stop-color="#d58844"/>
    </linearGradient>
    <linearGradient id="linear-gradient-2" x1="7.41" x2="12.53" xlink:href="#linear-gradient" y1="8.31" y2="8.31"/>
  </defs>
  <title>1</title>
  <path class="cls-1"
        d="M7.69,5.51a4.65,4.65,0,0,0-.22-1.46,4.6,4.6,0,0,0-.57-1.2,5.43,5.43,0,0,0-.9-1A9.13,9.13,0,0,0,4.92,1.1,12.7,12.7,0,0,0,3.69.46L2.66,0l.72.76h0a3.58,3.58,0,0,1,.47,1.59A1.32,1.32,0,0,1,3.7,3a2,2,0,0,1-.44.56c-.19.17-.41.35-.65.53s-.49.39-.73.6a5.62,5.62,0,0,0-.69.69,2.83,2.83,0,0,0-.52.92,3.14,3.14,0,0,0-.2,1.16A4.91,4.91,0,0,0,.68,8.9a4.46,4.46,0,0,0,.58,1.2,5.08,5.08,0,0,0,.9,1,7.74,7.74,0,0,0,1.08.78,11.63,11.63,0,0,0,1.23.64l1.12.5-.8-.79v0a3.54,3.54,0,0,1-.48-1.59A1.33,1.33,0,0,1,4.46,10a2,2,0,0,1,.44-.56,6.93,6.93,0,0,1,.64-.53,8.1,8.1,0,0,0,.74-.6A5.62,5.62,0,0,0,7,7.59a3,3,0,0,0,.52-.92A3.32,3.32,0,0,0,7.69,5.51Zm-1.32,0a2.25,2.25,0,0,1-.11.71,1.73,1.73,0,0,1-.3.52,4.66,4.66,0,0,1-.54.55c-.22.19-.45.37-.67.53s-.52.41-.74.62a3.25,3.25,0,0,0-.71.9,2.65,2.65,0,0,0-.27.74H3a4.44,4.44,0,0,1-.67-.72,3.36,3.36,0,0,1-.4-.85,3.52,3.52,0,0,1-.16-1.06,1.94,1.94,0,0,1,.12-.7,1.88,1.88,0,0,1,.29-.53,5.62,5.62,0,0,1,.55-.54c.22-.19.44-.38.66-.54s.52-.41.75-.61a3.45,3.45,0,0,0,.71-.91,2.84,2.84,0,0,0,.26-.74l0,0a3.92,3.92,0,0,1,.66.71,3.2,3.2,0,0,1,.41.85A3.62,3.62,0,0,1,6.37,5.51Z"/>
  <path class="cls-2"
        d="M12.38,6.58A3.13,3.13,0,0,0,12,5.74a3.33,3.33,0,0,0-.63-.68,6,6,0,0,0-.75-.55c-.25-.14-.54-.29-.86-.44l-1-.46.7.77a2.45,2.45,0,0,1,.32,1.06.82.82,0,0,1-.1.4,1.48,1.48,0,0,1-.29.37,5.67,5.67,0,0,1-.44.36c-.17.13-.34.26-.51.41a3.63,3.63,0,0,0-.48.48,2.12,2.12,0,0,0-.38.66A2.45,2.45,0,0,0,7.41,9a3.17,3.17,0,0,0,.16,1,3.27,3.27,0,0,0,.4.84,3.39,3.39,0,0,0,.64.68,5.54,5.54,0,0,0,.75.55c.24.14.53.29.85.44l1.13.51-.82-.81h0a2.45,2.45,0,0,1-.32-1.06.82.82,0,0,1,.1-.4,1.44,1.44,0,0,1,.28-.37c.14-.12.28-.24.45-.36s.34-.26.51-.41A4.41,4.41,0,0,0,12,9.09a2.16,2.16,0,0,0,.37-.65,2.23,2.23,0,0,0,.14-.83A3.47,3.47,0,0,0,12.38,6.58Zm-1.16,1a1.06,1.06,0,0,1-.06.37.71.71,0,0,1-.15.26,3.51,3.51,0,0,1-.33.34q-.23.2-.45.36a5.89,5.89,0,0,0-.53.44,2.59,2.59,0,0,0-.56.72l0,0,0-.07a1.66,1.66,0,0,1-.24-.5A2,2,0,0,1,8.73,9a1,1,0,0,1,.06-.37.89.89,0,0,1,.14-.26A2.73,2.73,0,0,1,9.27,8c.15-.13.29-.25.44-.36a6.4,6.4,0,0,0,.54-.44,2.59,2.59,0,0,0,.56-.72l0,0,.06.07a1.93,1.93,0,0,1,.23.5A2.06,2.06,0,0,1,11.22,7.61Z"/>
</svg>
