<svg data-name="Слой 1" id="Слой_1" viewBox="0 0 20 20" xmlns="http://www.w3.org/2000/svg"
     xmlns:xlink="http://www.w3.org/1999/xlink">
  <defs>
    <style>.cls-1 {
      fill: url(#linear-gradient);
    }

    .cls-2 {
      fill: url(#linear-gradient-2);
    }</style>
    <linearGradient gradientUnits="userSpaceOnUse" id="linear-gradient" x1="0.38" x2="19.63" y1="10" y2="10">
      <stop offset="0" stop-color="#2a7ba7"/>
      <stop offset="1" stop-color="#2a327c"/>
    </linearGradient>
    <linearGradient id="linear-gradient-2" x1="0.38" x2="19.63" xlink:href="#linear-gradient" y1="13.1" y2="13.1"/>
  </defs>
  <title>Монтажная область 8</title>
  <path class="cls-1"
        d="M7.33,3.06l.59.47A7,7,0,0,1,9.13,4.84a5.83,5.83,0,0,1,.75,1.56,6.37,6.37,0,0,1,.29,1.94,3.87,3.87,0,0,1-.23,1.35,3.35,3.35,0,0,1-.57,1,9,9,0,0,1-1,1c-.39.34-.78.65-1.17.94s-.87.68-1.25,1a5.52,5.52,0,0,0-1.14,1.46,4.11,4.11,0,0,0-.49,1.83l-.59-.47a6.92,6.92,0,0,1-1.22-1.31,5.8,5.8,0,0,1-.75-1.56,6.35,6.35,0,0,1-.29-1.94,3.89,3.89,0,0,1,.22-1.35,3.39,3.39,0,0,1,.57-1,9.08,9.08,0,0,1,1-1c.39-.34.78-.65,1.17-.94s.88-.69,1.25-1A5.51,5.51,0,0,0,6.83,4.88a4.11,4.11,0,0,0,.5-1.83M5,0H5a6.68,6.68,0,0,1,.86,2.92,2.61,2.61,0,0,1-.32,1.26,4,4,0,0,1-.83,1.06q-.51.47-1.14.94t-1.25,1A10.53,10.53,0,0,0,1.15,8.33,4.86,4.86,0,0,0,.32,9.79,5.36,5.36,0,0,0,0,11.67a7.81,7.81,0,0,0,.36,2.4,7.25,7.25,0,0,0,.94,2,8.37,8.37,0,0,0,1.48,1.59,13.77,13.77,0,0,0,1.8,1.3A21.05,21.05,0,0,0,6.67,20h0a6.48,6.48,0,0,1-.87-2.92,2.62,2.62,0,0,1,.32-1.26A4,4,0,0,1,7,14.77q.52-.47,1.14-.94t1.25-1a10.44,10.44,0,0,0,1.14-1.15,4.82,4.82,0,0,0,.83-1.46,5.34,5.34,0,0,0,.32-1.88,7.82,7.82,0,0,0-.36-2.4,7.29,7.29,0,0,0-.94-2,8.43,8.43,0,0,0-1.48-1.6,13.72,13.72,0,0,0-1.8-1.3A21,21,0,0,0,5,0Z"/>
  <path class="cls-2"
        d="M17.33,9.19a4.07,4.07,0,0,1,.54.62,3.56,3.56,0,0,1,.45,1A3.93,3.93,0,0,1,18.5,12a2.21,2.21,0,0,1-.13.77,1.85,1.85,0,0,1-.31.56,5.72,5.72,0,0,1-.62.62c-.26.23-.52.44-.78.63s-.62.49-.9.74a4.27,4.27,0,0,0-.89,1.13,3.37,3.37,0,0,0-.25.6,4,4,0,0,1-.54-.62,3.54,3.54,0,0,1-.45-.95,3.92,3.92,0,0,1-.17-1.19,2.19,2.19,0,0,1,.13-.77,1.88,1.88,0,0,1,.31-.56,5.8,5.8,0,0,1,.63-.63c.26-.22.52-.44.78-.63s.63-.49.9-.74a4.26,4.26,0,0,0,.89-1.13,3.37,3.37,0,0,0,.25-.61m-1.93-3h0a4.61,4.61,0,0,1,.59,2,1.8,1.8,0,0,1-.22.87,2.75,2.75,0,0,1-.57.73q-.35.32-.79.65t-.86.7a7.27,7.27,0,0,0-.79.79,3.35,3.35,0,0,0-.57,1A3.7,3.7,0,0,0,12,14.25a5.39,5.39,0,0,0,.25,1.65,5,5,0,0,0,.65,1.35,5.77,5.77,0,0,0,1,1.1,9.5,9.5,0,0,0,1.24.9,14.52,14.52,0,0,0,1.44.75h0a4.47,4.47,0,0,1-.6-2,1.8,1.8,0,0,1,.22-.87,2.76,2.76,0,0,1,.57-.73q.36-.32.79-.65t.86-.7a7.2,7.2,0,0,0,.79-.79,3.32,3.32,0,0,0,.57-1A3.68,3.68,0,0,0,20,12a5.4,5.4,0,0,0-.25-1.65A5,5,0,0,0,19.1,9a5.82,5.82,0,0,0-1-1.1A9.46,9.46,0,0,0,16.84,7a14.47,14.47,0,0,0-1.44-.75Z"/>
</svg>
