<svg data-name="Capa 1" id="Capa_1" viewBox="0 0 20 20" xmlns="http://www.w3.org/2000/svg"
     xmlns:xlink="http://www.w3.org/1999/xlink">
  <defs>
    <style>.cls-1 {
      fill: url(#linear-gradient);
    }

    .cls-2 {
      fill: url(#linear-gradient-2);
    }

    .cls-3 {
      fill: url(#linear-gradient-3);
    }

    .cls-4 {
      fill: url(#linear-gradient-4);
    }</style>
    <linearGradient gradientUnits="userSpaceOnUse" id="linear-gradient" x2="20" y1="14.67" y2="14.67">
      <stop offset="0" stop-color="#2a7ba7"/>
      <stop offset="1" stop-color="#2a327c"/>
    </linearGradient>
    <linearGradient id="linear-gradient-2" x1="8.75" x2="12.5" xlink:href="#linear-gradient" y1="2" y2="2"/>
    <linearGradient id="linear-gradient-3" x1="12.5" x2="16.25" xlink:href="#linear-gradient" y1="7.33" y2="7.33"/>
    <linearGradient id="linear-gradient-4" x1="8.75" x2="16.25" xlink:href="#linear-gradient" y1="4.67" y2="4.67"/>
  </defs>
  <title>1</title>
  <path class="cls-1"
        d="M19.61,10.78A1.86,1.86,0,0,0,18.35,10a1.79,1.79,0,0,0-1.37.41L12.52,14.1a2.33,2.33,0,0,1-1.52.57H9.93a4.83,4.83,0,0,0,1.32-3.34.65.65,0,0,0-.63-.66H3.75V10a.65.65,0,0,0-.63-.67H.62A.65.65,0,0,0,0,10v9.33A.65.65,0,0,0,.62,20h2.5a.65.65,0,0,0,.63-.67v-.66h8.32A3,3,0,0,0,14,18l5.29-4.39A2.05,2.05,0,0,0,20,12.24,2.07,2.07,0,0,0,19.61,10.78ZM2.5,18.67H1.25v-8H2.5Zm16.25-6.59a.76.76,0,0,1-.25.45l-5.28,4.38a1.83,1.83,0,0,1-1.15.42H3.75V12H9.94a3.2,3.2,0,0,1-3.07,2.67.67.67,0,0,0,0,1.33H11a3.57,3.57,0,0,0,2.3-.85l4.45-3.68a.56.56,0,0,1,.44-.13.62.62,0,0,1,.43.26A.71.71,0,0,1,18.75,12.08Z"/>
  <path class="cls-2"
        d="M10.62,0A1.94,1.94,0,0,0,8.75,2a1.94,1.94,0,0,0,1.87,2A1.94,1.94,0,0,0,12.5,2,1.94,1.94,0,0,0,10.62,0Zm0,2.67A.65.65,0,0,1,10,2a.63.63,0,1,1,1.25,0A.65.65,0,0,1,10.62,2.67Z"/>
  <path class="cls-3"
        d="M14.37,5.33a1.94,1.94,0,0,0-1.87,2,1.88,1.88,0,1,0,3.75,0A1.94,1.94,0,0,0,14.37,5.33Zm0,2.67A.67.67,0,1,1,15,7.33.65.65,0,0,1,14.37,8Z"/>
  <path class="cls-4"
        d="M16,.15a.62.62,0,0,0-.89.09l-6.25,8A.71.71,0,0,0,9,9.18a.62.62,0,0,0,.4.15.6.6,0,0,0,.48-.24l6.25-8A.69.69,0,0,0,16,.15Z"/>
</svg>
