<svg data-name="Слой 1" id="Слой_1" viewBox="0 0 20 20" xmlns="http://www.w3.org/2000/svg">
  <defs>
    <style>.cls-1 {
      fill: #6dcff6;
    }</style>
  </defs>
  <title>Монтажная область 1</title>
  <path class="cls-1"
        d="M2.93,9.38h0v4.9h0v.82h0V20H20V9.38H2.93Zm15.83,7-.51.53a.9.9,0,0,0-.19,0,1,1,0,0,0-1,1.06,1.11,1.11,0,0,0,0,.2l-.51.53H6.34l-.51-.53a1.06,1.06,0,0,0,0-.2,1,1,0,0,0-1-1.06,1,1,0,0,0-.19,0l-.51-.53V13l.51-.53a.84.84,0,0,0,.19,0,1,1,0,0,0,1-1.26l.51-.53H16.59l.51.53a1.07,1.07,0,0,0,0,.2,1,1,0,0,0,1,1.06.9.9,0,0,0,.19,0l.51.53Z"/>
  <ellipse class="cls-1" cx="16.51" cy="14.69" rx="1.01" ry="1.06"/>
  <ellipse class="cls-1" cx="11.46" cy="14.69" rx="3.05" ry="2.79"/>
  <ellipse class="cls-1" cx="6.42" cy="14.69" rx="1.01" ry="1.06"/>
  <ellipse class="cls-1" cx="14.34" cy="6.42" rx="1.01" ry="1.06"/>
  <path class="cls-1"
        d="M3.56,8.16l0-.1,9-5.18.69.21a1,1,0,0,0,.06.2,1,1,0,0,0,1.37.42.88.88,0,0,0,.15-.13l.69.21,1.57,3-.2.72a1,1,0,0,0-.19.06,1,1,0,0,0-.46.58h3l-2-3.86h0L15,0,10.89,2.35,4.08,6.28,0,8.63,1.76,12V9.38A1.2,1.2,0,0,1,2.93,8.16Z"/>
  <path class="cls-1" d="M8.64,6.53A3.4,3.4,0,0,0,7.2,8.16h5.61a2.53,2.53,0,0,0-.23-.72A2.79,2.79,0,0,0,8.64,6.53Z"/>
</svg>
