<svg data-name="Слой 1" id="Слой_1" viewBox="0 0 20 20" xmlns="http://www.w3.org/2000/svg">
  <defs>
    <style>.cls-1 {
      fill: #bfc5d1;
    }</style>
  </defs>
  <title>Монтажная область 1 копия 3</title>
  <path class="cls-1"
        d="M14.9,8.06l-1.29-1.3h0L12.45,5.61l-1-1h0l-.92.92-.92.92h0L6,10.08l-1.31,1.3L6.39,13.1l.44.44h0l.78.78,1.07,1.07,4.93-4.93h0l.81-.81,1-1ZM9.54,13.54h-.4a.53.53,0,0,0-.06-.09.56.56,0,0,0-.8,0,.51.51,0,0,0-.06.09h-.4L6.52,12.25v-.4l.09-.06a.57.57,0,0,0,0-.8l-.09-.06v-.4l4.07-4.07H11a.51.51,0,0,0,.06.09.57.57,0,0,0,.8,0,.62.62,0,0,0,.06-.09h.4l1.3,1.29v.4l-.09.06a.56.56,0,0,0,0,.8.46.46,0,0,0,.09.06v.4Z"/>
  <circle class="cls-1" cx="12.07" cy="8" r="0.57" transform="translate(-2.12 10.87) rotate(-45)"/>
  <ellipse class="cls-1" cx="10.06" cy="10" rx="1.71" ry="1.49" transform="translate(-4.12 10.04) rotate(-45)"/>
  <circle class="cls-1" cx="8.06" cy="12" r="0.57" transform="translate(-6.12 9.21) rotate(-44.97)"/>
  <path class="cls-1"
        d="M10,0A10,10,0,1,0,20,10,10,10,0,0,0,10,0Zm6.67,15.55-2.9-2.9-1.06,1.06,2.91,2.91A8.67,8.67,0,0,1,3.39,4.38L6.3,7.29,7.36,6.23,4.45,3.33A8.68,8.68,0,0,1,16.67,15.55Z"/>
</svg>
