<svg data-name="Capa 1" id="Capa_1" viewBox="0 0 13 13" xmlns="http://www.w3.org/2000/svg"
     xmlns:xlink="http://www.w3.org/1999/xlink">
  <defs>
    <style>.cls-1 {
      fill: url(#linear-gradient);
    }

    .cls-2 {
      fill: url(#linear-gradient-2);
    }

    .cls-3 {
      fill: url(#linear-gradient-3);
    }

    .cls-4 {
      fill: url(#linear-gradient-4);
    }

    .cls-5 {
      fill: url(#linear-gradient-5);
    }

    .cls-6 {
      fill: url(#linear-gradient-6);
    }

    .cls-7 {
      fill: url(#linear-gradient-7);
    }

    .cls-8 {
      fill: url(#linear-gradient-8);
    }

    .cls-9 {
      fill: url(#linear-gradient-9);
    }

    .cls-10 {
      fill: url(#linear-gradient-10);
    }</style>
    <linearGradient gradientUnits="userSpaceOnUse" id="linear-gradient" x2="13" y1="6.5" y2="6.5">
      <stop offset="0" stop-color="#576574"/>
      <stop offset="1" stop-color="#222f3e"/>
    </linearGradient>
    <linearGradient id="linear-gradient-2" x1="6.15" x2="6.88" xlink:href="#linear-gradient" y1="4.86" y2="4.86"/>
    <linearGradient id="linear-gradient-3" x1="3.2" x2="4.8" xlink:href="#linear-gradient" y1="3.64" y2="3.64"/>
    <linearGradient id="linear-gradient-4" x1="1.83" x2="4.27" xlink:href="#linear-gradient" y1="6.5" y2="6.5"/>
    <linearGradient id="linear-gradient-5" x1="2.19" x2="3.91" xlink:href="#linear-gradient" y1="4.82" y2="4.82"/>
    <linearGradient id="linear-gradient-6" x1="4.52" x2="5.72" xlink:href="#linear-gradient" y1="2.72" y2="2.72"/>
    <linearGradient id="linear-gradient-7" x1="8.2" x2="9.81" xlink:href="#linear-gradient" y1="3.73" y2="3.73"/>
    <linearGradient id="linear-gradient-8" x1="8.73" x2="11.17" xlink:href="#linear-gradient" y1="6.59" y2="6.59"/>
    <linearGradient id="linear-gradient-9" x1="9.09" x2="10.81" xlink:href="#linear-gradient" y1="4.92" y2="4.92"/>
    <linearGradient id="linear-gradient-10" x1="7.28" x2="8.48" xlink:href="#linear-gradient" y1="2.81" y2="2.81"/>
  </defs>
  <title>other_13px</title>
  <path class="cls-1"
        d="M6.5,0A6.5,6.5,0,1,0,13,6.5,6.51,6.51,0,0,0,6.5,0Zm0,11.79A5.29,5.29,0,1,1,11.79,6.5,5.29,5.29,0,0,1,6.5,11.79Z"/>
  <path class="cls-2"
        d="M6.51,1.45a.36.36,0,0,0-.36.36V7.9a.37.37,0,0,0,.36.37.38.38,0,0,0,.37-.37V1.81A.37.37,0,0,0,6.51,1.45Z"/>
  <path class="cls-3"
        d="M3.81,2.94a.36.36,0,0,0-.51.51l.88.88a.4.4,0,0,0,.26.11.38.38,0,0,0,.26-.11.36.36,0,0,0,0-.51Z"/>
  <path class="cls-4" d="M3.91,6.14H2.19a.36.36,0,1,0,0,.72H3.91a.36.36,0,0,0,0-.72Z"/>
  <path class="cls-5"
        d="M2.44,5l1,.32.11,0a.36.36,0,0,0,.34-.26.35.35,0,0,0-.23-.45l-1-.32a.36.36,0,0,0-.45.24A.35.35,0,0,0,2.44,5Z"/>
  <path class="cls-6"
        d="M5.21,2.08a.36.36,0,1,0-.65.33L5,3.36a.38.38,0,0,0,.33.2.47.47,0,0,0,.16,0A.36.36,0,0,0,5.68,3Z"/>
  <path class="cls-7"
        d="M9.7,3.54A.36.36,0,1,0,9.19,3l-.89.88a.36.36,0,0,0,0,.51.36.36,0,0,0,.26.11.34.34,0,0,0,.26-.11Z"/>
  <path class="cls-8" d="M10.81,6.23H9.09a.36.36,0,1,0,0,.72h1.72a.36.36,0,0,0,0-.72Z"/>
  <path class="cls-9"
        d="M9.11,5.18a.36.36,0,0,0,.34.26l.11,0,1-.32a.36.36,0,0,0,.24-.45.38.38,0,0,0-.46-.24l-1,.32A.35.35,0,0,0,9.11,5.18Z"/>
  <path class="cls-10"
        d="M8.28,2a.36.36,0,0,0-.49.16l-.47,1a.36.36,0,0,0,.16.49.32.32,0,0,0,.16,0A.38.38,0,0,0,8,3.45l.47-1A.36.36,0,0,0,8.28,2Z"/>
</svg>
