<svg data-name="Capa 1" id="Capa_1" viewBox="0 0 20 20" xmlns="http://www.w3.org/2000/svg">
  <defs>
    <style>.cls-1 {
      fill: #bfc5d1;
    }</style>
  </defs>
  <title>1</title>
  <path class="cls-1"
        d="M20,10A10,10,0,1,0,10,20,10,10,0,0,0,20,10ZM10,18.61A8.61,8.61,0,1,1,18.61,10,8.62,8.62,0,0,1,10,18.61Z"/>
  <path class="cls-1" d="M10,2a.56.56,0,0,0-.57.57v9.6a.57.57,0,1,0,1.14,0V2.61A.56.56,0,0,0,10,2Z"/>
  <path class="cls-1" d="M5.76,4.38A.57.57,0,0,0,5,5.19l1.4,1.39a.57.57,0,1,0,.8-.81Z"/>
  <path class="cls-1" d="M5.91,9.43H3.2a.57.57,0,1,0,0,1.14H5.91a.57.57,0,0,0,0-1.14Z"/>
  <path class="cls-1"
        d="M3.6,7.65l1.57.5a.47.47,0,0,0,.17,0,.57.57,0,0,0,.17-1.12l-1.57-.5a.58.58,0,0,0-.72.37A.57.57,0,0,0,3.6,7.65Z"/>
  <path class="cls-1" d="M8,3a.58.58,0,0,0-.77-.26.57.57,0,0,0-.25.77L7.69,5a.57.57,0,1,0,1-.51Z"/>
  <path class="cls-1"
        d="M15.05,5.33a.57.57,0,0,0-.81-.81l-1.39,1.4a.56.56,0,0,0,0,.81.55.55,0,0,0,.4.16.59.59,0,0,0,.41-.16Z"/>
  <path class="cls-1"
        d="M16.8,9.57H14.09a.57.57,0,0,0-.57.57.56.56,0,0,0,.57.57H16.8a.57.57,0,0,0,.58-.57A.58.58,0,0,0,16.8,9.57Z"/>
  <path class="cls-1"
        d="M14.12,7.92a.55.55,0,0,0,.54.4.57.57,0,0,0,.18,0l1.57-.5a.57.57,0,0,0,.37-.71.57.57,0,0,0-.72-.37l-1.57.5A.56.56,0,0,0,14.12,7.92Z"/>
  <path class="cls-1"
        d="M12.81,2.92a.58.58,0,0,0-.77.25l-.75,1.5a.58.58,0,0,0,.51.83.6.6,0,0,0,.52-.32l.75-1.5A.57.57,0,0,0,12.81,2.92Z"/>
</svg>
