<svg data-name="Слой 1" id="Слой_1" viewBox="0 0 20 20" xmlns="http://www.w3.org/2000/svg">
  <defs>
    <style>.cls-1 {
      fill: #bfc5d1;
    }</style>
  </defs>
  <title>Монтажная область 1</title>
  <path class="cls-1"
        d="M10,20A10,10,0,1,0,0,10,10,10,0,0,0,10,20M10,1.41A8.59,8.59,0,1,1,1.41,10,8.6,8.6,0,0,1,10,1.41"/>
  <path class="cls-1"
        d="M7.69,15a.69.69,0,0,0,.5.21.72.72,0,0,0,.5-.21l4.54-4.54a.71.71,0,0,0,0-1L8.69,4.91a.71.71,0,0,0-1,1l4,4-4,4a.71.71,0,0,0,0,1"/>
</svg>
