<svg data-name="Слой 1" id="Слой_1" viewBox="0 0 20 20" xmlns="http://www.w3.org/2000/svg"
     xmlns:xlink="http://www.w3.org/1999/xlink">
  <defs>
    <style>.cls-1 {
      fill: url(#linear-gradient);
    }

    .cls-2 {
      fill: url(#linear-gradient-2);
    }</style>
    <linearGradient gradientUnits="userSpaceOnUse" id="linear-gradient" x1="0.42" x2="18.38" y1="10" y2="10">
      <stop offset="0" stop-color="#27aae2"/>
      <stop offset="1" stop-color="#3a519e"/>
    </linearGradient>
    <linearGradient id="linear-gradient-2" x1="0.42" x2="18.38" xlink:href="#linear-gradient" y1="9.95" y2="9.95"/>
  </defs>
  <title>Монтажная область 1 копия</title>
  <path class="cls-1"
        d="M10,20A10,10,0,1,0,0,10,10,10,0,0,0,10,20M10,1.41A8.59,8.59,0,1,1,1.41,10,8.6,8.6,0,0,1,10,1.41"/>
  <path class="cls-2"
        d="M7.69,15a.69.69,0,0,0,.5.21.72.72,0,0,0,.5-.21l4.54-4.54a.71.71,0,0,0,0-1L8.69,4.91a.71.71,0,0,0-1,1l4,4-4,4a.71.71,0,0,0,0,1"/>
</svg>
