<svg data-name="Layer 1" id="Layer_1" viewBox="0 0 20 20" xmlns="http://www.w3.org/2000/svg">
  <defs>
    <style>.cls-1 {
      fill: #bfc5d1;
    }</style>
  </defs>
  <title>1</title>
  <path class="cls-1"
        d="M18.67,18.18v-.3A14.65,14.65,0,0,0,15.2,8.23,11.18,11.18,0,0,0,7.63,4.28V0H2.37V1.82H0V3.63H2.37v7.88H0v1.83H2.37v1.81H7.63V13.43a4.51,4.51,0,0,1,3.16,4.45v.3H9.45V20H20V18.18ZM6.05,13.34H4V1.82H6.05Zm11.06,4.84H12.37v-.3c0-3.17-2-5.85-4.74-6.3V6.15c5.34.48,9.46,5.61,9.48,11.79Z"/>
  <path class="cls-1" d="M10.18,9.14l-.46,1.09a5.25,5.25,0,0,1,2.83,2.86l1.1-.46A6.48,6.48,0,0,0,10.18,9.14Z"/>
</svg>
