<svg data-name="Capa 1" id="Capa_1" viewBox="0 0 20 20" xmlns="http://www.w3.org/2000/svg">
  <defs>
    <style>.cls-1 {
      fill: #bfc5d1;
    }</style>
  </defs>
  <title>Монтажная область 1</title>
  <path class="cls-1"
        d="M11.48,16.36h2.69a1.55,1.55,0,0,0,1.44-1.64V12.36a1.55,1.55,0,0,0-1.44-1.64H11.48A1.55,1.55,0,0,0,10,12.36v2.36A1.55,1.55,0,0,0,11.48,16.36Zm3-1.64a.28.28,0,0,1-.26.3H11.48a.28.28,0,0,1-.26-.3V12.36a.28.28,0,0,1,.26-.3h2.69a.28.28,0,0,1,.26.3Z"/>
  <path class="cls-1"
        d="M19.92,6.21,17,.29a.59.59,0,0,0-.51-.34H3.53A.57.57,0,0,0,3,.29L.08,6.21A.74.74,0,0,0,0,6.54a3.43,3.43,0,0,0,1.7,3v9.69a.63.63,0,0,0,.59.67H17.71a.63.63,0,0,0,.59-.67V9.6A3.44,3.44,0,0,0,20,6.54.73.73,0,0,0,19.92,6.21ZM16.12,1.3l2.19,4.4H1.69L3.87,1.3ZM15.35,7h3.43a1.83,1.83,0,0,1-1.72,1.53A1.82,1.82,0,0,1,15.35,7ZM7.56,10.72H6.15a1.91,1.91,0,0,0-1.76,2v5.88H2.87V9.91h.07A2.83,2.83,0,0,0,5.3,8.56,2.84,2.84,0,0,0,7.65,9.91,2.84,2.84,0,0,0,10,8.56a2.83,2.83,0,0,0,2.35,1.35A2.82,2.82,0,0,0,14.7,8.56a2.84,2.84,0,0,0,2.35,1.35h.06v8.7H9.33V12.73A1.91,1.91,0,0,0,7.56,10.72Zm.08-2.16A1.83,1.83,0,0,1,5.93,7H9.36A1.82,1.82,0,0,1,7.65,8.56Zm4.7,0A1.82,1.82,0,0,1,10.64,7h3.42A1.82,1.82,0,0,1,12.35,8.56Zm-9.41,0h0A1.81,1.81,0,0,1,1.23,7H4.66A1.82,1.82,0,0,1,2.94,8.56Zm2.63,4.17a.64.64,0,0,1,.59-.68H7.57a.64.64,0,0,1,.59.68v5.88H5.57Z"/>
</svg>
