<svg data-name="Layer 1" id="Layer_1" viewBox="0 0 512 512" xmlns="http://www.w3.org/2000/svg">
  <defs>
    <style>.cls-1 {
      fill: #223f8a;
    }</style>
  </defs>
  <title>9-01</title>
  <path class="cls-1"
        d="M447.93,103.63a12,12,0,0,0-3.48-8.35L352.68,3.51h0A12,12,0,0,0,344.21,0H89.28A25.27,25.27,0,0,0,64,25.24V486.76A25.27,25.27,0,0,0,89.28,512H422.72A25.27,25.27,0,0,0,448,486.76v-383A.54.54,0,0,0,447.93,103.63Zm-91.74-62.7L407,91.76H357.46a1.25,1.25,0,0,1-1.27-1.25h0ZM424,486.76a1.25,1.25,0,0,1-1.24,1.26H89.28A1.25,1.25,0,0,1,88,486.8V25.24A1.25,1.25,0,0,1,89.26,24h243V90.5a25.28,25.28,0,0,0,25.24,25.24H424v371Z"/>
  <path class="cls-1" d="M362.09,164H149.91a12,12,0,1,0,0,24H362.09a12,12,0,0,0,0-24Z"/>
  <path class="cls-1" d="M362.09,236.35H149.91a12,12,0,1,0,0,24H362.09a12,12,0,0,0,0-24Z"/>
  <path class="cls-1" d="M362.09,308.69H149.91a12,12,0,0,0,0,24H362.09a12,12,0,0,0,0-24Z"/>
  <path class="cls-1" d="M256,381H149.91a12,12,0,1,0,0,24H256a12,12,0,0,0,0-24Z"/>
</svg>
