<svg data-name="Layer 1" id="Layer_1" viewBox="0 0 13 13" xmlns="http://www.w3.org/2000/svg">
  <defs>
    <style>.cls-1 {
      fill: url(#linear-gradient);
    }</style>
    <linearGradient gradientUnits="userSpaceOnUse" id="linear-gradient" x1="0.94" x2="12.06" y1="6.5" y2="6.5">
      <stop offset="0" stop-color="#2a7ba7"/>
      <stop offset="1" stop-color="#2a327c"/>
    </linearGradient>
  </defs>
  <title>1</title>
  <path class="cls-1"
        d="M10.81,4.21l0,0-.27-.26-.26-.25L6.5,0,2.71,3.67l-.26.25-.28.28h0A5.29,5.29,0,0,0,.94,7.61,5.48,5.48,0,0,0,6.5,13a5.48,5.48,0,0,0,5.56-5.39A5.27,5.27,0,0,0,10.81,4.21Zm-.16,3.4a4.09,4.09,0,0,1-4.15,4,4.09,4.09,0,0,1-4.15-4A4,4,0,0,1,3.39,5l.08-.08a2.54,2.54,0,0,1,.23-.22L6.5,1.94,9.33,4.68l.23.22L9.62,5A3.94,3.94,0,0,1,10.65,7.61Z"/>
</svg>
