<svg data-name="Layer 1" id="Layer_1" viewBox="0 0 12 12" xmlns="http://www.w3.org/2000/svg">
  <defs>
    <style>.cls-1 {
      fill: #bfc5d1;
    }</style>
  </defs>
  <title>1</title>
  <path class="cls-1"
        d="M6,2.77a1.89,1.89,0,0,0,.74.36,2.88,2.88,0,0,1,.79.33,2.07,2.07,0,0,0,.77.26,2.12,2.12,0,0,0,.27.79,2.83,2.83,0,0,1,.31.74A2,2,0,0,0,9.22,6a1.92,1.92,0,0,0-.36.73,3.06,3.06,0,0,1-.32.77,2,2,0,0,0-.26.78,1.91,1.91,0,0,0-.79.27,3,3,0,0,1-.74.31A2.09,2.09,0,0,0,6,9.22a2.21,2.21,0,0,0-.74-.36,2.9,2.9,0,0,1-.76-.31,2.11,2.11,0,0,0-.77-.25,2,2,0,0,0-.27-.78,2.84,2.84,0,0,1-.32-.78A2,2,0,0,0,2.77,6a1.83,1.83,0,0,0,.36-.74,3.19,3.19,0,0,1,.31-.76,2.06,2.06,0,0,0,.27-.79,1.92,1.92,0,0,0,.78-.27,2.91,2.91,0,0,1,.77-.32A1.9,1.9,0,0,0,6,2.77M6.57,0H5.38a.07.07,0,0,0-.07.06L5.1,1.26a.38.38,0,0,1-.27.3,4.41,4.41,0,0,0-1.18.5.49.49,0,0,1-.2,0A.34.34,0,0,1,3.23,2l-1-.69a.05.05,0,0,0,0,0l0,0-.84.84a.06.06,0,0,0,0,.09l.7,1a.36.36,0,0,1,0,.41,4.25,4.25,0,0,0-.48,1.19.37.37,0,0,1-.31.28l-1.18.2S0,5.4,0,5.43V6.62a.07.07,0,0,0,.06.07l1.2.21a.37.37,0,0,1,.3.28,4.71,4.71,0,0,0,.5,1.18.4.4,0,0,1,0,.42l-.69,1a.08.08,0,0,0,0,.1l.84.84a.06.06,0,0,0,0,0h0l1-.71a.36.36,0,0,1,.22-.07.41.41,0,0,1,.19.05,5.08,5.08,0,0,0,1.16.48.38.38,0,0,1,.28.3l.2,1.19A.07.07,0,0,0,5.4,12H6.59a.07.07,0,0,0,.07-.06l.2-1.19a.39.39,0,0,1,.28-.3A4.59,4.59,0,0,0,8.33,10a.33.33,0,0,1,.19-.06.41.41,0,0,1,.22.07l1,.7h0a.07.07,0,0,0,.06,0l.84-.84a.09.09,0,0,0,0-.1l-.7-1a.38.38,0,0,1,0-.41,4.27,4.27,0,0,0,.49-1.19.4.4,0,0,1,.31-.28l1.19-.19A.09.09,0,0,0,12,6.59h0V5.4a.09.09,0,0,0-.06-.07l-1.19-.2a.36.36,0,0,1-.3-.28A4.68,4.68,0,0,0,10,3.67a.4.4,0,0,1,0-.42l.7-1a.06.06,0,0,0,0-.09l-.84-.84-.05,0,0,0-1,.7a.44.44,0,0,1-.22.07A.33.33,0,0,1,8.34,2a4.46,4.46,0,0,0-1.22-.49.4.4,0,0,1-.28-.31L6.64.06A.07.07,0,0,0,6.57,0Z"/>
</svg>
