<?xml version="1.0" encoding="utf-8"?>
<!-- Generator: Adobe Illustrator 20.1.0, SVG Export Plug-In . SVG Version: 6.00 Build 0)  -->
<svg id="Layer_1" style="enable-background:new 0 0 8 8;" version="1.1" viewBox="0 0 8 8" x="0px"
     xml:space="preserve" xmlns="http://www.w3.org/2000/svg" y="0px">
<style type="text/css">
	.st0 {
    fill: #7D8998;
  }
</style>
  <path class="st0" d="M0.7,8C0.3,8,0,7.7,0,7.3C0,7.1,0.1,7,0.2,6.8l6.6-6.6c0.3-0.3,0.7-0.3,1,0s0.3,0.7,0,1L1.2,7.8
	C1,7.9,0.9,8,0.7,8z"/>
  <path class="st0" d="M7.3,8C7.1,8,6.9,7.9,6.8,7.8L0.2,1.2c-0.3-0.3-0.3-0.7,0-1s0.7-0.3,1,0l0,0l6.6,6.6c0.3,0.3,0.3,0.7,0,1
	C7.7,7.9,7.5,8,7.3,8z"/>
</svg>
